<svg width="45" height="20" viewBox="0 0 45 20" fill="none" xmlns="http://www.w3.org/2000/svg">
<g clip-path="url(#clip0_1538_4020)">
<path d="M0 0.143799H8.47976C12.7592 0.143799 15.1367 2.43489 15.1367 5.72211C15.1367 7.13884 14.4461 8.74367 12.6234 9.57381V9.6845C14.4461 10.3375 15.4537 12.3962 15.4537 13.99C15.4537 17.5317 12.5554 19.845 9.17034 19.845H0V0.143799ZM7.86839 7.98001C9.72507 7.98001 10.4157 6.99494 10.4157 5.91025C10.4157 4.83666 9.72507 4.03976 7.86839 4.03976H4.46063V7.96894H7.86839V7.98001ZM8.242 15.9269C10.1213 15.9269 10.8799 14.9086 10.8799 13.7797C10.8799 12.6728 10.1326 11.5771 8.242 11.5771H4.46063V15.9379H8.242V15.9269Z" fill="#FF3300"/>
<path d="M16.7783 0.143799H21.239V19.8339H16.7783V0.143799Z" fill="#FF3300"/>
<path d="M22.858 7.6702C22.858 3.59712 25.4054 0 30.6472 0C34.4625 0 37.157 2.00332 38.1419 5.00278L33.919 6.47483C33.602 5.11346 32.4473 4.07305 30.6245 4.07305C28.3942 4.07305 27.3526 5.6558 27.3526 7.27171V12.6176C27.3526 14.311 28.3942 15.9601 30.6472 15.9601C32.5605 15.9601 34.1228 14.4328 34.1228 12.6508V12.5069H30.0019V8.88766H38.5042V12.8168C38.5042 16.9452 34.9719 20 30.6359 20C25.394 20 22.8467 16.8013 22.8467 12.3077V7.6702H22.858Z" fill="#FF3300"/>
<path d="M42.3083 19.834C43.7276 19.834 44.8782 18.7091 44.8782 17.3215C44.8782 15.934 43.7276 14.8091 42.3083 14.8091C40.8889 14.8091 39.7383 15.934 39.7383 17.3215C39.7383 18.7091 40.8889 19.834 42.3083 19.834Z" fill="#FF3300"/>
</g>
<defs>
<clipPath id="clip0_1538_4020">
<rect width="44.878" height="20" fill="white"/>
</clipPath>
</defs>
</svg>
