<svg width="85" height="21" viewBox="0 0 85 21" fill="none" xmlns="http://www.w3.org/2000/svg">
<path d="M22.7171 3.10938H30.4344L31.7388 3.21807L32.8257 3.43546L33.8584 3.8159L34.5105 4.19633L35.1627 4.73981L35.5975 5.33764L35.8692 5.93546L36.0323 6.53329L36.0866 6.91372V7.83764L35.9236 8.65285L35.7062 9.25068L35.2171 9.9572L34.6736 10.4463L34.0214 10.8268L33.4236 11.0442L33.5866 11.1529L34.4018 11.4789L35.1627 11.9681L35.5975 12.3485L36.0323 12.9463L36.304 13.4898L36.5214 14.305V15.7724L36.304 16.6963L35.9779 17.4572L35.4344 18.2181L34.9997 18.6529L34.2931 19.142L33.4236 19.5768L32.3366 19.9029L31.4127 20.0659L30.8149 20.1202H22.6084L22.4997 20.0115L22.4453 19.305V10.9355L22.4997 3.21807L22.7171 3.10938ZM26.1953 5.98981L26.141 6.42459V9.90285L26.1953 10.0659H30.7062L31.304 9.84851L31.6301 9.63111L32.0105 9.19633L32.1736 8.76155L32.2279 8.48981V7.62024L32.0105 6.91372L31.6844 6.42459L31.1953 6.09851L30.8149 5.98981H26.1953ZM26.1953 12.5659L26.141 13.4898V17.4029H30.8149L31.4671 17.1855L32.0649 16.805L32.391 16.3702L32.6084 15.8268L32.6627 15.6094V14.5224L32.4997 13.8702L32.1192 13.2181L31.6301 12.8376L31.141 12.6202L30.8692 12.5659H26.1953Z" fill="#010101"/>
<path d="M12.4457 2.7832H14.4022L15.5435 2.94625L16.7391 3.27233L17.5 3.59842L18.2609 4.0332L19.0217 4.63103L19.6739 5.2832L20.2174 6.04407L20.7609 7.07668L21.0326 7.7832L21.1957 8.38103L21.1413 8.65277H17.4457L17.2283 8.21799L16.9022 7.45712L16.5217 6.91364L16.3043 6.6419L15.7065 6.20712L14.837 5.82668L13.9674 5.66364H12.8804L12.2283 5.77233L11.4674 6.04407L10.7065 6.5332L10.2174 7.02233L9.72826 7.7832L9.40217 8.48973L9.13043 9.41364L8.96739 10.4462L8.91304 11.0441V12.2941L9.07609 13.5984L9.34783 14.631L9.67391 15.3919L10.0543 15.9897L10.6522 16.6419L11.1957 17.0223L11.9022 17.3484L12.7717 17.5658L13.6957 17.6202L14.7826 17.4571L15.6522 17.131L16.1957 16.7506L16.6848 16.2615L17.1196 15.5549L17.3913 14.6854L17.5 14.0332V13.6528L13.1522 13.5984L13.0978 13.3267V11.1528L13.1522 10.9354L13.2609 10.881H21.4674L21.5217 10.9354V12.6202L21.3587 13.9789L21.1413 14.9571L20.8696 15.881L20.3804 16.968L19.837 17.7832L19.4022 18.3267L18.9674 18.7615L18.1522 19.3593L17.2826 19.7941L16.413 20.1202L15.163 20.3919L13.8043 20.5006H13.1522L11.9022 20.3919L10.7065 20.1202L9.61957 19.6854L8.80435 19.2506L8.20652 18.8158L7.44565 18.1636L6.90217 17.5658L6.41304 16.8593L5.92391 15.9897L5.48913 14.9028L5.16304 13.5441L5.05435 12.7832L5 12.0223V11.2615L5.1087 10.0115L5.38043 8.70712L5.70652 7.72886L6.25 6.58755L6.84783 5.71799L7.3913 5.12016L7.66304 4.84842L8.20652 4.35929L9.02174 3.81581L10.0543 3.32668L11.087 3.00059L11.9565 2.83755L12.4457 2.7832Z" fill="#010000"/>
<path d="M67.608 3.10938H77.9341L78.0971 3.21807V4.90285L78.0428 4.9572L69.7819 5.01155L69.7276 9.14198L69.6732 10.1202H77.4993L77.5537 10.2289V11.8594L77.3906 11.9681H69.6732L69.7276 13.2181L69.7819 18.1637L78.2602 18.2181L78.3145 18.2724V20.0115L78.2058 20.0659H67.4993L67.3906 19.9029L67.445 14.7942V8.00068L67.3906 3.38111L67.445 3.16372L67.608 3.10938Z" fill="#010000"/>
<path d="M52.0647 3.10938H54.1299L54.3473 3.27242L57.8256 13.7072L58.5864 16.0442L59.1843 17.8376V18.0007H59.293L59.456 17.3485L60.2169 15.0659L60.9778 12.7289L62.6625 7.62024L63.4234 5.28329L64.1299 3.21807L64.2386 3.10938H66.1408L66.3582 3.16372L66.3038 3.59851L65.4886 5.93546L64.456 8.92459L63.6408 11.2615L62.6625 14.0876L61.8473 16.4246L60.8691 19.2507L60.5973 19.9572L60.4886 20.0659H57.7169L57.5538 19.7942L56.5212 16.8594L54.8908 12.1855L54.0756 9.90285L53.5321 8.32677L52.6082 5.66372L51.8473 3.48981L51.793 3.16372L52.0647 3.10938Z" fill="#020101"/>
<path d="M37.663 3.10938H39.5652L39.7826 3.16372V18.2181H47.4457L47.5 18.2724V20.0115L47.4457 20.0659H37.6087L37.5 20.0115V3.21807L37.663 3.10938Z" fill="#010101"/>
<path d="M0.216797 7.56445H3.9668L4.02114 7.6188V20.0645L3.9668 20.1188H0.216797V7.56445Z" fill="black"/>
<path d="M48.5856 3.10938H50.7052L50.8139 3.21807V17.6202L50.7595 17.6746H48.5312V3.16372L48.5856 3.10938Z" fill="#FF4C1C"/>
<path d="M81.4659 0.5H82.7159L83.3137 0.717391L83.8572 1.04348L84.2376 1.36957L84.618 1.91304L84.8898 2.51087L84.9985 3.05435V3.70652L84.8898 4.25L84.6724 4.79348L84.2919 5.33696L83.9115 5.71739L83.2593 6.09783L82.4985 6.31522H81.6289L81.0311 6.15217L80.3789 5.82609L79.8354 5.33696L79.455 4.79348L79.1833 4.08696L79.1289 3.81522V3L79.2919 2.34783L79.5637 1.80435L79.9985 1.26087L80.5963 0.826087L81.1941 0.554348L81.4659 0.5Z" fill="#FF4C1C"/>
<path d="M0.271145 3.10938H3.9668L4.02114 3.16372V6.26155L3.9668 6.3159H0.216797V3.16372L0.271145 3.10938Z" fill="black"/>
<path d="M81.7386 1.5332H82.1191L82.6082 1.69625L82.8799 2.02233L82.9343 2.13103V2.62016L82.6625 3.05494L82.3908 3.38103L82.8256 3.81581L82.9343 3.87016L82.9886 3.48972L83.0973 3.16364H83.7495L83.6951 3.70712L83.4778 4.30494V4.52233L83.9125 4.95712L84.0212 5.01146V5.12016L83.2604 5.17451L82.9886 5.06581L82.7712 5.01146L82.2821 5.22886H81.4669L80.9778 5.06581L80.5973 4.63103L80.543 4.52233V3.81581L80.7604 3.48972L81.0321 3.21799H81.1408L80.8691 2.67451V2.23972L81.0321 1.91364L81.3582 1.6419L81.7386 1.5332Z" fill="#010000"/>
<path d="M48.5312 18.1621H50.7595L50.8139 18.2708V20.0099L50.7595 20.0643H48.5312V18.1621Z" fill="#FF4C1C"/>
<path d="M81.5761 3.65234L81.7935 3.76104L82.1739 4.14147L82.3913 4.41321L82.337 4.57626L82.1196 4.6306H81.6304L81.3043 4.35887L81.25 4.08713L81.413 3.76104L81.5761 3.65234Z" fill="#FF4C1C"/>
<path d="M81.7932 2.13086L82.1193 2.18521L82.228 2.2939L82.1737 2.67434L81.9563 2.89173L81.7389 2.83738L81.5215 2.51129L81.6302 2.23956L81.7932 2.13086Z" fill="#FF4C1C"/>
</svg>
