<svg width="144" height="20" viewBox="0 0 144 20" fill="none" xmlns="http://www.w3.org/2000/svg">
<path fill-rule="evenodd" clip-rule="evenodd" d="M60.8234 0.381697V3.88307H53.0066V8.46121H58.9935V11.827H53.0066V16.4996H60.8234V20.0002H48.5625V0.381697H60.8234ZM61.9093 0.211883H65.4335C65.8135 0.211883 66.1204 0.30174 66.3534 0.480692C66.5864 0.659645 66.7639 0.890379 66.8842 1.16985L70.5386 11.4181C70.7107 11.8644 70.8798 12.351 71.0435 12.8764C71.2072 13.4011 71.3633 13.9524 71.5103 14.5304C71.6314 13.9524 71.7669 13.4011 71.9185 12.8764C72.0692 12.351 72.2307 11.8644 72.4043 11.4181L76.0321 1.16985C76.1265 0.92617 76.2979 0.704573 76.5438 0.507345C76.7898 0.310116 77.0944 0.211883 77.4576 0.211883H81.0077L73.4407 19.3529H69.4756L61.9093 0.211883ZM94.1322 0.211883V3.62721H86.3839V8.09417H92.3183V11.3785H86.3839V15.9369H94.1322V19.3529H81.9786V0.211883H94.1322ZM98.5763 0.237774C98.7058 0.255288 98.823 0.288033 98.9266 0.336769C99.0302 0.383982 99.1292 0.452517 99.2243 0.539328C99.3195 0.6269 99.4277 0.744933 99.5487 0.894187L108.515 12.3898C108.48 12.0212 108.454 11.6648 108.437 11.3191C108.42 10.9932 108.412 10.6669 108.411 10.3406V0.211883H112.272V19.3522H109.992C109.655 19.3522 109.372 19.2974 109.143 19.1885C108.914 19.0788 108.687 18.8884 108.463 18.6173L99.5609 7.21387C99.5876 7.54665 99.6089 7.87333 99.6264 8.1924C99.6432 8.51223 99.6523 8.8115 99.6523 9.09249V19.3522H95.7915V0.211883H98.0973C98.2877 0.211883 98.4468 0.221021 98.5763 0.237774ZM129.492 0.211883V3.73154H124.179V19.3529H119.8V3.73154H114.488V0.211883H129.492ZM142.137 4.1001C142.008 4.31028 141.871 4.46867 141.729 4.57223C141.587 4.67808 141.403 4.73062 141.178 4.73062C140.98 4.73062 140.766 4.66666 140.536 4.54025C140.308 4.41384 140.049 4.27068 139.76 4.11381C139.442 3.94371 139.11 3.80105 138.768 3.68737C138.397 3.55944 137.973 3.49623 137.498 3.49623C136.678 3.49623 136.066 3.6729 135.665 4.02776C135.263 4.38262 135.063 4.86236 135.063 5.46623C135.063 5.85155 135.183 6.17214 135.425 6.42572C135.667 6.6793 135.985 6.89785 136.377 7.0829C136.771 7.26642 137.22 7.43471 137.725 7.58777C138.231 7.74083 138.747 7.91217 139.273 8.10026C139.8 8.28835 140.316 8.50995 140.822 8.76429C141.321 9.01329 141.776 9.34171 142.17 9.73672C142.576 10.1509 142.899 10.6389 143.122 11.1744C143.364 11.7402 143.484 12.4202 143.484 13.2168C143.491 14.0659 143.337 14.9087 143.031 15.7008C142.738 16.457 142.29 17.1436 141.716 17.7165C141.141 18.2899 140.433 18.7422 139.591 19.0704C138.748 19.3986 137.792 19.5631 136.721 19.5631C136.134 19.5631 135.536 19.5022 134.927 19.3788C134.317 19.257 133.728 19.0826 133.158 18.8603C132.6 18.6426 132.062 18.3766 131.551 18.0653C131.075 17.778 130.635 17.4338 130.243 17.0403L131.539 14.9652C131.642 14.8159 131.778 14.691 131.947 14.5898C132.114 14.4892 132.299 14.439 132.497 14.439C132.756 14.439 133.017 14.5228 133.282 14.6895C133.544 14.8548 133.842 15.039 134.175 15.2408C134.508 15.4426 134.89 15.6262 135.322 15.7929C135.753 15.9582 136.263 16.0419 136.851 16.0419C137.645 16.0419 138.263 15.8645 138.704 15.5104C139.144 15.1548 139.365 14.5928 139.365 13.8214C139.365 13.3744 139.243 13.0119 139.001 12.7309C138.76 12.4507 138.442 12.2185 138.049 12.0349C137.616 11.8363 137.168 11.6735 136.708 11.5483C136.191 11.4041 135.677 11.2487 135.166 11.0823C134.639 10.9117 134.125 10.7015 133.624 10.4518C133.124 10.2027 132.671 9.86968 132.283 9.46715C131.89 9.05975 131.573 8.55183 131.331 7.94339C131.089 7.33419 130.968 6.58259 130.968 5.69011C130.968 4.97126 131.111 4.27068 131.395 3.58837C131.684 2.89952 132.112 2.2778 132.652 1.7623C133.206 1.22696 133.883 0.800522 134.687 0.480692C135.49 0.160862 136.41 0.00170898 137.446 0.00170898C138.025 0.00170898 138.589 0.047399 139.137 0.138779C139.686 0.23092 140.207 0.367229 140.699 0.546943C141.191 0.726657 141.651 0.9414 142.079 1.19041C142.492 1.4286 142.876 1.71293 143.225 2.03796L142.136 4.1001H142.137Z" fill="#E7792D"/>
<path fill-rule="evenodd" clip-rule="evenodd" d="M11.8939 4.09915C11.7644 4.30933 11.6281 4.46772 11.4857 4.57128C11.3433 4.67713 11.1598 4.72968 10.9351 4.72968C10.7364 4.72968 10.5224 4.66571 10.2932 4.5393C10.0647 4.41289 9.80584 4.26973 9.51647 4.11286C9.19871 3.94277 8.86701 3.8001 8.52499 3.68642C8.15338 3.55849 7.72999 3.49528 7.25481 3.49528C6.43467 3.49528 5.82319 3.67195 5.42188 4.02681C5.01981 4.38167 4.81953 4.86142 4.81953 5.46529C4.81953 5.8506 4.93985 6.1712 5.18201 6.42478C5.42416 6.67835 5.74171 6.8969 6.13388 7.08195C6.52758 7.26547 6.97686 7.43376 7.48174 7.58682C7.98737 7.73989 8.50367 7.91122 9.02987 8.09931C9.55682 8.2874 10.0731 8.509 10.5788 8.76334C11.0778 9.01234 11.533 9.34076 11.9266 9.73578C12.3327 10.1499 12.6558 10.6379 12.8785 11.1735C13.1206 11.7393 13.241 12.4193 13.241 13.2158C13.2478 14.065 13.0941 14.9078 12.7879 15.6998C12.4948 16.4561 12.0468 17.1426 11.4728 17.7155C10.8978 18.2889 10.1896 18.7413 9.34817 19.0695C8.50519 19.3977 7.54875 19.5622 6.47732 19.5622C5.89096 19.5622 5.29242 19.5013 4.68322 19.3779C4.07402 19.2561 3.48462 19.0817 2.91426 18.8593C2.3565 18.6417 1.81887 18.3757 1.3075 18.0643C0.831689 17.7773 0.392623 17.4333 0 17.0401L1.29607 14.965C1.39964 14.8157 1.53518 14.6909 1.70424 14.5896C1.87177 14.4891 2.05605 14.4388 2.2548 14.4388C2.51371 14.4388 2.77491 14.5226 3.03915 14.6893C3.30186 14.8546 3.59961 15.0389 3.93239 15.2407C4.26516 15.4425 4.64743 15.626 5.07921 15.7927C5.51098 15.958 6.02042 16.0418 6.6083 16.0418C7.40254 16.0418 8.02012 15.8643 8.46103 15.5102C8.90117 15.1546 9.12201 14.5926 9.12201 13.8212C9.12201 13.3742 9.00017 13.0118 8.75877 12.7308C8.51738 12.4505 8.19983 12.2183 7.8069 12.0347C7.37398 11.8361 6.92547 11.6733 6.4659 11.5481C5.94858 11.4039 5.43445 11.2486 4.92386 11.0821C4.3969 10.9115 3.88289 10.7014 3.38182 10.4516C2.88177 10.2025 2.42818 9.86949 2.04082 9.46697C1.64789 9.05956 1.33034 8.55164 1.08895 7.94321C0.846788 7.33401 0.72571 6.58241 0.72571 5.68993C0.72571 4.97107 0.86811 4.27049 1.15291 3.58819C1.44128 2.89934 1.86908 2.27761 2.40939 1.76211C2.963 1.22678 3.64073 0.800336 4.44411 0.480506C5.24674 0.159915 6.16663 0.00076149 7.20303 0.00076149C7.78177 0.00076149 8.34528 0.0464515 8.89356 0.137831C9.4426 0.229973 9.96347 0.366281 10.4554 0.545995C10.9481 0.725709 11.4073 0.940452 11.8352 1.18946C12.2484 1.42765 12.6331 1.71199 12.9821 2.03701L11.8939 4.09915ZM19.1624 11.2329V16.0014H22.2465C22.8252 16.0014 23.2973 15.9275 23.6651 15.7783C24.0322 15.629 24.3193 15.4364 24.5264 15.1995C24.7335 14.9635 24.8767 14.6969 24.9544 14.3984C25.032 14.1015 25.0709 13.7999 25.0709 13.4923C25.0709 13.142 25.0252 12.8275 24.9346 12.5465C24.8473 12.2714 24.6858 12.0258 24.4678 11.8368C24.2477 11.6441 23.956 11.4956 23.5936 11.3905C23.2311 11.2854 22.7727 11.2329 22.2198 11.2329H19.1624ZM19.1624 8.26304H21.4431C21.9266 8.26304 22.363 8.22877 22.7513 8.15871C23.1397 8.08865 23.4702 7.96605 23.7428 7.79091C24.0147 7.61576 24.2226 7.37437 24.3642 7.06748C24.5074 6.76136 24.5782 6.3768 24.5782 5.91229C24.5782 5.45691 24.5218 5.07768 24.4099 4.77537C24.3087 4.48887 24.1293 4.23642 23.8921 4.04661C23.6583 3.86233 23.3628 3.73135 23.0042 3.65215C22.6462 3.57372 22.2198 3.53412 21.7279 3.53412H19.1616L19.1624 8.26304ZM14.783 19.3512V0.210935H21.7279C23.0323 0.210935 24.1418 0.333537 25.0579 0.579501C25.9732 0.824704 26.7203 1.17043 27.299 1.61666C27.8778 2.06366 28.2989 2.60738 28.5631 3.24627C28.8258 3.88593 28.9576 4.59946 28.9576 5.38761C28.9576 5.81634 28.8966 6.23135 28.7763 6.62886C28.6523 7.03331 28.4593 7.4133 28.206 7.75207C27.9471 8.10236 27.6143 8.42067 27.2084 8.70394C26.8025 8.98951 26.3144 9.23699 25.744 9.44641C26.9883 9.75405 27.9082 10.2506 28.5045 10.9382C29.1 11.6251 29.3985 12.5076 29.3985 13.5852C29.3985 14.4 29.2424 15.1569 28.9317 15.8575C28.6177 16.5623 28.1508 17.1884 27.5648 17.6904C26.9647 18.212 26.2238 18.6194 25.3427 18.9119C24.4617 19.2058 23.455 19.352 22.3241 19.352L14.783 19.3512ZM44.3368 14.3984C44.4404 14.3984 44.5439 14.4182 44.6475 14.4578C44.7518 14.4974 44.8508 14.566 44.946 14.6612L46.6822 16.5139C45.9409 17.5059 44.9571 18.2908 43.8251 18.7931C42.6806 19.3055 41.3266 19.5622 39.7632 19.5622C38.3293 19.5622 37.0447 19.3139 35.9085 18.8205C34.7724 18.3247 33.8091 17.6417 33.0186 16.7698C32.229 15.8994 31.622 14.8652 31.1987 13.6697C30.7753 12.4741 30.5636 11.1758 30.5636 9.77461C30.5636 8.3468 30.792 7.0355 31.2504 5.83994C31.7081 4.64439 32.3516 3.61332 33.1808 2.74597C34.0109 1.87862 35.0039 1.20469 36.1614 0.722663C37.3188 0.242157 38.5928 0 39.9833 0C40.6915 0 41.3586 0.063966 41.9853 0.190375C42.6113 0.317545 43.1961 0.49269 43.7406 0.71581C44.764 1.13294 45.6903 1.75695 46.4614 2.54874L44.9841 4.5591C44.8862 4.6843 44.7731 4.79685 44.6475 4.89416C44.5181 4.99468 44.3368 5.0457 44.1038 5.0457C43.9484 5.0457 43.8015 5.01067 43.6629 4.93985C43.5118 4.86232 43.3649 4.77692 43.2227 4.68399L42.711 4.35502C42.5015 4.225 42.2802 4.1151 42.05 4.02681C41.7599 3.91599 41.4608 3.83039 41.156 3.77095C40.761 3.69597 40.3595 3.66077 39.9574 3.66586C39.2317 3.66586 38.5692 3.80141 37.9684 4.07326C37.3665 4.34595 36.8347 4.75222 36.4134 5.2612C35.9778 5.78283 35.6405 6.42249 35.4029 7.18018C35.1653 7.93711 35.0465 8.80218 35.0465 9.77461C35.0465 10.7554 35.1783 11.6266 35.4425 12.3888C35.7052 13.1503 36.0639 13.7923 36.5177 14.3132C36.9529 14.8212 37.4948 15.2271 38.1047 15.5019C38.716 15.7748 39.3786 15.9137 40.048 15.9093C40.4456 15.9093 40.808 15.8895 41.137 15.8506C41.4644 15.8118 41.7713 15.7455 42.0561 15.6526C42.3375 15.5626 42.6072 15.4394 42.8595 15.2856C43.1323 15.1153 43.3883 14.9195 43.6241 14.7008C43.7276 14.6132 43.8403 14.5408 43.9614 14.4837C44.0817 14.4274 44.2074 14.3984 44.3368 14.3984Z" fill="#000203"/>
</svg>
