<svg width="144" height="21" viewBox="0 0 144 21" fill="none" xmlns="http://www.w3.org/2000/svg">
<path fill-rule="evenodd" clip-rule="evenodd" d="M61.339 0.881453V4.38283H53.5222V8.96097H59.5092V12.3268H53.5222V16.9994H61.339V20.5H49.0781V0.881453H61.339ZM62.4249 0.711639H65.9492C66.3291 0.711639 66.636 0.801496 66.869 0.980448C67.1021 1.1594 67.2795 1.39014 67.3998 1.66961L71.0543 11.9179C71.2264 12.3641 71.3954 12.8507 71.5591 13.3761C71.7229 13.9008 71.879 14.4521 72.0259 15.0301C72.147 14.4521 72.2826 13.9008 72.4341 13.3761C72.5849 12.8507 72.7463 12.3641 72.9199 11.9179L76.5477 1.66961C76.6421 1.42593 76.8135 1.20433 77.0594 1.0071C77.3054 0.809872 77.61 0.711639 77.9732 0.711639H81.5234L73.9563 19.8527H69.9912L62.4249 0.711639ZM94.6478 0.711639V4.12697H86.8995V8.59392H92.8339V11.8783H86.8995V16.4366H94.6478V19.8527H82.4943V0.711639H94.6478ZM99.0919 0.73753C99.2214 0.755044 99.3386 0.787789 99.4422 0.836525C99.5458 0.883738 99.6448 0.952273 99.74 1.03908C99.8352 1.12666 99.9433 1.24469 100.064 1.39394L109.03 12.8895C108.996 12.521 108.969 12.1646 108.953 11.8189C108.936 11.493 108.927 11.1667 108.927 10.8403V0.711639H112.788V19.8519H110.508C110.17 19.8519 109.888 19.7971 109.658 19.6882C109.43 19.5786 109.203 19.3882 108.978 19.1171L100.077 7.71363C100.103 8.04641 100.125 8.37309 100.142 8.69216C100.159 9.01199 100.168 9.31126 100.168 9.59225V19.8519H96.3071V0.711639H98.6129C98.8033 0.711639 98.9625 0.720777 99.0919 0.73753ZM130.007 0.711639V4.23129H124.695V19.8527H120.316V4.23129H115.003V0.711639H130.007ZM142.653 4.59986C142.523 4.81003 142.387 4.96842 142.245 5.07199C142.102 5.17784 141.919 5.23038 141.694 5.23038C141.495 5.23038 141.281 5.16641 141.052 5.04C140.824 4.9136 140.565 4.77043 140.275 4.61356C139.958 4.44347 139.626 4.3008 139.284 4.18712C138.912 4.05919 138.489 3.99599 138.014 3.99599C137.194 3.99599 136.582 4.17266 136.181 4.52751C135.779 4.88237 135.578 5.36212 135.578 5.96599C135.578 6.35131 135.699 6.6719 135.941 6.92548C136.183 7.17906 136.501 7.39761 136.893 7.58265C137.286 7.76617 137.736 7.93447 138.241 8.08753C138.746 8.24059 139.263 8.41193 139.789 8.60002C140.316 8.78811 140.832 9.0097 141.338 9.26404C141.837 9.51304 142.292 9.84147 142.686 10.2365C143.092 10.6506 143.415 11.1386 143.637 11.6742C143.88 12.24 144 12.92 144 13.7165C144.007 14.5657 143.853 15.4085 143.547 16.2005C143.254 16.9568 142.806 17.6434 142.232 18.2162C141.657 18.7896 140.949 19.242 140.107 19.5702C139.264 19.8984 138.308 20.0629 137.236 20.0629C136.65 20.0629 136.051 20.002 135.442 19.8786C134.833 19.7568 134.244 19.5824 133.673 19.36C133.115 19.1424 132.578 18.8764 132.066 18.565C131.59 18.2778 131.151 17.9336 130.758 17.54L132.054 15.4649C132.158 15.3157 132.293 15.1908 132.462 15.0895C132.63 14.989 132.814 14.9387 133.013 14.9387C133.272 14.9387 133.533 15.0225 133.797 15.1893C134.06 15.3545 134.358 15.5388 134.691 15.7406C135.023 15.9424 135.406 16.1259 135.837 16.2927C136.269 16.4579 136.779 16.5417 137.366 16.5417C138.161 16.5417 138.778 16.3643 139.219 16.0102C139.659 15.6546 139.88 15.0926 139.88 14.3212C139.88 13.8742 139.758 13.5117 139.517 13.2307C139.276 12.9505 138.958 12.7182 138.565 12.5347C138.132 12.336 137.684 12.1733 137.224 12.0481C136.707 11.9039 136.193 11.7485 135.682 11.5821C135.155 11.4115 134.641 11.2013 134.14 10.9515C133.64 10.7025 133.186 10.3694 132.799 9.96691C132.406 9.55951 132.088 9.05159 131.847 8.44315C131.605 7.83395 131.484 7.08235 131.484 6.18987C131.484 5.47101 131.626 4.77043 131.911 4.08813C132.199 3.39928 132.627 2.77755 133.168 2.26205C133.721 1.72672 134.399 1.30028 135.202 0.980448C136.006 0.660618 136.926 0.501465 137.962 0.501465C138.541 0.501465 139.104 0.547155 139.652 0.638535C140.201 0.730676 140.722 0.866985 141.214 1.0467C141.707 1.22641 142.166 1.44116 142.594 1.69017C143.007 1.92835 143.392 2.21269 143.741 2.53772L142.652 4.59986H142.653Z" fill="#E7792D"/>
<path fill-rule="evenodd" clip-rule="evenodd" d="M12.4095 4.59915C12.28 4.80933 12.1437 4.96772 12.0013 5.07128C11.8589 5.17713 11.6754 5.22968 11.4508 5.22968C11.252 5.22968 11.038 5.16571 10.8088 5.0393C10.5804 4.91289 10.3215 4.76973 10.0321 4.61286C9.71433 4.44277 9.38264 4.3001 9.04062 4.18642C8.66901 4.05849 8.24561 3.99528 7.77044 3.99528C6.9503 3.99528 6.33882 4.17195 5.9375 4.52681C5.53543 4.88167 5.33516 5.36142 5.33516 5.96529C5.33516 6.3506 5.45548 6.6712 5.69763 6.92478C5.93979 7.17835 6.25733 7.3969 6.64951 7.58195C7.0432 7.76547 7.49249 7.93376 7.99736 8.08682C8.503 8.23989 9.0193 8.41122 9.54549 8.59931C10.0724 8.7874 10.5887 9.009 11.0944 9.26334C11.5934 9.51234 12.0486 9.84076 12.4422 10.2358C12.8483 10.6499 13.1714 11.1379 13.3941 11.6735C13.6363 12.2393 13.7566 12.9193 13.7566 13.7158C13.7634 14.565 13.6097 15.4078 13.3035 16.1998C13.0104 16.9561 12.5625 17.6426 11.9884 18.2155C11.4135 18.7889 10.7053 19.2413 9.8638 19.5695C9.02082 19.8977 8.06437 20.0622 6.99294 20.0622C6.40659 20.0622 5.80805 20.0013 5.19885 19.8779C4.58965 19.7561 4.00025 19.5817 3.42989 19.3593C2.87213 19.1417 2.33449 18.8757 1.82312 18.5643C1.34731 18.2773 0.908248 17.9333 0.515625 17.5401L1.8117 15.465C1.91526 15.3157 2.05081 15.1909 2.21986 15.0896C2.38739 14.9891 2.57168 14.9388 2.77043 14.9388C3.02934 14.9388 3.29053 15.0226 3.55477 15.1893C3.81749 15.3546 4.11524 15.5389 4.44801 15.7407C4.78079 15.9425 5.16306 16.126 5.59483 16.2927C6.0266 16.458 6.53604 16.5418 7.12392 16.5418C7.91817 16.5418 8.53574 16.3643 8.97665 16.0102C9.4168 15.6546 9.63763 15.0926 9.63763 14.3212C9.63763 13.8742 9.51579 13.5118 9.2744 13.2308C9.033 12.9505 8.71546 12.7183 8.32252 12.5347C7.8896 12.3361 7.44109 12.1733 6.98152 12.0481C6.46421 11.9039 5.95007 11.7486 5.43948 11.5821C4.91253 11.4115 4.39851 11.2014 3.89745 10.9516C3.3974 10.7025 2.94381 10.3695 2.55645 9.96697C2.16351 9.55956 1.84597 9.05164 1.60457 8.44321C1.36241 7.83401 1.24133 7.08241 1.24133 6.18993C1.24133 5.47107 1.38373 4.77049 1.66854 4.08819C1.95691 3.39934 2.3847 2.77761 2.92501 2.26211C3.47862 1.72678 4.15636 1.30034 4.95974 0.980506C5.76236 0.659915 6.68225 0.500761 7.71865 0.500761C8.29739 0.500761 8.8609 0.546451 9.40918 0.637831C9.95823 0.729973 10.4791 0.866281 10.971 1.046C11.4637 1.22571 11.9229 1.44045 12.3509 1.68946C12.764 1.92765 13.1487 2.21199 13.4977 2.53701L12.4095 4.59915ZM19.678 11.7329V16.5014H22.7621C23.3408 16.5014 23.813 16.4275 24.1808 16.2783C24.5478 16.129 24.8349 15.9364 25.042 15.6995C25.2491 15.4635 25.3923 15.1969 25.47 14.8984C25.5477 14.6015 25.5865 14.2999 25.5865 13.9923C25.5865 13.642 25.5408 13.3275 25.4502 13.0465C25.363 12.7714 25.2014 12.5258 24.9834 12.3368C24.7633 12.1441 24.4717 11.9956 24.1092 11.8905C23.7467 11.7854 23.2883 11.7329 22.7354 11.7329H19.678ZM19.678 8.76304H21.9587C22.4423 8.76304 22.8786 8.72877 23.267 8.65871C23.6553 8.58865 23.9858 8.46605 24.2584 8.29091C24.5303 8.11576 24.7382 7.87437 24.8798 7.56748C25.023 7.26136 25.0938 6.8768 25.0938 6.41229C25.0938 5.95691 25.0374 5.57768 24.9255 5.27537C24.8243 4.98887 24.6449 4.73642 24.4077 4.54661C24.1739 4.36233 23.8784 4.23135 23.5198 4.15215C23.1619 4.07372 22.7354 4.03412 22.2435 4.03412H19.6772L19.678 8.76304ZM15.2986 19.8512V0.710935H22.2435C23.548 0.710935 24.6575 0.833537 25.5735 1.0795C26.4889 1.3247 27.2359 1.67043 27.8146 2.11666C28.3934 2.56366 28.8145 3.10738 29.0787 3.74627C29.3414 4.38593 29.4732 5.09946 29.4732 5.88761C29.4732 6.31634 29.4123 6.73135 29.292 7.12886C29.1679 7.53331 28.975 7.9133 28.7216 8.25207C28.4627 8.60236 28.1299 8.92067 27.724 9.20394C27.3181 9.48951 26.83 9.73699 26.2597 9.94641C27.5039 10.2541 28.4238 10.7506 29.0201 11.4382C29.6156 12.1251 29.9141 13.0076 29.9141 14.0852C29.9141 14.9 29.758 15.6569 29.4473 16.3575C29.1333 17.0623 28.6664 17.6884 28.0804 18.1904C27.4803 18.712 26.7394 19.1194 25.8583 19.4119C24.9773 19.7058 23.9706 19.852 22.8398 19.852L15.2986 19.8512ZM44.8524 14.8984C44.956 14.8984 45.0596 14.9182 45.1631 14.9578C45.2675 14.9974 45.3665 15.066 45.4616 15.1612L47.1979 17.0139C46.4566 18.0059 45.4727 18.7908 44.3407 19.2931C43.1962 19.8055 41.8422 20.0622 40.2789 20.0622C38.845 20.0622 37.5603 19.8139 36.4242 19.3205C35.288 18.8247 34.3247 18.1417 33.5343 17.2698C32.7446 16.3994 32.1377 15.3652 31.7143 14.1697C31.2909 12.9741 31.0792 11.6758 31.0792 10.2746C31.0792 8.8468 31.3076 7.5355 31.7661 6.33994C32.2237 5.14439 32.8672 4.11332 33.6965 3.24597C34.5265 2.37862 35.5195 1.70469 36.677 1.22266C37.8345 0.742157 39.1084 0.5 40.4989 0.5C41.2071 0.5 41.8742 0.563966 42.5009 0.690375C43.1269 0.817545 43.7117 0.99269 44.2562 1.21581C45.2797 1.63294 46.2059 2.25695 46.977 3.04874L45.4997 5.0591C45.4018 5.1843 45.2888 5.29685 45.1631 5.39416C45.0337 5.49468 44.8524 5.5457 44.6194 5.5457C44.4641 5.5457 44.3171 5.51067 44.1785 5.43985C44.0274 5.36232 43.8805 5.27692 43.7384 5.18399L43.2266 4.85502C43.0172 4.725 42.7958 4.6151 42.5657 4.52681C42.2756 4.41599 41.9765 4.33039 41.6717 4.27095C41.2766 4.19597 40.8751 4.16077 40.4731 4.16586C39.7473 4.16586 39.0848 4.30141 38.484 4.57326C37.8822 4.84595 37.3504 5.25222 36.929 5.7612C36.4935 6.28283 36.1561 6.92249 35.9185 7.68018C35.6809 8.43711 35.5621 9.30218 35.5621 10.2746C35.5621 11.2554 35.6939 12.1266 35.9581 12.8888C36.2208 13.6503 36.5795 14.2923 37.0334 14.8132C37.4685 15.3212 38.0104 15.7271 38.6203 16.0019C39.2316 16.2748 39.8942 16.4137 40.5637 16.4093C40.9612 16.4093 41.3237 16.3895 41.6526 16.3506C41.9801 16.3118 42.2869 16.2455 42.5717 16.1526C42.8532 16.0626 43.1228 15.9394 43.3751 15.7856C43.6479 15.6153 43.9039 15.4195 44.1397 15.2008C44.2432 15.1132 44.3559 15.0408 44.477 14.9837C44.5973 14.9274 44.723 14.8984 44.8524 14.8984Z" fill="#000203"/>
</svg>
