<svg width="97" height="21" viewBox="0 0 97 21" fill="none" xmlns="http://www.w3.org/2000/svg">
<path d="M74.1314 0.787109H96.9988V16.9878L95.2784 17.0595H92.2676L93.4146 19.0667L94.1314 20.2853V20.357H89.1852L88.7551 19.7118L87.7515 17.9197L87.3214 17.2029V17.0595H83.4504L82.8053 15.9842L81.8017 14.2638L80.9415 12.7584L80.5114 13.4036L79.5078 15.1957L78.5042 16.9161L77.4289 18.7799L76.497 20.357H71.5508L71.6942 19.9986L72.7694 18.1348L73.9164 16.1276L74.92 14.4072L76.0669 12.4L77.0705 10.6796L78.2891 8.60073L78.3608 8.24231L77.3572 6.52188L76.3536 4.72976L75.3501 3.00933L74.3465 1.21722L74.1314 0.787109Z" fill="#FF0000"/>
<path d="M48.7559 0.787109H53.9888L54.5623 1.86238L55.4942 3.86955L56.4261 5.80503L57.358 7.8122L58.3616 9.89105L59.2935 11.8982L59.5085 12.3283L60.082 11.2531L60.8706 9.60431L62.0175 7.23872L62.8777 5.44661L64.8849 1.2889L65.1716 0.787109H70.2612L71.2648 2.50754L72.3401 4.37134L72.6985 4.94482V5.08818H70.2612V20.357H65.8885L65.8168 16.8445L65.7451 7.95557L64.4548 10.7513L63.3795 13.1169L62.2326 15.6258L61.1573 17.9914H57.8598L56.5695 15.1957L55.4225 12.6151L54.1322 9.81937L53.272 7.88388L53.2003 20.357H48.7559V0.787109Z" fill="black"/>
<path d="M36.4975 0.642578H39.1499L40.7986 0.929316L42.0172 1.28774L43.5226 1.9329L44.3111 2.36301L45.1714 2.93648L45.8165 3.43828L45.6731 3.72502L44.8846 4.7286L43.9527 5.80387L43.3076 6.5924L43.0925 6.87914L42.8058 6.73577L42.0889 6.16229L40.942 5.51713L39.795 5.08702L38.7914 4.87197L37.5728 4.80028L36.4975 4.94365L35.4223 5.30208L34.6337 5.73218L33.8452 6.37735L33.2717 7.02251L32.6982 8.02609L32.3398 9.10136L32.1964 9.88989V11.1802L32.4115 12.3272L32.9133 13.4741L33.4151 14.2626L33.9169 14.8361L34.7771 15.4813L35.9957 16.0548L36.9276 16.2698L38.0746 16.3415L39.0782 16.1981L40.5119 15.768L41.157 15.4813H41.3004V10.3917H45.6015V17.9902L44.8846 18.492L43.666 19.1372L41.8022 19.854L40.0818 20.2842L38.6481 20.4992H36.2108L34.9205 20.2842L33.6301 19.9257L32.3398 19.3523L31.3362 18.7788L30.3326 17.9902L29.2574 16.915L28.5405 15.9114L27.8954 14.7644L27.3936 13.4024L27.1068 12.0404L27.0352 11.467V9.67484L27.2502 8.31283L27.6086 7.09419L28.3255 5.58881L29.0423 4.58523L29.6875 3.86838L30.476 3.07985L31.4796 2.36301L32.6266 1.71785L33.8452 1.21605L35.1355 0.857632L36.4975 0.642578Z" fill="black"/>
<path d="M7.60886 0.5H9.68772L10.978 0.643369L12.1967 0.930108L13.3436 1.36022L14.3472 1.93369L15.2074 2.72222L15.7809 3.36738L16.3544 4.37097L16.7128 5.37455L16.211 5.58961L12.6985 6.52151H12.5551L12.0533 5.51792L11.7666 5.1595L10.978 4.65771L10.1178 4.37097L9.7594 4.29928H8.03897L7.17876 4.51434L6.46191 4.94444L6.17517 5.37455L6.0318 5.87634V6.37814L6.24686 6.95161L6.5336 7.31004L7.39381 7.74014L8.68413 8.09857L11.3365 8.67204L12.8418 9.10215L13.9888 9.60394L14.7773 10.1057L15.4942 10.7509L15.996 11.3244L16.4978 12.328L16.7845 13.4749L16.8562 14.1918V14.9086L16.7128 15.9839L16.4261 16.9158L15.9243 17.8477L15.1357 18.7079L14.2038 19.353L13.1286 19.8548L11.7666 20.2133L10.8347 20.3566L9.97445 20.4283H8.03897L6.24686 20.2133L4.74148 19.7832L3.52284 19.2097L2.73431 18.6362L1.8741 17.776L1.30062 16.8441L0.870513 15.6971L0.798828 15.1237L2.3042 14.6935L5.02822 13.9767L5.38664 14.9803L5.81675 15.5538L6.39023 16.0556L7.32213 16.4857L8.39739 16.7007H9.7594L10.6913 16.4857L11.2648 16.1989L11.6232 15.8405L11.9099 15.3387L11.9816 14.9803V14.3351L11.7666 13.69L11.2648 13.1165L10.3329 12.6864L8.61245 12.2563L5.74506 11.6111L4.23969 11.1093L3.16442 10.5358L2.37589 9.89068L1.80241 9.17384L1.3723 8.24194L1.15725 7.23835V5.44624L1.3723 4.44265L1.73073 3.58244L2.23252 2.79391L2.66263 2.29211L3.52284 1.64695L4.6698 1.07348L5.96012 0.715054L6.82033 0.571685L7.60886 0.5Z" fill="black"/>
<path d="M82.8053 0.859375L83.092 1.2178L84.0239 2.86654L85.0275 4.58697L87.178 8.31457L88.1816 10.035L90.3321 13.7626L91.3357 15.483L92.1959 16.9167L92.626 17.7053L94.1314 20.2859V20.3576H89.1852L88.7551 19.7124L87.7515 17.9203L87.3214 17.2035V17.0601H83.4504L82.8053 15.9848L81.8017 14.2644L80.9415 12.759L80.5114 13.4042L79.5078 15.1963L78.5042 16.9167L77.4289 18.7805L76.497 20.3576H71.5508L71.6942 19.9992L72.7694 18.1354L73.9164 16.1282L74.92 14.4078L76.0669 12.4006L77.0705 10.6802L78.2891 8.60131L79.006 7.38267L80.0812 5.51887L81.8017 2.50812L82.7336 0.93106L82.8053 0.859375Z" fill="black"/>
<path d="M19.5078 0.787109H24.5974V5.0165L24.5257 5.08818H22.1601L23.3071 7.09535L24.3107 8.81578L24.5974 9.31758V20.357H19.5078V5.08818L22.0168 5.0165L21.0849 3.43944L19.8662 1.43227L19.5078 0.787109Z" fill="black"/>
<path d="M82.7335 9.38867H82.8769L83.9522 11.2525L84.9557 12.9729L86.031 14.8367L87.178 16.8439L87.2497 17.0589H83.4504L82.8052 15.9837L81.8016 14.2632L80.9414 12.7578L81.0131 12.3994L82.0884 10.5356L82.7335 9.38867Z" fill="#FF0000"/>
<path d="M19.5078 0.787109H24.5974V5.0165L24.5257 5.08818L22.0885 5.15987L21.4433 4.01292L20.5114 2.50754L19.5078 0.858794V0.787109Z" fill="#FF0000"/>
</svg>
