<svg width="100" height="20" viewBox="0 0 100 20" fill="none" xmlns="http://www.w3.org/2000/svg">
<g clip-path="url(#clip0_1538_4521)">
<path d="M57.8003 13.2666L52.467 0.199951H46.667V19.4666H51.5337V8.39995L55.867 19.4666H59.8003L64.067 8.39995V19.4666H68.9337V0.199951H63.2003L57.8003 13.2666Z" fill="black"/>
<path fill-rule="evenodd" clip-rule="evenodd" d="M85.5333 0.2L92.6 19.4667H87.6L86.2 15.6H77.0667L75.6667 19.4667H70.6667L77.8 0.2H85.5333ZM84.7333 11.6L82.1333 4.4H81.0667L78.4667 11.6H84.7333ZM13.1333 9.73333C12.4222 9.28889 11.6667 8.93333 10.8667 8.66667C10.0667 8.4 9.28889 8.15555 8.53333 7.93333C7.95556 7.71111 7.44444 7.51111 7 7.33333C6.51111 7.11111 6.13333 6.88889 5.86667 6.66667C5.6 6.4 5.46667 6.06667 5.46667 5.66667C5.46667 5.26667 5.57778 4.93333 5.8 4.66667C6.06667 4.4 6.37778 4.2 6.73333 4.06667C7.08889 3.93333 7.48889 3.86667 7.93333 3.86667C8.28889 3.86667 8.64444 3.91111 9 4C9.22222 4.08889 9.42222 4.17778 9.6 4.26667L9.66667 4.33333C9.71111 4.37778 9.77778 4.42222 9.86667 4.46667C10.0667 4.66667 10.3333 5 10.4667 5.53333V5.6C10.5556 5.86667 10.6222 6.17778 10.6667 6.53333H15.2C15.0667 3.4 13.6 2.2 13.6 2.2C12.9333 1.48889 12.1111 0.933333 11.1333 0.533333C10.1556 0.177778 9.02222 0 7.73333 0C6.35556 0 5.13333 0.222222 4.06667 0.666667C2.95556 1.11111 2.08889 1.75556 1.46667 2.6C0.844445 3.4 0.533333 4.42222 0.533333 5.66667C0.533333 6.64444 0.711111 7.46667 1.06667 8.13333C1.46667 8.8 2 9.33333 2.66667 9.73333C3.28889 10.1333 4 10.4667 4.8 10.7333C5.55556 11 6.28889 11.2444 7 11.4667C7.71111 11.6444 8.31111 11.8444 8.8 12.0667C9.33333 12.2444 9.73333 12.4667 10 12.7333C10.3111 13 10.4667 13.3778 10.4667 13.8667C10.4667 14.4 10.2222 14.8444 9.73333 15.2C9.24444 15.6 8.55556 15.8 7.66667 15.8C7.17778 15.7556 6.73333 15.6667 6.33333 15.5333C5.88889 15.4 5.53333 15.1778 5.26667 14.8667C5.17778 14.7778 5.08889 14.6667 5 14.5333C4.86667 14.2 4.66667 13.7333 4.66667 13.0667H0C0.0444444 13.6 0.111111 14.0667 0.2 14.4667C0.422222 15.5778 0.888889 16.5333 1.6 17.3333C2.26667 18.0889 3.15556 18.6667 4.26667 19.0667C5.37778 19.4667 6.64444 19.6667 8.06667 19.6667C9.71111 19.6667 11.0667 19.4 12.1333 18.8667C13.2444 18.3778 14.0667 17.6889 14.6 16.8C15.1333 15.9556 15.4 14.9778 15.4 13.8667C15.4 12.8889 15.2 12.0667 14.8 11.4C14.3556 10.7333 13.8 10.1778 13.1333 9.73333Z" fill="black"/>
<path d="M32.4662 4.8C33.2662 4.31111 34.1551 4.06667 35.1329 4.06667C36.1995 4.06667 36.9995 4.26667 37.7329 4.66667C38.444 5.06667 39.0218 5.68889 39.4662 6.53333H44.2662L44.1329 6C44.0884 5.64444 44.0218 5.33333 43.9329 5.06667C43.4884 4.08889 42.8884 3.24444 42.1329 2.53333C41.244 1.73333 40.1995 1.11111 38.9995 0.666667C37.7551 0.222222 36.4218 0 34.9995 0C33.5329 0 32.1329 0.266667 30.9329 0.733333C29.7329 1.22222 28.6884 1.88889 27.7995 2.73333C26.9107 3.62222 26.2218 4.66667 25.7329 5.86667C25.2884 7.06667 25.0662 8.37778 25.0662 9.8C25.0662 11.2222 25.2884 12.5333 25.7329 13.7333C26.2218 14.9333 26.9107 15.9778 27.7995 16.8667C28.6884 17.7556 29.7551 18.4444 30.9995 18.9333C32.1995 19.3778 33.5551 19.6 35.0662 19.6C36.6662 19.6 38.0662 19.3333 39.2662 18.8C40.4662 18.2667 41.4884 17.5778 42.3329 16.7333V16.6667C43.5995 15.4667 44.2662 13.7333 44.2662 12V8.66667H35.0662V12.4H39.7995V13.2C38.9329 14.4 37.9329 15 37.1329 15.2667C36.8218 15.4 36.4884 15.4889 36.1329 15.5333H35.3995C34.2884 15.5333 33.3329 15.3111 32.5329 14.8667C31.6884 14.3778 31.0662 13.7111 30.6662 12.8667C30.2218 11.9778 29.9995 10.9556 29.9995 9.8C29.9995 8.73333 30.2218 7.75556 30.6662 6.86667C31.1107 6.02222 31.7107 5.33333 32.4662 4.8ZM22.7329 0.2V4.4H17.8662V0.2H22.7329ZM22.7329 6.53333V19.4667H17.8662V6.53333H22.7329Z" fill="black"/>
<path d="M88.5332 0.199951L95.4665 19.4666H99.5332V0.199951H88.5332Z" fill="#E93323"/>
</g>
<defs>
<clipPath id="clip0_1538_4521">
<rect width="100" height="20" fill="white"/>
</clipPath>
</defs>
</svg>
