<svg width="127" height="47" viewBox="0 0 127 47" fill="none" xmlns="http://www.w3.org/2000/svg">
<g clip-path="url(#clip0_469_909)">
<path d="M-240.125 0.554489H127L115.698 23.4998L127 46.4452H-240.125L-228.823 23.4998L-240.125 0.554489Z" fill="#F3EFE4"/>
<path d="M17.5558 21.6174C16.7718 21.6174 16.0485 21.4914 15.3858 21.2394C14.7231 20.9874 14.1445 20.6328 13.6498 20.1754C13.1645 19.7088 12.7865 19.1674 12.5158 18.5514C12.2451 17.9354 12.1098 17.2588 12.1098 16.5214C12.1098 15.7841 12.2451 15.1074 12.5158 14.4914C12.7865 13.8754 13.1645 13.3388 13.6498 12.8814C14.1445 12.4148 14.7231 12.0554 15.3858 11.8034C16.0485 11.5514 16.7718 11.4254 17.5558 11.4254C18.3491 11.4254 19.0725 11.5514 19.7258 11.8034C20.3885 12.0554 20.9625 12.4148 21.4478 12.8814C21.9331 13.3388 22.3111 13.8754 22.5818 14.4914C22.8618 15.1074 23.0018 15.7841 23.0018 16.5214C23.0018 17.2588 22.8618 17.9401 22.5818 18.5654C22.3111 19.1814 21.9331 19.7181 21.4478 20.1754C20.9625 20.6328 20.3885 20.9874 19.7258 21.2394C19.0725 21.4914 18.3491 21.6174 17.5558 21.6174ZM17.5558 19.3214C17.9291 19.3214 18.2745 19.2561 18.5918 19.1254C18.9185 18.9948 19.1985 18.8081 19.4318 18.5654C19.6745 18.3134 19.8611 18.0148 19.9918 17.6694C20.1318 17.3241 20.2018 16.9414 20.2018 16.5214C20.2018 16.0921 20.1318 15.7094 19.9918 15.3734C19.8611 15.0281 19.6745 14.7341 19.4318 14.4914C19.1985 14.2394 18.9185 14.0481 18.5918 13.9174C18.2745 13.7868 17.9291 13.7214 17.5558 13.7214C17.1825 13.7214 16.8325 13.7868 16.5058 13.9174C16.1885 14.0481 15.9085 14.2394 15.6658 14.4914C15.4325 14.7341 15.2458 15.0281 15.1058 15.3734C14.9751 15.7094 14.9098 16.0921 14.9098 16.5214C14.9098 16.9414 14.9751 17.3241 15.1058 17.6694C15.2458 18.0148 15.4325 18.3134 15.6658 18.5654C15.9085 18.8081 16.1885 18.9948 16.5058 19.1254C16.8325 19.2561 17.1825 19.3214 17.5558 19.3214ZM28.9756 21.6174C27.529 21.6174 26.3996 21.2208 25.5876 20.4274C24.7756 19.6341 24.3696 18.5094 24.3696 17.0534V11.6214H27.1416V16.9694C27.1416 17.8094 27.305 18.4114 27.6316 18.7754C27.9676 19.1394 28.425 19.3214 29.0036 19.3214C29.5823 19.3214 30.035 19.1394 30.3616 18.7754C30.6883 18.4114 30.8516 17.8094 30.8516 16.9694V11.6214H33.5816V17.0534C33.5816 18.5094 33.1756 19.6341 32.3636 20.4274C31.5516 21.2208 30.4223 21.6174 28.9756 21.6174ZM35.4595 21.4214V11.6214H39.9395C40.8355 11.6214 41.6055 11.7661 42.2495 12.0554C42.9028 12.3448 43.4068 12.7648 43.7615 13.3154C44.1162 13.8568 44.2935 14.5008 44.2935 15.2474C44.2935 15.9848 44.1162 16.6241 43.7615 17.1654C43.4068 17.6974 42.9028 18.1081 42.2495 18.3974C41.6055 18.6774 40.8355 18.8174 39.9395 18.8174H36.9995L38.2315 17.6554V21.4214H35.4595ZM41.5215 21.4214L39.0855 17.8514H42.0395L44.4895 21.4214H41.5215ZM38.2315 17.9494L36.9995 16.6754H39.7715C40.3502 16.6754 40.7795 16.5494 41.0595 16.2974C41.3488 16.0454 41.4935 15.6954 41.4935 15.2474C41.4935 14.7901 41.3488 14.4354 41.0595 14.1834C40.7795 13.9314 40.3502 13.8054 39.7715 13.8054H36.9995L38.2315 12.5314V17.9494ZM53.341 21.6174C52.5383 21.6174 51.7637 21.5194 51.017 21.3234C50.2797 21.1181 49.6777 20.8568 49.211 20.5394L50.121 18.4954C50.5597 18.7754 51.0637 19.0088 51.633 19.1954C52.2117 19.3728 52.7857 19.4614 53.355 19.4614C53.7377 19.4614 54.0457 19.4288 54.279 19.3634C54.5123 19.2888 54.6803 19.1954 54.783 19.0834C54.895 18.9621 54.951 18.8221 54.951 18.6634C54.951 18.4394 54.8483 18.2621 54.643 18.1314C54.4377 18.0008 54.1717 17.8934 53.845 17.8094C53.5183 17.7254 53.1543 17.6414 52.753 17.5574C52.361 17.4734 51.9643 17.3661 51.563 17.2354C51.171 17.1048 50.8117 16.9368 50.485 16.7314C50.1583 16.5168 49.8923 16.2414 49.687 15.9054C49.4817 15.5601 49.379 15.1261 49.379 14.6034C49.379 14.0154 49.5377 13.4834 49.855 13.0074C50.1817 12.5314 50.667 12.1488 51.311 11.8594C51.955 11.5701 52.7577 11.4254 53.719 11.4254C54.363 11.4254 54.993 11.5001 55.609 11.6494C56.2343 11.7894 56.7897 11.9994 57.275 12.2794L56.421 14.3374C55.9543 14.0854 55.4923 13.8988 55.035 13.7774C54.5777 13.6468 54.1343 13.5814 53.705 13.5814C53.3223 13.5814 53.0143 13.6234 52.781 13.7074C52.5477 13.7821 52.3797 13.8847 52.277 14.0154C52.1743 14.1461 52.123 14.2954 52.123 14.4634C52.123 14.6781 52.221 14.8508 52.417 14.9814C52.6223 15.1028 52.8883 15.2054 53.215 15.2894C53.551 15.3641 53.915 15.4434 54.307 15.5274C54.7083 15.6114 55.105 15.7188 55.497 15.8494C55.8983 15.9708 56.2623 16.1388 56.589 16.3534C56.9157 16.5588 57.177 16.8341 57.373 17.1794C57.5783 17.5154 57.681 17.9401 57.681 18.4534C57.681 19.0228 57.5177 19.5501 57.191 20.0354C56.8737 20.5114 56.393 20.8941 55.749 21.1834C55.1143 21.4728 54.3117 21.6174 53.341 21.6174ZM60.9107 21.4214V13.8194H57.9007V11.6214H66.6787V13.8194H63.6827V21.4214H60.9107ZM66.0433 21.4214L70.3693 11.6214H73.0993L77.4393 21.4214H74.5553L71.1673 12.9794H72.2593L68.8713 21.4214H66.0433ZM68.4093 19.5174L69.1233 17.4734H73.9113L74.6253 19.5174H68.4093ZM78.2251 21.4214V11.6214H80.5071L85.9111 18.1454H84.8331V11.6214H87.5491V21.4214H85.2671L79.8631 14.8974H80.9411V21.4214H78.2251ZM89.5044 21.4214V11.6214H94.1384C95.2211 11.6214 96.1731 11.8221 96.9944 12.2234C97.8157 12.6248 98.4551 13.1894 98.9124 13.9174C99.3791 14.6454 99.6124 15.5134 99.6124 16.5214C99.6124 17.5201 99.3791 18.3881 98.9124 19.1254C98.4551 19.8534 97.8157 20.4181 96.9944 20.8194C96.1731 21.2208 95.2211 21.4214 94.1384 21.4214H89.5044ZM92.2764 19.2094H94.0264C94.5864 19.2094 95.0717 19.1068 95.4824 18.9014C95.9024 18.6868 96.2291 18.3788 96.4624 17.9774C96.6957 17.5668 96.8124 17.0814 96.8124 16.5214C96.8124 15.9521 96.6957 15.4668 96.4624 15.0654C96.2291 14.6641 95.9024 14.3608 95.4824 14.1554C95.0717 13.9407 94.5864 13.8334 94.0264 13.8334H92.2764V19.2094ZM17.5138 37.6174C16.7391 37.6174 16.0205 37.4961 15.3578 37.2534C14.6951 37.0014 14.1211 36.6468 13.6358 36.1894C13.1598 35.7321 12.7865 35.1954 12.5158 34.5794C12.2451 33.9541 12.1098 33.2681 12.1098 32.5214C12.1098 31.7748 12.2451 31.0934 12.5158 30.4774C12.7865 29.8521 13.1645 29.3108 13.6498 28.8534C14.1351 28.3961 14.7091 28.0461 15.3718 27.8034C16.0438 27.5514 16.7765 27.4254 17.5698 27.4254C18.4938 27.4254 19.3198 27.5794 20.0478 27.8874C20.7758 28.1954 21.3778 28.6388 21.8538 29.2174L20.0898 30.8134C19.7538 30.4494 19.3898 30.1788 18.9978 30.0014C18.6151 29.8148 18.1858 29.7214 17.7098 29.7214C17.2898 29.7214 16.9071 29.7868 16.5618 29.9174C16.2165 30.0481 15.9225 30.2394 15.6798 30.4914C15.4371 30.7341 15.2458 31.0281 15.1058 31.3734C14.9751 31.7094 14.9098 32.0921 14.9098 32.5214C14.9098 32.9321 14.9751 33.3101 15.1058 33.6554C15.2458 34.0008 15.4371 34.2994 15.6798 34.5514C15.9225 34.7941 16.2118 34.9854 16.5478 35.1254C16.8931 35.2561 17.2711 35.3214 17.6818 35.3214C18.0925 35.3214 18.4938 35.2561 18.8858 35.1254C19.2778 34.9854 19.6745 34.7521 20.0758 34.4254L21.6298 36.3714C21.0698 36.7728 20.4211 37.0808 19.6838 37.2954C18.9465 37.5101 18.2231 37.6174 17.5138 37.6174ZM19.1798 36.0074V32.3114H21.6298V36.3714L19.1798 36.0074ZM22.8272 37.4214V35.6854L26.4952 32.2554C26.7566 32.0128 26.9479 31.7981 27.0692 31.6114C27.1999 31.4248 27.2839 31.2568 27.3212 31.1074C27.3679 30.9488 27.3912 30.8041 27.3912 30.6734C27.3912 30.3561 27.2839 30.1088 27.0692 29.9314C26.8639 29.7541 26.5512 29.6654 26.1312 29.6654C25.7766 29.6654 25.4452 29.7448 25.1372 29.9034C24.8292 30.0621 24.5772 30.3001 24.3812 30.6174L22.3232 29.4694C22.6872 28.8534 23.2146 28.3588 23.9052 27.9854C24.5959 27.6121 25.4219 27.4254 26.3832 27.4254C27.1392 27.4254 27.8019 27.5468 28.3712 27.7894C28.9406 28.0321 29.3839 28.3774 29.7012 28.8254C30.0279 29.2734 30.1912 29.8007 30.1912 30.4074C30.1912 30.7248 30.1492 31.0421 30.0652 31.3594C29.9812 31.6674 29.8179 31.9988 29.5752 32.3534C29.3419 32.6988 28.9919 33.0861 28.5252 33.5154L25.6132 36.2034L25.1512 35.2234H30.4572V37.4214H22.8272ZM31.0841 35.5454V33.7394L35.4801 27.6214H38.3501L34.0801 33.7394L32.7641 33.3474H40.4221V35.5454H31.0841ZM36.2641 37.4214V35.5454L36.3481 33.3474V31.6814H38.9661V37.4214H36.2641Z" fill="#48001E"/>
</g>
<defs>
<clipPath id="clip0_469_909">
<rect width="127" height="46.6752" fill="white" transform="translate(0 0.162399)"/>
</clipPath>
</defs>
</svg>
