<svg width="101" height="27" viewBox="0 0 101 27" fill="none" xmlns="http://www.w3.org/2000/svg">
<g clip-path="url(#clip0_281_40405)">
<path d="M-112 0.25H101L94.4428 13.5625L101 26.875H-112L-105.443 13.5625L-112 0.25Z" fill="#F3EFE4"/>
<path d="M12.792 18.168C12.112 18.168 11.452 18.084 10.812 17.916C10.172 17.748 9.652 17.524 9.252 17.244L10.032 15.492C10.408 15.74 10.844 15.94 11.34 16.092C11.836 16.244 12.324 16.32 12.804 16.32C13.716 16.32 14.172 16.092 14.172 15.636C14.172 15.396 14.04 15.22 13.776 15.108C13.52 14.988 13.104 14.864 12.528 14.736C11.896 14.6 11.368 14.456 10.944 14.304C10.52 14.144 10.156 13.892 9.852 13.548C9.548 13.204 9.396 12.74 9.396 12.156C9.396 11.644 9.536 11.184 9.816 10.776C10.096 10.36 10.512 10.032 11.064 9.792C11.624 9.552 12.308 9.432 13.116 9.432C13.668 9.432 14.212 9.496 14.748 9.624C15.284 9.744 15.756 9.924 16.164 10.164L15.432 11.928C14.632 11.496 13.856 11.28 13.104 11.28C12.632 11.28 12.288 11.352 12.072 11.496C11.856 11.632 11.748 11.812 11.748 12.036C11.748 12.26 11.876 12.428 12.132 12.54C12.388 12.652 12.8 12.768 13.368 12.888C14.008 13.024 14.536 13.172 14.952 13.332C15.376 13.484 15.74 13.732 16.044 14.076C16.356 14.412 16.512 14.872 16.512 15.456C16.512 15.96 16.372 16.416 16.092 16.824C15.812 17.232 15.392 17.56 14.832 17.808C14.272 18.048 13.592 18.168 12.792 18.168ZM19.2803 11.484H16.7003V9.6H24.2243V11.484H21.6563V18H19.2803V11.484ZM30.3157 16.368H26.7637L26.1037 18H23.6797L27.3877 9.6H29.7277L33.4477 18H30.9757L30.3157 16.368ZM29.6197 14.616L28.5397 11.928L27.4597 14.616H29.6197ZM42.1133 9.6V18H40.1573L36.4492 13.524V18H34.1213V9.6H36.0773L39.7853 14.076V9.6H42.1133ZM43.7892 9.6H47.7612C48.6812 9.6 49.4972 9.772 50.2092 10.116C50.9212 10.46 51.4732 10.948 51.8652 11.58C52.2572 12.212 52.4532 12.952 52.4532 13.8C52.4532 14.648 52.2572 15.388 51.8652 16.02C51.4732 16.652 50.9212 17.14 50.2092 17.484C49.4972 17.828 48.6812 18 47.7612 18H43.7892V9.6ZM47.6652 16.104C48.3852 16.104 48.9612 15.9 49.3932 15.492C49.8332 15.084 50.0532 14.52 50.0532 13.8C50.0532 13.08 49.8332 12.516 49.3932 12.108C48.9612 11.7 48.3852 11.496 47.6652 11.496H46.1652V16.104H47.6652ZM62.8235 13.62H64.9235V17.1C64.4435 17.444 63.8915 17.708 63.2675 17.892C62.6435 18.076 62.0195 18.168 61.3955 18.168C60.5155 18.168 59.7235 17.984 59.0195 17.616C58.3155 17.24 57.7635 16.72 57.3635 16.056C56.9635 15.392 56.7635 14.64 56.7635 13.8C56.7635 12.96 56.9635 12.208 57.3635 11.544C57.7635 10.88 58.3195 10.364 59.0315 9.996C59.7435 9.62 60.5475 9.432 61.4435 9.432C62.2275 9.432 62.9315 9.564 63.5555 9.828C64.1795 10.092 64.6995 10.472 65.1155 10.968L63.6035 12.336C63.0355 11.712 62.3555 11.4 61.5635 11.4C60.8435 11.4 60.2635 11.62 59.8235 12.06C59.3835 12.492 59.1635 13.072 59.1635 13.8C59.1635 14.264 59.2635 14.68 59.4635 15.048C59.6635 15.408 59.9435 15.692 60.3035 15.9C60.6635 16.1 61.0755 16.2 61.5395 16.2C61.9955 16.2 62.4235 16.108 62.8235 15.924V13.62ZM72.4898 16.116V18H65.9498V16.512L69.0938 13.572C69.3978 13.284 69.6018 13.04 69.7058 12.84C69.8098 12.632 69.8618 12.424 69.8618 12.216C69.8618 11.944 69.7698 11.732 69.5858 11.58C69.4018 11.428 69.1338 11.352 68.7818 11.352C68.4698 11.352 68.1818 11.424 67.9178 11.568C67.6618 11.704 67.4498 11.904 67.2818 12.168L65.5178 11.184C65.8458 10.64 66.3058 10.212 66.8978 9.9C67.4898 9.588 68.1898 9.432 68.9978 9.432C69.6378 9.432 70.2018 9.536 70.6898 9.744C71.1858 9.952 71.5698 10.252 71.8418 10.644C72.1218 11.028 72.2618 11.476 72.2618 11.988C72.2618 12.444 72.1618 12.876 71.9618 13.284C71.7698 13.684 71.3938 14.14 70.8338 14.652L69.2498 16.116H72.4898ZM81.0428 16.392H79.7948V18H77.4788V16.392H73.0388V14.844L76.8068 9.6H79.2668L75.8468 14.508H77.5508V13.08H79.7948V14.508H81.0428V16.392Z" fill="#48001E"/>
</g>
<defs>
<clipPath id="clip0_281_40405">
<rect width="101" height="27" fill="white"/>
</clipPath>
</defs>
</svg>
