<svg width="101" height="27" viewBox="0 0 101 27" fill="none" xmlns="http://www.w3.org/2000/svg">
<g clip-path="url(#clip0_281_40437)">
<path d="M-112 0.25H101L94.4428 13.5625L101 26.875H-112L-105.443 13.5625L-112 0.25Z" fill="#F3EFE4"/>
<path d="M12.792 18.168C12.104 18.168 11.44 18.084 10.8 17.916C10.168 17.74 9.652 17.516 9.252 17.244L10.032 15.492C10.408 15.732 10.84 15.932 11.328 16.092C11.824 16.244 12.316 16.32 12.804 16.32C13.132 16.32 13.396 16.292 13.596 16.236C13.796 16.172 13.94 16.092 14.028 15.996C14.124 15.892 14.172 15.772 14.172 15.636C14.172 15.444 14.084 15.292 13.908 15.18C13.732 15.068 13.504 14.976 13.224 14.904C12.944 14.832 12.632 14.76 12.288 14.688C11.952 14.616 11.612 14.524 11.268 14.412C10.932 14.3 10.624 14.156 10.344 13.98C10.064 13.796 9.836 13.56 9.66 13.272C9.484 12.976 9.396 12.604 9.396 12.156C9.396 11.652 9.532 11.196 9.804 10.788C10.084 10.38 10.5 10.052 11.052 9.804C11.604 9.556 12.292 9.432 13.116 9.432C13.668 9.432 14.208 9.496 14.736 9.624C15.272 9.744 15.748 9.924 16.164 10.164L15.432 11.928C15.032 11.712 14.636 11.552 14.244 11.448C13.852 11.336 13.472 11.28 13.104 11.28C12.776 11.28 12.512 11.316 12.312 11.388C12.112 11.452 11.968 11.54 11.88 11.652C11.792 11.764 11.748 11.892 11.748 12.036C11.748 12.22 11.832 12.368 12 12.48C12.176 12.584 12.404 12.672 12.684 12.744C12.972 12.808 13.284 12.876 13.62 12.948C13.964 13.02 14.304 13.112 14.64 13.224C14.984 13.328 15.296 13.472 15.576 13.656C15.856 13.832 16.08 14.068 16.248 14.364C16.424 14.652 16.512 15.016 16.512 15.456C16.512 15.944 16.372 16.396 16.092 16.812C15.82 17.22 15.408 17.548 14.856 17.796C14.312 18.044 13.624 18.168 12.792 18.168ZM19.2803 18V11.484H16.7003V9.6H24.2243V11.484H21.6563V18H19.2803ZM23.6797 18L27.3877 9.6H29.7277L33.4477 18H30.9757L28.0717 10.764H29.0077L26.1037 18H23.6797ZM25.7077 16.368L26.3197 14.616H30.4237L31.0357 16.368H25.7077ZM34.1213 18V9.6H36.0773L40.7093 15.192H39.7853V9.6H42.1133V18H40.1573L35.5253 12.408H36.4492V18H34.1213ZM43.7892 18V9.6H47.7612C48.6892 9.6 49.5052 9.772 50.2092 10.116C50.9132 10.46 51.4612 10.944 51.8532 11.568C52.2532 12.192 52.4532 12.936 52.4532 13.8C52.4532 14.656 52.2532 15.4 51.8532 16.032C51.4612 16.656 50.9132 17.14 50.2092 17.484C49.5052 17.828 48.6892 18 47.7612 18H43.7892ZM46.1652 16.104H47.6652C48.1452 16.104 48.5612 16.016 48.9132 15.84C49.2732 15.656 49.5532 15.392 49.7532 15.048C49.9532 14.696 50.0532 14.28 50.0532 13.8C50.0532 13.312 49.9532 12.896 49.7532 12.552C49.5532 12.208 49.2732 11.948 48.9132 11.772C48.5612 11.588 48.1452 11.496 47.6652 11.496H46.1652V16.104ZM59.4035 13.284H63.2795V15.12H59.4035V13.284ZM59.5715 18H57.1955V9.6H63.7835V11.436H59.5715V18ZM67.2707 18.168C66.6867 18.168 66.1027 18.096 65.5187 17.952C64.9427 17.808 64.4387 17.604 64.0067 17.34L64.8707 15.552C65.2067 15.776 65.5787 15.948 65.9867 16.068C66.4027 16.188 66.8067 16.248 67.1987 16.248C67.6067 16.248 67.9307 16.172 68.1707 16.02C68.4107 15.868 68.5307 15.652 68.5307 15.372C68.5307 15.124 68.4307 14.928 68.2307 14.784C68.0307 14.632 67.7027 14.556 67.2467 14.556H66.2507V13.056L68.5067 10.62L68.7347 11.436H64.4387V9.6H70.5107V11.088L68.2547 13.524L67.0907 12.864H67.7387C68.7867 12.864 69.5787 13.1 70.1147 13.572C70.6587 14.036 70.9307 14.636 70.9307 15.372C70.9307 15.852 70.7987 16.304 70.5347 16.728C70.2787 17.152 69.8827 17.5 69.3467 17.772C68.8107 18.036 68.1187 18.168 67.2707 18.168ZM75.2932 18.168C74.5652 18.168 73.9292 18.06 73.3852 17.844C72.8412 17.628 72.4132 17.324 72.1012 16.932C71.7972 16.532 71.6452 16.064 71.6452 15.528C71.6452 15 71.7972 14.552 72.1012 14.184C72.4132 13.808 72.8412 13.524 73.3852 13.332C73.9372 13.132 74.5732 13.032 75.2932 13.032C76.0132 13.032 76.6452 13.132 77.1892 13.332C77.7412 13.524 78.1692 13.808 78.4732 14.184C78.7852 14.552 78.9412 15 78.9412 15.528C78.9412 16.064 78.7892 16.532 78.4852 16.932C78.1812 17.324 77.7532 17.628 77.2012 17.844C76.6572 18.06 76.0212 18.168 75.2932 18.168ZM75.2932 16.5C75.6772 16.5 75.9812 16.408 76.2052 16.224C76.4372 16.04 76.5532 15.784 76.5532 15.456C76.5532 15.136 76.4372 14.884 76.2052 14.7C75.9812 14.508 75.6772 14.412 75.2932 14.412C74.9092 14.412 74.6012 14.508 74.3692 14.7C74.1452 14.884 74.0332 15.136 74.0332 15.456C74.0332 15.784 74.1452 16.04 74.3692 16.224C74.6012 16.408 74.9092 16.5 75.2932 16.5ZM75.2932 14.208C74.6372 14.208 74.0572 14.116 73.5532 13.932C73.0572 13.748 72.6652 13.484 72.3772 13.14C72.0892 12.788 71.9452 12.368 71.9452 11.88C71.9452 11.376 72.0852 10.944 72.3652 10.584C72.6532 10.224 73.0492 9.944 73.5532 9.744C74.0572 9.536 74.6372 9.432 75.2932 9.432C75.9572 9.432 76.5372 9.536 77.0332 9.744C77.5372 9.944 77.9292 10.224 78.2092 10.584C78.4972 10.944 78.6412 11.376 78.6412 11.88C78.6412 12.368 78.4972 12.788 78.2092 13.14C77.9292 13.484 77.5372 13.748 77.0332 13.932C76.5292 14.116 75.9492 14.208 75.2932 14.208ZM75.2932 12.864C75.5972 12.864 75.8412 12.788 76.0252 12.636C76.2092 12.476 76.3012 12.26 76.3012 11.988C76.3012 11.7 76.2052 11.48 76.0132 11.328C75.8292 11.176 75.5892 11.1 75.2932 11.1C74.9972 11.1 74.7572 11.176 74.5732 11.328C74.3892 11.48 74.2972 11.7 74.2972 11.988C74.2972 12.26 74.3892 12.476 74.5732 12.636C74.7572 12.788 74.9972 12.864 75.2932 12.864ZM79.6365 16.392V14.844L83.4045 9.6H85.8645L82.2045 14.844L81.0765 14.508H87.6405V16.392H79.6365ZM84.0765 18V16.392L84.1485 14.508V13.08H86.3925V18H84.0765Z" fill="#48001E"/>
</g>
<defs>
<clipPath id="clip0_281_40437">
<rect width="101" height="27" fill="white"/>
</clipPath>
</defs>
</svg>
