<svg width="101" height="27" viewBox="0 0 101 27" fill="none" xmlns="http://www.w3.org/2000/svg">
<g clip-path="url(#clip0_281_40471)">
<path d="M-113 0.25H100L93.4428 13.5625L100 26.875H-113L-106.443 13.5625L-113 0.25Z" fill="#F3EFE4"/>
<path d="M12.792 18.168C12.104 18.168 11.44 18.084 10.8 17.916C10.168 17.74 9.652 17.516 9.252 17.244L10.032 15.492C10.408 15.732 10.84 15.932 11.328 16.092C11.824 16.244 12.316 16.32 12.804 16.32C13.132 16.32 13.396 16.292 13.596 16.236C13.796 16.172 13.94 16.092 14.028 15.996C14.124 15.892 14.172 15.772 14.172 15.636C14.172 15.444 14.084 15.292 13.908 15.18C13.732 15.068 13.504 14.976 13.224 14.904C12.944 14.832 12.632 14.76 12.288 14.688C11.952 14.616 11.612 14.524 11.268 14.412C10.932 14.3 10.624 14.156 10.344 13.98C10.064 13.796 9.836 13.56 9.66 13.272C9.484 12.976 9.396 12.604 9.396 12.156C9.396 11.652 9.532 11.196 9.804 10.788C10.084 10.38 10.5 10.052 11.052 9.804C11.604 9.556 12.292 9.432 13.116 9.432C13.668 9.432 14.208 9.496 14.736 9.624C15.272 9.744 15.748 9.924 16.164 10.164L15.432 11.928C15.032 11.712 14.636 11.552 14.244 11.448C13.852 11.336 13.472 11.28 13.104 11.28C12.776 11.28 12.512 11.316 12.312 11.388C12.112 11.452 11.968 11.54 11.88 11.652C11.792 11.764 11.748 11.892 11.748 12.036C11.748 12.22 11.832 12.368 12 12.48C12.176 12.584 12.404 12.672 12.684 12.744C12.972 12.808 13.284 12.876 13.62 12.948C13.964 13.02 14.304 13.112 14.64 13.224C14.984 13.328 15.296 13.472 15.576 13.656C15.856 13.832 16.08 14.068 16.248 14.364C16.424 14.652 16.512 15.016 16.512 15.456C16.512 15.944 16.372 16.396 16.092 16.812C15.82 17.22 15.408 17.548 14.856 17.796C14.312 18.044 13.624 18.168 12.792 18.168ZM19.2803 18V11.484H16.7003V9.6H24.2243V11.484H21.6563V18H19.2803ZM23.6797 18L27.3877 9.6H29.7277L33.4477 18H30.9757L28.0717 10.764H29.0077L26.1037 18H23.6797ZM25.7077 16.368L26.3197 14.616H30.4237L31.0357 16.368H25.7077ZM34.1213 18V9.6H36.0773L40.7093 15.192H39.7853V9.6H42.1133V18H40.1573L35.5253 12.408H36.4492V18H34.1213ZM43.7892 18V9.6H47.7612C48.6892 9.6 49.5052 9.772 50.2092 10.116C50.9132 10.46 51.4612 10.944 51.8532 11.568C52.2532 12.192 52.4532 12.936 52.4532 13.8C52.4532 14.656 52.2532 15.4 51.8532 16.032C51.4612 16.656 50.9132 17.14 50.2092 17.484C49.5052 17.828 48.6892 18 47.7612 18H43.7892ZM46.1652 16.104H47.6652C48.1452 16.104 48.5612 16.016 48.9132 15.84C49.2732 15.656 49.5532 15.392 49.7532 15.048C49.9532 14.696 50.0532 14.28 50.0532 13.8C50.0532 13.312 49.9532 12.896 49.7532 12.552C49.5532 12.208 49.2732 11.948 48.9132 11.772C48.5612 11.588 48.1452 11.496 47.6652 11.496H46.1652V16.104Z" fill="#48001E"/>
</g>
<defs>
<clipPath id="clip0_281_40471">
<rect width="101" height="27" fill="white"/>
</clipPath>
</defs>
</svg>
