<svg width="133" height="36" viewBox="0 0 133 36" fill="none" xmlns="http://www.w3.org/2000/svg">
<path fill-rule="evenodd" clip-rule="evenodd" d="M12.9336 24.7891C13.5326 25.1536 14.1934 25.3359 14.916 25.3359C15.6517 25.3359 16.3125 25.1536 16.8984 24.7891C17.4844 24.418 17.9564 23.9264 18.3145 23.3145C18.666 22.696 18.8418 22.0124 18.8418 21.2637V20.3359C18.8418 20.2839 18.8158 20.2578 18.7637 20.2578H16.498C16.446 20.2578 16.4199 20.2839 16.4199 20.3359V21.2637C16.4199 21.6868 16.2767 22.071 15.9902 22.416C15.7038 22.7546 15.3457 22.9238 14.916 22.9238C14.5059 22.9238 14.1576 22.7708 13.8711 22.4648C13.5846 22.1523 13.4414 21.752 13.4414 21.2637V15.0234C13.4414 14.5938 13.5684 14.2161 13.8223 13.8906C14.0762 13.5651 14.4408 13.4023 14.916 13.4023C15.3457 13.4023 15.7038 13.5618 15.9902 13.8809C16.2767 14.1999 16.4199 14.5807 16.4199 15.0234V15.9414C16.4199 15.9935 16.446 16.0195 16.498 16.0195H18.7441C18.7962 16.0195 18.8223 15.9935 18.8223 15.9414V15.0234C18.8223 14.2747 18.6465 13.5977 18.2949 12.9922C17.9499 12.3802 17.4844 11.8952 16.8984 11.5371C16.319 11.179 15.6582 11 14.916 11C14.1868 11 13.5228 11.1855 12.9238 11.5566C12.3314 11.9212 11.8659 12.4062 11.5273 13.0117C11.1888 13.6107 11.0195 14.2812 11.0195 15.0234L11 21.2637C11 22.0189 11.1725 22.7057 11.5176 23.3242C11.8691 23.9362 12.3411 24.4245 12.9336 24.7891ZM54.7207 25.3359C54.0111 25.3359 53.3568 25.1536 52.7578 24.7891C52.1654 24.4245 51.6868 23.9395 51.3223 23.334C50.9642 22.722 50.7852 22.0514 50.7852 21.3223L50.8047 14.9844C50.8047 14.2422 50.9837 13.5749 51.3418 12.9824C51.6934 12.3835 52.1686 11.9049 52.7676 11.5469C53.3665 11.1823 54.0176 11 54.7207 11C55.4499 11 56.1042 11.179 56.6836 11.5371C57.2695 11.8952 57.7383 12.377 58.0898 12.9824C58.4479 13.5814 58.627 14.2487 58.627 14.9844L58.6465 21.3223C58.6465 22.0514 58.4707 22.7188 58.1191 23.3242C57.7611 23.9362 57.2858 24.4245 56.6934 24.7891C56.1009 25.1536 55.4434 25.3359 54.7207 25.3359ZM54.7207 22.9238C55.1243 22.9238 55.4759 22.7611 55.7754 22.4355C56.0749 22.1035 56.2246 21.7324 56.2246 21.3223L56.2051 14.9844C56.2051 14.5417 56.0651 14.1673 55.7852 13.8613C55.5052 13.5553 55.1504 13.4023 54.7207 13.4023C54.3105 13.4023 53.959 13.5521 53.666 13.8516C53.373 14.151 53.2266 14.5286 53.2266 14.9844V21.3223C53.2266 21.7585 53.373 22.1361 53.666 22.4551C53.959 22.7676 54.3105 22.9238 54.7207 22.9238ZM61.5957 24.7891C62.1947 25.1536 62.849 25.3359 63.5586 25.3359C64.2812 25.3359 64.9388 25.1602 65.5312 24.8086C66.1237 24.457 66.599 23.9785 66.957 23.373C67.3086 22.7676 67.4844 22.084 67.4844 21.3223C67.4844 20.5345 67.2891 19.8704 66.8984 19.3301C66.5143 18.7897 65.9902 18.334 65.3262 17.9629C65.2871 17.9434 65.1732 17.8848 64.9844 17.7871C64.7956 17.6829 64.584 17.569 64.3496 17.4453C64.1217 17.3151 63.9134 17.1979 63.7246 17.0938C63.5358 16.9896 63.4154 16.9245 63.3633 16.8984C62.8685 16.6315 62.5267 16.3516 62.3379 16.0586C62.1556 15.7656 62.0645 15.401 62.0645 14.9648C62.0645 14.5352 62.2109 14.1641 62.5039 13.8516C62.7969 13.5391 63.1484 13.3828 63.5586 13.3828C63.9622 13.3828 64.3105 13.5293 64.6035 13.8223C64.8965 14.1152 65.043 14.4961 65.043 14.9648L65.0625 16.6055C65.0625 16.6576 65.0885 16.6836 65.1406 16.6836H67.3867C67.4388 16.6836 67.4648 16.6576 67.4648 16.6055V14.9648C67.4648 14.2292 67.2858 13.5651 66.9277 12.9727C66.5762 12.3802 66.1042 11.9049 65.5117 11.5469C64.9193 11.1953 64.2682 11.0195 63.5586 11.0195C62.8685 11.0195 62.2272 11.1953 61.6348 11.5469C61.0488 11.8919 60.5736 12.3607 60.209 12.9531C59.8444 13.5521 59.6621 14.2227 59.6621 14.9648C59.6621 15.7721 59.8379 16.5013 60.1895 17.1523C60.5475 17.7969 61.0911 18.334 61.8203 18.7637C62.0221 18.8743 62.2305 18.9915 62.4453 19.1152C62.6602 19.2324 62.8815 19.3529 63.1094 19.4766C63.3372 19.6003 63.5326 19.7109 63.6953 19.8086C63.8646 19.8997 64.0013 19.9779 64.1055 20.043C64.7435 20.4076 65.0625 20.834 65.0625 21.3223C65.0625 21.7454 64.916 22.1198 64.623 22.4453C64.3301 22.7643 63.9753 22.9238 63.5586 22.9238C63.1484 22.9238 62.7969 22.7676 62.5039 22.4551C62.2109 22.1361 62.0645 21.7585 62.0645 21.3223V20.4043C62.0645 20.3327 62.0384 20.2969 61.9863 20.2969H59.7402C59.6751 20.2969 59.6426 20.3327 59.6426 20.4043V21.3223C59.6426 22.0514 59.8184 22.722 60.1699 23.334C60.528 23.9395 61.0033 24.4245 61.5957 24.7891ZM71.2148 25.1406H68.9492C68.8971 25.1406 68.8711 25.1081 68.8711 25.043L68.8906 11.3027C68.8906 11.2507 68.9232 11.2246 68.9883 11.2246H71.2148C71.2799 11.2246 71.3125 11.2507 71.3125 11.3027L71.293 16.7422H74.291V11.3027C74.291 11.2507 74.3171 11.2246 74.3691 11.2246H76.5957C76.6608 11.2246 76.6934 11.2507 76.6934 11.3027L76.7324 25.043C76.7324 25.1081 76.6999 25.1406 76.6348 25.1406H74.3887C74.3236 25.1406 74.291 25.1081 74.291 25.043V19.1641H71.293V25.043C71.293 25.1081 71.2669 25.1406 71.2148 25.1406ZM80.0918 24.7891C80.6908 25.1536 81.3418 25.3359 82.0449 25.3359C82.7806 25.3359 83.4447 25.1569 84.0371 24.7988C84.6296 24.4342 85.1048 23.946 85.4629 23.334C85.8145 22.7155 85.9902 22.0384 85.9902 21.3027L85.9512 11.3027C85.9512 11.2507 85.9251 11.2246 85.873 11.2246H83.627C83.5749 11.2246 83.5488 11.2507 83.5488 11.3027V21.3027C83.5488 21.752 83.4056 22.1361 83.1191 22.4551C82.8327 22.7676 82.4746 22.9238 82.0449 22.9238C81.6348 22.9238 81.2865 22.7676 81 22.4551C80.7135 22.1361 80.5703 21.752 80.5703 21.3027V11.3027C80.5703 11.2507 80.5443 11.2246 80.4922 11.2246H78.2461C78.194 11.2246 78.168 11.2507 78.168 11.3027L78.1289 21.3027C78.1289 22.0319 78.3047 22.7057 78.6562 23.3242C79.0143 23.9362 79.4928 24.4245 80.0918 24.7891ZM89.7402 25.1406H87.7383C87.6341 25.1406 87.582 25.0951 87.582 25.0039L87.5625 11.3809C87.5625 11.2767 87.6146 11.2246 87.7188 11.2246H89.5254L92.9043 19.1055L92.8066 11.3809C92.8066 11.2767 92.8652 11.2246 92.9824 11.2246H94.9648C95.043 11.2246 95.082 11.2767 95.082 11.3809L95.1016 25.0234C95.1016 25.1016 95.069 25.1406 95.0039 25.1406H93.2461L89.7793 17.7773L89.9258 24.9844C89.9258 25.0885 89.8639 25.1406 89.7402 25.1406ZM98.8516 25.1406H101.107C101.16 25.1406 101.186 25.1081 101.186 25.043L101.166 13.6367H103.793C103.845 13.6367 103.871 13.6042 103.871 13.5391V11.3027C103.871 11.2507 103.835 11.2246 103.764 11.2246H96.166C96.1139 11.2246 96.0879 11.2507 96.0879 11.3027L96.0684 13.5391C96.0684 13.6042 96.1009 13.6367 96.166 13.6367H98.7637V25.043C98.7637 25.1081 98.793 25.1406 98.8516 25.1406ZM111.391 25.1406H104.926C104.874 25.1406 104.848 25.1081 104.848 25.043L104.867 11.3027C104.867 11.2507 104.893 11.2246 104.945 11.2246H111.371C111.423 11.2246 111.449 11.2572 111.449 11.3223V13.5586C111.449 13.6107 111.423 13.6367 111.371 13.6367H107.27V16.7617H111.371C111.423 16.7617 111.449 16.7878 111.449 16.8398L111.469 19.1055C111.469 19.1576 111.443 19.1836 111.391 19.1836H107.27V22.6797H111.391C111.443 22.6797 111.469 22.7122 111.469 22.7773V25.0625C111.469 25.1146 111.443 25.1406 111.391 25.1406ZM115.59 25.1406H113.324C113.272 25.1406 113.246 25.1081 113.246 25.043L113.285 11.3027C113.285 11.2507 113.311 11.2246 113.363 11.2246H117.406C118.129 11.2246 118.793 11.4004 119.398 11.752C120.004 12.1035 120.486 12.5755 120.844 13.168C121.208 13.7604 121.391 14.431 121.391 15.1797C121.391 15.668 121.316 16.1107 121.166 16.5078C121.016 16.9049 120.84 17.2402 120.639 17.5137C120.443 17.7871 120.264 17.9889 120.102 18.1191C120.824 18.9199 121.186 19.8607 121.186 20.9414L121.205 25.043C121.205 25.1081 121.173 25.1406 121.107 25.1406H118.842C118.79 25.1406 118.764 25.1211 118.764 25.082V20.9414C118.764 20.4596 118.594 20.043 118.256 19.6914C117.917 19.3398 117.501 19.1641 117.006 19.1641H115.688L115.668 25.043C115.668 25.1081 115.642 25.1406 115.59 25.1406ZM117.406 13.6172H115.688V16.7617H117.406C117.816 16.7617 118.181 16.6087 118.5 16.3027C118.826 15.9967 118.988 15.6224 118.988 15.1797C118.988 14.7565 118.832 14.3919 118.52 14.0859C118.207 13.7734 117.836 13.6172 117.406 13.6172ZM41.918 25.1406H43.9199C44.0436 25.1406 44.1055 25.0885 44.1055 24.9844L43.959 17.7773L47.4258 25.1406H49.1836C49.2487 25.1406 49.2812 25.1016 49.2812 25.0234L49.2617 11.3809C49.2617 11.2767 49.2227 11.2246 49.1445 11.2246H47.1621C47.0449 11.2246 46.9863 11.2767 46.9863 11.3809L47.084 19.1055L43.7051 11.2246H41.8984C41.7943 11.2246 41.7422 11.2767 41.7422 11.3809L41.7617 25.0039C41.7617 25.0951 41.8138 25.1406 41.918 25.1406ZM39.9062 25.1406H37.6406C37.5755 25.1406 37.543 25.1081 37.543 25.043L37.5625 11.3027C37.5625 11.2507 37.5885 11.2246 37.6406 11.2246H39.8867C39.9388 11.2246 39.9648 11.2507 39.9648 11.3027L39.9844 25.043C39.9844 25.1081 39.9583 25.1406 39.9062 25.1406ZM30.2676 24.7891C30.8665 25.1536 31.5208 25.3359 32.2305 25.3359C32.9531 25.3359 33.6107 25.1602 34.2031 24.8086C34.7956 24.457 35.2708 23.9785 35.6289 23.373C35.9805 22.7676 36.1562 22.084 36.1562 21.3223C36.1562 20.5345 35.9609 19.8704 35.5703 19.3301C35.1862 18.7897 34.6621 18.334 33.998 17.9629C33.959 17.9434 33.8451 17.8848 33.6562 17.7871C33.4674 17.6829 33.2559 17.569 33.0215 17.4453C32.7936 17.3151 32.5853 17.1979 32.3965 17.0938C32.2077 16.9896 32.0872 16.9245 32.0352 16.8984C31.5404 16.6315 31.1986 16.3516 31.0098 16.0586C30.8275 15.7656 30.7363 15.401 30.7363 14.9648C30.7363 14.5352 30.8828 14.1641 31.1758 13.8516C31.4688 13.5391 31.8203 13.3828 32.2305 13.3828C32.6341 13.3828 32.9824 13.5293 33.2754 13.8223C33.5684 14.1152 33.7148 14.4961 33.7148 14.9648L33.7344 16.6055C33.7344 16.6576 33.7604 16.6836 33.8125 16.6836H36.0586C36.1107 16.6836 36.1367 16.6576 36.1367 16.6055V14.9648C36.1367 14.2292 35.9577 13.5651 35.5996 12.9727C35.248 12.3802 34.776 11.9049 34.1836 11.5469C33.5911 11.1953 32.9401 11.0195 32.2305 11.0195C31.5404 11.0195 30.8991 11.1953 30.3066 11.5469C29.7207 11.8919 29.2454 12.3607 28.8809 12.9531C28.5163 13.5521 28.334 14.2227 28.334 14.9648C28.334 15.7721 28.5098 16.5013 28.8613 17.1523C29.2194 17.7969 29.763 18.334 30.4922 18.7637C30.694 18.8743 30.9023 18.9915 31.1172 19.1152C31.332 19.2324 31.5534 19.3529 31.7812 19.4766C32.0091 19.6003 32.2044 19.7109 32.3672 19.8086C32.5365 19.8997 32.6732 19.9779 32.7773 20.043C33.4154 20.4076 33.7344 20.834 33.7344 21.3223C33.7344 21.7454 33.5879 22.1198 33.2949 22.4453C33.002 22.7643 32.6471 22.9238 32.2305 22.9238C31.8203 22.9238 31.4688 22.7676 31.1758 22.4551C30.8828 22.1361 30.7363 21.7585 30.7363 21.3223V20.4043C30.7363 20.3327 30.7103 20.2969 30.6582 20.2969H28.4121C28.347 20.2969 28.3145 20.3327 28.3145 20.4043V21.3223C28.3145 22.0514 28.4902 22.722 28.8418 23.334C29.1999 23.9395 29.6751 24.4245 30.2676 24.7891ZM19.623 25.043L22.1035 11.3027C22.1165 11.2507 22.1491 11.2246 22.2012 11.2246H25.1016C25.1536 11.2246 25.1862 11.2507 25.1992 11.3027L27.582 25.043C27.5885 25.1081 27.5625 25.1406 27.5039 25.1406H25.2871C25.222 25.1406 25.1862 25.1081 25.1797 25.043L24.9648 23.5781H22.2402L22.0254 25.043C22.0189 25.1081 21.9863 25.1406 21.9277 25.1406H19.7012C19.6491 25.1406 19.623 25.1081 19.623 25.043ZM23.7441 15.8242L23.627 15.082L23.5391 15.8242L22.6406 21.4395H24.5645L23.7441 15.8242Z" fill="white"/>
<path fill-rule="evenodd" clip-rule="evenodd" d="M0 0H123C128.523 0 133 4.47715 133 10V26C133 31.5228 128.523 36 123 36H10C4.47715 36 0 31.5228 0 26V0ZM3 3V26C3 29.866 6.134 33 10 33H123C126.866 33 130 29.866 130 26V10C130 6.13401 126.866 3 123 3H3Z" fill="#EE2F31"/>
</svg>
