<svg width="190" height="40" viewBox="0 0 190 40" fill="none" xmlns="http://www.w3.org/2000/svg">
<g clip-path="url(#clip0_13692_5618)">
<path d="M61.3648 8.30098C60.9799 7.61049 60.4508 7.08478 59.7773 6.72384C59.1038 6.36291 58.3181 6.18244 57.4201 6.18244C56.4259 6.18244 55.5439 6.40214 54.7742 6.84154C54.0045 7.28094 53.4032 7.90865 52.9703 8.72468C52.5373 9.54071 52.3208 10.4823 52.3208 11.5494C52.3208 12.6479 52.5373 13.6052 52.9703 14.4212C53.4192 15.2372 54.0366 15.8649 54.8223 16.3043C55.6081 16.7437 56.5221 16.9634 57.5644 16.9634C58.8472 16.9634 59.8976 16.6339 60.7154 15.9748C61.5332 15.3 62.0703 14.3663 62.3269 13.1736H56.5542V10.6549H65.6462V13.5267C65.4217 14.6723 64.9407 15.7315 64.2031 16.7045C63.4654 17.6775 62.5113 18.4621 61.3407 19.0584C60.1862 19.6391 58.8873 19.9294 57.4441 19.9294C55.8246 19.9294 54.3573 19.5763 53.0424 18.8701C51.7435 18.1483 50.7173 17.1518 49.9636 15.8806C49.226 14.6095 48.8572 13.1658 48.8572 11.5494C48.8572 9.93303 49.226 8.48929 49.9636 7.21817C50.7173 5.93135 51.7435 4.93486 53.0424 4.22868C54.3573 3.50681 55.8165 3.14587 57.4201 3.14587C59.3123 3.14587 60.9559 3.60096 62.351 4.51115C63.746 5.40564 64.7082 6.66892 65.2373 8.30098H61.3648Z" fill="white"/>
<path d="M67.2717 13.2207C67.2717 11.9025 67.5363 10.7334 68.0655 9.71333C68.6107 8.6933 69.3403 7.90865 70.2543 7.35941C71.1843 6.81015 72.2186 6.53553 73.3571 6.53553C74.3513 6.53553 75.2172 6.73169 75.9549 7.12401C76.7085 7.51633 77.3099 8.01066 77.7589 8.60699V6.74738H81.1503V19.7882H77.7589V17.8815C77.3259 18.4935 76.7246 19.0035 75.9549 19.4115C75.2012 19.8038 74.3273 20 73.3331 20C72.2106 20 71.1843 19.7175 70.2543 19.1526C69.3403 18.5877 68.6107 17.7952 68.0655 16.7751C67.5363 15.7394 67.2717 14.5546 67.2717 13.2207ZM77.7589 13.2678C77.7589 12.4674 77.5985 11.7848 77.2778 11.2198C76.9571 10.6392 76.5241 10.1998 75.9789 9.90165C75.4337 9.58779 74.8484 9.43086 74.2231 9.43086C73.5977 9.43086 73.0204 9.57994 72.4912 9.87811C71.9621 10.1763 71.5291 10.6157 71.1924 11.1963C70.8717 11.7613 70.7113 12.436 70.7113 13.2207C70.7113 14.0053 70.8717 14.6958 71.1924 15.2921C71.5291 15.8728 71.9621 16.32 72.4912 16.6339C73.0364 16.9477 73.6137 17.1047 74.2231 17.1047C74.8484 17.1047 75.4337 16.9556 75.9789 16.6574C76.5241 16.3436 76.9571 15.9042 77.2778 15.3392C77.5985 14.7586 77.7589 14.0681 77.7589 13.2678Z" fill="white"/>
<path d="M100.988 6.55907C102.623 6.55907 103.938 7.05339 104.932 8.04204C105.943 9.015 106.448 10.3803 106.448 12.1379V19.7882H103.08V12.5851C103.08 11.5651 102.816 10.7883 102.287 10.2547C101.757 9.70549 101.036 9.43086 100.122 9.43086C99.2078 9.43086 98.4782 9.70549 97.933 10.2547C97.4039 10.7883 97.1393 11.5651 97.1393 12.5851V19.7882H93.7718V12.5851C93.7718 11.5651 93.5073 10.7883 92.9781 10.2547C92.4489 9.70549 91.7273 9.43086 90.8133 9.43086C89.8832 9.43086 89.1456 9.70549 88.6004 10.2547C88.0712 10.7883 87.8067 11.5651 87.8067 12.5851V19.7882H84.4392V6.74738H87.8067V8.32452C88.2396 7.77527 88.7928 7.34371 89.4663 7.02985C90.1559 6.716 90.9095 6.55907 91.7273 6.55907C92.7696 6.55907 93.6997 6.77877 94.5175 7.21817C95.3353 7.64188 95.9687 8.2539 96.4177 9.05423C96.8506 8.30098 97.476 7.6968 98.2938 7.24171C99.1277 6.78661 100.026 6.55907 100.988 6.55907Z" fill="white"/>
<path d="M113.011 8.65407C113.444 8.02635 114.037 7.51633 114.791 7.12401C115.56 6.73169 116.434 6.53553 117.412 6.53553C118.551 6.53553 119.577 6.81015 120.491 7.35941C121.421 7.90865 122.151 8.6933 122.68 9.71333C123.225 10.7177 123.498 11.8868 123.498 13.2207C123.498 14.5546 123.225 15.7394 122.68 16.7751C122.151 17.7952 121.421 18.5877 120.491 19.1526C119.577 19.7175 118.551 20 117.412 20C116.418 20 115.544 19.8117 114.791 19.4351C114.053 19.0427 113.46 18.5406 113.011 17.9285V19.7882H109.643V2.36907H113.011V8.65407ZM120.058 13.2207C120.058 12.436 119.89 11.7613 119.553 11.1963C119.232 10.6157 118.8 10.1763 118.254 9.87811C117.725 9.57994 117.148 9.43086 116.522 9.43086C115.913 9.43086 115.336 9.58779 114.791 9.90165C114.262 10.1998 113.829 10.6392 113.492 11.2198C113.171 11.8005 113.011 12.4831 113.011 13.2678C113.011 14.0524 113.171 14.7351 113.492 15.3157C113.829 15.8963 114.262 16.3436 114.791 16.6574C115.336 16.9556 115.913 17.1047 116.522 17.1047C117.148 17.1047 117.725 16.9477 118.254 16.6339C118.8 16.32 119.232 15.8728 119.553 15.2921C119.89 14.7115 120.058 14.021 120.058 13.2207Z" fill="white"/>
<path d="M129.312 2.36907V19.7882H125.945V2.36907H129.312Z" fill="white"/>
<path d="M134.347 5.19379C133.754 5.19379 133.257 5.01332 132.856 4.65239C132.471 4.27576 132.279 3.81282 132.279 3.26357C132.279 2.71432 132.471 2.25922 132.856 1.89829C133.257 1.52166 133.754 1.33334 134.347 1.33334C134.94 1.33334 135.43 1.52166 135.814 1.89829C136.215 2.25922 136.416 2.71432 136.416 3.26357C136.416 3.81282 136.215 4.27576 135.814 4.65239C135.43 5.01332 134.94 5.19379 134.347 5.19379ZM136.007 6.74738V19.7882H132.639V6.74738H136.007Z" fill="white"/>
<path d="M142.413 17.0811H148.354V19.7882H138.588V17.1282L144.409 9.4544H138.612V6.74738H148.282V9.40732L142.413 17.0811Z" fill="white"/>
<path d="M150.095 13.2207C150.095 11.9025 150.36 10.7334 150.889 9.71333C151.434 8.6933 152.164 7.90865 153.078 7.35941C154.008 6.81015 155.042 6.53553 156.181 6.53553C157.175 6.53553 158.041 6.73169 158.778 7.12401C159.532 7.51633 160.133 8.01066 160.582 8.60699V6.74738H163.974V19.7882H160.582V17.8815C160.149 18.4935 159.548 19.0035 158.778 19.4115C158.025 19.8038 157.151 20 156.157 20C155.034 20 154.008 19.7175 153.078 19.1526C152.164 18.5877 151.434 17.7952 150.889 16.7751C150.36 15.7394 150.095 14.5546 150.095 13.2207ZM160.582 13.2678C160.582 12.4674 160.422 11.7848 160.101 11.2198C159.781 10.6392 159.348 10.1998 158.802 9.90165C158.257 9.58779 157.672 9.43086 157.047 9.43086C156.421 9.43086 155.844 9.57994 155.315 9.87811C154.786 10.1763 154.353 10.6157 154.016 11.1963C153.695 11.7613 153.535 12.436 153.535 13.2207C153.535 14.0053 153.695 14.6958 154.016 15.2921C154.353 15.8728 154.786 16.32 155.315 16.6339C155.86 16.9477 156.437 17.1047 157.047 17.1047C157.672 17.1047 158.257 16.9556 158.802 16.6574C159.348 16.3436 159.781 15.9042 160.101 15.3392C160.422 14.7586 160.582 14.0681 160.582 13.2678Z" fill="white"/>
<path d="M170.63 8.77176C171.063 8.08128 171.624 7.53987 172.314 7.14755C173.019 6.75523 173.821 6.55907 174.719 6.55907V10.0193H173.829C172.771 10.0193 171.969 10.2626 171.424 10.7491C170.895 11.2355 170.63 12.083 170.63 13.2913V19.7882H167.263V6.74738H170.63V8.77176Z" fill="white"/>
<path d="M176.121 13.2207C176.121 11.9025 176.386 10.7334 176.915 9.71333C177.46 8.6933 178.198 7.90865 179.128 7.35941C180.058 6.81015 181.092 6.53553 182.231 6.53553C183.097 6.53553 183.923 6.72384 184.708 7.10047C185.494 7.46141 186.119 7.94789 186.584 8.55991V2.36907H190V19.7882H186.584V17.8579C186.168 18.5013 185.582 19.0192 184.829 19.4115C184.075 19.8038 183.201 20 182.207 20C181.084 20 180.058 19.7175 179.128 19.1526C178.198 18.5877 177.46 17.7952 176.915 16.7751C176.386 15.7394 176.121 14.5546 176.121 13.2207ZM186.609 13.2678C186.609 12.4674 186.448 11.7848 186.127 11.2198C185.807 10.6392 185.374 10.1998 184.829 9.90165C184.283 9.58779 183.698 9.43086 183.073 9.43086C182.447 9.43086 181.87 9.57994 181.341 9.87811C180.812 10.1763 180.379 10.6157 180.042 11.1963C179.721 11.7613 179.561 12.436 179.561 13.2207C179.561 14.0053 179.721 14.6958 180.042 15.2921C180.379 15.8728 180.812 16.32 181.341 16.6339C181.886 16.9477 182.463 17.1047 183.073 17.1047C183.698 17.1047 184.283 16.9556 184.829 16.6574C185.374 16.3436 185.807 15.9042 186.127 15.3392C186.448 14.7586 186.609 14.0681 186.609 13.2678Z" fill="white"/>
<path fill-rule="evenodd" clip-rule="evenodd" d="M40.8571 25.7751C40.8571 32.7295 30.7726 33.9818 23.6541 31.4894C23.6541 32.0973 24.2028 33.7629 26.3977 35.5623C28.5926 37.3617 30.476 37.771 31.1434 37.7508V40H9.71377V37.8723C10.6036 37.7102 12.8281 37.0213 14.6077 35.5623C16.3873 34.1033 17.0794 32.2391 17.203 31.4894C17.2005 31.4902 17.198 31.4911 17.1954 31.4919C17.2708 31.2062 17.3383 30.9176 17.4039 30.6375C17.4711 30.3503 17.5362 30.072 17.6055 29.8151C18.0862 28.033 20.5577 25.5847 22.1409 24.0164C22.4336 23.7264 22.696 23.4665 22.9098 23.2464C23.2421 22.9044 23.62 22.5421 24.0092 22.1689L24.0092 22.1688C25.2244 21.0036 26.5504 19.732 26.9495 18.638C27.1866 17.9882 27.2657 17.3312 27.2657 17.3312C27.2657 17.3312 28.6708 16.9185 29.7246 15.9555C30.761 15.0085 31.0946 13.273 31.0946 13.273C30.8252 13.6291 30.4991 13.8777 30.1111 14.0984C30.0113 13.7242 29.8793 13.3868 29.6544 13.0667C29.6427 13.5825 29.5833 14.7627 29.1275 15.3365C28.3979 16.2549 27.8057 16.4331 27.351 16.57L27.3359 16.5746C27.316 16.4237 27.3003 16.2653 27.2842 16.1035C27.1903 15.1585 27.0848 14.0965 26.0713 13.7201C25.2563 13.4175 19.5726 14.9238 19.5726 14.9238C19.5726 14.9238 16.376 11.8974 13.0037 14.1328C10.8382 15.5683 10.6102 17.4139 10.5227 18.1222C10.518 18.1599 10.5138 18.1943 10.5096 18.2253C10.4043 19.0163 10.2286 20.2544 9.77193 20.8047C9.67904 20.9166 9.5576 21.0406 9.41824 21.1828L9.41822 21.1829C8.87246 21.74 8.05182 22.5778 7.594 24.0718C6.98677 26.0535 2.87958 28.9703 1.44593 29.9399C0.540522 28.911 0 27.5473 0 25.7751C0 16.8974 20.3915 0 20.3915 0C20.3915 0 40.8571 16.9128 40.8571 25.7751ZM15.814 22.4211C17.9674 22.4211 19.7132 20.7119 19.7132 18.6037C19.7132 16.4954 17.9674 14.7862 15.814 14.7862C13.6605 14.7862 11.9147 16.4954 11.9147 18.6037C11.9147 20.7119 13.6605 22.4211 15.814 22.4211ZM14.9709 16.2307C15.2636 16.3682 16.1863 17.1592 16.6922 18.1222C17.1213 18.9391 17.2774 19.888 17.3792 20.507L17.3792 20.507L17.3793 20.5073L17.3793 20.5075C17.3975 20.6179 17.4139 20.7179 17.4299 20.8047C17.746 20.2086 18.1886 18.7068 17.4299 17.6063C16.6711 16.5058 15.4744 16.2307 14.9709 16.2307Z" fill="white"/>
<path d="M70.0442 39C68.7375 39 67.5375 38.6933 66.4442 38.08C65.3508 37.4667 64.4842 36.62 63.8442 35.54C63.2042 34.4467 62.8842 33.2133 62.8842 31.84C62.8842 30.48 63.2042 29.26 63.8442 28.18C64.4842 27.0867 65.3508 26.2333 66.4442 25.62C67.5375 25.0067 68.7375 24.7 70.0442 24.7C71.3642 24.7 72.5642 25.0067 73.6442 25.62C74.7375 26.2333 75.5975 27.0867 76.2242 28.18C76.8642 29.26 77.1842 30.48 77.1842 31.84C77.1842 33.2133 76.8642 34.4467 76.2242 35.54C75.5975 36.62 74.7375 37.4667 73.6442 38.08C72.5508 38.6933 71.3508 39 70.0442 39ZM70.0442 36.5C70.8842 36.5 71.6242 36.3133 72.2642 35.94C72.9042 35.5533 73.4042 35.0067 73.7642 34.3C74.1242 33.5933 74.3042 32.7733 74.3042 31.84C74.3042 30.9067 74.1242 30.0933 73.7642 29.4C73.4042 28.6933 72.9042 28.1533 72.2642 27.78C71.6242 27.4067 70.8842 27.22 70.0442 27.22C69.2042 27.22 68.4575 27.4067 67.8042 27.78C67.1642 28.1533 66.6642 28.6933 66.3042 29.4C65.9442 30.0933 65.7642 30.9067 65.7642 31.84C65.7642 32.7733 65.9442 33.5933 66.3042 34.3C66.6642 35.0067 67.1642 35.5533 67.8042 35.94C68.4575 36.3133 69.2042 36.5 70.0442 36.5Z" fill="#99B0BF"/>
<path d="M60.7972 38.86H57.9972L51.6572 29.28V38.86H48.8572V24.88H51.6572L57.9972 34.48V24.88H60.7972V38.86Z" fill="#99B0BF"/>
</g>
<defs>
<clipPath id="clip0_13692_5618">
<rect width="190" height="40" fill="white"/>
</clipPath>
</defs>
</svg>
