<svg width="224" height="26" viewBox="0 0 224 26" fill="none" xmlns="http://www.w3.org/2000/svg">
<g clip-path="url(#clip0_686_27702)">
<path d="M28.4412 24.6188H21.0812V10.5862L14.4117 18.7027H13.8371L7.16763 10.5862V24.6188H0V0.385707H6.70736L14.2202 9.44919L21.7713 0.385707H28.479V24.6188H28.4412ZM45.9961 6.79441C45.4593 6.60509 44.8455 6.49073 44.1175 6.49073C42.7378 6.49073 41.5493 6.98337 40.5526 8.00762C39.5563 9.03187 38.8281 10.055 38.4451 11.1175V6.83228H32.0818V24.6188H38.4451V16.9585C39.0583 15.327 39.6714 14.2277 40.3229 13.6208C40.9747 13.0149 41.7794 12.7109 42.6609 12.7109C43.619 12.7109 44.6156 13.166 45.5737 14.0755L47.9122 7.78043C47.184 7.36278 46.5321 7.02199 45.9961 6.79441ZM112.536 22.8747V11.2697H102.763V16.1612H106.097V19.006C105.063 19.2714 104.066 19.3846 103.107 19.3846C101.46 19.3846 100.042 19.0435 98.8918 18.4372C97.7409 17.8307 96.8608 16.9964 96.2853 15.9718C95.7099 14.9487 95.4034 13.8105 95.4034 12.5965C95.4034 11.5355 95.6714 10.4738 96.17 9.37379C96.7071 8.27419 97.5881 7.32641 98.8534 6.52935C100.118 5.73268 101.804 5.31577 103.951 5.31577C105.829 5.31577 107.363 5.54372 108.588 5.96061C109.854 6.37751 111.004 6.90839 112.115 7.5536V1.82686C110.467 1.33386 108.934 0.878713 107.515 0.575412C106.136 0.233869 104.334 0.0820312 102.188 0.0820312C100.884 0.0820312 99.6959 0.157763 98.6228 0.309226C97.5497 0.461064 96.439 0.764367 95.2881 1.21951C94.1381 1.6364 93.0267 2.31949 91.9154 3.15329C90.5739 4.17754 89.5769 5.54334 88.9251 7.24955C88.2737 8.95652 87.9284 10.6627 87.9284 12.4447C87.9284 15.1762 88.5807 17.4899 89.8453 19.3843C91.1099 21.2817 92.7962 22.6463 94.9048 23.5566C97.0126 24.4291 99.3126 24.8838 101.804 24.8838C103.031 24.8838 104.219 24.8467 105.331 24.6941C106.442 24.5798 107.554 24.3901 108.665 24.1254C109.317 23.936 109.814 23.8213 110.16 23.7084C110.504 23.5949 110.85 23.4806 111.233 23.3669C111.578 23.2533 112.037 23.064 112.575 22.8747H112.536ZM135.304 23.7089V20.3718C134.653 20.7133 134.079 20.8644 133.695 20.8644C133.349 20.8644 133.12 20.6743 133.004 20.3718C132.89 20.0677 132.813 19.5743 132.813 18.9306V12.066C132.813 10.3212 132.162 8.95652 130.858 7.97013C129.554 6.98374 127.6 6.49111 124.994 6.49111C123.958 6.49111 122.962 6.56722 121.966 6.75655C120.969 6.94588 120.011 7.21169 119.09 7.55323C118.171 7.8944 117.327 8.34954 116.522 8.91828V13.8105C117.519 12.8627 118.593 12.0664 119.781 11.4595C120.968 10.8528 122.272 10.5495 123.652 10.5495C124.84 10.5495 125.607 10.8149 125.952 11.2697C126.297 11.7248 126.489 12.4072 126.489 13.2796C126.259 13.3939 126.029 13.5075 125.799 13.5837C125.607 13.6587 125.262 13.773 124.802 13.9252C124.342 14.0755 123.69 14.3042 122.808 14.569C121.237 15.0619 120.011 15.5178 119.052 15.9718C118.094 16.4281 117.366 16.9964 116.79 17.717C116.216 18.4372 115.948 19.3479 115.948 20.4467C115.948 21.1677 116.139 21.8504 116.445 22.5331C116.752 23.2162 117.326 23.7846 118.131 24.239C118.937 24.6945 120.011 24.9221 121.313 24.9221C122.693 24.9221 123.766 24.7324 124.61 24.3905C125.415 24.0114 126.18 23.5566 126.871 23.0254C127.062 23.5566 127.33 23.9743 127.753 24.3529C128.174 24.7324 128.903 24.9221 129.937 24.9221C131.049 24.9221 131.969 24.808 132.774 24.5802C133.541 24.3533 134.422 24.0878 135.342 23.7089H135.304ZM125.262 21.1673C124.84 21.3953 124.38 21.5085 123.958 21.5085C123.499 21.5085 123.077 21.3566 122.732 21.0534C122.386 20.7505 122.196 20.2945 122.196 19.6879C122.196 18.853 122.54 18.2097 123.231 17.7163C123.921 17.2225 125.032 16.692 126.527 16.0854V20.2942C126.067 20.6361 125.607 20.9402 125.262 21.1673ZM170.069 24.6188V13.7351C170.069 12.2171 169.84 10.8907 169.38 9.82814C168.919 8.76644 168.192 7.93189 167.233 7.36278C166.275 6.79441 165.049 6.49111 163.631 6.49111C162.212 6.49111 160.947 6.79479 159.836 7.36278C158.723 7.93227 157.689 8.80468 156.654 9.9418C156.386 9.33479 156.041 8.76644 155.619 8.3113C155.197 7.85616 154.699 7.47676 154.162 7.21169C153.627 6.94588 153.051 6.75655 152.514 6.64257C151.939 6.5286 151.364 6.49073 150.751 6.49073C149.486 6.49073 148.337 6.71794 147.34 7.17308C146.343 7.62821 145.384 8.38665 144.427 9.37305V6.83228H138.064V24.6188H144.427V14.1892C144.503 14.0385 144.733 13.7726 145.078 13.3167C145.423 12.8627 145.729 12.5212 145.959 12.294C146.189 12.0274 146.534 11.838 146.917 11.6488C147.301 11.4591 147.761 11.3829 148.221 11.3829C149.217 11.3829 149.907 11.7248 150.291 12.3694C150.673 13.0149 150.865 13.9248 150.865 15.1376V24.6192H157.228V14.1892C157.803 13.3936 158.34 12.7109 158.914 12.1797C159.489 11.6488 160.218 11.3829 161.099 11.3829C162.019 11.3829 162.671 11.7248 163.093 12.3315C163.513 12.9376 163.706 13.8858 163.706 15.1372V24.6188H170.069ZM192.493 12.3315C192.148 11.2319 191.611 10.2076 190.921 9.33479C190.193 8.46314 189.311 7.78043 188.199 7.24918C187.089 6.75617 185.824 6.49073 184.367 6.49073C183.255 6.49073 182.297 6.64257 181.492 6.90763C180.648 7.17308 179.997 7.47675 179.537 7.85578V0.385707H173.174V24.543H179.537V22.9497C179.959 23.2912 180.342 23.5952 180.727 23.86C181.11 24.0875 181.646 24.3158 182.336 24.543C183.025 24.7695 183.83 24.8838 184.789 24.8838C186.092 24.8838 187.356 24.5798 188.621 23.9364C189.886 23.2912 190.921 22.3048 191.726 20.9402C192.531 19.574 192.952 17.8685 192.952 15.82C192.952 14.6064 192.8 13.469 192.493 12.3315ZM185.134 19.2339C184.367 19.8783 183.6 20.1821 182.795 20.1821C181.53 20.1821 180.456 19.7648 179.574 18.9303V12.1421C180.763 11.3829 181.837 11.0046 182.795 11.0046C183.715 11.0046 184.559 11.4219 185.249 12.2171C185.938 13.0145 186.283 14.1892 186.283 15.7067C186.283 17.4126 185.899 18.6265 185.134 19.2339ZM201.806 0.385707H195.444V24.6188H201.806V0.385707ZM223.962 17.2229V15.9715C223.962 13.7351 223.54 11.9142 222.658 10.5117C221.816 9.07012 220.665 8.04624 219.324 7.43963C217.982 6.79479 216.564 6.49149 215.107 6.49149C212.922 6.49149 211.044 6.87052 209.473 7.66683C207.901 8.46351 206.752 9.56387 205.984 10.9286C205.218 12.3322 204.834 13.8866 204.834 15.6307C204.834 17.3758 205.218 18.9684 205.984 20.3718C206.751 21.7368 207.901 22.875 209.473 23.671C211.006 24.4669 212.883 24.8842 215.107 24.8842C217.139 24.8842 218.825 24.6945 220.167 24.3158C221.47 23.9364 222.619 23.5183 223.539 23.0257V19.12C220.972 20.2945 218.595 20.9027 216.449 20.9027C215.222 20.9027 214.11 20.5611 213.152 19.8783C212.194 19.1953 211.581 18.3229 211.351 17.2229H224H223.962ZM211.16 14.1141C211.16 12.9763 211.505 12.066 212.155 11.3829C212.808 10.701 213.65 10.3598 214.723 10.3598C215.797 10.3598 216.602 10.701 217.176 11.3829C217.751 12.066 218.02 12.9763 218.02 14.1141H211.16Z" fill="#181C1F"/>
<path d="M71.3277 5.39345C67.1012 2.01626 62.3288 0 58.5618 0C56.8308 0 55.4015 0.438644 54.3538 1.26607L54.2959 1.25145L54.0786 1.49214C53.9121 1.6451 53.7546 1.80707 53.6115 1.98215C53.5483 2.05938 53.4919 2.14074 53.434 2.22134C53.0555 2.65811 52.5244 3.28196 51.9672 3.97629C51.072 5.06465 50.6939 6.53505 50.8737 8.22889C51.2787 12.0466 54.4083 16.7123 59.0406 20.4055C63.2634 23.7723 68.0323 25.7829 71.7986 25.7829C73.9872 25.7829 75.7027 25.0942 76.7595 23.7907C77.1528 23.3047 77.5952 22.7499 77.9356 22.3214C78.1108 22.1624 78.2774 21.9944 78.4272 21.8111C81.4035 18.1643 78.2849 10.9533 71.3277 5.39345Z" fill="black"/>
<path d="M76.4765 22.4469C73.8227 25.6813 66.554 24.1591 60.1696 19.0982C53.7855 14.0369 50.7857 7.26417 53.4009 4.02946C54.4392 2.77351 55.4006 1.70801 55.4006 1.70801C55.4006 1.70801 65.8617 4.29601 69.7075 7.37777C74.246 11.0309 78.2075 20.2769 78.2075 20.2769C78.2075 20.2769 77.2074 21.4954 76.4765 22.4469Z" fill="#FFAC30"/>
<path d="M55.0378 2.05743C57.6674 -1.16304 64.9561 0.34672 71.3179 5.43013C77.6804 10.5139 80.7063 17.2454 78.0775 20.467C75.4483 23.6875 68.1596 22.1777 61.7974 17.0947C55.4353 12.0105 52.409 5.27829 55.0378 2.05743Z" fill="#FDB913"/>
<path d="M57.4375 0.529496C58.8607 1.67072 78.1288 21.3819 78.1288 21.3819C78.1288 21.3819 79.0902 19.7459 79.2057 18.7561C79.3208 17.766 78.9366 15.8262 78.5902 14.7989C78.2443 13.7709 77.3597 11.8686 76.9751 11.3742C76.5515 10.8789 68.4372 10.8032 68.4372 10.8032C68.4372 10.8032 66.5526 3.72561 66.1295 2.08912C62.4755 0.30155 59.3225 0.110721 57.4375 0.529496Z" fill="black"/>
<path d="M55.7851 10.501H68.6305L65.823 19.6338L64.0924 22.5254C64.0924 22.5254 55.7854 17.6163 54.1699 12.4798C55.0927 11.3378 55.7851 10.501 55.7851 10.501Z" fill="black"/>
<path d="M57.6734 3.82578C59.6354 1.42223 65.3249 2.74941 70.3814 6.78982C75.4385 10.8306 77.9473 16.0542 75.9855 18.4581C74.0236 20.8613 68.3341 19.5345 63.2774 15.4941C58.2204 11.4529 55.7116 6.22932 57.6734 3.82578Z" fill="white"/>
<path d="M72.8912 20.2183C70.0073 20.2183 66.2804 18.6159 62.921 15.9315C57.5392 11.631 55.0407 6.15878 57.2323 3.47367C57.9832 2.55364 59.2062 2.06738 60.7684 2.06738C63.6524 2.06738 67.3792 3.66975 70.7385 6.35372C76.1204 10.6543 78.6189 16.1265 76.4273 18.812C75.6764 19.7316 74.4538 20.2183 72.8912 20.2183ZM60.7684 3.19061C59.9266 3.19061 58.7827 3.36232 58.1157 4.17925C56.3836 6.30161 58.911 11.283 63.6346 15.0577C66.7509 17.5482 70.298 19.095 72.8912 19.095C73.7334 19.095 74.8769 18.9237 75.5442 18.1064C77.2764 15.9836 74.7486 11.0019 70.025 7.22764C66.9087 4.73749 63.3616 3.19061 60.7684 3.19061Z" fill="black"/>
</g>
<defs>
<clipPath id="clip0_686_27702">
<rect width="224" height="26" fill="white"/>
</clipPath>
</defs>
</svg>
