<svg width="6" height="10" viewBox="0 0 6 10" fill="none" xmlns="http://www.w3.org/2000/svg">
<path d="M0.166992 0.255523C0.420796 -0.0469503 0.872243 -0.0869743 1.1748 0.166655L5.74414 4.00162C5.76319 4.0176 5.77894 4.03689 5.7959 4.05435C5.80748 4.06633 5.82115 4.07655 5.83203 4.08951C5.83315 4.09086 5.83385 4.09304 5.83496 4.09439C5.85816 4.12239 5.87717 4.15268 5.89551 4.18326C5.90172 4.19358 5.90941 4.20299 5.91504 4.21353C5.97385 4.32401 5.9996 4.44676 5.99609 4.56998C5.99565 4.58558 5.99756 4.60132 5.99609 4.61685C5.98902 4.69189 5.96761 4.76495 5.93652 4.8356C5.93011 4.85027 5.92443 4.86527 5.91699 4.87955C5.90329 4.9057 5.88636 4.92999 5.86914 4.95474C5.85942 4.96877 5.85165 4.98429 5.84082 4.99771C5.83796 5.00128 5.83596 5.00591 5.83301 5.00943C5.81698 5.0285 5.7968 5.04324 5.7793 5.06021C5.76717 5.07196 5.75727 5.0863 5.74414 5.09732L1.1748 8.9313C0.872256 9.18502 0.420832 9.14588 0.166992 8.84341C-0.0868416 8.54087 -0.0466389 8.08948 0.255859 7.8356L4.17187 4.54849L0.255859 1.26236C-0.0465425 1.00861 -0.086445 0.558082 0.166992 0.255523Z" fill="#D7D7D7"/>
</svg>
