<svg width="154" height="154" viewBox="0 0 154 154" fill="none" xmlns="http://www.w3.org/2000/svg">
<g id="img">
<g id="Layer 10">
<path id="Vector" d="M135.428 124.392C135.485 124.389 135.515 124.385 135.515 124.378C135.522 124.373 135.527 124.369 135.534 124.364C135.536 124.359 135.541 124.352 135.543 124.348C135.504 124.362 135.467 124.378 135.428 124.392Z" fill="black"/>
<path id="Vector_2" d="M63.9294 7.18664C61.9499 6.61464 59.7276 7.3587 57.6903 7.13083C60.0329 6.25889 62.4263 6.57046 64.8475 5.83571C61.1197 5.52878 57.5423 5.64969 53.8307 6.1217C55.9305 4.87308 58.9205 5.13583 61.2747 4.98237C59.2952 4.55454 57.3758 4.68475 55.461 4.64754C56.7468 4.18483 58.0834 4.01509 59.4432 3.91976C58.9807 3.81745 58.5182 3.71747 58.0973 3.62446H62.3754C62.3847 3.58029 62.3939 3.53611 62.4032 3.49425C61.4134 3.29894 60.4052 3.14083 59.4362 2.86181C62.1002 2.14333 64.8521 2.07357 67.5901 1.83873C66.5009 2.22936 65.4094 2.61999 64.3202 3.01062C66.6651 3.0455 68.7117 1.81548 71.0011 1.79688C69.9859 2.13868 68.9129 2.4084 68.0711 3.11293C69.5465 2.96644 71.0219 2.81995 72.5921 2.66417C72.1018 2.98504 71.6809 3.26174 71.2601 3.53843C72.1388 3.3873 72.9274 2.90133 73.8709 3.00597C73.1818 3.38265 72.5181 3.74537 71.8544 4.11043C71.8729 4.15693 71.8937 4.20576 71.9122 4.25226C73.2904 4.00114 74.6687 3.75235 76.2435 3.46635C75.5359 3.90349 75.0063 4.23134 74.3681 4.62662C75.6654 4.4406 76.8263 4.27551 77.9871 4.11043C78.008 4.16391 78.0265 4.21971 78.0473 4.27319C77.5501 4.60336 77.0529 4.93354 76.5534 5.26371C77.8646 5.36835 79.0486 4.81961 80.4592 4.67777C80.0938 4.94517 79.8395 5.1335 79.5851 5.31952C79.5966 5.3544 79.6082 5.38695 79.6198 5.42183C80.191 5.31719 80.7621 5.21489 81.4351 5.09165C81.0651 5.63574 80.4962 5.81478 80.1771 6.31004C81.005 5.97057 81.3911 6.04265 82.256 5.97987C80.813 7.19826 79.3446 8.76078 78.7595 10.6046C78.1282 12.5927 79.1804 13.6576 79.4764 15.4759C79.2544 15.2992 79.0324 15.1225 78.6925 14.8527C79.0879 15.6921 79.6984 16.1967 80.1933 16.8431C76.7823 15.6317 75.788 11.2185 78.1398 8.65382C76.4794 9.39323 75.4018 10.407 74.9393 12.0416C74.9208 11.7393 74.9023 11.4371 74.8791 11.0488C74.2478 11.5324 74.3681 12.2509 74.0559 12.8508C74.0258 12.5252 74.0027 12.2718 73.9773 11.9719C72.2984 14.2203 74.4583 15.9991 76.0886 17.2616C73.4292 16.7617 71.9006 14.9504 72.0949 12.2113C71.2462 13.0182 71.2208 13.9552 71.1491 14.8853C70.3212 13.3228 71.0658 11.9626 71.748 10.4628C70.2865 11.5091 69.8864 12.9298 69.8032 14.5458C69.5558 14.1505 69.3337 13.8018 69.01 13.2879C68.9661 13.7808 68.9406 14.0529 68.9152 14.3273C68.4781 12.7903 68.5151 11.3138 69.4332 9.92104C68.4712 10.5651 68.2261 11.5022 67.8468 12.5345C67.6479 11.7021 67.8098 10.979 67.8283 10.2001C64.5122 14.3691 72.0533 19.0915 75.6839 17.9615C75.4272 17.822 75.226 17.7104 74.9716 17.5732C76.0238 16.9408 78.4589 18.1382 79.5596 18.4591C80.4546 18.7172 83.3568 20.0658 84.2725 19.5729C84.5685 19.817 85.1258 19.1962 85.1998 20.1821C85.2484 20.0821 85.297 19.9844 85.3455 19.8844V18.8986C86.1295 19.3938 86.1318 20.2448 86.6336 20.8889C86.5226 20.0983 86.4255 19.3938 86.326 18.6916C86.3561 18.6846 86.3838 18.6753 86.4139 18.6684C86.696 19.4589 86.9782 20.2472 87.2903 21.1237C88.0512 20.4611 88.368 19.5659 89.1057 18.7428C88.8305 19.5333 88.62 20.1402 88.3749 20.8471C89.0779 20.3913 89.6977 19.9891 90.4608 19.4938C89.8087 20.3774 89.2698 21.1098 88.731 21.8422C88.7634 21.8818 88.7958 21.9236 88.8282 21.9631C89.108 21.7678 89.3901 21.5725 89.7439 21.326C89.7439 23.9605 89.5959 26.6298 89.996 29.2409C90.2619 30.9755 90.5186 32.7706 87.9471 32.7706C87.9078 32.4311 87.9471 31.3289 87.5771 31.1453C87.4684 31.9544 87.3597 32.8054 86.918 33.51C86.5388 34.1168 85.7918 34.4633 85.6022 35.1725C85.1721 36.7838 86.4347 40.1553 86.9458 41.676C87.6557 43.7919 87.7158 44.5174 85.6762 45.6358C84.7605 46.138 84.4737 46.6426 84.4067 46.7588C83.7314 47.9214 84.668 49.2096 84.0713 50.428C83.9973 50.5791 83.7823 51.0209 83.3776 51.1255C83.2273 51.165 83.2088 51.1836 82.9151 51.1255C82.2907 51 82.0918 51.5347 81.3727 51.0465C79.9458 50.0815 78.3317 50.121 76.6736 50.328C76.6251 50.2071 76.5742 50.0792 76.5141 49.9304C75.9753 50.2117 75.4804 50.5279 75.1335 51.0767C77.0853 50.2187 81.5808 50.2652 82.5058 52.7764C81.671 55.0923 77.9871 52.9112 76.5025 52.6252C76.9858 53.067 77.4715 53.5088 78.0149 54.0041C77.7397 54.0599 77.5732 54.0924 77.3235 54.1413C77.7351 54.4993 77.4969 54.8365 77.1893 55.3132C78.5953 54.797 79.8741 54.7714 81.2686 54.9574C81.4836 56.4874 82.1173 58.7521 80.6997 59.9286C79.6891 60.7657 77.9895 60.4471 76.7893 60.3518C73.0222 60.0565 69.7916 58.0011 66.5194 56.2642C63.6496 54.7435 58.8095 53.1042 57.1145 50.121C55.5952 47.4494 56.0692 43.3129 56.6982 40.4646C51.6454 44.3988 48.5097 33.8797 49.5457 30.3059C50.14 28.2527 52.3692 26.0694 54.6632 26.7204C57.1122 27.4157 58.4604 31.2197 59.5981 33.217C60.1762 32.7659 60.352 32.2241 60.4329 31.5963C60.493 31.9521 60.5555 32.3055 60.6387 32.7892C61.499 32.0567 61.8759 31.1081 62.5882 30.4268C62.5489 30.3873 62.5072 30.3477 62.4679 30.3082C62.2714 30.4361 62.0748 30.564 61.8759 30.6919C61.8435 30.65 61.8112 30.6081 61.7765 30.5686C62.35 30.0757 62.9212 29.5804 63.4947 29.0875C63.4785 29.0526 63.46 29.0177 63.4438 28.9828C62.8379 29.313 62.2344 29.6432 61.6285 29.9757C61.5984 29.9431 61.5684 29.9106 61.536 29.878C62.1534 29.3084 62.905 28.7968 63.4577 28.1667C63.0021 28.3178 62.5466 28.469 62.091 28.6201C62.0702 28.5806 62.047 28.5411 62.0239 28.5015C62.535 28.2155 63.0484 27.9295 63.6866 27.5715C63.2727 27.4622 62.9836 27.3855 62.5627 27.2715C64.2 26.5902 65.902 26.5647 67.4121 25.8253C66.8825 25.8625 66.3529 25.8997 65.8257 25.9392C65.8211 25.9159 65.8187 25.8927 65.8141 25.8694C66.8154 25.5509 67.8144 25.2323 68.8157 24.9138C68.8111 24.8859 68.8042 24.8603 68.7996 24.8324C68.0549 24.9556 67.3103 25.0812 66.5634 25.2044C67.7196 24.658 69.0123 24.5348 70.0714 23.721C69.6552 23.7698 69.2389 23.821 68.6516 23.8907C69.3338 23.6163 69.8587 23.4047 70.3813 23.1955C68.566 23.3001 66.7715 23.6187 64.9747 23.135C65.4464 23.0374 65.9159 22.9374 66.5241 22.8118C66.2466 22.7304 66.1078 22.6909 65.8557 22.6165C67.2294 22.3863 69.0655 22.3724 70.2773 21.6539H68.8065C68.8019 21.6237 68.7996 21.5911 68.7949 21.5609C69.3916 21.3842 69.9882 21.2075 70.7444 20.9842C68.6122 21.0796 66.642 21.1656 64.6717 21.254C64.6694 21.2214 64.6648 21.1889 64.6625 21.1586C66.864 20.8564 69.0655 20.5518 71.2693 20.2495C69.9049 20.0658 68.5174 20.2913 67.2178 19.6984C68.6377 19.4961 70.1154 19.8286 71.6347 19.138H68.9822C67.8537 17.8871 65.2383 18.3986 63.719 17.8057C65.5782 17.5825 67.4329 17.6244 69.3014 17.715C66.9958 16.9896 64.6879 16.2618 62.276 15.5038C63.0067 15.241 63.6311 15.541 64.2671 15.5038C63.1756 14.6923 61.5198 14.7086 60.2317 14.5319C61.3787 14.0575 63.0067 14.3784 64.1884 14.5063C61.0018 12.9368 57.8915 13.4042 54.5915 13.9622C56.9295 12.4206 59.7877 12.6834 62.4355 12.4508C60.6804 11.9463 58.9252 11.444 57.1677 10.9395C57.1677 10.886 57.1723 10.8325 57.1746 10.779C58.2892 10.7186 59.4062 10.6558 60.6896 10.586C59.79 10.0303 58.8928 10.1838 58.0534 10.0582C58.6245 9.78851 60.3612 9.69085 61.714 9.86059C62.1604 8.80263 62.5304 7.16338 63.9595 7.16338C63.2796 8.02137 61.5059 9.92569 62.5281 11.1394C62.5604 9.35603 63.2311 8.00045 64.6463 6.99365C64.4081 7.06108 64.1676 7.12851 63.9294 7.19594V7.18664ZM80.147 33.0914C77.3766 33.2216 74.7057 32.8984 72.1134 33.6332C73.3714 33.7332 74.1923 33.7843 75.3162 34.3959C76.3638 34.9655 77.5061 35.6724 78.7133 35.0283V34.4168C79.3746 34.4168 80.147 34.7981 80.5031 34.0262C82.2329 35.2236 86.8949 34.3703 86.3422 31.5917C86.333 32.2567 86.104 32.6264 85.6623 32.9217C85.6323 32.4776 85.7202 31.8916 85.3848 31.5684C85.3085 31.794 85.2461 31.9777 85.2091 32.087C83.7083 32.4264 82.9313 31.3685 81.7935 30.65C80.8269 30.0385 79.6452 29.7269 78.6069 29.2781C75.707 28.0249 73.1633 29.6199 70.6079 31.0732C72.1388 31.7335 74.3033 30.4361 75.929 30.9778C76.6274 31.2104 77.1477 31.8265 77.8368 32.1195C78.6138 32.4497 79.562 32.3776 80.1493 33.0914H80.147ZM52.8132 35.9584C53.1832 36.7048 54.0851 36.721 54.4597 37.4163C54.7465 37.9464 54.2655 39.0811 55.3893 38.9904C56.6057 38.8928 55.868 37.3047 55.6669 36.7466C55.2252 35.5212 55.1558 35.1608 55.8218 33.9122C55.0679 34.1447 54.7048 34.7888 54.1637 35.2632C52.471 33.9285 55.1697 33.41 55.6877 32.0777C56.2149 30.7267 55.6368 28.7643 54.2978 28.1365C49.7306 25.9973 49.1965 36.7024 52.0339 36.8466C50.8962 34.4121 50.2926 32.645 51.5228 30.0571C52.0825 28.8805 52.3299 28.4806 53.5232 28.848C54.3002 29.0875 54.6771 29.1526 54.8367 30.1036C53.3867 30.3082 54.0319 31.4289 55.3339 30.7639C56.0623 32.3288 53.4353 32.1009 52.6745 32.8961C51.4026 34.2284 52.9728 35.5329 53.8377 36.556C53.4122 36.3072 53.1092 36.1304 52.8086 35.9537L52.8132 35.9584ZM84.7466 45.2963C84.032 44.8034 82.078 43.9733 81.6293 45.2823C83.0469 46.0729 83.8332 46.0822 84.7466 45.2963ZM65.4441 37.1768C66.0824 39.3601 66.7345 41.7318 68.1382 43.5268C67.4976 41.1552 66.4316 39.1787 65.4441 37.1768ZM66.4778 37.972L66.3182 38.0348C67.1253 39.9158 67.7381 42.2945 69.121 43.8361C68.4527 41.7829 67.456 39.8833 66.4778 37.972ZM64.3411 35.0795C64.3202 37.1442 64.9677 38.9927 66.309 40.5948C65.4857 38.8207 64.8359 36.9861 64.3411 35.0795ZM63.2704 37.2651C63.3143 37.2535 63.3582 37.2419 63.4022 37.2326C63.1987 35.9863 62.9952 34.7377 62.8009 33.5518V35.3608C62.3315 34.7958 62.3361 34.1354 62.387 33.3588C61.6794 34.7702 62.6668 35.9561 63.2704 37.2675V37.2651ZM76.047 35.9328C77.1084 36.6234 79.1989 36.7606 79.3145 35.0888C78.112 35.7421 77.4645 35.9328 76.047 35.9328ZM64.4613 38.7044C64.5122 38.6812 64.5631 38.6579 64.6139 38.6347C64.1584 37.0442 63.7028 35.4538 63.2311 33.8029C63.3582 35.6073 63.7861 37.0396 64.4613 38.7044ZM80.2256 43.106C79.0856 44.0872 79.6984 45.666 81.1183 45.7148C80.1262 45.101 79.9412 44.229 80.2256 43.106ZM69.9535 44.229C69.6228 42.8665 69.0007 41.6272 68.3324 40.4088C68.5937 41.7992 69.3153 42.9967 69.9535 44.229ZM66.6836 9.19791C66.1309 9.54902 64.311 11.9672 65.5297 12.5043C65.3909 11.1999 66.0523 10.2163 66.6836 9.19791ZM66.1911 8.63522C65.5042 9.00027 63.9248 10.6953 64.9122 11.4487C64.9076 10.3675 65.6106 9.60017 66.1911 8.63522ZM66.7299 10.3745C66.05 11.3534 65.9621 12.6415 66.5148 13.3251C66.5865 12.3439 66.6559 11.4022 66.7299 10.3745ZM64.8914 8.80961C64.2185 9.59552 63.6103 10.4163 63.9664 11.5394C64.2763 10.6232 64.5839 9.71643 64.8914 8.80961Z" fill="#F6F0E6"/>
<path id="Vector_3" d="M63.8596 7.16627C61.8985 6.63266 59.7055 7.35592 57.6931 7.13083C60.0356 6.25889 62.4291 6.57046 64.8503 5.83571C61.1225 5.52878 57.5451 5.64969 53.8335 6.1217C55.9332 4.87308 58.9233 5.13583 61.2774 4.98237C59.2979 4.55453 57.3786 4.68474 55.4638 4.64754C56.7496 4.18483 58.0862 4.01509 59.4459 3.91976C58.9834 3.81745 58.5209 3.71747 58.1001 3.62446H62.3782C62.3874 3.58029 62.3967 3.53611 62.4059 3.49425C61.4162 3.29894 60.4079 3.14083 59.439 2.86181C62.103 2.14333 64.8549 2.07357 67.5929 1.83873C66.5037 2.22936 65.4122 2.61999 64.323 3.01062C66.6679 3.04549 68.7145 1.81548 71.0038 1.79688C69.9887 2.13868 68.9156 2.4084 68.0739 3.11293L72.5948 2.66417C72.1046 2.98504 71.6837 3.26174 71.2628 3.53843C72.1416 3.3873 72.9302 2.90133 73.8737 3.00597L73.8341 3.0276C73.1591 3.39655 72.5081 3.75237 71.8572 4.11043C71.8757 4.15693 71.8965 4.20576 71.915 4.25226C73.2932 4.00114 74.6715 3.75235 76.2463 3.46635C75.5387 3.90349 75.0091 4.23134 74.3708 4.62662C75.6682 4.4406 76.829 4.27551 77.9899 4.11043C78.0107 4.16391 78.0292 4.21971 78.05 4.27319L78.0488 4.274C77.552 4.60391 77.0553 4.93381 76.5562 5.26371C77.8674 5.36835 79.0514 4.81961 80.462 4.67777C80.0966 4.94516 79.8422 5.1335 79.5879 5.31952C79.5994 5.3544 79.611 5.38695 79.6225 5.42183C80.1937 5.31719 80.7649 5.21488 81.4379 5.09165C81.0679 5.63574 80.499 5.81478 80.1799 6.31004C81.0077 5.97057 81.3939 6.04265 82.2588 5.97987C80.8158 7.19826 79.3474 8.76078 78.7623 10.6046C78.131 12.5927 79.1832 13.6576 79.4792 15.4759L79.475 15.4726C79.2544 15.297 79.0331 15.1208 78.6952 14.8527C79.0907 15.6921 79.7012 16.1967 80.196 16.8431C76.7851 15.6317 75.7907 11.2185 78.1425 8.65382C76.4822 9.39323 75.4045 10.407 74.942 12.0416L74.9417 12.0362C74.9233 11.7357 74.9049 11.4347 74.8819 11.0488C74.2506 11.5324 74.3708 12.2509 74.0587 12.8508C74.0286 12.5252 74.0055 12.2718 73.98 11.9718C72.3012 14.2203 74.461 15.9991 76.0914 17.2616C73.432 16.7617 71.9034 14.9504 72.0977 12.2113C71.249 13.0182 71.2235 13.9552 71.1518 14.8853C70.324 13.3228 71.0686 11.9625 71.7508 10.4628C70.2893 11.5091 69.8892 12.9298 69.806 14.5458C69.5585 14.1505 69.3365 13.8018 69.0128 13.2879C68.973 13.7339 68.9484 13.9991 68.9252 14.2488L68.918 14.3273C68.4809 12.7903 68.5179 11.3138 69.436 9.92104C68.474 10.5651 68.2288 11.5022 67.8496 12.5345C67.6507 11.7021 67.8126 10.979 67.8311 10.2001C64.7752 14.0419 70.9393 18.3538 74.7668 18.1225C75.2783 18.0236 75.6867 17.9615 75.6867 17.9615C75.4017 18.0502 75.0927 18.1028 74.7668 18.1225C74.3324 18.2065 73.8236 18.3171 73.4276 18.4386C72.7103 18.6589 71.6375 19.138 71.6375 19.138H68.985C67.8565 17.8871 65.2411 18.3986 63.7218 17.8057C65.581 17.5825 67.4356 17.6244 69.3041 17.715C66.9986 16.9896 64.6907 16.2618 62.2788 15.5038C63.0095 15.241 63.6339 15.541 64.2698 15.5038C63.1783 14.6923 61.5226 14.7086 60.2345 14.5319C61.3815 14.0575 63.0095 14.3784 64.1912 14.5063C61.0046 12.9368 57.8943 13.4042 54.5943 13.9622C56.9323 12.4206 59.7905 12.6834 62.4383 12.4508C60.6831 11.9463 58.9279 11.444 57.1704 10.9395C57.1704 10.886 57.1751 10.8325 57.1774 10.779C58.292 10.7186 59.4089 10.6558 60.6924 10.586C59.7928 10.0303 58.8956 10.1838 58.0561 10.0582C58.6273 9.78851 60.364 9.69085 61.7168 9.86059C62.1523 8.82843 62.5151 7.24297 63.8596 7.16627Z" fill="#BDB3AA"/>
<path id="Vector_4" d="M124.072 103.966C124.999 104.594 126.158 105.675 127.358 105.157C129.568 104.738 128.625 102.264 126.78 102.104C128.169 103.108 129.171 103.799 127.376 105.18C125.762 105.312 124.217 103.685 125.307 102.176C126.417 100.639 127.954 101.639 129.235 102.404C132.774 104.52 136.404 106.589 140.021 108.54C139.824 108.254 139.63 107.968 139.408 107.642C140.155 107.349 141.052 107.505 141.621 106.861C140.717 106.873 139.052 107.217 138.257 106.733C138.423 106.398 138.587 106.073 138.772 105.698C139.528 105.882 140.259 106.061 140.99 106.238C141.013 106.194 141.034 106.147 141.057 106.103C139.982 105.18 138.738 104.406 138.798 102.794C139.376 103.124 139.912 103.585 140.662 103.622C139.191 102.459 132.788 97.658 136.668 95.5351C138.31 94.6353 139.552 96.7767 140.479 97.9021C141.686 99.3693 143.03 100.527 142.484 102.527C142.986 103.81 144.533 105.708 144.547 107.098C144.558 108.307 143.83 108.447 142.805 108.884C142.667 110.205 143.955 111.783 143.397 113.034C142.875 114.209 141.073 114.099 140.014 114.332C140.393 114.769 140.812 114.23 141.052 114.497C141.182 115.473 141.628 116.831 141.321 117.808C140.944 118.998 140.111 118.885 139.14 119.329C137.452 120.101 137.304 122.523 135.151 122.682C135.452 122.758 135.586 122.793 135.798 122.847C133.995 124.372 129.98 123.056 128.188 122.107C125.862 120.875 124.52 118.738 124.874 116.092C127.39 117.506 129.885 118.908 132.522 120.389C132.126 119.58 131.377 119.377 130.859 118.836C132.688 119.005 134.436 119.166 136.247 119.333C135.819 118.122 132.422 118.122 131.465 117.954C131.763 117.55 132.068 117.136 132.404 116.68C133.551 117.373 134.751 117.857 136.323 117.678C134.122 116.476 132.186 115.183 130.151 113.739C128.119 112.295 125.658 111.402 123.392 110.402C121.167 111.742 118.524 111.453 116.235 112.553C117.127 113.083 117.957 112.483 118.841 112.279C118.505 112.818 118.066 112.939 117.495 113.167C119.005 113.669 122.908 114.018 123.85 115.211C124.784 116.394 124.12 120.338 123.542 121.621C123.075 121.079 122.608 120.54 122.081 119.931C122.386 119.563 122.784 119.105 122.735 118.354C121.017 119.298 120.499 119.143 118.76 118.201C118.887 118.054 119.003 117.922 119.211 117.682C118.734 117.852 118.378 117.98 118.02 118.108V116.697C117.978 116.692 117.937 116.69 117.895 116.685C117.87 116.917 117.842 117.148 117.796 117.561C117.638 117.05 117.532 116.706 117.382 116.215C117.382 118.289 117.981 118.589 119.65 119.617C120.846 120.352 122.717 121.096 122.735 122.6C122.747 123.444 121.195 126.453 120.462 127.013C119.317 127.885 115.969 127.683 114.956 126.858C115.647 126.06 116.716 126.539 117.474 125.997C117.502 125.755 117.532 125.483 117.571 125.135C118.186 125.646 118.563 126.346 119.407 126.625C119.269 125.934 118.538 125.269 118.126 124.725C119.109 124.509 120.02 124.507 120.915 123.814C120.45 123.893 120.182 123.937 119.75 124.012C120.011 123.721 120.166 123.546 120.344 123.347C119.243 123.251 118.147 123.979 117.03 123.284C114.091 126.109 111.686 129.724 108.134 131.88C106.337 132.97 104.476 133.519 102.392 133.645C101.217 133.717 100.077 133.794 98.9348 134.117C98.0999 134.354 97.0547 135.117 96.2268 135.158C93.7964 132.345 93.3824 127.904 93.2737 124.307C93.2252 122.7 93.9606 122.447 95.2694 121.647C96.9969 120.594 98.0213 119.605 99.1498 117.913C101.499 114.385 104.138 111.163 106.691 107.789C108.828 104.964 112.872 103.892 115.777 101.841C116.103 102.111 116.39 102.348 116.676 102.587C116.711 102.548 116.746 102.508 116.78 102.469C116.581 102.239 116.383 102.011 116.131 101.722C116.38 101.546 116.609 101.383 116.847 101.213C117.22 101.574 117.578 101.918 117.937 102.262C117.971 102.227 118.004 102.194 118.038 102.16C117.747 101.811 117.456 101.462 117.102 101.039C119.565 99.7483 122.083 98.4602 124.636 97.3627C125.841 96.8442 129.201 94.4353 130.306 95.1677C132.848 96.8535 128.033 99.4693 127.039 99.9785C125.88 100.571 124.786 101.385 123.607 101.922C122.599 102.38 121.428 102.392 120.441 102.878H121.845C120.566 104.078 119.22 105.068 117.765 106.024C115.978 107.198 115.044 107.256 112.942 107.212C111.325 107.177 109.915 107.363 108.742 108.598C108.245 109.121 105.893 112.055 106.189 112.646C108.039 110.26 109.568 107.784 112.865 107.493C114.352 107.363 115.737 107.735 117.252 107.459C118.873 107.161 120.423 106.566 122.027 106.196C124.946 105.524 127.08 107.961 129.548 109.254C131.021 110.026 132.554 110.688 133.999 111.511C134.86 112 137.283 114.116 138.254 113.79C137.935 113.571 137.616 113.353 137.181 113.058C138.243 112.981 139.612 113.339 140.169 112.13C139.38 112.572 138.564 112.546 137.718 112.395C138.118 112.279 138.52 112.162 138.92 112.044C138.911 111.995 138.899 111.949 138.89 111.9C138.724 111.923 138.557 111.946 138.238 111.993C138.541 111.63 138.763 111.363 138.985 111.095C138.962 111.067 138.936 111.042 138.913 111.014C138.423 111.451 137.931 111.888 137.396 112.365C135.01 111.6 133.477 109.337 131.372 108.056C129.716 107.047 124.624 106.003 124.109 103.931L124.079 103.966H124.072ZM97.0339 124.897C97.7138 125.283 100.177 124.77 100.954 124.56C102.503 124.142 104.612 123.247 105.981 122.361C104.489 122.758 103.081 123.451 101.613 123.923C100.105 124.409 98.5439 124.47 97.0362 124.897H97.0339ZM100.227 122.763C100.299 122.747 100.392 122.751 100.438 122.707C102.457 120.833 104.473 118.957 106.49 117.08C104.043 118.557 102.195 120.719 100.227 122.763ZM102.064 116.536C102.119 116.576 102.172 116.615 102.228 116.655C103.921 114.602 105.662 112.583 107.093 110.33L106.959 110.226C105.327 112.33 103.694 114.432 102.064 116.536ZM115.488 116.931C113.746 115.32 110.909 118.24 109.461 119.196C111.716 118.798 112.944 116.424 115.488 116.931ZM113.205 111.883C111.332 112.29 110.088 113.558 108.842 115.169C110.601 114.26 111.559 112.602 113.205 111.883ZM95.2024 127.26C96.3864 126.99 99.2793 125.569 99.8389 124.979C98.1369 125.472 96.7749 126.367 95.2024 127.26ZM114.583 122.649C113.214 122.888 111.889 123.044 110.502 123.133C111.943 123.612 113.298 123.402 114.583 122.649ZM113.284 117.529C114.246 117.952 115.24 118.208 116.383 118.21C115.587 117.668 114.382 117.392 113.284 117.529ZM110.534 114.706C111.575 113.658 112.773 112.862 114.195 112.425C112.451 112.341 111.432 113.425 110.534 114.706ZM100.794 118.333C99.8066 119.545 98.722 120.638 97.2744 121.298C98.8538 120.798 99.9893 119.761 100.794 118.333ZM110.354 119.612C110.384 119.659 110.414 119.705 110.444 119.752C111.008 119.438 112.955 118.761 112.53 117.875C111.774 118.48 111.064 119.045 110.356 119.612H110.354ZM139.242 97.1813C138.499 99.0043 137.493 99.2414 136.434 97.6022C136.185 99.8274 139.374 99.2089 139.242 97.1813ZM109.912 121.875C108.596 122.277 107.399 122.814 106.284 123.505L106.363 123.663C107.547 123.065 108.728 122.47 109.912 121.872V121.875ZM127.457 121.286C127.496 121.24 127.538 121.196 127.577 121.149C126.911 120.442 126.248 119.736 125.582 119.031C126.121 119.863 126.608 120.742 127.457 121.289V121.286Z" fill="#F6F0E6"/>
<path id="Vector_5" d="M34.249 65.2235C36.2285 69.174 37.4449 73.2198 38.4092 77.433C40.0395 77.5865 41.6536 77.7376 43.3973 77.9004C42.3196 79.3118 41.057 80.3581 39.658 81.1789C39.8476 82.1183 42.0976 83.8691 42.8376 84.7294C44.1095 86.2059 45.504 87.5685 46.7874 89.038C49.3057 91.9212 51.868 94.7044 54.2799 97.6876C56.715 100.699 59.3489 103.531 61.8164 106.512C63.0813 108.042 64.3069 109.611 65.4169 111.26C66.3882 112.701 67.9098 114.534 68.2821 116.217C65.6921 115.296 63.5716 113.045 61.4047 111.409C58.9234 109.537 57.1636 107.344 55.0037 105.17C53.1121 103.266 50.8828 101.387 48.8039 99.7012C47.4627 98.6131 46.1515 97.4784 44.8703 96.3181C43.7557 95.309 42.692 93.8139 41.434 93.014C41.7531 94.6765 42.056 96.339 42.5324 97.9667C42.9695 99.4617 43.7765 100.917 43.7742 102.503C42.5185 101.354 41.8178 99.1618 41.205 97.6156C40.5066 95.8508 39.8383 94.5626 38.6497 93.0838C36.4366 90.3308 33.9345 88.0219 31.5526 85.434C29.3604 83.053 26.5137 81.4672 23.5606 80.2558C19.9439 78.7723 16.6647 79.2211 12.9624 79.9814C14.447 78.663 15.6703 77.0424 17.4995 76.1705C19.3519 75.2869 20.8342 74.1964 22.52 72.9919C26.3472 70.2552 30.1998 67.6091 34.2513 65.2212L34.249 65.2235Z" fill="#65082B"/>
<path id="Vector_6" d="M51.4208 137.535C50.6785 138.802 49.8206 140.783 48.6389 141.727C46.7658 143.222 47.3925 141.034 47.3925 139.779C47.4688 139.746 47.6168 139.683 47.9128 139.556C46.9115 139.197 44.6174 142.02 43.7826 142.771C43.4311 143.087 42.0529 144.606 41.4077 144.036C40.7394 143.446 41.7338 142.246 42.0298 141.741C43.2022 139.746 43.6901 137.347 45.0268 135.463C45.3505 135.007 46.5738 133.389 47.2953 133.98C47.9914 134.549 46.9276 135.896 46.6201 136.451C47.374 136.135 48.003 135.998 48.6551 136.019C49.1708 135.489 49.9061 135.27 50.4334 134.756C50.8936 134.305 51.074 133.798 51.6822 133.468C53.0882 132.703 56.0528 132.589 57.5906 132.561C59.177 132.533 60.6362 133.017 62.1832 132.547C63.7789 132.061 64.949 131.055 66.4174 130.401C67.9229 129.732 69.7752 129.829 71.3778 129.713C73.1468 129.587 73.8521 128.967 75.353 128.257C76.9162 127.52 78.7916 127.29 80.4173 126.679C81.9436 126.104 83.3889 125.43 84.9337 124.881C84.6307 132.529 87.4104 139.518 89.8616 146.561C85.7615 141.148 85.2505 132.652 84.0942 126.179C83.3265 128.051 80.5353 128.444 79.0668 129.536C77.5961 130.629 76.3404 131.982 74.7563 133.036C71.2621 135.363 67.5482 137.67 63.9061 139.749C62.2364 140.702 60.3124 141.862 58.548 142.583C57.7571 142.906 56.8506 142.839 56.0366 143.106C55.0769 143.422 54.3392 144.041 53.4582 144.499C51.5873 145.473 50.5467 145.561 50.9838 143.273C51.3561 141.339 52.3667 139.383 51.4208 137.53V137.535Z" fill="#65082B"/>
<path id="Vector_7" d="M66.7719 68.7611C66.536 69.6865 65.7428 70.6352 65.3289 71.5211C64.76 72.7418 64.2975 74.0067 63.835 75.2716C63.0025 77.5363 62.2833 79.8685 61.3005 82.0727C56.8212 77.2968 53.0125 71.8722 48.9009 66.7824C46.8751 64.2735 44.8424 61.7693 42.7912 59.2813C41.9495 58.2583 41.0522 57.5165 41.2095 56.1214C41.3852 54.5589 42.3357 52.7801 43.1289 51.4688C45.0852 55.7075 49.4674 58.5954 53.2253 61.0996C57.5612 63.9875 62.4244 65.9546 66.7719 68.7634V68.7611Z" fill="#F6F0E6"/>
<path id="Vector_8" d="M46.7986 50.051C46.5465 51.4019 46.2945 52.7552 46.0077 54.3061C45.4874 53.5295 44.789 53.1551 44.6202 52.1855C44.4283 51.0834 45.0295 49.6743 45.27 48.6327C45.8643 46.0703 46.1442 43.5266 46.4725 40.9247C46.6807 41.3432 46.8472 41.6757 47.0113 42.0059L47.1154 41.971L46.9975 40.9712C47.0322 40.9549 47.0692 40.9387 47.1038 40.9224C47.2472 41.1758 47.3906 41.4293 47.534 41.6827C47.564 41.6781 47.5964 41.6757 47.6265 41.6711C47.5502 41.3223 47.4738 40.9712 47.3975 40.6224C47.4253 40.6085 47.4507 40.5922 47.4785 40.5783C47.7375 40.9387 47.9965 41.3014 48.2855 41.699C48.6185 41.2549 47.8415 40.6434 48.5815 40.3062C48.7642 40.5201 48.9423 40.7317 49.162 40.9898C49.199 40.755 49.2244 40.5899 49.2591 40.3643C49.4464 40.4387 49.6152 40.5085 49.8557 40.6038C49.9644 40.3132 50.0685 40.0318 50.191 39.7017C51.3935 41.3572 52.5799 43.1452 54.8877 42.9383C55.1907 46.7586 55.1213 50.2091 57.894 53.0738C60.4539 55.7198 61.2101 60.0818 62.63 63.4301C63.3816 62.1861 61.8807 60.1214 61.3882 58.989C60.8193 57.6776 59.6446 55.9686 59.5844 54.5037C60.9511 56.4243 62.0842 58.3752 63.6776 60.1446C65.0234 61.6374 67.3568 63.1208 67.3544 65.3321C67.1417 65.0507 66.9798 64.8345 66.7185 64.488C66.8896 65.632 66.6954 66.5691 66.3161 67.534C61.8391 65.5228 57.3505 62.9186 53.2597 60.1958C51.3912 58.9518 49.495 57.5916 47.8623 56.043C45.9661 54.2433 46.5743 52.4971 46.9212 50.0789C46.8795 50.0719 46.8379 50.065 46.7963 50.058L46.7986 50.051ZM47.3351 49.4372C47.2727 49.4046 47.2079 49.3744 47.1455 49.3418C47.3189 50.9625 46.6968 52.4971 46.6922 54.1015C47.1385 52.5599 47.2287 51.0276 47.3351 49.4372Z" fill="#F6F0E6"/>
<path id="Vector_9" d="M48.4382 114.84C46.5929 115.366 44.7729 115.461 43.5172 116.959C43.7392 117.021 43.8965 117.065 44.0954 117.119C43.7323 118.065 44.4584 118.837 44.5 119.716C43.9751 120.107 43.471 120.481 42.9275 120.883C44.5763 122.423 45.0758 124.392 45.8135 126.482C45.8159 126.478 45.7349 126.617 45.647 126.768C46.6507 127.654 48.7643 128.942 49.1505 130.326C49.4765 131.498 48.0266 132.612 46.9999 133.225C45.2886 134.251 43.6236 134.165 41.7297 134.435C40.578 134.597 39.4565 134.932 38.3811 135.372C37.6273 135.681 36.7531 136.339 35.8906 136.213C36.6653 134.483 40.356 133.658 42.0095 133.293C43.3022 133.007 47.319 133.393 47.6127 131.577C45.9176 130.754 44.3913 131.875 42.7078 131.723C43.4964 131.412 44.2318 131.061 44.7244 130.361C44.1601 129.277 42.6917 128.515 41.7273 127.885C39.4796 126.415 37.0954 125.315 34.7043 124.118C37.5209 123.664 41.399 125.373 44.0445 126.064C42.9853 124.334 42.3032 123.157 40.2265 122.565C38.1869 121.983 36.0802 121.816 34.0568 121.123C29.7486 119.646 26.2844 116.596 22.0687 114.864C22.8573 113.824 29.4341 116.463 30.5903 116.905C33.1179 117.87 35.4766 119.507 38.2123 119.905C36.804 117.182 34.1585 114.117 31.402 112.662C27.9286 110.825 23.6875 110.927 20.2974 108.788C21.7519 107.602 25.8497 109.218 27.5355 109.474C30.2735 109.888 32.7641 110.671 35.3934 111.515C37.7151 112.262 40.141 112.08 42.4604 112.887C44.4006 113.561 46.4333 114.575 48.4382 114.845V114.84Z" fill="#65082B"/>
<path id="Vector_10" d="M91.896 121.854C92.7701 124.852 92.8395 128.293 93.1332 131.399C93.457 134.834 94.752 136.747 97.0298 139.275C97.083 139.235 97.1362 139.196 97.1917 139.156C95.9776 137.366 94.7473 135.771 93.9056 133.769C93.9588 133.738 94.012 133.711 94.0651 133.68C95.3093 135.568 97.6264 137.503 98.3988 139.61C95.5821 140.867 92.3932 141.57 89.4517 142.486C87.0559 137.166 87.1299 131.402 86.0361 125.77C87.345 123.333 89.2736 122.68 91.9006 121.854H91.896ZM91.8706 136.31C91.1884 136.038 90.7745 136.41 90.3189 136.489C89.1626 135.938 90.4021 134.352 91.489 135.454C91.2277 134.606 90.971 134.585 90.2379 134.855C88.9429 135.331 89.4563 136.133 90.1038 136.882C89.6413 138.207 90.1316 139.833 91.8382 139.568C92.8326 139.414 93.931 137.87 92.7771 137.203C93.6443 141.058 87.6479 137.798 91.8706 136.308V136.31ZM92.5435 137.81C92.5505 136.361 90.4438 136.759 90.6588 137.989C90.8554 139.117 92.5366 138.986 92.5435 137.81Z" fill="#BDB3AA"/>
<path id="Vector_11" d="M71.5672 99.3954V99.8233C67.4232 93.9196 63.5937 87.5347 59.9053 81.3311C60.828 82.2961 61.2882 83.0122 62.2293 81.7543C62.9138 80.8382 63.2122 79.4687 63.7232 78.4316C65.0298 79.4919 66.8544 80.4545 67.3677 82.0891C67.9435 83.9214 67.6568 86.3442 67.9412 88.2695C68.2234 90.1854 68.6026 92.0874 69.153 93.9452C69.5207 95.1822 70.2144 98.584 71.5233 99.149C71.5372 99.2304 71.5534 99.3141 71.5672 99.3954Z" fill="#F6F0E6"/>
<path id="Vector_12" d="M123.479 122.885C124.09 124.706 124.971 126.761 126.599 127.887C128.262 129.038 129.536 128.577 131.342 128.577C129.05 131.105 126.569 133.307 123.796 135.155C122.719 134.374 120.674 131.144 119.421 128.242C121.877 127.189 122.386 125.238 123.479 122.888V122.885Z" fill="#BDB3AA"/>
<path id="Vector_13" d="M77.8342 67.4614C81.0185 68.4682 83.9484 70.0935 87.1513 71.0864C88.8856 71.6235 90.701 72.2745 92.3151 73.1163C93.2216 73.5906 96.1492 75.5228 95.7168 76.8272C95.3653 77.8829 92.1625 78.0549 91.2467 77.9154C89.4198 77.6387 87.8496 76.1855 86.4228 75.1089C83.3472 72.7814 80.7595 70.0284 77.7764 67.6009C77.7949 67.5544 77.8134 67.5102 77.8319 67.4637L77.8342 67.4614Z" fill="#65082B"/>
<path id="Vector_14" d="M80.4862 9.34705C79.9705 10.0911 79.8711 10.9909 79.6791 11.9117C79.2768 10.2818 80.0838 7.96357 81.7696 7.19626C81.7188 7.4125 81.6748 7.59154 81.5985 7.91009C82.2368 7.4311 82.7825 7.01954 83.3306 6.60799C83.3814 6.64519 83.4323 6.68239 83.4832 6.7196C83.3236 7.1172 83.1664 7.51248 83.0068 7.91009C83.0438 7.93799 83.0831 7.96589 83.1201 7.99379C83.7353 7.26369 84.3643 6.60334 85.0534 5.94531C85.0973 5.98252 85.139 6.01972 85.1829 6.05692C84.6926 6.65682 84.2625 7.25904 83.8393 7.90776C85.3263 7.14975 86.6976 6.61729 88.2446 6.63357C87.4006 7.04047 86.3854 7.39157 86.4062 8.50998C87.3566 8.18213 88.2909 7.85893 89.2251 7.53341C88.7534 8.08448 88.4135 8.62392 88.2909 9.46563C89.7339 8.16818 92.9552 8.04262 94.2618 9.61677C88.9846 7.92171 89.2899 13.3115 88.9106 17.0899C88.3371 15.1228 87.8122 13.3208 87.2641 11.4397C87.0051 12.1001 87.2641 12.6883 87.3474 13.4463C86.7878 12.6465 86.6814 11.8908 86.5981 11.0235C85.5413 12.6139 87.2896 15.1088 87.4306 16.8085C86.5218 15.6297 85.5298 14.6485 84.577 13.53C83.3884 12.1326 83.7075 11.2537 83.4601 9.55631C82.8819 10.591 83.0415 11.6629 83.3375 12.772C82.542 12.2256 82.2784 11.5769 81.9916 9.44935C81.2308 11.1537 81.4759 12.6814 82.2159 14.1881C80.8076 13.8044 79.989 11.4769 80.4793 9.3424L80.4862 9.34705Z" fill="#BDB3AA"/>
<path id="Vector_15" d="M100.525 98.3713C101.332 97.4529 102.051 96.6344 102.77 95.8159C102.735 95.7787 102.701 95.7415 102.666 95.7043C101.429 96.8228 100.268 97.89 98.9846 98.9968C99.0077 98.6434 99.0193 98.4736 99.0332 98.2946C98.4597 98.7666 97.9833 99.3921 97.0398 99.3386C96.8293 97.6482 97.093 95.9857 97.13 94.2744C96.4062 95.8811 96.7854 97.4622 96.3021 99.02C95.9067 100.292 95.0025 100.218 93.6566 100.664C93.2912 99.878 93.164 98.5573 93.1617 97.6691C93.1548 96.2601 93.5271 96.453 94.4012 95.5927C95.2268 94.7789 95.3563 93.3489 96.1703 92.5909C97.0768 91.7446 98.1012 92.3142 99.2621 92.584C100.594 92.8932 104.061 93.0606 104.315 94.7301C104.634 96.7995 102.199 98.3039 100.525 98.376V98.3713Z" fill="#65082B"/>
<path id="Vector_16" d="M16.3872 79.7129C22.0922 80.2058 26.7611 81.7683 30.845 85.9444C34.1334 89.3066 38.6011 93.7593 39.2648 98.5933C36.3603 94.2894 33.4466 90.418 29.1384 87.4232C27.0895 86.0002 24.9273 84.7446 22.8599 83.3471C21.8563 82.6682 20.8619 81.9637 19.7843 81.4103C18.8269 80.9197 16.97 80.5941 16.3895 79.7129H16.3872Z" fill="#65082B"/>
<path id="Vector_17" d="M83.7479 96.9119C82.113 93.1939 80.4526 89.5364 78.3343 86.0673C77.266 84.3164 76.1352 82.6004 75.009 80.8844C73.9244 79.2359 73.6631 78.2337 73.6631 76.2736C74.5141 77.4223 75.3119 78.4988 76.1097 79.573C76.1606 79.5475 76.2092 79.5196 76.26 79.494L75.4067 75.1901C75.4507 75.1715 75.4946 75.1529 75.5385 75.1343C77.303 78.7453 78.6928 82.5586 80.2167 86.2788C81.5534 89.5411 83.6693 93.2869 83.8543 96.8817C83.8196 96.891 83.7872 96.9003 83.7525 96.9119H83.7479Z" fill="#F6F0E6"/>
<path id="Vector_18" d="M79.6341 89.6997C80.7811 92.3109 79.4214 94.5919 78.1865 97.0333C76.91 99.5538 75.3884 102.002 73.7581 104.306C73.3649 103.525 72.8539 102.874 73.0111 102.002C73.2216 100.821 74.7871 99.1957 75.3976 98.175C77.0094 95.4801 78.3738 92.6759 79.4468 89.723C79.5093 89.716 79.5717 89.709 79.6341 89.6997Z" fill="#65082B"/>
<path id="Vector_19" d="M33.8823 145.015C34.0257 143.922 35.0525 142.781 35.5473 141.79C36.1301 140.621 37.1129 139.921 38.1304 139.151C38.9305 138.547 43.3867 134.119 44.0296 134.968C44.9615 136.193 40.3712 139.444 39.8116 140.183C39.2057 140.981 35.0131 146.954 33.8823 145.017V145.015Z" fill="#65082B"/>
<path id="Vector_20" d="M128.593 117.207C128.575 117.289 128.556 117.37 128.521 117.516C126.799 116.482 124.889 115.226 123.395 113.901C121.718 112.415 123.674 111.576 125.12 112.599C124.75 111.815 124.149 111.699 123.566 111.506C125.092 111.308 126.602 112.657 127.812 113.417C129.25 114.324 130.647 115.222 131.962 116.298C130.92 117.67 129.914 118.244 128.575 117.226C128.184 116.119 127.268 115.405 126.607 114.503C126.787 115.163 127.911 116.661 128.593 117.21V117.207Z" fill="#F6F0E6"/>
<path id="Vector_21" d="M81.6716 94.1801C83.6025 96.275 81.5629 99.0629 80.4506 101.072C79.0723 103.56 77.4628 105.906 75.8232 108.222C75.0555 106.755 74.8797 106.578 75.7539 105.194C76.547 103.941 77.294 102.66 78.0386 101.374C79.4053 99.0118 80.4829 96.6168 81.6716 94.1777V94.1801Z" fill="#65082B"/>
<path id="Vector_22" d="M71.5699 99.3939C71.556 99.3125 71.5398 99.2288 71.526 99.1474C70.594 96.8478 73.0314 94.7296 74.1183 92.7183C74.7912 91.472 75.4086 90.1978 75.8596 88.8515C76.255 87.668 76.1949 85.8288 76.743 84.7778C77.2957 85.7684 77.9917 86.6171 77.8946 87.7773C77.7813 89.1329 76.9835 90.6931 76.4262 91.9115C75.1774 94.6436 73.48 97.1641 71.926 99.7264C71.7665 99.5776 71.6693 99.4846 71.5722 99.3939H71.5699Z" fill="#65082B"/>
<path id="Vector_23" d="M68.0874 68.7902C69.4263 67.2207 70.7607 65.8047 71.4683 63.9189C71.9169 64.663 74.3265 73.4917 75.0735 77.4608C73.5703 74.2846 71.9285 69.6621 68.0874 68.7902Z" fill="#F6F0E6"/>
<path id="Vector_24" d="M83.7455 98.9756C84.0993 99.994 84.497 100.764 84.2473 101.84C83.9767 103 83.0055 104.356 82.395 105.379C80.9751 107.748 79.4581 110.136 77.8162 112.355C77.1664 111.125 76.8311 110.781 77.4601 109.588C78.1376 108.302 79.2037 107.111 79.9876 105.879C81.396 103.668 82.684 101.373 83.7478 98.9756H83.7455Z" fill="#65082B"/>
<path id="Vector_25" d="M70.1633 95.3716C69.0371 92.7092 70.7345 91.4699 71.8584 89.0494C73.195 86.1755 73.6436 83.3248 73.6436 80.1719C77.6674 83.9666 72.2376 91.9745 70.161 95.3716H70.1633Z" fill="#65082B"/>
<path id="Vector_26" d="M85.0267 104.756C85.5262 109.171 82.2725 112.945 79.7403 116.363C77.9666 114.415 79.9253 112.813 81.0839 111.113C82.4968 109.041 83.778 106.932 85.0267 104.756Z" fill="#65082B"/>
<path id="Vector_27" d="M85.5013 111.486C85.7857 113.56 85.0619 114.574 83.9889 116.304C83.2443 117.506 82.458 119.517 81.3966 120.445C80.2727 118.492 81.2116 117.72 82.4071 116.025C83.4617 114.528 84.4653 112.995 85.5013 111.486Z" fill="#65082B"/>
<path id="Vector_28" d="M71.8364 80.4072C72.2897 84.1647 70.8559 87.2828 68.9065 90.3613C67.9838 87.8617 69.1955 87.1688 70.1414 85.0576C70.6455 83.9322 70.5067 80.5467 71.8364 80.4072Z" fill="#65082B"/>
<path id="Vector_29" d="M85.8177 117.153C85.8177 120.037 84.9413 122.048 82.8253 124.122C82.2472 122.673 82.3998 122.541 83.2855 121.227C84.1781 119.902 85.0014 118.528 85.8177 117.153Z" fill="#65082B"/>
<path id="Vector_30" d="M64.8545 74.9945C64.9401 74.7341 65.0094 74.5225 65.0742 74.3271C66.6767 74.3551 70.3467 76.8523 72.2152 79.1682C71.7735 79.6937 65.7147 75.6176 64.8545 74.9968V74.9945Z" fill="#65082B"/>
<path id="Vector_31" d="M72.5056 76.9537C70.577 75.0029 68.35 73.6148 65.8086 72.5127C65.9728 72.1523 66.1162 71.836 66.2896 71.457C68.2483 72.3592 72.6975 74.2263 72.5079 76.9514L72.5056 76.9537Z" fill="#65082B"/>
<path id="Vector_32" d="M75.394 66.6255C76.8995 67.1766 78.0604 68.9553 79.0964 70.0807C80.2572 71.3409 81.1869 72.5198 82.0425 74.0102C80.4607 73.1964 79.6976 71.7223 78.5414 70.4434C77.4938 69.2832 76.0878 68.0369 75.394 66.6255Z" fill="#65082B"/>
<path id="Vector_33" d="M69.643 80.1566C68.4289 81.1704 63.8779 78.0523 64.2711 76.7061C66.2483 77.5152 68.0081 78.7824 69.643 80.1566Z" fill="#65082B"/>
<path id="Vector_34" d="M39.96 55.9946C40.5728 58.0152 42.3373 59.6033 43.6138 61.2216C44.2012 61.9657 48.0561 66.8276 47.3577 67.0718C46.8374 66.8393 46.2362 65.3372 45.9355 64.9256C45.4245 64.2281 44.7446 63.4863 44.1989 62.7376C43.2022 61.3658 39.2802 57.8222 39.96 55.997V55.9946Z" fill="#F6F0E6"/>
<path id="Vector_35" d="M147.92 87.297C145.524 88.0039 143.117 88.6549 140.7 89.285C138.374 89.8919 136.764 90.1267 135.259 92.0938C135.733 89.7361 138.626 89.4734 140.501 88.9688C142.876 88.3294 145.448 87.2784 147.897 87.104C147.904 87.1691 147.911 87.2342 147.917 87.2993L147.92 87.297Z" fill="#F6F0E6"/>
<path id="Vector_36" d="M135.541 124.345C133.416 125.171 131.416 126.171 129.621 124.222C130.28 124.287 135.527 124.459 135.513 124.376L135.541 124.345Z" fill="#F6F0E6"/>
<path id="Vector_37" d="M143.412 90.4203C142.714 91.0458 139.129 92.134 137.358 92.3362C137.474 91.169 142.429 90.3157 143.412 90.4203Z" fill="#F6F0E6"/>
<path id="Vector_38" d="M60.4459 84.7938C61.0934 84.5357 65.7415 91.8414 65.7531 92.7482C64.9345 91.6135 61.7548 88.3536 61.9513 86.9585C61.7363 86.9585 61.1813 86.2889 60.839 86.0819C60.8529 85.9284 60.8668 85.7634 60.8876 85.5425C60.7488 85.5587 60.6008 85.575 60.3511 85.6029C60.395 85.3053 60.4343 85.0379 60.476 84.7705L60.4459 84.7961V84.7938Z" fill="#F6F0E6"/>
<path id="Vector_39" d="M69.6198 81.0273C69.5504 82.4434 69.0509 83.5199 68.3271 84.6407C67.7767 82.7852 67.7467 81.4947 69.6198 81.0273Z" fill="#65082B"/>
<path id="Vector_40" d="M67.1895 70.045C67.245 68.157 71.3196 72.0005 71.6803 72.5399C70.309 71.4983 68.7851 70.7542 67.1895 70.045Z" fill="#65082B"/>
<path id="Vector_41" d="M130.509 125.532C128.599 125.66 127.193 124.7 126.273 122.9C126.59 123.182 126.907 123.463 127.304 123.817C127.279 123.568 127.265 123.421 127.237 123.138C128.308 124.202 129.154 124.867 130.509 125.532Z" fill="#F6F0E6"/>
<path id="Vector_42" d="M129.511 128.047C130.662 127.252 131.55 126.171 133.1 126.324C132.256 127.684 131.018 128.012 129.511 128.047Z" fill="#F6F0E6"/>
<path id="Vector_43" d="M54.5929 75.8691C55.2404 76.7364 55.8856 77.6037 56.5609 78.5105C56.288 78.6965 56.0521 78.8569 55.7677 79.0523C55.3861 78.4779 55.0184 77.9222 54.6299 77.3409C54.7155 77.1758 54.8126 76.9875 54.9074 76.7992C54.8774 76.7713 54.8473 76.741 54.8172 76.7131C54.66 76.834 54.5027 76.9549 54.2784 77.127C54.1929 76.5643 54.3732 76.3411 54.616 75.8389L54.5929 75.8714V75.8691Z" fill="#F6F0E6"/>
<path id="Vector_44" d="M92.7863 14.5586C93.0522 16.2071 90.594 17.3837 89.5303 18.1742C90.3882 16.6373 91.7087 15.7933 92.7863 14.5586Z" fill="#BDB3AA"/>
<path id="Vector_45" d="M52.3773 72.8746C52.1137 72.9699 51.8477 73.0676 51.5772 73.1652C51.3297 72.7909 51.0661 72.3933 50.7863 71.9747C50.8904 71.8562 50.9991 71.7329 51.1563 71.5539C50.599 71.3935 50.3192 71.5678 50.4071 70.8819C50.2567 70.8749 50.1087 70.868 49.8521 70.854C50.044 70.6238 50.1804 70.4634 50.3862 70.2192C51.0661 71.1493 51.7044 72.0236 52.3426 72.8978L52.3727 72.8746H52.3773Z" fill="#F6F0E6"/>
<path id="Vector_46" d="M58.9628 82.1208C58.7131 82.2231 58.461 82.3254 58.172 82.444C58.1858 82.2627 58.1997 82.0999 58.2113 81.9371C58.0309 81.9209 57.8482 81.9046 57.6239 81.886C57.9615 81.3256 57.5152 81.2163 57.469 80.6327C57.3279 80.7118 57.2077 80.7792 57.0435 80.8722C56.9394 80.7513 56.8145 80.6071 56.6758 80.4467C56.8238 80.1561 56.9625 79.884 57.1313 79.5562C57.8667 80.3328 58.3177 81.2977 58.9328 82.1464L58.9605 82.1231L58.9628 82.1208Z" fill="#F6F0E6"/>
<path id="Vector_47" d="M128.359 127.953C127.92 127.648 127.577 127.409 127.18 127.132C127.989 126.57 128.812 126.437 129.795 126.488C129.303 126.967 128.826 127.451 128.357 127.953H128.359Z" fill="#F6F0E6"/>
<path id="Vector_48" d="M54.6165 75.8365C54.3275 75.99 53.4048 75.8993 53.2961 75.4738C53.3609 75.2971 53.4649 75.0204 53.5667 74.746C53.5274 74.7251 53.4904 74.7065 53.451 74.6855C53.3239 74.8413 53.199 74.9948 53.0602 75.1645C52.274 74.832 53.1805 74.4228 53.3192 74.0601C53.5551 74.3693 53.7401 74.6111 53.9297 74.8599C53.8442 75.0506 53.7679 75.2203 53.643 75.4993C53.8858 75.3808 54.0176 75.3157 54.2211 75.2157C54.346 75.4366 54.4709 75.6528 54.5934 75.869L54.6165 75.8365Z" fill="#F6F0E6"/>
<path id="Vector_49" d="M92.6089 18.026C94.2115 17.268 95.5319 16.2705 95.7331 14.229C96.0545 15.9496 94.9052 17.3192 92.6089 18.026Z" fill="#BDB3AA"/>
<path id="Vector_50" d="M58.9345 82.1409C59.2051 82.4827 59.478 82.8222 59.7208 83.1291C59.6283 83.3407 59.5474 83.5267 59.4641 83.7151L59.4942 83.6918C58.9184 83.5267 58.8328 83.3151 58.5137 82.792C58.6547 82.5804 58.8074 82.3502 58.96 82.1177L58.9322 82.1409H58.9345Z" fill="#F6F0E6"/>
<path id="Vector_51" d="M48.7847 69.276C48.9697 69.0202 49.0807 68.8667 49.2264 68.6621C49.5848 69.1643 49.897 69.6015 50.2531 70.1014C50.0427 70.1921 49.8507 70.2735 49.6033 70.3781C49.416 69.9386 49.2795 69.5155 48.7847 69.2736V69.276Z" fill="#F6F0E6"/>
<path id="Vector_52" d="M60.4737 84.7702C60.3303 84.8423 60.1892 84.9167 60.0181 85.0028C59.7082 84.5354 59.3452 84.2471 59.4955 83.6937L59.4654 83.7169C59.6157 83.6681 59.7661 83.6193 59.9372 83.5635C60.143 83.8123 60.5454 84.6749 60.4436 84.7981L60.4737 84.7726V84.7702Z" fill="#F6F0E6"/>
<path id="Vector_53" d="M48.0203 67.0342C48.3487 67.5225 48.6747 68.0108 49.0309 68.5386C48.8644 68.6432 48.7302 68.7269 48.5614 68.8315C48.1937 68.2293 47.7544 67.762 47.789 67.0458C47.8677 67.0412 47.944 67.0388 48.0226 67.0342H48.0203Z" fill="#F6F0E6"/>
<path id="Vector_54" d="M86.7578 35.0005C87.3383 34.6703 87.8447 34.389 88.5986 34.3936C88.4228 34.7284 88.3026 34.9563 88.1985 35.1563C87.699 35.1028 87.2828 35.0563 86.7578 35.0005Z" fill="#F6F0E6"/>
<path id="Vector_55" d="M133.817 94.3611C133.158 95.3795 132.497 96.3979 131.838 97.4163C132.25 96.2282 132.973 95.2353 133.676 94.2285C133.725 94.2727 133.771 94.3169 133.82 94.3587L133.817 94.3611Z" fill="#F6F0E6"/>
<path id="Vector_56" d="M52.3531 72.8986C52.6005 73.1986 52.848 73.5008 53.1763 73.9008C52.8341 73.917 52.6306 73.9287 52.397 73.9403C52.4756 74.0845 52.5635 74.2472 52.6491 74.4077C52.6051 74.4379 52.5589 74.4681 52.515 74.496C52.2953 74.2007 52.0733 73.9054 51.7935 73.5311C52.2005 73.4706 52.3646 73.2241 52.3831 72.873L52.3531 72.8963V72.8986Z" fill="#F6F0E6"/>
<path id="Vector_57" d="M128.713 99.7375C128.068 100.226 127.43 100.726 126.598 100.833L126.517 100.675C127.21 100.314 127.904 99.9538 128.6 99.5957C128.637 99.6445 128.674 99.691 128.713 99.7399V99.7375Z" fill="#F6F0E6"/>
<path id="Vector_58" d="M80.1478 33.0922C79.5628 32.3783 78.6123 32.4527 77.8353 32.1202C77.1462 31.8249 76.6259 31.2088 75.9275 30.9786C74.3018 30.4368 72.1373 31.7366 70.6064 31.0739C73.1595 29.6207 75.7032 28.0256 78.6054 29.2789C79.6437 29.7276 80.8254 30.0392 81.792 30.6507C82.9275 31.3692 83.7068 32.4248 85.2076 32.0877C85.2446 31.9784 85.307 31.797 85.3833 31.5692C85.7187 31.89 85.6331 32.4783 85.6608 32.9224C86.1048 32.6271 86.3315 32.2574 86.3407 31.5924C86.8934 34.371 82.2314 35.2243 80.5016 34.0269C80.1432 34.7988 79.3708 34.4175 78.7118 34.4175V35.029C77.5046 35.6754 76.3623 34.9686 75.3147 34.3966C74.1908 33.7851 73.3722 33.7339 72.1119 33.6339C74.7042 32.9015 77.3751 33.2224 80.1455 33.0922H80.1478ZM74.9933 33.7502C75.7633 34.1129 76.1958 34.7849 77.0375 34.8663C77.0583 34.6454 77.0768 34.4617 77.0907 34.3222C76.8016 34.3408 76.5635 34.3571 76.2235 34.3803C76.4501 34.185 76.5843 34.0687 76.7346 33.9409C76.1981 33.6572 75.6893 33.5712 74.9933 33.7525V33.7502Z" fill="black"/>
<path id="Vector_59" d="M52.8141 35.9597C53.117 36.1364 53.4176 36.3131 53.8431 36.5619C52.9783 35.5388 51.4058 34.2344 52.6799 32.9021C53.4408 32.1045 56.0678 32.3347 55.3393 30.7699C54.0374 31.4349 53.3922 30.3142 54.8421 30.1095C54.6826 29.1585 54.3056 29.0934 53.5286 28.8539C52.3354 28.4866 52.0879 28.8865 51.5283 30.063C50.2981 32.651 50.9016 34.4204 52.0394 36.8526C49.2019 36.7084 49.7361 26.001 54.3033 28.1424C55.6423 28.7702 56.2181 30.7327 55.6931 32.0836C55.1751 33.4159 52.4788 33.9345 54.1692 35.2691C54.708 34.7924 55.0734 34.1484 55.8273 33.9182C55.159 35.1645 55.2306 35.5272 55.6723 36.7526C55.8735 37.3129 56.6112 38.8987 55.3948 38.9964C54.2733 39.0871 54.752 37.9524 54.4652 37.4222C54.0883 36.7247 53.1887 36.7107 52.8187 35.9643L52.8141 35.9597Z" fill="black"/>
<path id="Vector_60" d="M84.7486 45.2978C83.8352 46.0837 83.0489 46.0744 81.6313 45.2839C82.0777 43.9725 84.034 44.8025 84.7486 45.2978Z" fill="black"/>
<path id="Vector_61" d="M65.4443 37.1772C66.4318 39.1769 67.4978 41.1556 68.1384 43.5273C66.7347 41.7323 66.0826 39.3606 65.4443 37.1772Z" fill="black"/>
<path id="Vector_62" d="M66.4799 37.9712C67.4558 39.8825 68.4548 41.7822 69.1231 43.8353C67.7402 42.2937 67.1297 39.915 66.3203 38.034L66.4799 37.9712Z" fill="black"/>
<path id="Vector_63" d="M64.3433 35.0786C64.8381 36.9853 65.4856 38.8198 66.3112 40.5939C64.97 38.9919 64.3224 37.1434 64.3433 35.0786Z" fill="black"/>
<path id="Vector_64" d="M63.2699 37.266C62.6664 35.9546 61.6789 34.7688 62.3866 33.3574C62.3334 34.134 62.3311 34.7967 62.8005 35.3594V33.5504C62.9947 34.7362 63.1982 35.9825 63.4017 37.2312C63.3578 37.2428 63.3139 37.2544 63.2699 37.2637V37.266Z" fill="black"/>
<path id="Vector_65" d="M76.0493 35.9339C77.4669 35.9339 78.1167 35.7432 79.3169 35.0898C79.1989 36.764 77.1084 36.6268 76.0493 35.9339Z" fill="black"/>
<path id="Vector_66" d="M63.9338 7.18764C64.172 7.12021 64.4125 7.05278 64.6506 6.98535C63.2354 7.99215 62.5671 9.34773 62.5324 11.1311C61.5103 9.9174 63.284 8.01308 63.9638 7.15509L63.9338 7.18764Z" fill="black"/>
<path id="Vector_67" d="M64.4612 38.7062C63.786 37.0413 63.3581 35.609 63.231 33.8047C63.7027 35.4556 64.1583 37.046 64.6138 38.6364C64.563 38.6597 64.5121 38.6829 64.4612 38.7062Z" fill="black"/>
<path id="Vector_68" d="M80.2286 43.1064C79.9441 44.2272 80.1291 45.0991 81.1212 45.7153C79.7036 45.6665 79.0885 44.09 80.2286 43.1064Z" fill="black"/>
<path id="Vector_69" d="M69.9555 44.2294C69.3173 42.9971 68.5935 41.7996 68.3345 40.4092C69.0028 41.6299 69.6249 42.8692 69.9555 44.2294Z" fill="black"/>
<path id="Vector_70" d="M66.686 9.19727C66.0547 10.2157 65.3933 11.1992 65.532 12.5037C64.3134 11.9666 66.1333 9.54837 66.686 9.19727Z" fill="black"/>
<path id="Vector_71" d="M66.1921 8.63525C65.6117 9.6002 64.9086 10.3652 64.9133 11.4487C63.9258 10.6977 65.5053 9.00263 66.1921 8.63525Z" fill="black"/>
<path id="Vector_72" d="M66.7315 10.373C66.6575 11.3984 66.5881 12.3401 66.5164 13.3237C65.9637 12.6401 66.0516 11.3543 66.7315 10.373Z" fill="black"/>
<path id="Vector_73" d="M64.8905 8.80957C64.583 9.71639 64.2754 10.6232 63.9655 11.5393C63.6094 10.4163 64.2176 9.59548 64.8905 8.80957Z" fill="black"/>
<path id="Vector_74" d="M97.038 124.9C98.548 124.474 100.107 124.411 101.614 123.925C103.083 123.453 104.491 122.76 105.983 122.363C104.614 123.249 102.505 124.144 100.955 124.562C100.178 124.772 97.7178 125.288 97.0356 124.9H97.038Z" fill="black"/>
<path id="Vector_75" d="M100.228 122.765C102.198 120.721 104.044 118.559 106.49 117.082C104.474 118.958 102.457 120.837 100.438 122.709C100.392 122.753 100.3 122.746 100.228 122.765Z" fill="black"/>
<path id="Vector_76" d="M102.066 116.538C103.699 114.433 105.331 112.331 106.961 110.227L107.096 110.332C105.664 112.585 103.923 114.601 102.23 116.656C102.175 116.617 102.121 116.577 102.066 116.538Z" fill="black"/>
<path id="Vector_77" d="M115.49 116.933C112.944 116.426 111.716 118.8 109.463 119.197C110.913 118.244 113.748 115.324 115.49 116.933Z" fill="black"/>
<path id="Vector_78" d="M113.208 111.886C111.562 112.605 110.605 114.263 108.845 115.172C110.091 113.56 111.333 112.293 113.208 111.886Z" fill="black"/>
<path id="Vector_79" d="M95.2056 127.262C96.7781 126.369 98.1401 125.474 99.8421 124.981C99.2825 125.572 96.3896 126.992 95.2056 127.262Z" fill="black"/>
<path id="Vector_80" d="M114.587 122.649C113.304 123.403 111.947 123.612 110.506 123.133C111.893 123.042 113.216 122.889 114.587 122.649Z" fill="black"/>
<path id="Vector_81" d="M113.286 117.53C114.384 117.395 115.589 117.67 116.384 118.211C115.242 118.207 114.248 117.953 113.286 117.53Z" fill="black"/>
<path id="Vector_82" d="M110.539 114.707C111.436 113.426 112.456 112.343 114.199 112.426C112.777 112.861 111.582 113.659 110.539 114.707Z" fill="black"/>
<path id="Vector_83" d="M127.374 105.178C129.169 103.797 128.165 103.109 126.778 102.102C128.623 102.262 129.567 104.736 127.356 105.155L127.374 105.176V105.178Z" fill="black"/>
<path id="Vector_84" d="M100.795 118.336C99.9898 119.764 98.8567 120.801 97.2749 121.301C98.7225 120.64 99.8071 119.547 100.795 118.336Z" fill="black"/>
<path id="Vector_85" d="M110.353 119.614C111.063 119.049 111.771 118.481 112.527 117.877C112.955 118.763 111.006 119.439 110.441 119.753C110.411 119.707 110.381 119.66 110.351 119.614H110.353Z" fill="black"/>
<path id="Vector_86" d="M139.244 97.1846C139.376 99.2121 136.187 99.8306 136.436 97.6054C137.493 99.247 138.499 99.0075 139.244 97.1846Z" fill="black"/>
<path id="Vector_87" d="M109.914 121.876C108.73 122.474 107.548 123.069 106.364 123.667L106.286 123.509C107.4 122.816 108.598 122.281 109.914 121.879V121.876Z" fill="black"/>
<path id="Vector_88" d="M127.46 121.288C126.611 120.743 126.123 119.865 125.584 119.03C126.25 119.737 126.914 120.443 127.58 121.148C127.541 121.195 127.499 121.239 127.46 121.285V121.288Z" fill="black"/>
<path id="Vector_89" d="M47.3362 49.4376C47.2299 51.028 47.1397 52.5603 46.6934 54.1019C46.7003 52.4975 47.3224 50.9629 47.1466 49.3423C47.209 49.3748 47.2738 49.4051 47.3362 49.4376Z" fill="black"/>
<path id="Vector_90" d="M91.8682 136.312C87.6456 137.802 93.6442 141.064 92.7747 137.207C93.9287 137.877 92.8279 139.418 91.8359 139.572C90.1292 139.837 89.6367 138.211 90.1015 136.886C89.4563 136.137 88.9429 135.335 90.2356 134.859C90.9687 134.589 91.2254 134.607 91.4867 135.458C90.3998 134.356 89.158 135.94 90.3165 136.493C90.7721 136.414 91.1883 136.042 91.8682 136.314V136.312Z" fill="black"/>
<path id="Vector_91" d="M92.5427 137.811C92.5357 138.987 90.8569 139.117 90.658 137.99C90.4429 136.76 92.5496 136.362 92.5427 137.811Z" fill="black"/>
<path id="Vector_92" d="M128.591 117.207C127.909 116.656 126.783 115.161 126.605 114.501C127.266 115.405 128.182 116.119 128.573 117.224L128.591 117.207Z" fill="black"/>
<path id="Vector_93" d="M74.9961 33.7509C75.6922 33.5696 76.2009 33.6556 76.7374 33.9393C76.5871 34.0695 76.453 34.1857 76.2263 34.3787C76.5663 34.3555 76.8045 34.3415 77.0935 34.3206C77.0797 34.4601 77.0612 34.6438 77.0403 34.8647C76.1986 34.7833 75.7662 34.1113 74.9961 33.7486V33.7509Z" fill="#F6F0E6"/>
<path id="Vector_94" d="M145.375 94.0906C146.291 92.6838 149.952 88.7682 148.939 86.9755C148.016 85.3386 144.3 86.9918 142.961 87.3359C140.864 87.873 137.767 88.2032 135.936 89.3867C134.033 90.6168 132.677 93.9092 131.452 95.7879C130.069 93.8743 129.095 94.4928 127.299 95.4903C125.453 96.5134 123.414 97.3853 121.483 98.2364C119.189 99.2478 117.019 100.341 114.899 101.694C113.313 102.708 110.891 104.798 108.933 104.856C108.267 104.156 106.784 103.045 106.458 102.087C106.067 100.936 106.659 99.4082 106.578 98.1759C106.393 95.295 104.833 93.5488 104.083 90.9028C102.714 86.071 100.67 80.8045 97.7378 76.7099C96.0543 74.3568 94.7038 72.6222 91.9635 71.5015C89.3018 70.4086 86.5129 69.6297 83.7818 68.7322C80.8103 67.7533 77.9474 66.6326 75.1469 65.2281C74.1387 64.7236 72.9477 64.2725 72.3627 63.2285C71.8609 62.3356 72.0274 61.8055 72.1615 60.7103C74.7561 61.5358 79.0458 62.7914 81.2959 60.5755C82.4822 59.4082 82.5169 58.0503 82.3851 56.4901C82.2625 55.0764 82.4914 54.5951 83.139 53.3581C83.1829 53.307 83.4604 52.9628 83.3771 52.5141C83.3332 52.2839 83.213 52.1258 83.1459 52.049C83.3725 51.8956 83.5991 51.7421 83.8258 51.5887C83.909 51.5026 83.9946 51.4166 84.0778 51.3306C84.4016 50.447 84.6721 49.8215 84.767 48.8775C84.8294 48.2474 84.6097 47.4057 84.9635 46.8476C85.6087 45.8362 87.3315 45.9408 87.9466 44.9038C88.5849 43.8272 87.8518 41.995 87.5211 40.8603C87.0031 39.0722 87.1558 38.2514 87.6252 36.468C87.8865 36.5099 88.2149 36.5634 88.5872 36.6238C88.83 35.9844 88.652 35.7356 89.0266 35.1008C89.5677 34.187 90.7633 33.8313 91.1865 32.7803C91.8663 31.0922 90.7032 28.4369 90.6222 26.607C90.5644 25.3025 90.5598 23.9935 90.5343 22.6867C90.5066 21.2637 90.3147 20.8266 91.6744 20.4917C93.5313 20.0337 96.3988 20.5801 96.6047 17.7527C95.5594 19.571 94.8055 20.0221 93.0966 19.7965C94.9743 18.9269 96.1954 18.2293 96.859 16.1204C97.4164 14.344 97.3077 11.7793 96.2092 10.2075C94.4101 7.62886 92.3936 4.81075 89.1376 3.76442C87.2413 3.15522 85.5717 4.18063 83.7356 3.67839C81.4323 3.05059 79.2563 2.09494 76.9114 1.55783C72.5546 0.560326 68.3967 -0.527857 63.9035 0.28363C60.1133 0.967232 55.9994 1.94381 52.7272 4.05507C49.5521 6.10122 47.2974 9.4239 45.5584 12.7257C43.7431 16.1669 42.5452 19.7244 42.6632 23.654C42.7302 25.8931 42.6886 28.209 43.0054 30.4319C43.2644 32.2688 43.9906 33.9592 44.4623 35.7426C45.6093 40.086 45.3919 43.7947 44.4276 48.1265C44.2172 49.0705 44.1016 49.7913 43.5396 50.4912C43.1442 50.9795 42.4643 51.1701 42.0481 51.7654C41.2387 52.9233 41.1855 54.1278 40.0246 54.902C38.5377 55.8926 37.7861 57.5806 36.5535 59.0223C35.321 60.4615 34.574 61.4381 33.9242 63.1471C33.3461 64.6631 31.4429 65.4839 30.1248 66.4349C28.6055 67.5324 27.0885 68.6369 25.5414 69.6948C19.6052 73.7569 11.1854 77.1191 8.10511 84.0877C6.42392 87.887 5.96836 92.1444 5.34398 96.2181C4.71036 100.364 4.89304 104.049 6.41236 107.993C9.48337 115.964 13.6135 123.495 17.8639 130.873C22.1998 138.399 26.2536 146.082 30.5017 153.659H95.4877C95.7583 152.153 96.0196 150.646 96.2809 149.137C97.1597 150.051 97.5505 150.532 98.7669 150.764C99.7265 150.948 100.763 150.957 101.736 151.076C104.231 151.378 106.308 150.853 108.681 150.134C113.012 148.823 116.601 146.47 120.47 144.168C124.105 142.003 128.896 140.808 130.335 136.355C131.015 134.246 130.814 131.747 131.817 129.768C132.798 127.834 134.481 126.269 135.533 124.362C135.526 124.367 135.522 124.371 135.515 124.376C135.515 124.383 135.485 124.388 135.427 124.39C133.343 125.206 131.385 126.136 129.623 124.223C130.231 124.281 134.747 124.432 135.427 124.39C135.466 124.376 135.503 124.36 135.543 124.346C135.54 124.35 135.536 124.357 135.533 124.362C136.655 123.525 137.305 122.639 138.072 121.5C138.722 120.532 139.004 120.442 140.022 119.979C142.452 118.872 142.293 117.463 142.001 115.013C142.945 114.606 143.967 114.15 144.27 113.064C144.557 112.041 143.872 111.422 143.787 110.523C143.68 109.381 144.212 109.63 144.871 108.776C145.57 107.872 145.322 107.112 144.934 106.154C144.455 104.975 143.611 103.973 143.38 102.696C143.183 101.606 143.169 100.875 142.771 99.8593C142.307 98.6642 142.253 98.899 143.047 97.6644C143.817 96.4692 144.598 95.2811 145.375 94.0906ZM140.505 88.9659C142.88 88.3265 145.449 87.2755 147.901 87.1011C147.908 87.1662 147.915 87.2313 147.921 87.2964C145.526 88.0033 143.118 88.652 140.702 89.2821C138.375 89.8913 136.766 90.1238 135.263 92.0932C135.735 89.7332 138.63 89.4704 140.505 88.9659ZM133.674 94.2278C133.723 94.2719 133.769 94.3161 133.817 94.3603C133.158 95.3787 132.497 96.3971 131.838 97.4156C132.25 96.2251 132.971 95.2346 133.674 94.2278ZM99.2594 92.5815C100.591 92.8931 104.058 93.0582 104.315 94.7277C104.631 96.7971 102.196 98.3015 100.524 98.3712C101.329 97.4551 102.051 96.6343 102.77 95.8158C102.735 95.7786 102.7 95.7414 102.666 95.7042C101.429 96.8227 100.268 97.8876 98.9842 98.9944C99.0097 98.6409 99.0212 98.4735 99.0328 98.2945C98.4593 98.7665 97.9829 99.392 97.0394 99.3362C96.829 97.6458 97.0926 95.9856 97.1296 94.2743C96.4058 95.881 96.785 97.4597 96.3017 99.0199C95.9063 100.292 94.9998 100.217 93.6562 100.664C93.2885 99.8779 93.1637 98.5572 93.159 97.669C93.1544 96.26 93.5244 96.453 94.4008 95.5926C95.2264 94.7788 95.3536 93.3488 96.1676 92.5885C97.0741 91.7421 98.0985 92.3118 99.2594 92.5815ZM77.8341 67.4626C81.0184 68.4694 83.9483 70.0947 87.1511 71.0876C88.8855 71.6247 90.7008 72.2758 92.315 73.1175C93.2215 73.5895 96.1491 75.524 95.7167 76.8285C95.3675 77.8841 92.1623 78.0562 91.2466 77.9166C89.422 77.6376 87.8495 76.1867 86.425 75.1078C83.3471 72.7803 80.7617 70.0273 77.7786 67.5998C77.7971 67.5533 77.8156 67.5091 77.8341 67.4626ZM60.8348 86.0827C60.8487 85.9292 60.8649 85.7618 60.8834 85.5432C60.7447 85.5595 60.5967 85.5758 60.3492 85.6037C60.3932 85.313 60.4302 85.0503 60.4695 84.7899C60.4602 84.7899 60.451 84.7922 60.4417 84.7945C60.444 84.7945 60.4463 84.7875 60.4463 84.7852C60.3145 84.8526 60.1781 84.9201 60.0162 85.0038C59.7087 84.5411 59.3525 84.2527 59.4936 83.7063C59.4843 83.7087 59.4728 83.7133 59.4635 83.7156C59.4682 83.7063 59.4728 83.6947 59.4774 83.6854C58.9178 83.525 58.8299 83.3087 58.5131 82.7949C58.6472 82.5902 58.7929 82.3717 58.9409 82.1531C58.9386 82.1485 58.934 82.1461 58.9317 82.1415C58.9293 82.1392 58.9293 82.1368 58.927 82.1345C58.6865 82.2322 58.446 82.3298 58.1708 82.4438C58.1847 82.2601 58.1986 82.0973 58.2125 81.9369C58.0298 81.9206 57.8494 81.9043 57.6251 81.8834C57.9627 81.3253 57.5164 81.2161 57.4701 80.6301C57.3291 80.7092 57.2088 80.7766 57.0446 80.8673C56.9406 80.7487 56.8157 80.6045 56.677 80.4441C56.825 80.1535 56.9637 79.8814 57.1302 79.5536C57.8633 80.3279 58.3165 81.2905 58.927 82.1345C58.9386 82.1299 58.9501 82.1252 58.9617 82.1206C58.9548 82.1322 58.9478 82.1415 58.9409 82.1531C59.2115 82.4903 59.4774 82.8274 59.7202 83.1297C59.6323 83.3297 59.556 83.5064 59.4774 83.6854C59.482 83.6877 59.489 83.6901 59.4959 83.6924C59.4936 83.697 59.4936 83.7017 59.4936 83.7063C59.6347 83.6598 59.7757 83.6133 59.9353 83.5622C60.1365 83.8063 60.5273 84.6341 60.4463 84.7852C60.4556 84.7806 60.4625 84.7759 60.4718 84.7713C60.4718 84.7782 60.4695 84.7829 60.4695 84.7899C61.2095 84.7248 65.7397 91.8538 65.7512 92.7489C64.9326 91.6143 61.7529 88.3544 61.9472 86.9593C61.7321 86.9569 61.1771 86.2873 60.8348 86.0827ZM59.9052 81.33C60.8279 82.295 61.2881 83.0111 62.2293 81.7532C62.9138 80.8347 63.2121 79.4652 63.7232 78.4305C65.0297 79.4908 66.8543 80.4534 67.3677 82.088C67.9435 83.9202 67.6567 86.3431 67.9412 88.2683C68.2233 90.1843 68.6002 92.0863 69.1529 93.9441C69.5206 95.1811 70.2144 98.5828 71.5232 99.1478C70.5913 96.8482 73.0287 94.7323 74.1156 92.7187C74.7885 91.4747 75.4059 90.1982 75.8569 88.8543C76.25 87.6708 76.1922 85.8292 76.7379 84.7806C77.2929 85.7688 77.989 86.6174 77.8896 87.78C77.7762 89.1356 76.9784 90.6958 76.4211 91.9142C75.1724 94.644 73.475 97.1668 71.921 99.7268C71.7614 99.578 71.6643 99.4873 71.5672 99.3943V99.8221C67.4232 93.9208 63.5937 87.5336 59.9052 81.33ZM72.5061 76.954C70.5751 75.0032 68.3482 73.6127 65.8067 72.5129C65.9709 72.1525 66.1166 71.8363 66.2877 71.4573C68.2464 72.3595 72.6957 74.2266 72.5061 76.954ZM67.1873 70.0459C67.2405 68.1579 71.3151 71.9991 71.6782 72.5408C70.3046 71.4992 68.7829 70.7551 67.1873 70.0459ZM70.1381 85.0573C70.6422 83.9319 70.5034 80.5464 71.8331 80.4069C72.2864 84.1644 70.8526 87.2824 68.9032 90.361C67.9805 87.8614 69.1922 87.1685 70.1381 85.0573ZM68.3274 84.6411C67.777 82.7856 67.7446 81.4951 69.62 81.0277C69.5507 82.4438 69.0512 83.5226 68.3274 84.6411ZM71.8609 89.0473C73.1952 86.1733 73.6461 83.3227 73.6461 80.1697C77.6676 83.9668 72.2401 91.9747 70.1635 95.3717C69.0373 92.7071 70.7347 91.4701 71.8609 89.0473ZM72.217 79.1653C71.7776 79.6931 65.7165 75.6147 64.8563 74.9939C64.9418 74.7335 65.0112 74.5219 65.076 74.3266C66.6785 74.3545 70.3485 76.8517 72.217 79.1653ZM69.6409 80.1558C68.4291 81.1719 63.8758 78.0515 64.2689 76.7076C66.2461 77.5167 68.0059 78.7839 69.6409 80.1558ZM73.0102 102.003C73.2206 100.82 74.7862 99.1943 75.3967 98.1736C77.0085 95.4787 78.3729 92.6745 79.4459 89.7216C79.5083 89.7146 79.5708 89.7076 79.6332 89.7006C80.7802 92.3118 79.4204 94.5928 78.1856 97.0342C76.9091 99.5547 75.3874 102.003 73.7571 104.307C73.364 103.524 72.8552 102.875 73.0102 102.003ZM75.7505 105.196C76.5437 103.942 77.2906 102.661 78.0352 101.375C79.3996 99.013 80.4796 96.618 81.6682 94.1789C83.5968 96.2739 81.5595 99.0618 80.4472 101.071C79.0689 103.559 77.4594 105.905 75.8199 108.223C75.0521 106.756 74.8741 106.579 75.7505 105.196ZM77.4594 109.588C78.137 108.302 79.2031 107.109 79.987 105.879C81.3953 103.668 82.6834 101.373 83.7471 98.9758C84.101 99.9942 84.4987 100.764 84.2466 101.84C83.9761 103.001 83.0071 104.356 82.3943 105.379C80.9744 107.749 79.4574 110.137 77.8156 112.355C77.1657 111.125 76.8304 110.781 77.4594 109.588ZM81.0808 111.113C82.4938 109.039 83.7749 106.93 85.0236 104.756C85.5255 109.169 82.2694 112.945 79.7373 116.363C77.9659 114.415 79.9222 112.813 81.0808 111.113ZM82.4082 116.024C83.4627 114.527 84.464 112.994 85.5 111.485C85.7868 113.559 85.0606 114.571 83.99 116.301C83.2453 117.503 82.4591 119.516 81.3976 120.442C80.2714 118.489 81.2126 117.719 82.4082 116.024ZM83.2823 121.23C84.1773 119.902 84.9982 118.528 85.8145 117.154C85.8145 120.037 84.9381 122.049 82.8221 124.125C82.2463 122.676 82.3966 122.541 83.2823 121.23ZM79.0967 70.0785C80.2599 71.341 81.1872 72.5176 82.0451 74.0103C80.4634 73.1965 79.7003 71.7224 78.5417 70.4435C77.4941 69.2832 76.0904 68.037 75.3944 66.6256C76.8998 67.1766 78.0607 68.9554 79.0967 70.0785ZM76.1043 79.5722C76.1552 79.5443 76.2038 79.5187 76.2546 79.4931C75.9702 78.0585 75.6857 76.6238 75.4013 75.1892C75.4452 75.1706 75.4892 75.152 75.5331 75.1334C77.2976 78.7444 78.6874 82.5577 80.2113 86.278C81.548 89.5402 83.6639 93.2861 83.8489 96.8808C83.8142 96.8901 83.7795 96.8994 83.7448 96.911C82.1122 93.1931 80.4495 89.5356 78.3313 86.0641C77.2629 84.3132 76.1321 82.5972 75.0059 80.8836C73.9213 79.235 73.66 78.2305 73.66 76.2727C74.511 77.4214 75.3065 78.4956 76.1043 79.5722ZM75.0752 77.4609C73.5698 74.2847 71.9279 69.6623 68.0869 68.7903C69.4258 67.2208 70.7601 65.8048 71.4677 63.9191C71.9187 64.6631 74.326 73.4942 75.0752 77.4609ZM88.1964 35.1566C87.6969 35.1032 87.2806 35.059 86.7557 35.0008C87.3361 34.6707 87.8403 34.3893 88.5965 34.394C88.4207 34.7288 88.3005 34.959 88.1964 35.1566ZM89.5284 18.1735C90.3863 16.6366 91.7068 15.7926 92.7844 14.5579C93.0503 16.2064 90.5921 17.383 89.5284 18.1735ZM95.7305 14.2277C96.052 15.9483 94.9027 17.3179 92.6063 18.0247C94.2089 17.2644 95.5293 16.2692 95.7305 14.2277ZM83.4835 6.71972C83.324 7.115 83.1644 7.51261 83.0071 7.91021C83.0441 7.93811 83.0834 7.96601 83.1204 7.99392C83.7356 7.26381 84.3646 6.60114 85.0537 5.94311C85.0953 5.98031 85.1393 6.01752 85.1832 6.05472C84.6906 6.65462 84.2628 7.25684 83.8373 7.90556C85.3243 7.14988 86.6979 6.61509 88.245 6.63136C87.4009 7.0406 86.3857 7.38937 86.4065 8.50778C87.3569 8.17993 88.2912 7.85441 89.2255 7.53121C88.7537 8.08227 88.4138 8.62171 88.2935 9.46575C89.7365 8.1683 92.9578 8.04042 94.2621 9.61689C88.985 7.92184 89.2902 13.3093 88.9133 17.09C88.3398 15.1229 87.8148 13.3209 87.2668 11.4398C87.0078 12.1002 87.2645 12.6884 87.35 13.4465C86.7904 12.6466 86.684 11.8909 86.6008 11.0236C85.544 12.6164 87.2922 15.109 87.4333 16.8087C86.5245 15.6298 85.5324 14.6486 84.5819 13.5302C83.391 12.1327 83.7124 11.2538 83.465 9.55644C82.8869 10.5911 83.0465 11.6654 83.3401 12.7745C82.5446 12.2281 82.281 11.5793 81.9966 9.4518C81.2335 11.1562 81.4786 12.6838 82.2209 14.1905C80.8126 13.8092 79.9939 11.4794 80.4842 9.34717C79.9685 10.0912 79.8714 10.9911 79.6794 11.9118C79.2771 10.2819 80.0841 7.96369 81.7676 7.19638C81.7168 7.41262 81.6751 7.59166 81.5965 7.91021C82.2348 7.43122 82.7828 7.01967 83.3286 6.60811C83.3794 6.64531 83.4303 6.68252 83.4835 6.71972ZM49.5452 30.3017C50.1395 28.2485 52.3688 26.0652 54.6628 26.7162C57.1094 27.4091 58.4599 31.2155 59.5953 33.2128C60.1758 32.7617 60.3492 32.2199 60.4325 31.5921C60.4926 31.9479 60.555 32.3013 60.636 32.785C61.4962 32.0502 61.8755 31.1039 62.5854 30.4202C62.5461 30.3807 62.5045 30.3412 62.4652 30.304C62.2686 30.4295 62.072 30.5574 61.8732 30.6853C61.8408 30.6435 61.8084 30.6039 61.776 30.5621C62.3495 30.0668 62.9207 29.5739 63.4942 29.0809C63.4757 29.0461 63.4595 29.0112 63.4433 28.9763C62.8375 29.3065 62.2316 29.6367 61.628 29.9692C61.5957 29.9343 61.5656 29.9017 61.5355 29.8692C62.153 29.3018 62.9045 28.788 63.4572 28.1579C63.0017 28.309 62.5461 28.4601 62.0905 28.6113C62.0697 28.5717 62.0466 28.5322 62.0258 28.4927C62.5368 28.2067 63.0479 27.9184 63.6885 27.5603C63.2745 27.451 62.9855 27.3743 62.5646 27.2627C64.2018 26.5814 65.9039 26.5558 67.4139 25.8164C66.8844 25.8559 66.3548 25.8931 65.8252 25.9303C65.8229 25.9071 65.8183 25.8838 65.8137 25.8606C66.815 25.542 67.8163 25.2235 68.8153 24.9026C68.8107 24.877 68.8037 24.8491 68.7991 24.8212C68.0545 24.9468 67.3099 25.07 66.5629 25.1933C67.7215 24.6468 69.0119 24.5236 70.0733 23.7098C69.6571 23.7609 69.2408 23.8098 68.6534 23.8819C69.3356 23.6052 69.8582 23.3959 70.3832 23.1843C68.5679 23.2889 66.7734 23.6075 64.9765 23.1238C65.4483 23.0262 65.9177 22.9262 66.5259 22.8006C66.2507 22.7193 66.1097 22.6797 65.8576 22.6053C67.2312 22.3751 69.0674 22.3612 70.2791 21.6427H68.8084C68.8037 21.6102 68.8014 21.5799 68.7968 21.5497C69.3934 21.373 69.9924 21.1963 70.7462 20.9731C68.6141 21.0684 66.6439 21.1544 64.6736 21.2428C64.669 21.2102 64.6667 21.1777 64.662 21.1451C66.8659 20.8428 69.0674 20.5406 71.2689 20.236C69.9045 20.0523 68.517 20.2802 67.2174 19.6849C68.6395 19.4826 70.1149 19.8174 71.6342 19.1245H68.9841C67.8556 17.8736 65.2379 18.3851 63.7185 17.7922C65.5778 17.569 67.4324 17.6108 69.3032 17.7015C66.9953 16.9761 64.6898 16.2483 62.2778 15.4903C63.0063 15.2275 63.6307 15.5275 64.2689 15.4903C63.1774 14.6788 61.5217 14.6951 60.2336 14.5207C61.3829 14.044 63.0086 14.3649 64.1903 14.4928C61.0037 12.9233 57.8933 13.3907 54.5934 13.9487C56.9336 12.4071 59.7896 12.6722 62.4374 12.4373C60.6822 11.9351 58.927 11.4305 57.1695 10.926C57.1718 10.8725 57.1741 10.8213 57.1765 10.7679C58.2934 10.7051 59.408 10.6446 60.6915 10.5749C59.7919 10.0191 58.8946 10.1726 58.0552 10.047C58.6264 9.77733 60.3631 9.67967 61.7159 9.84941C62.1483 8.82633 62.5068 7.25916 63.8226 7.15685C61.8685 6.64066 59.6925 7.35217 57.6898 7.12895C60.0347 6.25701 62.4282 6.56858 64.8493 5.83383C61.1216 5.52923 57.5418 5.64781 53.8303 6.11982C55.93 4.8712 58.9224 5.13395 61.2742 4.98049C59.297 4.55266 57.3777 4.68054 55.4629 4.64566C56.7486 4.18295 58.083 4.01554 59.445 3.91788C58.9802 3.81557 58.5177 3.71559 58.0968 3.62258H62.375C62.3842 3.57841 62.3935 3.53655 62.4027 3.49237C61.413 3.29706 60.4047 3.13895 59.4358 2.85993C62.0998 2.13912 64.8517 2.07169 67.5897 1.83685C66.4982 2.22748 65.409 2.61811 64.3198 3.00874C66.6647 3.04129 68.7089 1.8136 71.0006 1.79267C69.9854 2.13447 68.9124 2.40419 68.0707 3.11105C69.5461 2.96456 71.0214 2.81807 72.5916 2.66229C72.1014 2.98316 71.6805 3.25986 71.2596 3.53655C72.1384 3.38542 72.9246 2.89945 73.8704 3.00409C73.1813 3.38077 72.5176 3.74349 71.8539 4.10622C71.8724 4.15505 71.8909 4.20155 71.9117 4.24806C73.29 3.99926 74.6682 3.74814 76.2431 3.46215C75.5331 3.89928 75.0036 4.22713 74.3653 4.62241C75.6626 4.4364 76.8235 4.27131 77.9844 4.1039C78.0052 4.1597 78.026 4.21318 78.0445 4.26898C77.5473 4.59916 77.0501 4.92933 76.5529 5.25951C77.8641 5.36182 79.0458 4.8154 80.4588 4.67124C80.0934 4.94096 79.839 5.12697 79.5846 5.31299C79.5962 5.34787 79.6078 5.38042 79.6193 5.4153C80.1905 5.31299 80.7617 5.20835 81.4323 5.08745C81.0623 5.62921 80.4958 5.80825 80.1743 6.30584C81.0022 5.96404 81.3907 6.03844 82.2533 5.97334C80.8126 7.19173 79.3418 8.75658 78.7568 10.5981C78.1277 12.5861 79.1776 13.6511 79.4736 15.4694C79.2516 15.2926 79.0296 15.1183 78.6897 14.8462C79.0851 15.6856 79.6956 16.1925 80.1905 16.8366C76.7796 15.6228 75.7829 11.212 78.1347 8.64729C76.4766 9.3867 75.3967 10.4005 74.9342 12.0327C74.9157 11.7328 74.8972 11.4305 74.8741 11.0399C74.2427 11.5212 74.363 12.242 74.0508 12.8419C74.0231 12.5187 73.9999 12.2629 73.9722 11.9653C72.2933 14.2138 74.4532 15.9902 76.0835 17.2551C73.4241 16.7529 71.8955 14.9415 72.0898 12.2025C71.2411 13.0116 71.2157 13.9464 71.144 14.8764C70.3161 13.3139 71.0607 11.9537 71.7429 10.454C70.2814 11.5026 69.8814 12.921 69.7981 14.537C69.5507 14.1417 69.3287 13.7929 69.0049 13.279C68.961 13.7697 68.9355 14.044 68.9101 14.3161C68.473 12.7791 68.51 11.3026 69.4281 9.91219C68.4661 10.5563 68.221 11.4933 67.8417 12.5257C67.6429 11.6933 67.8047 10.9701 67.8232 10.1912C64.5071 14.3603 72.0505 19.0804 75.6811 17.9527C75.4221 17.8108 75.2209 17.7015 74.9689 17.5643C76.0211 16.9319 78.4538 18.1294 79.5546 18.4479C80.4495 18.706 83.3517 20.0546 84.2674 19.564C84.5658 19.8081 85.1231 19.185 85.1971 20.1732C85.2456 20.0732 85.2942 19.9732 85.3428 19.8756V18.8874C86.1267 19.3826 86.129 20.2337 86.6308 20.8801C86.5198 20.0872 86.4227 19.385 86.3233 18.6804C86.3533 18.6735 86.3834 18.6665 86.4135 18.6595C86.6933 19.4477 86.9754 20.2383 87.2876 21.1126C88.0507 20.4499 88.3652 19.5547 89.1029 18.7316C88.8277 19.5221 88.6173 20.129 88.3721 20.8359C89.0751 20.3778 89.6949 19.9779 90.458 19.4826C89.8059 20.3685 89.2671 21.1009 88.726 21.8334C88.7583 21.8729 88.7907 21.9124 88.8231 21.9543C89.1052 21.759 89.385 21.5613 89.7388 21.3172C89.7388 23.9516 89.5885 26.6209 89.9909 29.2321C90.2591 30.9643 90.5135 32.7617 87.9443 32.7617C87.9027 32.4199 87.9443 31.3201 87.5743 31.1364C87.4656 31.9456 87.357 32.7966 86.9153 33.5011C86.536 34.1103 85.7891 34.4568 85.5995 35.1636C85.1693 36.7773 86.432 40.1465 86.943 41.6695C87.6553 43.783 87.7154 44.5085 85.6758 45.6292C84.6282 46.2059 84.6166 46.443 84.4062 46.7523C84.2073 47.0429 83.8373 47.687 83.8396 48.5613C83.8396 49.0705 83.9715 49.4774 84.0709 49.7239C84.0825 49.8099 84.1356 50.2563 83.8396 50.6539C83.8396 50.6539 83.5853 50.9957 83.1459 51.119C83.1413 51.119 83.1343 51.1213 83.1343 51.1213C83.1112 51.1259 83.0719 51.1213 82.6834 51.119H81.9896C81.3537 50.7353 80.7779 50.533 80.3709 50.4214C79.5384 50.1912 78.8608 50.1889 78.2896 50.1889C77.6283 50.1889 77.0732 50.2563 76.6732 50.3238C76.6478 50.261 76.6223 50.1982 76.5969 50.1354C76.5714 50.0703 76.5437 50.0006 76.5136 49.9262C75.9748 50.2052 75.4822 50.5237 75.1331 51.0701C77.0825 50.2122 81.5803 50.2587 82.5053 52.7698C81.6705 55.0881 77.9867 52.9047 76.5021 52.621C76.9854 53.0628 77.471 53.5046 78.0144 53.9999C77.7393 54.0533 77.5727 54.0882 77.323 54.1371C77.7346 54.4951 77.4964 54.8323 77.1889 55.3089C78.5949 54.7928 79.8714 54.7649 81.2681 54.9509C81.4855 56.4808 82.1168 58.7456 80.6992 59.9221C79.6887 60.7592 77.989 60.4406 76.7888 60.3453C73.0217 60.05 69.7912 57.9945 66.519 56.2576C63.6492 54.7369 58.8091 53.0977 57.114 50.1145C55.5947 47.4429 56.0688 43.3087 56.6978 40.4604C51.6426 44.3922 48.5092 33.8731 49.5452 30.3017ZM45.2694 48.631C45.8637 46.0687 46.1435 43.5249 46.4719 40.9231C46.68 41.3416 46.8465 41.6741 47.0107 42.0043C47.0454 41.9927 47.0801 41.981 47.1148 41.9694C47.0754 41.6369 47.0361 41.3044 46.9968 40.9696C47.0338 40.9533 47.0685 40.937 47.1055 40.9207C47.2489 41.1742 47.3923 41.4276 47.5356 41.6834C47.5657 41.6788 47.5958 41.6741 47.6258 41.6718C47.5518 41.3207 47.4755 40.9719 47.3992 40.6208C47.4246 40.6068 47.4524 40.5929 47.4801 40.5766C47.7391 40.937 47.9981 41.2998 48.2849 41.6997C48.6179 41.2556 47.8432 40.6441 48.5809 40.3046C48.7636 40.5185 48.9439 40.7301 49.1636 40.9882C49.1983 40.7533 49.2261 40.5859 49.2608 40.3627C49.4458 40.4371 49.6169 40.5045 49.8574 40.6022C49.9661 40.3116 50.0701 40.0302 50.1927 39.7C51.3952 41.3579 52.5815 43.1436 54.8894 42.9367C55.1923 46.7569 55.123 50.2075 57.8933 53.0721C60.4556 55.7182 61.2118 60.0802 62.6293 63.4285C63.3809 62.1845 61.8801 60.1197 61.3875 58.985C60.8187 57.6736 59.6439 55.9646 59.5838 54.4998C60.9505 56.4204 62.0836 58.3735 63.6769 60.1407C65.0228 61.6334 67.3538 63.1146 67.3538 65.3258C67.141 65.0445 66.9792 64.8305 66.7179 64.4841C66.889 65.6281 66.6947 66.5651 66.3155 67.5278C61.8408 65.5165 57.3499 62.9123 53.2614 60.1895C51.3929 58.9455 49.4943 57.5876 47.8617 56.0367C45.9654 54.237 46.5759 52.4908 46.9228 50.075C46.8812 50.0657 46.8396 50.0587 46.7979 50.0517C46.5459 51.4026 46.2938 52.7559 46.0071 54.3068C45.4844 53.5279 44.7884 53.1558 44.6196 52.1839C44.4276 51.0841 45.0289 49.6727 45.2694 48.631ZM41.2063 56.1204C41.3821 54.5579 42.3325 52.7792 43.128 51.4678C45.0821 55.7066 49.4666 58.5944 53.2244 61.0986C57.558 63.9865 62.4212 65.9536 66.771 68.7624C66.5352 69.6878 65.742 70.6342 65.328 71.5224C64.7569 72.7431 64.2967 74.0103 63.8318 75.2729C63.0017 77.5376 62.2802 79.8698 61.2973 82.0741C56.818 77.2981 53.0093 71.8735 48.8977 66.7814C46.8719 64.2725 44.8392 61.7706 42.7904 59.2803C41.9486 58.2573 41.0514 57.5155 41.2063 56.1204ZM54.8223 76.7122C54.6651 76.8331 54.5055 76.954 54.2812 77.1261C54.2003 76.5773 54.3691 76.3518 54.6003 75.8775C54.598 75.8751 54.598 75.8728 54.5957 75.8705C54.5934 75.8658 54.5888 75.8589 54.5865 75.8542C54.2673 75.9867 53.4025 75.8868 53.2984 75.4752C53.3631 75.2985 53.4672 75.0218 53.569 74.7474C53.5296 74.7265 53.4926 74.7079 53.4533 74.687C53.3261 74.8428 53.199 74.9962 53.0625 75.1659C52.2763 74.8335 53.1828 74.4242 53.3192 74.0615C53.5574 74.3707 53.7401 74.6126 53.932 74.8614C53.8465 75.052 53.7701 75.2218 53.6453 75.5008C53.8858 75.3845 54.0176 75.3194 54.2234 75.2194C54.346 75.4357 54.4639 75.6426 54.5865 75.8542C54.598 75.8496 54.6096 75.8426 54.6188 75.8379C54.6119 75.8519 54.6073 75.8635 54.6003 75.8775C55.2455 76.7424 55.8907 77.6097 56.5613 78.5119C56.2885 78.6979 56.0549 78.8583 55.7705 79.0536C55.3889 78.4793 55.0189 77.9236 54.6327 77.34C54.7183 77.1749 54.8154 76.9866 54.9125 76.7982C54.8825 76.768 54.8524 76.7401 54.8223 76.7122ZM52.644 74.4079C52.6 74.4382 52.5561 74.4684 52.5098 74.4986C52.2901 74.2033 52.0704 73.908 51.7906 73.5337C52.1768 73.4755 52.341 73.2523 52.3734 72.9315C52.3665 72.9198 52.3572 72.9105 52.3479 72.8989C52.3456 72.8966 52.3433 72.8919 52.341 72.8896C52.089 72.9803 51.8369 73.0733 51.5779 73.1663C51.3304 72.792 51.0668 72.3943 50.7893 71.9758C50.8934 71.8572 51.0021 71.734 51.1593 71.555C50.602 71.3922 50.3222 71.5689 50.4124 70.8807C50.2621 70.8737 50.1141 70.8667 49.8574 70.8551C50.0493 70.6249 50.1858 70.4644 50.3916 70.2203C51.0691 71.1457 51.7051 72.0177 52.341 72.8896C52.3526 72.885 52.3664 72.8803 52.378 72.8757C52.378 72.8943 52.3757 72.9129 52.3734 72.9315C52.6139 73.2198 52.8544 73.5151 53.1712 73.9011C52.8313 73.9197 52.6278 73.929 52.3919 73.9406C52.4705 74.0847 52.5584 74.2475 52.644 74.4079ZM49.2261 68.6624C49.5845 69.1647 49.8967 69.6018 50.2551 70.1017C50.0447 70.1924 49.8528 70.2738 49.603 70.3807C49.418 69.939 49.2793 69.5158 48.7844 69.2763C48.9694 69.0205 49.0804 68.8647 49.2261 68.6624ZM48.5601 68.8298C48.1924 68.2299 47.753 67.7626 47.7877 67.0441C47.8663 67.0418 47.9426 67.0371 48.0213 67.0348C48.3496 67.5231 48.6757 68.0091 49.0318 68.5369C48.8653 68.6415 48.7312 68.7252 48.5601 68.8298ZM39.9576 55.9949C40.5704 58.0154 42.3371 59.6035 43.6136 61.2219C44.201 61.9659 48.0559 66.8279 47.3553 67.072C46.8372 66.8395 46.236 65.3374 45.9331 64.9236C45.422 64.2283 44.7421 63.4843 44.1964 62.7356C43.1997 61.3637 39.28 57.8201 39.9576 55.9949ZM17.4939 76.1704C19.3485 75.2869 20.8308 74.1964 22.5143 72.9942C26.3415 70.2552 30.1942 67.6091 34.2457 65.2235C36.2252 69.174 37.4439 73.2198 38.4059 77.4307C40.0385 77.5841 41.6503 77.7353 43.3939 77.9004C42.3163 79.3117 41.0537 80.3581 39.6546 81.1789C39.8442 82.1182 42.0943 83.8714 42.8343 84.7294C44.1062 86.2059 45.5006 87.5685 46.7841 89.038C49.3024 91.9212 51.8623 94.7067 54.2766 97.6899C56.7116 100.699 59.3456 103.531 61.813 106.514C63.078 108.042 64.3036 109.611 65.4136 111.26C66.3872 112.701 67.9065 114.534 68.2788 116.219C65.6911 115.299 63.5705 113.045 61.4014 111.408C58.9201 109.537 57.1603 107.344 55.0004 105.17C53.1088 103.266 50.8795 101.389 48.8006 99.7012C47.4593 98.613 46.1481 97.4783 44.8693 96.3181C43.7547 95.3066 42.6886 93.8116 41.4306 93.014C41.7521 94.6765 42.0527 96.339 42.5291 97.9666C42.9661 99.4617 43.7732 100.917 43.7686 102.503C42.5129 101.354 41.8122 99.1595 41.1994 97.6155C40.501 95.8507 39.8327 94.5602 38.644 93.0838C36.431 90.3308 33.9312 88.0195 31.5493 85.4339C29.3547 83.0553 26.5103 81.4695 23.555 80.2581C19.9405 78.7746 16.6591 79.2211 12.9567 79.9837C14.4414 78.6653 15.6647 77.0447 17.4939 76.1704ZM16.3885 79.7117C22.0935 80.2023 26.7647 81.7671 30.8463 85.9431C34.137 89.3054 38.6024 93.7581 39.2661 98.5921C36.3616 94.2882 33.4478 90.4168 29.1397 87.4196C27.0908 85.9966 24.9286 84.741 22.8612 83.3436C21.8576 82.6646 20.8632 81.9601 19.7833 81.4067C18.8282 80.9161 16.9689 80.5929 16.3885 79.7117ZM22.0657 114.861C22.8543 113.824 29.431 116.463 30.5873 116.903C33.1149 117.868 35.4736 119.505 38.2116 119.902C36.8033 117.18 34.1555 114.115 31.4013 112.659C27.9256 110.823 23.6868 110.925 20.2966 108.786C21.7512 107.6 25.849 109.216 27.5348 109.469C30.2705 109.885 32.7633 110.667 35.3927 111.511C37.7144 112.257 40.1402 112.078 42.4597 112.883C44.3999 113.557 46.4326 114.571 48.4352 114.84C46.5921 115.366 44.7722 115.461 43.5142 116.959C43.7362 117.021 43.8957 117.066 44.0923 117.121C43.7292 118.068 44.4554 118.84 44.497 119.716C43.9721 120.107 43.4679 120.481 42.9268 120.886C44.5756 122.425 45.0728 124.395 45.8105 126.483C45.8105 126.485 45.7296 126.624 45.644 126.769C46.6476 127.657 48.7613 128.943 49.1474 130.326C49.4735 131.496 48.0236 132.609 46.9968 133.226C45.2856 134.253 43.6182 134.165 41.7243 134.435C40.575 134.597 39.4511 134.932 38.3781 135.372C37.6219 135.681 36.7501 136.339 35.8875 136.213C36.6622 134.484 40.3507 133.658 42.0064 133.293C43.2991 133.007 47.3159 133.391 47.6096 131.575C45.9146 130.754 44.3883 131.875 42.7025 131.721C43.4911 131.412 44.2264 131.061 44.719 130.359C44.1547 129.275 42.6863 128.512 41.722 127.882C39.4742 126.413 37.09 125.315 34.6989 124.118C37.5155 123.664 41.3936 125.373 44.0391 126.064C42.98 124.334 42.2978 123.155 40.2212 122.565C38.1839 121.983 36.0772 121.816 34.0514 121.123C29.7455 119.647 26.2791 116.596 22.0657 114.861ZM39.8119 140.183C39.206 140.98 35.0134 146.953 33.8826 145.017C34.026 143.924 35.0527 142.782 35.5476 141.792C36.1304 140.622 37.1132 139.924 38.1307 139.153C38.9308 138.546 43.387 134.121 44.0299 134.969C44.9618 136.193 40.3738 139.445 39.8119 140.183ZM84.094 126.18C83.3263 128.052 80.5351 128.445 79.0643 129.536C77.5936 130.628 76.3379 131.982 74.7538 133.037C71.2596 135.362 67.5457 137.669 63.9035 139.75C62.2362 140.703 60.3099 141.864 58.5455 142.587C57.7546 142.91 56.8504 142.843 56.0341 143.11C55.0744 143.426 54.339 144.045 53.458 144.503C51.5871 145.479 50.5442 145.568 50.9836 143.277C51.3559 141.343 52.3688 139.39 51.4206 137.534C50.676 138.804 49.8204 140.782 48.6387 141.726C46.7656 143.222 47.3899 141.034 47.3899 139.778C47.4686 139.745 47.6143 139.683 47.9103 139.555C46.9089 139.197 44.6149 142.019 43.7801 142.77C43.4286 143.084 42.0504 144.605 41.4052 144.033C40.7392 143.445 41.7312 142.245 42.0272 141.74C43.1997 139.745 43.6876 137.346 45.0243 135.462C45.348 135.007 46.5713 133.388 47.2928 133.981C47.9889 134.551 46.9251 135.897 46.6176 136.451C47.3714 136.134 48.0004 136 48.6526 136.018C49.1683 135.488 49.9036 135.272 50.4309 134.756C50.8911 134.305 51.0714 133.798 51.6796 133.467C53.088 132.702 56.0503 132.589 57.5881 132.561C59.1745 132.533 60.6337 133.016 62.1807 132.547C63.7763 132.061 64.9465 131.054 66.4172 130.401C67.9227 129.731 69.775 129.829 71.3776 129.712C73.1466 129.587 73.8542 128.966 75.3527 128.259C76.916 127.52 78.7914 127.292 80.4171 126.678C81.9434 126.104 83.3887 125.429 84.9334 124.883C84.6305 132.53 87.4078 139.52 89.8591 146.563C85.7613 141.15 85.2503 132.654 84.094 126.18ZM89.4498 142.487C87.054 137.169 87.1257 131.405 86.0319 125.771C87.3408 123.334 89.2694 122.683 91.8964 121.856C92.7705 124.853 92.8376 128.294 93.1313 131.4C93.4573 134.835 94.75 136.748 97.0278 139.278C97.081 139.239 97.1342 139.199 97.1897 139.159C95.9757 137.367 94.7454 135.772 93.9037 133.77C93.9568 133.739 94.01 133.712 94.0632 133.681C95.3074 135.569 97.6245 137.504 98.3969 139.611C95.5802 140.868 92.3913 141.571 89.4498 142.487ZM114.954 126.862C115.648 126.064 116.714 126.543 117.473 126.001C117.5 125.759 117.533 125.487 117.572 125.139C118.187 125.65 118.564 126.348 119.408 126.629C119.27 125.941 118.536 125.274 118.127 124.729C119.11 124.513 120.019 124.511 120.916 123.82C120.449 123.899 120.183 123.944 119.751 124.018C120.01 123.727 120.167 123.551 120.345 123.353C119.244 123.258 118.148 123.985 117.031 123.29C114.092 126.115 111.687 129.731 108.135 131.886C106.338 132.977 104.476 133.523 102.393 133.651C101.216 133.721 100.078 133.798 98.9357 134.123C98.0985 134.36 97.0533 135.121 96.2277 135.165C93.795 132.351 93.3833 127.908 93.2723 124.313C93.2238 122.707 93.9592 122.451 95.268 121.653C96.9955 120.6 98.0222 119.612 99.1484 117.919C101.498 114.392 104.136 111.167 106.689 107.795C108.826 104.97 112.871 103.898 115.775 101.847C116.101 102.117 116.388 102.354 116.675 102.594C116.71 102.554 116.744 102.515 116.779 102.475C116.58 102.245 116.381 102.015 116.129 101.726C116.381 101.55 116.608 101.387 116.846 101.217C117.221 101.578 117.577 101.922 117.935 102.266C117.968 102.233 118.002 102.198 118.037 102.164C117.746 101.815 117.452 101.466 117.1 101.043C119.561 99.7524 122.079 98.4642 124.632 97.3668C125.837 96.8482 129.199 94.4393 130.302 95.1718C132.844 96.8575 128.029 99.4734 127.035 99.9826C125.874 100.575 124.783 101.387 123.603 101.924C122.595 102.384 121.425 102.394 120.437 102.88H121.841C120.565 104.08 119.219 105.07 117.762 106.026C115.974 107.2 115.04 107.258 112.938 107.214C111.321 107.179 109.911 107.365 108.738 108.6C108.241 109.123 105.889 112.057 106.185 112.65C108.035 110.265 109.564 107.788 112.859 107.498C114.349 107.365 115.731 107.739 117.248 107.463C118.869 107.165 120.419 106.57 122.024 106.2C124.942 105.528 127.074 107.965 129.544 109.258C130.078 109.537 130.619 109.802 131.16 110.067C131.443 110.334 131.736 110.713 131.685 111.102C131.584 111.869 130.161 112.573 128.052 112.492C126.538 111.711 124.919 111.083 123.39 110.409C121.166 111.748 118.523 111.46 116.233 112.559C117.124 113.09 117.956 112.49 118.837 112.285C118.502 112.825 118.062 112.943 117.494 113.173C119.004 113.673 122.907 114.024 123.848 115.217C124.783 116.401 124.119 120.346 123.541 121.63C123.074 121.088 122.606 120.549 122.082 119.94C122.384 119.572 122.782 119.114 122.736 118.363C121.018 119.309 120.5 119.151 118.761 118.21C118.888 118.063 119.001 117.931 119.209 117.689C118.733 117.861 118.377 117.986 118.018 118.114V116.703C117.977 116.698 117.935 116.696 117.894 116.691C117.868 116.924 117.84 117.154 117.794 117.568C117.637 117.056 117.531 116.712 117.38 116.222C117.38 118.293 117.979 118.596 119.649 119.621C120.844 120.358 122.715 121.102 122.734 122.607C122.745 123.448 121.196 126.459 120.46 127.017C119.316 127.892 115.967 127.687 114.954 126.862ZM128.711 99.7384C128.066 100.227 127.428 100.727 126.596 100.834C126.57 100.78 126.542 100.727 126.517 100.675C127.211 100.315 127.904 99.9547 128.598 99.5943C128.635 99.6431 128.674 99.6896 128.711 99.7384ZM123.566 111.504C125.092 111.304 126.6 112.652 127.812 113.415C129.25 114.32 130.647 115.219 131.963 116.294C130.922 117.661 129.923 118.238 128.587 117.233C128.57 117.307 128.552 117.384 128.522 117.514C126.799 116.48 124.889 115.224 123.395 113.899C121.718 112.413 123.675 111.574 125.118 112.597C124.748 111.813 124.147 111.697 123.566 111.504ZM123.797 135.153C122.72 134.374 120.678 131.142 119.422 128.24C121.878 127.187 122.387 125.236 123.481 122.886C124.089 124.706 124.972 126.762 126.6 127.887C128.263 129.036 129.537 128.575 131.343 128.575C129.051 131.103 126.57 133.305 123.797 135.153ZM127.178 127.131C127.988 126.569 128.811 126.436 129.794 126.487C129.301 126.966 128.825 127.45 128.358 127.952C127.918 127.645 127.576 127.408 127.178 127.131ZM133.096 126.324C132.252 127.682 131.015 128.013 129.507 128.047C130.661 127.252 131.547 126.171 133.096 126.324ZM130.506 125.532C128.596 125.66 127.19 124.699 126.269 122.9C126.586 123.181 126.903 123.462 127.301 123.816C127.275 123.567 127.262 123.42 127.234 123.137C128.304 124.202 129.151 124.867 130.506 125.532ZM142.478 102.531C142.98 103.814 144.527 105.712 144.541 107.102C144.552 108.311 143.824 108.451 142.799 108.89C142.661 110.211 143.949 111.79 143.391 113.038C142.866 114.213 141.067 114.103 140.008 114.336C140.39 114.775 140.806 114.234 141.046 114.501C141.176 115.478 141.622 116.838 141.315 117.812C140.938 119.003 140.105 118.891 139.134 119.333C137.448 120.105 137.298 122.527 135.145 122.686C135.445 122.762 135.58 122.797 135.792 122.851C133.989 124.378 129.974 123.06 128.184 122.111C125.858 120.879 124.517 118.742 124.87 116.096C127.386 117.51 129.882 118.912 132.516 120.393C132.122 119.586 131.371 119.382 130.855 118.84C132.684 119.009 134.433 119.17 136.243 119.337C135.815 118.126 132.416 118.126 131.461 117.959C131.762 117.554 132.065 117.14 132.402 116.684C133.549 117.377 134.749 117.861 136.322 117.684C134.12 116.482 132.185 115.189 130.15 113.745C129.997 113.638 129.842 113.531 129.685 113.431C129.787 113.429 129.898 113.424 130.013 113.415C130.448 113.383 130.804 113.355 131.207 113.185C131.431 113.09 131.803 112.894 132.164 112.49C132.201 112.422 132.65 111.567 132.164 110.69C132.125 110.62 132.083 110.555 132.035 110.495C132.698 110.818 133.355 111.153 133.996 111.515C134.856 112.004 137.279 114.12 138.251 113.794C137.931 113.576 137.61 113.357 137.178 113.062C138.237 112.983 139.608 113.341 140.165 112.134C139.374 112.576 138.56 112.55 137.714 112.399C138.114 112.28 138.516 112.164 138.917 112.048C138.907 111.999 138.896 111.953 138.887 111.904C138.72 111.927 138.553 111.95 138.234 111.997C138.537 111.632 138.759 111.364 138.981 111.099C138.956 111.071 138.933 111.043 138.907 111.018C138.417 111.455 137.927 111.892 137.39 112.369C135.004 111.604 133.471 109.341 131.366 108.06C129.729 107.063 124.727 106.03 124.121 104C124.105 103.989 124.089 103.98 124.073 103.968C124.075 103.961 124.077 103.952 124.08 103.945C123.471 104.18 123.901 105.54 122.942 105.11C123.092 104.659 123.245 104.196 123.453 103.575C122.685 104.128 122.345 104.74 122.179 105.516C121.018 105.847 119.864 106.175 118.678 106.509C119.535 105.475 123.198 102.826 124.595 102.24C124.413 102.838 124.246 103.391 124.08 103.945C124.086 103.94 124.096 103.938 124.103 103.935C124.107 103.956 124.114 103.98 124.121 104C125.025 104.621 126.14 105.633 127.299 105.182C125.714 105.263 124.234 103.661 125.307 102.175C126.415 100.641 127.955 101.64 129.234 102.405C132.772 104.519 136.403 106.591 140.022 108.542C139.825 108.256 139.631 107.97 139.407 107.644C140.154 107.351 141.053 107.507 141.62 106.863C140.716 106.877 139.051 107.221 138.255 106.737C138.422 106.402 138.584 106.075 138.771 105.703C139.527 105.886 140.258 106.065 140.989 106.242C141.009 106.198 141.033 106.151 141.053 106.107C139.978 105.184 138.734 104.41 138.794 102.798C139.372 103.129 139.909 103.589 140.656 103.626C139.185 102.464 132.784 97.662 136.662 95.5392C138.304 94.6393 139.546 96.7808 140.473 97.9039C141.68 99.371 143.024 100.531 142.478 102.531ZM137.356 92.3374C137.471 91.1701 142.427 90.3168 143.41 90.4214C142.711 91.0469 139.127 92.1351 137.356 92.3374Z" fill="black"/>
<path id="Vector_95" d="M82.4678 48.6851C82.4678 48.6851 84.6924 48.9757 84.5328 48.9548C84.3987 48.9408 84.223 48.9455 84.1351 49.0548C84.0195 49.2012 84.1559 49.4291 84.0703 49.4919C83.9801 49.557 83.7836 49.3454 83.3812 49.1106C83.3812 49.1106 83.2355 49.0245 82.4678 48.6851Z" fill="black"/>
</g>
</g>
</svg>
