<svg width="194" height="134" viewBox="0 0 194 134" fill="none" xmlns="http://www.w3.org/2000/svg">
<path d="M176.187 5.46529C87.2033 7.19849 24.7918 59.5441 7.20228 75.356L27.9794 129.722C63.3775 62.6034 145.794 45.4922 182.578 45.3265L177.236 39.5447L180.98 35.3612L174.929 30.5564L179.382 25.3959L173.473 20.032L178.224 14.9786L171.297 10.6622L176.187 5.46529Z" fill="black" stroke="black" stroke-width="3.01835"/>
<path d="M179.939 2.88062C90.9458 1.72861 26.8703 52.0237 8.77755 67.2571L27.7815 122.268C65.3366 56.3321 148.265 41.9014 185.034 42.928L179.883 36.9761L183.76 32.9162L177.869 27.9178L182.486 22.9043L176.754 17.3517L181.667 12.4549L174.883 7.91634L179.939 2.88062Z" fill="#F96B68" stroke="black" stroke-width="3.01835"/>
<path d="M43.4275 72.1078C43.6175 72.8515 43.7388 73.5331 43.7715 74.1875C43.8023 74.8351 43.7769 75.4391 43.6854 76.0171C43.592 76.5883 43.4318 77.1041 43.2248 77.6107C43.0228 78.1086 42.7839 78.5797 42.5144 78.993C42.2368 79.4306 41.9198 79.8053 41.5634 80.1171C41.2176 80.4408 40.8905 80.752 40.5353 81.0414C40.0413 81.4427 39.6133 81.7891 39.2045 82.0711C38.7994 82.3669 38.4303 82.5791 38.0865 82.6958C37.7621 82.8293 37.4382 82.9111 37.1634 82.9573C36.8898 82.981 36.6368 82.999 36.4074 82.9958C36.027 81.56 35.624 80.123 35.2223 78.6636C35.8725 78.1603 36.512 77.6452 37.1416 77.1476C37.4804 77.5482 37.8131 77.7662 38.1162 77.8228C38.4329 77.8757 38.7157 77.8052 38.9764 77.6008C39.061 77.5333 39.1369 77.4608 39.2189 77.3571C39.3078 77.2516 39.3785 77.1068 39.4223 76.9178C39.4642 76.722 39.4842 76.4733 39.4716 76.1598C39.4454 75.8501 39.3683 75.4364 39.2276 74.9518C38.8554 75.1796 38.4688 75.3818 38.0766 75.5635C37.6855 75.7227 37.2968 75.8371 36.9087 75.8997C36.5292 75.9673 36.1652 75.9569 35.8048 75.8792C35.4268 75.7916 35.0948 75.6029 34.7576 75.3419C34.4372 75.0616 34.1365 74.6652 33.8542 74.1754C33.5781 73.6543 33.3285 73.0154 33.1123 72.2568C32.869 71.3729 32.7207 70.5661 32.6585 69.8313C32.6119 69.0997 32.6115 68.429 32.6868 67.8187C32.7639 67.2151 32.9215 66.6631 33.1067 66.1846C33.3244 65.6898 33.5601 65.2343 33.8459 64.8534C34.133 64.4501 34.44 64.0928 34.769 63.7885C35.1198 63.4561 35.4601 63.1929 35.8248 62.9377C36.3201 62.595 36.7932 62.3321 37.206 62.1447C37.6412 61.9586 38.0311 61.8218 38.3881 61.753C38.7325 61.6656 39.0578 61.6424 39.342 61.6305C39.635 61.6236 39.9062 61.6447 40.1188 61.6673C40.5285 63.1024 40.9227 64.5344 41.3063 65.9546C40.6162 66.4468 39.923 66.9545 39.2318 67.4691C38.8878 66.9962 38.5655 66.709 38.263 66.6007C37.9604 66.4923 37.7006 66.5123 37.4647 66.673C37.3851 66.7318 37.3012 66.8286 37.2142 66.941C37.1241 67.069 37.0659 67.2324 37.0228 67.4507C36.9728 67.6708 36.9641 67.9607 36.9861 68.3084C37.015 68.6543 37.0996 69.0954 37.2498 69.6142C38.0121 69.1169 38.7212 68.7743 39.3516 68.6008C39.9869 68.4185 40.5678 68.4134 41.0688 68.5998C41.5884 68.7737 42.0318 69.1529 42.4303 69.7435C42.8143 70.3085 43.1453 71.1093 43.4275 72.1078Z" fill="white"/>
<path d="M44.8431 62.6297C44.5848 62.7893 44.3915 62.9973 44.2524 63.242C44.089 63.4786 43.9724 63.7244 43.9026 63.9795C43.8141 64.2471 43.7648 64.4966 43.7623 64.7552C43.7542 64.9933 43.7708 65.1878 43.8229 65.3503C43.4415 65.6249 43.0551 65.9081 42.6756 66.1895C42.0991 64.1221 41.5277 62.0461 40.9612 59.9612C44.1118 57.8041 47.295 55.7116 50.4896 53.6603C51.0403 55.661 51.5835 57.6344 52.1248 59.6008C51.7327 59.8635 51.3475 60.1244 50.9536 60.3802C50.9014 60.2177 50.8325 60.0745 50.7188 59.9289C50.5962 59.7783 50.447 59.6646 50.2779 59.5859C50.1088 59.5071 49.9168 59.4789 49.6912 59.4894C49.4811 59.503 49.2607 59.5858 49.0199 59.7552C49.6675 62.1347 50.3106 64.4712 50.95 66.7939C51.2595 66.6866 51.5603 66.5743 51.8592 66.4552C52.2559 67.9234 52.6577 69.3828 53.0606 70.8198C51.1487 72.2822 49.2287 73.7689 47.3193 75.2674C46.9112 73.7582 46.4963 72.2508 46.0757 70.7228C46.3256 70.4255 46.5755 70.1283 46.8272 69.8378C46.1659 67.4621 45.5108 65.0553 44.8431 62.6297Z" fill="white"/>
<path d="M62.0432 64.6249C61.6981 63.8796 61.3597 63.1325 61.0107 62.3735C60.0884 62.9591 59.1698 63.5583 58.2562 64.1489C58.3693 65.0686 58.4787 65.9746 58.5949 66.8787C57.3565 67.7356 56.1201 68.5993 54.8893 69.4835C54.4378 67.8166 53.9689 66.1398 53.5031 64.4474C53.7517 64.1726 53.9867 63.9015 54.2254 63.6442C53.934 59.7736 53.63 55.8843 53.3078 51.9558C55.1428 50.8832 56.9921 49.836 58.854 48.8076C60.4568 51.8455 62.0338 54.8167 63.6095 57.7294C63.906 57.6552 64.2075 57.5722 64.4903 57.5017C64.9248 59.1069 65.3799 60.7065 65.8106 62.298C64.5409 63.0676 63.2936 63.8385 62.0432 64.6249ZM57.7471 60.4783C58.3875 60.0735 59.0248 59.6843 59.6584 59.2814C58.7728 57.4834 57.8965 55.6386 57.0076 53.7752C57.2591 56.0278 57.5137 58.2649 57.7471 60.4783Z" fill="white"/>
<path d="M68.2154 52.0759C68.5172 53.1722 68.8209 54.2753 69.1189 55.3579C69.4291 55.2799 69.7287 55.19 70.0408 55.1189C70.4055 56.4706 70.7907 57.8166 71.1585 59.1527C69.7281 59.9813 68.3046 60.808 66.878 61.6503C66.4958 60.2887 66.1224 58.9321 65.7414 57.548C66.0132 57.3037 66.2694 57.0562 66.5381 56.8275C65.9874 54.8267 65.4386 52.8329 64.8822 50.8116C64.577 50.8809 64.2648 50.952 63.9527 51.0232C63.5517 49.5931 63.1556 48.1542 62.7615 46.7222C64.5127 45.8274 66.2502 44.9363 67.9934 44.0658C69.9087 46.1774 71.7885 48.2398 73.6706 50.2573C73.3537 49.1062 73.0263 47.9433 72.7068 46.7561C72.3997 46.8185 72.0838 46.876 71.763 46.9422C71.382 45.5581 71.001 44.1741 70.6182 42.7831C72.0844 42.0847 73.5456 41.395 75 40.7072C75.3772 42.0776 75.7662 43.4373 76.1347 44.8027C75.8672 45.009 75.6034 45.229 75.3309 45.4441C75.8628 47.3763 76.384 49.2967 76.9083 51.2015C77.2186 51.1235 77.5394 51.0573 77.8447 50.988C78.198 52.2986 78.5632 53.5985 78.9178 54.8866C77.1829 55.8138 75.4498 56.7479 73.7224 57.7025C71.9068 55.873 70.0643 53.9994 68.2154 52.0759Z" fill="white"/>
<path d="M84.4736 36.5369C85.2057 36.4385 85.879 36.4743 86.5163 36.5937C87.1592 36.7337 87.7395 36.9941 88.2628 37.3956C88.7872 37.7745 89.2653 38.3063 89.6795 38.981C90.0881 39.6351 90.4197 40.4652 90.6913 41.4518C90.9358 42.3133 91.0549 43.1208 91.0965 43.8612C91.1245 44.6053 91.07 45.2911 90.9194 45.9222C90.7738 46.5446 90.5327 47.1416 90.2161 47.6784C89.8976 48.2083 89.5111 48.7054 89.0391 49.1596C88.5914 49.6219 88.0688 50.0532 87.4714 50.4536C86.8771 50.8383 86.236 51.2138 85.5368 51.5389C83.778 52.4063 82.033 53.27 80.2836 54.1716C79.9272 52.8766 79.5863 51.5847 79.2298 50.2897C79.4936 50.0697 79.7642 49.8478 80.0298 49.6346C79.481 47.6408 78.9353 45.6313 78.372 43.6119C78.063 43.6675 77.749 43.7318 77.4381 43.7805C77.0986 42.5472 76.7572 41.307 76.4071 40.0619C79.0975 38.857 81.7887 37.6813 84.4736 36.5369ZM85.1033 47.2062C85.4221 47.0521 85.6941 46.8888 85.8988 46.7219C86.0966 46.5569 86.2564 46.3876 86.3744 46.2003C86.4855 46.0149 86.5655 45.8234 86.5949 45.6089C86.6262 45.4013 86.6244 45.1806 86.6139 44.955C86.5947 44.7244 86.5473 44.4721 86.4825 44.2099C86.4127 43.9563 86.3335 43.6686 86.2474 43.3827C86.1819 43.0911 86.0909 42.814 86.023 42.5673C85.9476 42.2932 85.8629 42.0659 85.7671 41.8786C85.6569 41.6656 85.5511 41.4957 85.4168 41.3558C85.2962 41.2121 85.137 41.1159 84.9598 41.0614C84.7808 41.0002 84.5701 40.9845 84.3277 41.0143C84.0853 41.0442 83.8032 41.144 83.4757 41.2931C83.2522 41.3915 83.0199 41.4849 82.7983 41.5901C83.3384 43.579 83.8884 45.5504 84.4297 47.5169C84.6494 47.4048 84.8798 47.3046 85.1033 47.2062Z" fill="white"/>
<path d="M99.2632 30.203C101.138 29.2742 102.999 28.3492 104.849 27.4417C105.821 30.9704 106.769 34.4168 107.71 37.8066C108.05 37.7572 108.387 37.7233 108.727 37.6739C109.047 38.8612 109.371 40.0397 109.694 41.2113C107.472 42.0586 105.237 42.9097 103.012 43.7951C102.677 42.6047 102.354 41.4038 102.029 40.196C102.325 39.989 102.61 39.7926 102.918 39.5974C102.404 37.7561 101.901 35.9043 101.385 34.0269C101.063 34.1448 100.749 34.2609 100.421 34.3807C100.043 33.0103 99.6567 31.6057 99.2632 30.203Z" fill="white"/>
<path d="M107.168 27.511C109.06 26.6439 110.933 25.7894 112.818 24.9534C113.749 28.39 114.689 31.7504 115.597 35.0754C115.941 35.0397 116.29 34.9953 116.636 34.9664C116.954 36.1243 117.271 37.2754 117.585 38.4421C115.327 39.211 113.089 39.9966 110.839 40.7929C110.518 39.6281 110.187 38.4515 109.87 37.2711C110.163 37.0797 110.468 36.9001 110.763 36.7155C110.276 34.9184 109.769 33.1046 109.28 31.2714C108.954 31.3756 108.622 31.4817 108.299 31.5928C107.926 30.2362 107.559 28.8776 107.168 27.511Z" fill="white"/>
<path d="M120.311 29.0383C120.525 29.7901 120.733 30.5438 120.942 31.3044C119.652 31.7038 118.354 32.1052 117.059 32.5134C116.849 31.7528 116.64 30.9923 116.429 30.2249C117.726 29.8235 119.025 29.429 120.311 29.0383Z" fill="white"/>
<path d="M128.964 20.4426C129.75 20.4327 130.51 20.5406 131.199 20.7415C131.895 20.9406 132.53 21.2669 133.084 21.6969C133.661 22.135 134.157 22.706 134.584 23.3994C135.014 24.0771 135.368 24.9084 135.634 25.8745C135.985 27.1489 136.088 28.2482 135.932 29.2053C135.783 30.1381 135.432 30.9498 134.886 31.6455C134.338 32.3343 133.607 32.9188 132.7 33.3971C131.796 33.8891 130.757 34.293 129.583 34.6311C127.636 35.2184 125.692 35.8127 123.744 36.4225C123.398 35.191 123.054 33.944 122.718 32.6951C123.022 32.5155 123.332 32.3565 123.632 32.1856C123.109 30.2876 122.579 28.3623 122.046 26.4232C121.689 26.4403 121.353 26.4517 121.001 26.4824C120.677 25.2815 120.337 24.0706 120.003 22.8578C122.99 22.0355 125.973 21.2219 128.964 20.4426ZM129.262 30.5474C129.822 30.3859 130.225 30.216 130.49 30.0029C130.747 29.7847 130.914 29.5325 130.978 29.2569C131.042 28.9812 131.043 28.664 130.974 28.307C130.903 27.9656 130.805 27.5575 130.688 27.1327C130.571 26.7079 130.443 26.323 130.326 25.9793C130.216 25.6336 130.041 25.3429 129.834 25.1271C129.641 24.9076 129.369 24.7761 129.034 24.7133C128.698 24.6436 128.255 24.692 127.706 24.8429C127.453 24.9127 127.206 24.9806 126.942 25.0386C127.474 26.9708 128 28.8824 128.517 30.7598C128.775 30.6813 129.031 30.6184 129.262 30.5474Z" fill="white"/>
<path d="M135.288 19.638C137.216 18.9304 139.126 18.2353 141.058 17.5414C141.965 20.8371 142.863 24.0985 143.747 27.312C144.094 27.3124 144.44 27.3129 144.809 27.3145C145.12 28.445 145.43 29.5687 145.733 30.6719C143.407 31.1648 141.08 31.6801 138.758 32.216C138.444 31.101 138.145 29.9892 137.831 28.8742C138.143 28.722 138.456 28.5767 138.763 28.4332C138.299 26.7184 137.823 24.9917 137.344 23.2514C137.017 23.3195 136.688 23.41 136.348 23.4887C135.996 22.2074 135.636 20.928 135.288 19.638Z" fill="white"/>
<path d="M145.671 26.0821C145.821 25.982 146.049 25.8456 146.334 25.6785C146.613 25.5133 146.932 25.3075 147.257 25.0929C147.6 24.8658 147.944 24.6163 148.273 24.3413C148.612 24.0713 148.911 23.7676 149.163 23.4479C149.389 23.1201 149.567 22.7763 149.702 22.4076C149.812 22.0309 149.808 21.6413 149.698 21.2439C149.62 20.9854 149.53 20.7669 149.409 20.5939C149.279 20.4159 149.138 20.2779 148.992 20.1779C148.833 20.0816 148.676 20.0216 148.491 19.9915C148.317 19.9732 148.146 19.9686 147.968 20.0176C147.72 20.0562 147.495 20.2288 147.298 20.5041C147.108 20.7776 146.979 21.1375 146.915 21.5752C146.134 21.7385 145.349 21.9105 144.561 22.0757C144.188 20.719 143.804 19.3505 143.44 17.9764C143.614 17.8033 143.821 17.6209 144.041 17.4277C144.288 17.2271 144.564 17.0257 144.889 16.8405C145.21 16.6415 145.582 16.4655 145.999 16.2918C146.427 16.1076 146.932 15.9612 147.491 15.8221C148.314 15.6251 149.108 15.5391 149.863 15.5747C150.604 15.5916 151.282 15.7515 151.882 16.0287C152.499 16.3158 153.019 16.7328 153.457 17.3052C153.912 17.8875 154.257 18.6035 154.496 19.4737C154.651 20.0648 154.742 20.6075 154.733 21.1111C154.738 21.611 154.685 22.0605 154.57 22.4753C154.459 22.8745 154.3 23.2351 154.11 23.5603C153.904 23.8824 153.682 24.1497 153.466 24.4082C152.936 24.9742 152.284 25.4413 151.482 25.824C152.986 25.6092 154.496 25.4442 156.023 25.2892C156.376 26.5997 156.727 27.8742 157.069 29.1143C153.638 29.4247 150.239 29.874 146.875 30.4535C146.472 29.0165 146.077 27.5552 145.671 26.0821Z" fill="white"/>
<path fill-rule="evenodd" clip-rule="evenodd" d="M39.4366 75.8451C39.3943 75.5841 39.3337 75.2838 39.2276 74.9518C38.9861 75.092 38.7328 75.2428 38.4688 75.3818C38.4464 75.3806 38.414 75.3969 38.3717 75.4306C38.3218 75.437 38.2571 75.4696 38.2011 75.5071C38.1668 75.5165 38.1207 75.5366 38.0766 75.5635C37.9894 75.5948 37.9159 75.6224 37.8218 75.6557C37.7689 75.6776 37.7091 75.7015 37.6612 75.7147C37.6612 75.7147 37.6612 75.7147 37.6475 75.7184C37.4133 75.805 37.1579 75.8679 36.9087 75.8997C36.8744 75.9091 36.8402 75.9185 36.8109 75.9192C36.457 75.9724 36.1291 75.9595 35.8048 75.8792C35.4268 75.7916 35.0948 75.6029 34.7576 75.3419C34.7364 75.3183 34.7083 75.2965 34.6976 75.2847C34.3909 75.0006 34.1133 74.6348 33.8542 74.1754C33.5781 73.6543 33.3285 73.0154 33.1123 72.2568C32.869 71.3729 32.7207 70.5661 32.6585 69.8313C32.6119 69.0997 32.6115 68.429 32.6868 67.8187C32.7639 67.2151 32.9215 66.6631 33.1067 66.1846C33.3244 65.6898 33.5601 65.2343 33.8459 64.8534C34.133 64.4501 34.44 64.0928 34.769 63.7885C35.1198 63.4561 35.4601 63.1929 35.8248 62.9377C36.3201 62.595 36.7932 62.3321 37.206 62.1447C37.6412 61.9586 38.0311 61.8218 38.3881 61.753C38.7325 61.6656 39.0578 61.6424 39.342 61.6305C39.3576 61.6336 39.3801 61.6348 39.3869 61.6329C39.6662 61.6297 39.8974 61.6398 40.1188 61.6673C40.5285 63.1024 40.9227 64.5344 41.3063 65.9546C40.6162 66.4468 39.923 66.9545 39.2318 67.4691C39.2174 67.4436 39.1893 67.4219 39.1942 67.4131C38.8635 66.9882 38.5568 66.7041 38.263 66.6007C37.9604 66.4923 37.7006 66.5123 37.4647 66.673C37.3851 66.7318 37.3012 66.8286 37.2142 66.941C37.1241 67.069 37.0659 67.2324 37.0228 67.4507C36.9728 67.6708 36.9641 67.9607 36.9861 68.3084C36.9985 68.5409 37.0515 68.8137 37.1246 69.1327C37.1592 69.2853 37.1939 69.4379 37.2498 69.6142C37.5211 69.4216 37.8037 69.2701 38.0726 69.1224C38.0882 69.1254 38.1118 69.1042 38.1305 69.0917C38.1442 69.0879 38.1492 69.0792 38.1647 69.0822C38.1766 69.0716 38.1933 69.0523 38.2295 69.0497C38.3434 68.9815 38.4748 68.9232 38.6012 68.8737C38.6678 68.8479 38.7375 68.8066 38.806 68.7878C38.9835 68.7095 39.1616 68.6604 39.3516 68.6008C39.4064 68.5857 39.4712 68.5531 39.5142 68.5486C40.0836 68.4214 40.6096 68.4314 41.0688 68.5998C41.1592 68.6339 41.2566 68.6661 41.3371 68.7176C41.5237 68.8063 41.7078 68.9399 41.8946 69.1096C42.0795 69.2725 42.257 69.489 42.4303 69.7435C42.4553 69.7808 42.4784 69.8113 42.5004 69.8642C42.8582 70.4144 43.1592 71.1866 43.4275 72.1078C43.6175 72.8515 43.7388 73.5331 43.7715 74.1875C43.8023 74.8351 43.7769 75.4391 43.6854 76.0171C43.592 76.5883 43.4318 77.1041 43.2248 77.6107C43.0228 78.1086 42.7839 78.5797 42.5144 78.993C42.2368 79.4306 41.9198 79.8053 41.5634 80.1171C41.2176 80.4408 40.8905 80.752 40.5353 81.0414C40.0413 81.4427 39.6133 81.7891 39.2045 82.0711C38.7994 82.3669 38.4303 82.5791 38.0865 82.6958C37.7621 82.8293 37.4382 82.9111 37.1634 82.9573C36.8898 82.981 36.6368 82.999 36.4074 82.9958C36.027 81.56 35.624 80.123 35.2223 78.6636C35.8725 78.1603 36.512 77.6452 37.1416 77.1476C37.4804 77.5482 37.8131 77.7662 38.1162 77.8228C38.2321 77.8425 38.3425 77.8416 38.4578 77.832C38.4578 77.832 38.4559 77.8251 38.4596 77.8388C38.6465 77.7948 38.8209 77.732 38.9764 77.6008C39.061 77.5333 39.1369 77.4608 39.2189 77.3571C39.3078 77.2516 39.3785 77.1068 39.4223 76.9178C39.4642 76.722 39.4842 76.4733 39.4716 76.1598C39.4658 76.0582 39.4444 75.9535 39.4366 75.8451ZM32.7276 76.6968C32.7108 76.7161 32.6834 76.7237 32.6529 76.7468C33.5526 80.0151 34.4296 83.2012 35.2877 86.3188C35.6735 86.301 36.0406 86.2958 36.4096 86.2974C36.7025 86.2905 36.9948 86.2543 37.3076 86.2124C37.297 86.2006 37.3175 86.1949 37.3262 86.1999C37.3262 86.1999 37.3331 86.198 37.3487 86.2011C37.6951 86.1205 38.0818 85.9993 38.4698 85.8556C38.4698 85.8556 38.4767 85.8537 38.4748 85.8469C38.948 85.665 39.4292 85.3778 39.9014 85.0046C40.3388 84.6925 40.8072 84.3056 41.3211 83.8693C41.6775 83.5575 42.0526 83.2331 42.4269 82.8794C42.8803 82.4377 43.3148 81.9274 43.7141 81.3163C43.721 81.3144 43.721 81.3144 43.721 81.3144C43.7191 81.3075 43.724 81.2988 43.724 81.2988C44.1085 80.7139 44.428 80.0805 44.7206 79.4029C45.0522 78.6261 45.2839 77.781 45.4432 76.86C45.4913 76.633 45.5257 76.4098 45.5532 76.1885C45.8474 77.2573 46.1223 78.3094 46.4158 79.349C51.1208 75.5552 55.8799 71.9307 60.6773 68.4726C60.5838 67.6507 60.4864 66.8151 60.3754 65.9832C60.7055 66.6737 61.0113 67.3561 61.3258 68.0435C69.5289 63.0066 77.8033 58.2819 86.1686 53.8343C86.9238 53.4716 87.6434 53.0598 88.3173 52.6163C89.0081 52.1534 89.6358 51.6489 90.2085 51.0785C90.7949 50.5043 91.302 49.8561 91.7454 49.1371C92.1911 48.3731 92.5369 47.5408 92.7567 46.6253C92.9832 45.7079 93.057 44.7441 93.0254 43.7725C92.9806 42.7529 92.8062 41.7174 92.5214 40.6827C92.1932 39.4905 91.7518 38.3958 91.1762 37.456C90.6131 36.5349 89.9275 35.758 89.1463 35.1696C88.3758 34.593 87.5672 34.2259 86.7022 34.0291C85.8828 33.864 85.0475 33.8285 84.1807 33.9197C84.1221 33.9211 84.0498 33.9263 83.9794 33.9383C76.0025 37.3871 68.0822 41.0414 60.2166 44.8944C60.6139 46.3109 61.0062 47.736 61.3928 49.1407C60.7354 47.8769 60.0723 46.5926 59.3955 45.3121C52.3186 49.2724 45.3152 53.4999 38.4081 58.0768C38.4333 58.1952 38.4703 58.3029 38.4986 58.4057C38.3216 58.4323 38.1378 58.4608 37.9696 58.4923C37.5373 58.5818 37.0671 58.7481 36.582 58.9406C36.0633 59.1718 35.5186 59.4692 34.9723 59.8407C34.5448 60.1353 34.1335 60.4622 33.7405 60.8284C33.3032 61.2215 32.9122 61.6756 32.5363 62.1844C32.1543 62.7245 31.8017 63.3449 31.5011 64.0468C31.503 64.0536 31.503 64.0536 31.4961 64.0555C31.1713 64.8304 30.9285 65.7154 30.806 66.6631C30.6644 67.6751 30.6551 68.7391 30.7287 69.8097C30.8256 70.9919 31.0659 72.1862 31.3865 73.351C31.692 74.461 32.0784 75.4897 32.5693 76.416C32.5693 76.416 32.5693 76.416 32.5849 76.4191C32.6337 76.5162 32.6807 76.6065 32.7276 76.6968ZM40.9612 59.9612C41.5277 62.0461 42.0991 64.1221 42.6756 66.1895C43.0551 65.9081 43.4415 65.6249 43.8229 65.3503C43.7708 65.1878 43.7542 64.9933 43.7623 64.7552C43.7648 64.4966 43.8141 64.2471 43.9026 63.9795C43.9279 63.8841 43.9582 63.7799 44.0041 63.6789C44.0798 63.5253 44.1524 63.3874 44.2524 63.242C44.3915 62.9973 44.5848 62.7893 44.8431 62.6297C45.5108 65.0553 46.1659 67.4621 46.8272 69.8378C46.5755 70.1283 46.3256 70.4255 46.0757 70.7228C46.4963 72.2508 46.9112 73.7582 47.3193 75.2674C49.2287 73.7689 51.1487 72.2822 53.0606 70.8198C52.6577 69.3828 52.2559 67.9234 51.8592 66.4552C51.5603 66.5743 51.2595 66.6866 50.95 66.7939C50.3106 64.4712 49.6675 62.1347 49.0199 59.7552C49.2607 59.5858 49.4811 59.503 49.6912 59.4894C49.8339 59.4722 49.9498 59.4919 50.059 59.5134C50.1319 59.5376 50.2186 59.5579 50.2779 59.5859C50.447 59.6646 50.5962 59.7783 50.7188 59.9289C50.8325 60.0745 50.9014 60.2177 50.9536 60.3802C51.3475 60.1244 51.7327 59.8635 52.1248 59.6008C51.5835 57.6344 51.0403 55.661 50.4896 53.6603C47.295 55.7116 44.1118 57.8041 40.9612 59.9612ZM54.2254 63.6442C53.9867 63.9015 53.7517 64.1726 53.5031 64.4474C53.9689 66.1398 54.4378 67.8166 54.8893 69.4835C56.1201 68.5993 57.3565 67.7356 58.5949 66.8787C58.4787 65.9746 58.3693 65.0686 58.2562 64.1489C59.1698 63.5583 60.0884 62.9591 61.0107 62.3735C61.3597 63.1325 61.6981 63.8796 62.0432 64.6249C63.2936 63.8385 64.5409 63.0676 65.8106 62.298C65.3799 60.7065 64.9248 59.1069 64.4903 57.5017C64.2075 57.5722 63.906 57.6552 63.6095 57.7294C62.0338 54.8167 60.4568 51.8455 58.854 48.8076C56.9921 49.836 55.1428 50.8832 53.3078 51.9558C53.63 55.8843 53.934 59.7736 54.2254 63.6442ZM65.7414 57.548C66.1224 58.9321 66.4958 60.2887 66.878 61.6503C68.3046 60.808 69.7281 59.9813 71.1585 59.1527C70.7907 57.8166 70.4055 56.4706 70.0408 55.1189C69.7287 55.19 69.4291 55.2799 69.1189 55.3579C68.8209 54.2753 68.5172 53.1722 68.2154 52.0759C70.0643 53.9994 71.9068 55.873 73.7224 57.7025C75.4498 56.7479 77.1829 55.8138 78.9178 54.8866C78.5632 53.5985 78.198 52.2986 77.8447 50.988C77.5394 51.0573 77.2186 51.1235 76.9083 51.2015C76.384 49.2967 75.8628 47.3763 75.3309 45.4441C75.6034 45.229 75.8672 45.009 76.1347 44.8027C75.7662 43.4373 75.3772 42.0776 75 40.7072C73.5456 41.395 72.0844 42.0847 70.6182 42.7831C71.001 44.1741 71.382 45.5581 71.763 46.9422C72.0838 46.876 72.3997 46.8185 72.7068 46.7561C73.0263 47.9433 73.3537 49.1062 73.6706 50.2573C71.7885 48.2398 69.9087 46.1774 67.9934 44.0658C66.2502 44.9363 64.5127 45.8274 62.7615 46.7222C63.1556 48.1542 63.5517 49.5931 63.9527 51.0232C64.2648 50.952 64.577 50.8809 64.8822 50.8116C65.4386 52.8329 65.9874 54.8267 66.5381 56.8275C66.2694 57.0562 66.0132 57.3037 65.7414 57.548ZM79.2298 50.2897C79.5863 51.5847 79.9272 52.8766 80.2836 54.1716C82.033 53.27 83.778 52.4063 85.5368 51.5389C86.236 51.2138 86.8771 50.8383 87.4714 50.4536C88.0688 50.0532 88.5914 49.6219 89.0391 49.1596C89.5111 48.7054 89.8976 48.2083 90.2161 47.6784C90.5327 47.1416 90.7738 46.5446 90.9194 45.9222C91.07 45.2911 91.1245 44.6053 91.0965 43.8612C91.0549 43.1208 90.9358 42.3133 90.6913 41.4518C90.4197 40.4652 90.0881 39.6351 89.6795 38.981C89.2653 38.3063 88.7872 37.7745 88.2628 37.3956C87.7395 36.9941 87.1592 36.7337 86.5163 36.5937C85.879 36.4743 85.2057 36.4385 84.4736 36.5369C81.7887 37.6813 79.0975 38.857 76.4071 40.0619C76.7572 41.307 77.0986 42.5472 77.4381 43.7805C77.749 43.7318 78.063 43.6675 78.372 43.6119C78.9353 45.6313 79.481 47.6408 80.0298 49.6346C79.7642 49.8478 79.4936 50.0697 79.2298 50.2897ZM84.9598 41.0614C84.8625 41.0293 84.7758 41.0089 84.6568 41.0048C84.5446 40.9989 84.4498 41.0028 84.3277 41.0143C84.0853 41.0442 83.8032 41.144 83.4757 41.2931C83.2522 41.3915 83.0199 41.4849 82.7983 41.5901C83.3384 43.579 83.8884 45.5504 84.4297 47.5169C84.6494 47.4048 84.8798 47.3046 85.1033 47.2062C85.4221 47.0521 85.6941 46.8888 85.8988 46.7219C86.0021 46.6418 86.0829 46.5606 86.1668 46.4638C86.2476 46.3826 86.311 46.2914 86.3744 46.2003C86.4855 46.0149 86.5655 45.8234 86.5949 45.6089C86.6262 45.4013 86.6244 45.1806 86.6139 44.955C86.5947 44.7244 86.5473 44.4721 86.4825 44.2099C86.4127 43.9563 86.3335 43.6686 86.2474 43.3827C86.1819 43.0911 86.0909 42.814 86.023 42.5673C85.9476 42.2932 85.8629 42.0659 85.7671 41.8786C85.6569 41.6656 85.5511 41.4957 85.4168 41.3558C85.2962 41.2121 85.137 41.1159 84.9598 41.0614ZM44.3943 68.4436C44.4188 68.5327 44.4452 68.6286 44.4785 68.7227C44.4567 68.7508 44.43 68.7876 44.4033 68.8245C44.3632 68.7323 44.3144 68.6352 44.2811 68.5411C44.3166 68.5093 44.3657 68.4736 44.3943 68.4436ZM96.8219 28.6711C99.8668 27.1474 102.928 25.6561 105.991 24.2234C106.085 24.566 106.179 24.9086 106.28 25.2493C108.851 24.092 111.414 22.9591 113.987 21.8379C114.57 23.9259 115.135 25.9814 115.692 28.032C116.841 27.679 117.978 27.3366 119.121 26.9923C118.586 25.0464 118.046 23.0868 117.503 21.1135C121.162 20.1064 124.863 19.1172 128.546 18.1474C128.616 18.1578 128.688 18.1527 128.76 18.1475C129.698 18.1546 130.62 18.2915 131.518 18.553C132.084 18.7069 132.629 18.9474 133.153 19.2454C133.05 18.8685 132.933 18.473 132.835 18.0874C135.99 16.9387 139.147 15.7969 142.293 14.6657C142.394 15.0064 142.484 15.3577 142.58 15.7071C142.641 15.6609 142.688 15.6184 142.73 15.5846C143.058 15.3027 143.418 15.0563 143.804 14.8248C144.215 14.5789 144.67 14.3578 145.147 14.1603C145.686 13.9527 146.261 13.765 146.884 13.6158C147.849 13.3723 148.799 13.2654 149.741 13.2862C150.683 13.3071 151.585 13.4788 152.455 13.8514C153.332 14.2289 154.138 14.8254 154.81 15.687C155.528 16.6097 156.061 17.7678 156.412 19.0422C156.646 19.9211 156.791 20.7953 156.794 21.6348C156.81 22.0431 156.783 22.4264 156.741 22.7843C156.936 22.7676 157.144 22.7472 157.354 22.7336C158.175 25.7435 158.943 28.5321 159.65 31.1015C152.121 31.8398 144.711 33.0615 137.403 34.6825C137.213 33.968 137.01 33.2573 136.808 32.5241C136.684 32.7133 136.56 32.88 136.423 33.0505C135.667 33.9735 134.741 34.7074 133.635 35.2698C132.588 35.8307 131.423 36.2841 130.143 36.6661C127.578 37.4456 125.017 38.2613 122.454 39.0995C121.949 37.2925 121.452 35.4612 120.94 33.6268C120.132 33.8786 119.313 34.1411 118.5 34.4017C119.018 36.2566 119.521 38.086 120.014 39.9036C113.912 42.0478 107.836 44.3172 101.793 46.7324C101.097 44.2041 100.392 41.6415 99.6754 39.0378C99.9741 38.8377 100.273 38.6375 100.558 38.4411C100.423 37.9771 100.306 37.5005 100.171 37.0365C99.8655 37.1575 99.5373 37.2774 99.2228 37.3934C98.4363 34.5362 97.6347 31.6242 96.8219 28.6711ZM102.918 39.5974C102.61 39.7926 102.325 39.989 102.029 40.196C102.354 41.4038 102.677 42.6047 103.012 43.7951C105.237 42.9097 107.472 42.0586 109.694 41.2113C109.371 40.0397 109.047 38.8612 108.727 37.6739C108.387 37.7233 108.05 37.7572 107.71 37.8066C106.769 34.4168 105.821 30.9704 104.849 27.4417C102.999 28.3492 101.138 29.2742 99.2632 30.203C99.6567 31.6057 100.043 33.0103 100.421 34.3807C100.749 34.2609 101.063 34.1448 101.385 34.0269C101.901 35.9043 102.404 37.7561 102.918 39.5974ZM109.87 37.2711C110.187 38.4515 110.518 39.6281 110.839 40.7929C113.089 39.9966 115.327 39.211 117.585 38.4421C117.271 37.2754 116.954 36.1243 116.636 34.9664C116.29 34.9953 115.941 35.0397 115.597 35.0754C114.689 31.7504 113.749 28.39 112.818 24.9534C110.933 25.7894 109.06 26.6439 107.168 27.511C107.559 28.8776 107.926 30.2362 108.299 31.5928C108.622 31.4817 108.954 31.3756 109.28 31.2714C109.769 33.1046 110.276 34.9184 110.763 36.7155C110.468 36.9001 110.163 37.0797 109.87 37.2711ZM120.942 31.3044C120.733 30.5438 120.525 29.7901 120.311 29.0383C119.025 29.429 117.726 29.8235 116.429 30.2249C116.64 30.9923 116.849 31.7528 117.059 32.5134C118.354 32.1052 119.652 31.7038 120.942 31.3044ZM122.718 32.6951C123.054 33.944 123.398 35.191 123.744 36.4225C125.692 35.8127 127.636 35.2184 129.583 34.6311C130.757 34.293 131.796 33.8891 132.7 33.3971C133.607 32.9188 134.338 32.3343 134.886 31.6455C135.419 30.9829 135.755 30.1974 135.911 29.292C135.935 29.2707 135.932 29.2346 135.932 29.2053C136.027 28.641 136.032 28.0426 135.937 27.3759C135.886 26.9254 135.792 26.45 135.651 25.9362C135.645 25.9156 135.633 25.8969 135.634 25.8745C135.425 25.1139 135.164 24.4339 134.857 23.855C134.76 23.69 134.676 23.5438 134.584 23.3994C134.435 23.1529 134.283 22.922 134.101 22.7143C133.795 22.3267 133.451 21.9865 133.084 21.6969C132.53 21.2669 131.895 20.9406 131.199 20.7415C130.51 20.5406 129.75 20.4327 128.964 20.4426C125.973 21.2219 122.99 22.0355 120.003 22.8578C120.337 24.0706 120.677 25.2815 121.001 26.4824C121.353 26.4517 121.689 26.4403 122.046 26.4232C122.579 28.3623 123.109 30.2876 123.632 32.1856C123.332 32.3565 123.022 32.5155 122.718 32.6951ZM129.034 24.7133C128.988 24.704 128.934 24.6967 128.889 24.6943C128.578 24.662 128.181 24.7196 127.706 24.8429C127.453 24.9127 127.206 24.9806 126.942 25.0386C127.474 26.9708 128 28.8824 128.517 30.7598C128.775 30.6813 129.031 30.6184 129.262 30.5474C129.746 30.4066 130.117 30.253 130.367 30.0885C130.409 30.0548 130.455 30.0347 130.49 30.0029C130.747 29.7847 130.914 29.5325 130.978 29.2569C131.042 28.9812 131.043 28.664 130.974 28.307C130.903 27.9656 130.805 27.5575 130.688 27.1327C130.571 26.7079 130.443 26.323 130.326 25.9793C130.216 25.6336 130.041 25.3429 129.834 25.1271C129.641 24.9076 129.369 24.7761 129.034 24.7133ZM136.348 23.4887C136.688 23.41 137.017 23.3195 137.344 23.2514C137.823 24.9917 138.299 26.7184 138.763 28.4332C138.456 28.5767 138.143 28.722 137.831 28.8742C138.145 29.9892 138.444 31.101 138.758 32.216C141.08 31.6801 143.407 31.1648 145.733 30.6719C145.43 29.5687 145.12 28.445 144.809 27.3145C144.44 27.3129 144.094 27.3124 143.747 27.312C142.863 24.0985 141.965 20.8371 141.058 17.5414C139.126 18.2353 137.216 18.9304 135.288 19.638C135.636 20.928 135.996 22.2074 136.348 23.4887ZM146.38 25.6584C146.369 25.6691 146.346 25.6679 146.334 25.6785C146.049 25.8456 145.821 25.982 145.671 26.0821C146.077 27.5552 146.472 29.0165 146.875 30.4535C150.239 29.874 153.638 29.4247 157.069 29.1143C156.727 27.8742 156.376 26.5997 156.023 25.2892C154.496 25.4442 152.986 25.6092 151.482 25.824C152.284 25.4413 152.936 24.9742 153.466 24.4082C153.682 24.1497 153.904 23.8824 154.11 23.5603C154.199 23.403 154.289 23.2457 154.352 23.0735C154.439 22.8801 154.517 22.6817 154.57 22.4753C154.685 22.0605 154.738 21.611 154.733 21.1111C154.742 20.6075 154.651 20.0648 154.496 19.4737C154.257 18.6035 153.912 17.8875 153.457 17.3052C153.019 16.7328 152.499 16.3158 151.882 16.0287C151.282 15.7515 150.604 15.5916 149.863 15.5747C149.108 15.5391 148.314 15.6251 147.491 15.8221C146.932 15.9612 146.427 16.1076 145.999 16.2918C145.582 16.4655 145.21 16.6415 144.889 16.8405C144.564 17.0257 144.288 17.2271 144.041 17.4277C143.821 17.6209 143.614 17.8033 143.44 17.9764C143.804 19.3505 144.188 20.719 144.561 22.0757C145.349 21.9105 146.134 21.7385 146.915 21.5752C146.979 21.1375 147.108 20.7776 147.298 20.5041C147.495 20.2288 147.72 20.0562 147.968 20.0176C148.146 19.9686 148.317 19.9732 148.491 19.9915C148.676 20.0216 148.833 20.0816 148.992 20.1779C149.138 20.2779 149.279 20.4159 149.409 20.5939C149.53 20.7669 149.62 20.9854 149.698 21.2439C149.808 21.6413 149.812 22.0309 149.702 22.4076C149.567 22.7763 149.389 23.1201 149.163 23.4479C148.911 23.7676 148.612 24.0713 148.273 24.3413C147.944 24.6163 147.6 24.8658 147.257 25.0929C146.946 25.3037 146.65 25.4883 146.38 25.6584ZM59.6584 59.2814C58.7728 57.4834 57.8965 55.6386 57.0076 53.7752C57.2591 56.0278 57.5137 58.2649 57.7471 60.4783C58.3875 60.0735 59.0248 59.6843 59.6584 59.2814Z" fill="black"/>
</svg>
