<svg width="39" height="39" viewBox="0 0 39 39" fill="none" xmlns="http://www.w3.org/2000/svg">
<path d="M5.50586 19.35C5.50586 25.3604 5.50586 31.5531 7.60645 33.4203C9.70705 35.2875 13.0879 35.2875 19.8496 35.2875C26.6113 35.2875 29.9922 35.2875 32.0928 33.4203C34.1934 31.5531 34.1934 25.3604 34.1934 19.35" stroke="#610028" stroke-width="2.39062"/>
<path d="M24.0895 22.8593L33.967 19.896C34.6218 19.6996 34.9492 19.6013 35.1916 19.4065C35.4034 19.2364 35.5681 19.015 35.6702 18.7634C35.7871 18.4752 35.7871 18.1333 35.7871 17.4497C35.7871 14.7604 35.7871 13.4158 35.2616 12.3896C34.8044 11.4966 34.0779 10.7702 33.185 10.313C32.1588 9.78748 30.8142 9.78748 28.1249 9.78748H11.5743C8.88505 9.78748 7.54042 9.78748 6.51419 10.313C5.62128 10.7702 4.8948 11.4966 4.43759 12.3896C3.91211 13.4158 3.91211 14.7604 3.91211 17.4497C3.91211 18.1333 3.91211 18.4752 4.02903 18.7634C4.13114 19.015 4.29587 19.2364 4.50758 19.4065C4.75001 19.6013 5.07743 19.6996 5.73227 19.896L15.6097 22.8593" stroke="#610028" stroke-width="2.39062"/>
<path d="M23.0371 20.1461H16.6621C16.222 20.1461 15.8652 20.5029 15.8652 20.943V24.3879C15.8652 24.7137 16.0636 25.0067 16.3662 25.1277L17.482 25.5741C19.0019 26.182 20.6974 26.182 22.2172 25.5741L23.3331 25.1277C23.6356 25.0067 23.834 24.7137 23.834 24.3879V20.943C23.834 20.5029 23.4772 20.1461 23.0371 20.1461Z" stroke="#610028" stroke-width="2.39062" stroke-linecap="round"/>
<path d="M15.3398 6.59924C15.9962 4.74222 17.7672 3.41174 19.849 3.41174C21.9308 3.41174 23.7019 4.74222 24.3582 6.59924" stroke="#610028" stroke-width="2.39062" stroke-linecap="round"/>
</svg>
