<svg width="39" height="39" viewBox="0 0 39 39" fill="none" xmlns="http://www.w3.org/2000/svg">
<g id="megaphone">
<path id="Vector" d="M17.2554 11.8289C16.9938 13.2488 16.7456 15.9659 16.7456 17.41C16.7456 18.8541 16.8112 21.6178 17.2554 22.9911M17.2554 11.8289L20.1566 9.28692C23.7649 6.12536 25.5691 4.54458 27.1103 4.85159C27.5897 4.94708 28.0408 5.15156 28.4285 5.44921C29.6751 6.40613 29.6751 8.80485 29.6751 13.6023V21.1845C29.6751 25.9115 29.6751 28.2749 28.4401 29.232C28.056 29.5297 27.6078 29.736 27.1319 29.8342C25.6017 30.15 23.8075 28.6141 20.219 25.5423C18.5708 24.1313 17.3459 23.0791 17.2554 22.9911M17.2554 11.8289C16.6206 11.7845 13.7688 11.7836 11.0252 11.7942C8.75167 11.803 7.61492 11.8074 6.80037 12.3734C6.48616 12.5917 6.21152 12.8674 5.99443 13.1825C5.43164 13.9992 5.43164 15.1404 5.43164 17.4227V17.4227C5.43164 19.7158 5.43164 20.8623 5.99784 21.6807C6.21625 21.9964 6.49235 22.2722 6.80826 22.4903C7.62723 23.0557 8.76959 23.0545 11.0543 23.0522C13.7889 23.0494 16.6228 23.0354 17.2554 22.9911M8.66458 23.0457L8.62944 31.2218C8.62376 32.5437 9.69419 33.6182 11.0162 33.6175V33.6175C12.3331 33.6168 13.4004 32.549 13.4004 31.232V23.0465M32.9075 10.9144C34.5237 15.7861 34.5237 19.0339 32.9075 23.9056" stroke="#610028" stroke-width="2.39062" stroke-linecap="round" stroke-linejoin="round"/>
</g>
</svg>
