<svg width="39" height="39" viewBox="0 0 39 39" fill="none" xmlns="http://www.w3.org/2000/svg">
<g id="Outline / Users / User Heart">
<g id="Union">
<path fill-rule="evenodd" clip-rule="evenodd" d="M9.09201 9.78748C9.09201 5.60651 12.4814 2.21716 16.6623 2.21716C20.8433 2.21716 24.2326 5.60651 24.2326 9.78748C24.2326 13.9684 20.8433 17.3578 16.6623 17.3578C12.4814 17.3578 9.09201 13.9684 9.09201 9.78748ZM16.6623 4.60779C13.8017 4.60779 11.4826 6.92681 11.4826 9.78748C11.4826 12.6481 13.8017 14.9672 16.6623 14.9672C19.523 14.9672 21.842 12.6481 21.842 9.78748C21.842 6.92681 19.523 4.60779 16.6623 4.60779Z" fill="#610028"/>
<path fill-rule="evenodd" clip-rule="evenodd" d="M7.0607 22.0025C9.57798 20.5865 12.9751 19.7484 16.6623 19.7484C20.3495 19.7484 23.7467 20.5865 26.264 22.0025C28.7438 23.3974 30.6076 25.5115 30.6076 28.1156L30.6077 28.2781C30.6095 30.1298 30.6118 32.4538 28.5734 34.1137C27.5701 34.9307 26.1667 35.5116 24.2706 35.8954C22.3691 36.2803 19.8909 36.4828 16.6623 36.4828C13.4337 36.4828 10.9555 36.2803 9.05409 35.8954C7.15796 35.5116 5.75451 34.9307 4.75129 34.1137C2.71284 32.4538 2.7151 30.1298 2.71691 28.2781L2.71701 28.1156C2.71701 25.5115 4.58087 23.3974 7.0607 22.0025ZM8.23273 24.0861C6.09796 25.2869 5.10764 26.7588 5.10764 28.1156C5.10764 30.1999 5.17189 31.3732 6.26086 32.26C6.85139 32.7409 7.83856 33.2103 9.52837 33.5523C11.2129 33.8933 13.5159 34.0922 16.6623 34.0922C19.8087 34.0922 22.1118 33.8933 23.7963 33.5523C25.4861 33.2103 26.4733 32.7409 27.0638 32.26C28.1528 31.3732 28.217 30.1999 28.217 28.1156C28.217 26.7588 27.2267 25.2869 25.0919 24.0861C22.9946 22.9064 20.0167 22.139 16.6623 22.139C13.3079 22.139 10.33 22.9064 8.23273 24.0861Z" fill="#610028"/>
<path fill-rule="evenodd" clip-rule="evenodd" d="M27.3249 12.0935C28.4735 11.5853 29.8073 11.6816 31.0061 12.4632C32.2048 11.6816 33.5387 11.5853 34.6872 12.0935C36.05 12.6966 36.9826 14.0895 36.9826 15.6839C36.9826 17.1954 36.3225 18.3332 35.5314 19.1955C34.9141 19.8685 34.1504 20.4369 33.5473 20.8858C33.4177 20.9822 33.2956 21.0731 33.1839 21.1583L33.1807 21.1608C32.9438 21.3416 32.6372 21.5756 32.3141 21.7584C31.989 21.9423 31.539 22.139 31.0061 22.139C30.4732 22.139 30.0231 21.9423 29.698 21.7584C29.3749 21.5756 29.0684 21.3416 28.8314 21.1608L28.8282 21.1583C28.7166 21.0732 28.5946 20.9823 28.4651 20.886C27.862 20.4371 27.0981 19.8685 26.4807 19.1955C25.6897 18.3332 25.0295 17.1954 25.0295 15.6839C25.0295 14.0895 25.9622 12.6966 27.3249 12.0935ZM27.4201 15.6839C27.4201 15.0273 27.8024 14.4965 28.2924 14.2797C28.7167 14.0919 29.3922 14.0727 30.1584 14.8434C30.3828 15.069 30.6878 15.1959 31.0061 15.1959C31.3243 15.1959 31.6294 15.069 31.8538 14.8434C32.62 14.0727 33.2955 14.0919 33.7198 14.2797C34.2098 14.4965 34.592 15.0273 34.592 15.6839C34.592 16.4235 34.2913 17.011 33.7697 17.5795C33.3203 18.0695 32.7842 18.4702 32.1915 18.9132C32.0423 19.0247 31.8895 19.1389 31.7336 19.2579C31.4746 19.4556 31.2951 19.5882 31.137 19.6776C31.0731 19.7138 31.0305 19.7323 31.0061 19.7414C30.9816 19.7323 30.9391 19.7138 30.8752 19.6776C30.7171 19.5882 30.5376 19.4556 30.2786 19.2579C30.1227 19.139 29.9699 19.0248 29.8208 18.9133C29.2281 18.4703 28.6919 18.0695 28.2424 17.5795C27.7209 17.011 27.4201 16.4235 27.4201 15.6839Z" fill="#610028"/>
</g>
</g>
</svg>
