<svg width="40" height="39" viewBox="0 0 40 39" fill="none" xmlns="http://www.w3.org/2000/svg">
<g id="Outline / Users / Users Group Two Rounded">
<g id="Vector">
<path fill-rule="evenodd" clip-rule="evenodd" d="M19.9258 2.44214C15.7448 2.44214 12.3555 5.83148 12.3555 10.0125C12.3555 14.1934 15.7448 17.5828 19.9258 17.5828C24.1067 17.5828 27.4961 14.1934 27.4961 10.0125C27.4961 5.83148 24.1067 2.44214 19.9258 2.44214ZM14.7461 10.0125C14.7461 7.15179 17.0651 4.83276 19.9258 4.83276C22.7864 4.83276 25.1055 7.15179 25.1055 10.0125C25.1055 12.8731 22.7864 15.1921 19.9258 15.1921C17.0651 15.1921 14.7461 12.8731 14.7461 10.0125Z" fill="#610028"/>
<path d="M29.4883 5.62964C28.8281 5.62964 28.293 6.1648 28.293 6.82495C28.293 7.4851 28.8281 8.02026 29.4883 8.02026C31.6821 8.02026 33.0742 9.46377 33.0742 10.8093C33.0742 12.1549 31.6821 13.5984 29.4883 13.5984C28.8281 13.5984 28.293 14.1335 28.293 14.7937C28.293 15.4539 28.8281 15.989 29.4883 15.989C32.5757 15.989 35.4648 13.8648 35.4648 10.8093C35.4648 7.75386 32.5757 5.62964 29.4883 5.62964Z" fill="#610028"/>
<path d="M11.5586 6.82495C11.5586 6.1648 11.0234 5.62964 10.3633 5.62964C7.27583 5.62964 4.38672 7.75386 4.38672 10.8093C4.38672 13.8648 7.27583 15.989 10.3633 15.989C11.0234 15.989 11.5586 15.4539 11.5586 14.7937C11.5586 14.1335 11.0234 13.5984 10.3633 13.5984C8.16951 13.5984 6.77734 12.1549 6.77734 10.8093C6.77734 9.46377 8.16951 8.02026 10.3633 8.02026C11.0234 8.02026 11.5586 7.4851 11.5586 6.82495Z" fill="#610028"/>
<path fill-rule="evenodd" clip-rule="evenodd" d="M19.9258 19.9734C17.0821 19.9734 14.4536 20.7396 12.501 22.0413C10.5569 23.3375 9.16797 25.2593 9.16797 27.5437C9.16797 29.8281 10.5569 31.75 12.501 33.0461C14.4536 34.3478 17.0821 35.114 19.9258 35.114C22.7695 35.114 25.398 34.3478 27.3505 33.0461C29.2947 31.75 30.6836 29.8281 30.6836 27.5437C30.6836 25.2593 29.2947 23.3375 27.3505 22.0413C25.398 20.7396 22.7695 19.9734 19.9258 19.9734ZM11.5586 27.5437C11.5586 26.3073 12.3103 25.0416 13.8271 24.0305C15.3355 23.0248 17.4882 22.364 19.9258 22.364C22.3633 22.364 24.516 23.0248 26.0245 24.0305C27.5412 25.0416 28.293 26.3073 28.293 27.5437C28.293 28.7801 27.5412 30.0458 26.0245 31.0569C24.516 32.0626 22.3633 32.7234 19.9258 32.7234C17.4882 32.7234 15.3355 32.0626 13.8271 31.0569C12.3103 30.0458 11.5586 28.7801 11.5586 27.5437Z" fill="#610028"/>
<path d="M31.5082 22.5064C31.6496 21.8616 32.287 21.4535 32.9318 21.5949C34.4648 21.9311 35.8462 22.5383 36.8718 23.3775C37.8965 24.216 38.6523 25.3686 38.6523 26.7468C38.6523 28.125 37.8965 29.2776 36.8718 30.1161C35.8462 30.9554 34.4648 31.5626 32.9318 31.8988C32.287 32.0402 31.6496 31.6321 31.5082 30.9872C31.3668 30.3424 31.7749 29.705 32.4197 29.5636C33.6826 29.2867 34.6918 28.811 35.3579 28.266C36.0248 27.7202 36.2617 27.1872 36.2617 26.7468C36.2617 26.3065 36.0248 25.7734 35.3579 25.2277C34.6918 24.6826 33.6826 24.207 32.4197 23.93C31.7749 23.7886 31.3668 23.1512 31.5082 22.5064Z" fill="#610028"/>
<path d="M6.91974 21.5949C7.56457 21.4535 8.20194 21.8616 8.34335 22.5064C8.48476 23.1512 8.07665 23.7886 7.43182 23.93C6.16899 24.207 5.15977 24.6826 4.49369 25.2277C3.82672 25.7734 3.58984 26.3065 3.58984 26.7468C3.58984 27.1872 3.82672 27.7202 4.49369 28.266C5.15977 28.811 6.16899 29.2867 7.43182 29.5636C8.07665 29.705 8.48476 30.3424 8.34335 30.9872C8.20194 31.6321 7.56457 32.0402 6.91974 31.8988C5.38674 31.5626 4.00534 30.9554 2.97975 30.1161C1.95505 29.2776 1.19922 28.125 1.19922 26.7468C1.19922 25.3686 1.95505 24.216 2.97975 23.3775C4.00534 22.5383 5.38674 21.9311 6.91974 21.5949Z" fill="#610028"/>
</g>
</g>
</svg>
