<svg width="40" height="39" viewBox="0 0 40 39" fill="none" xmlns="http://www.w3.org/2000/svg">
<path d="M27.8945 22.6125C28.7747 22.6125 29.4883 21.899 29.4883 21.0188C29.4883 20.1386 28.7747 19.425 27.8945 19.425C27.0143 19.425 26.3008 20.1386 26.3008 21.0188C26.3008 21.899 27.0143 22.6125 27.8945 22.6125Z" fill="#610028"/>
<path d="M27.8945 28.9875C28.7747 28.9875 29.4883 28.274 29.4883 27.3938C29.4883 26.5136 28.7747 25.8 27.8945 25.8C27.0143 25.8 26.3008 26.5136 26.3008 27.3938C26.3008 28.274 27.0143 28.9875 27.8945 28.9875Z" fill="#610028"/>
<path d="M21.5195 21.0188C21.5195 21.899 20.806 22.6125 19.9258 22.6125C19.0456 22.6125 18.332 21.899 18.332 21.0188C18.332 20.1386 19.0456 19.425 19.9258 19.425C20.806 19.425 21.5195 20.1386 21.5195 21.0188Z" fill="#610028"/>
<path d="M21.5195 27.3938C21.5195 28.274 20.806 28.9875 19.9258 28.9875C19.0456 28.9875 18.332 28.274 18.332 27.3938C18.332 26.5136 19.0456 25.8 19.9258 25.8C20.806 25.8 21.5195 26.5136 21.5195 27.3938Z" fill="#610028"/>
<path d="M11.957 22.6125C12.8372 22.6125 13.5508 21.899 13.5508 21.0188C13.5508 20.1386 12.8372 19.425 11.957 19.425C11.0768 19.425 10.3633 20.1386 10.3633 21.0188C10.3633 21.899 11.0768 22.6125 11.957 22.6125Z" fill="#610028"/>
<path d="M11.957 28.9875C12.8372 28.9875 13.5508 28.274 13.5508 27.3938C13.5508 26.5136 12.8372 25.8 11.957 25.8C11.0768 25.8 10.3633 26.5136 10.3633 27.3938C10.3633 28.274 11.0768 28.9875 11.957 28.9875Z" fill="#610028"/>
<path fill-rule="evenodd" clip-rule="evenodd" d="M11.957 3.08911C12.6172 3.08911 13.1523 3.62427 13.1523 4.28442V5.50001C14.2074 5.47972 15.3698 5.47972 16.6482 5.47974H23.2032C24.4816 5.47972 25.6442 5.47972 26.6992 5.50001V4.28442C26.6992 3.62427 27.2344 3.08911 27.8945 3.08911C28.5547 3.08911 29.0898 3.62427 29.0898 4.28442V5.60259C29.5041 5.63418 29.8964 5.67388 30.2677 5.72379C32.1362 5.97501 33.6486 6.50433 34.8413 7.69703C36.034 8.88973 36.5633 10.4021 36.8145 12.2707C37.0586 14.0863 37.0586 16.4062 37.0586 19.3351V22.7025C37.0586 25.6313 37.0586 27.9513 36.8145 29.7669C36.5633 31.6355 36.034 33.1479 34.8413 34.3406C33.6486 35.5333 32.1362 36.0626 30.2677 36.3138C28.4521 36.5579 26.1322 36.5579 23.2033 36.5579H16.6484C13.7195 36.5579 11.3995 36.5579 9.5839 36.3138C7.71535 36.0626 6.20297 35.5333 5.01026 34.3406C3.81756 33.1479 3.28825 31.6355 3.03703 29.7669C2.79292 27.9513 2.79294 25.6314 2.79297 22.7025V19.3351C2.79294 16.4062 2.79292 14.0863 3.03703 12.2707C3.28825 10.4021 3.81756 8.88973 5.01026 7.69703C6.20297 6.50433 7.71536 5.97501 9.5839 5.72379C9.95513 5.67388 10.3474 5.63418 10.7617 5.60259V4.28442C10.7617 3.62427 11.2969 3.08911 11.957 3.08911ZM9.90245 8.0931C8.29899 8.30868 7.37518 8.71297 6.70069 9.38746C6.0262 10.0619 5.62191 10.9858 5.40634 12.5892C5.36983 12.8608 5.3393 13.1466 5.31378 13.4485H34.5378C34.5123 13.1466 34.4817 12.8608 34.4452 12.5892C34.2296 10.9858 33.8254 10.0619 33.1509 9.38746C32.4764 8.71297 31.5526 8.30868 29.9491 8.0931C28.3113 7.8729 26.1523 7.87036 23.1133 7.87036H16.7383C13.6993 7.87036 11.5403 7.8729 9.90245 8.0931ZM5.1836 19.425C5.1836 18.064 5.1841 16.8794 5.20445 15.8391H34.6471C34.6675 16.8794 34.668 18.064 34.668 19.425V22.6125C34.668 25.6515 34.6654 27.8105 34.4452 29.4484C34.2296 31.0518 33.8254 31.9756 33.1509 32.6501C32.4764 33.3246 31.5526 33.7289 29.9491 33.9445C28.3113 34.1647 26.1523 34.1672 23.1133 34.1672H16.7383C13.6993 34.1672 11.5403 34.1647 9.90245 33.9445C8.29899 33.7289 7.37518 33.3246 6.70069 32.6501C6.0262 31.9756 5.62191 31.0518 5.40634 29.4484C5.18613 27.8105 5.1836 25.6515 5.1836 22.6125V19.425Z" fill="#610028"/>
</svg>
