<svg width="40" height="39" viewBox="0 0 40 39" fill="none" xmlns="http://www.w3.org/2000/svg">
<g id="Outline / Money / Banknote 2">
<path id="Vector (Stroke)" fill-rule="evenodd" clip-rule="evenodd" d="M13.4614 7.07337H21.605C23.7846 7.07333 25.5415 7.07331 26.9232 7.25907C28.3577 7.45194 29.5656 7.86456 30.5249 8.82386C31.4085 9.70747 31.8283 10.802 32.0398 12.0902C33.3282 12.3016 34.4228 12.7215 35.3066 13.6052C36.2659 14.5645 36.6785 15.7724 36.8713 17.2069C37.0571 18.5886 37.0571 20.3455 37.057 22.5251V22.7C37.0571 24.8796 37.0571 26.6364 36.8713 28.0181C36.6785 29.4527 36.2659 30.6605 35.3066 31.6198C34.3472 32.5791 33.1394 32.9917 31.7048 33.1846C30.3231 33.3704 28.5663 33.3704 26.3867 33.3703H18.243C16.0634 33.3704 14.3066 33.3704 12.9249 33.1846C11.4903 32.9917 10.2825 32.5791 9.32317 31.6198C8.43954 30.7362 8.01967 29.6417 7.80826 28.3534C6.51982 28.142 5.42521 27.7222 4.54151 26.8385C3.58221 25.8792 3.1696 24.6713 2.97673 23.2368C2.79096 21.8551 2.79098 20.0982 2.79102 17.9186V17.7437C2.79098 15.5641 2.79096 13.8073 2.97673 12.4256C3.1696 10.991 3.58221 9.78317 4.54151 8.82386C5.50082 7.86456 6.70868 7.45194 8.14323 7.25907C9.52495 7.07331 11.2818 7.07333 13.4614 7.07337ZM10.2907 28.5597C10.4579 29.2018 10.696 29.6118 11.0136 29.9294C11.4547 30.3705 12.074 30.6581 13.2434 30.8153C14.4473 30.9772 16.0428 30.9797 18.3305 30.9797H26.2992C28.5869 30.9797 30.1825 30.9772 31.3863 30.8153C32.5557 30.6581 33.175 30.3705 33.6161 29.9294C34.0572 29.4883 34.3448 28.869 34.502 27.6996C34.6639 26.4957 34.6664 24.9002 34.6664 22.6125C34.6664 20.3248 34.6639 18.7293 34.502 17.5255C34.3448 16.356 34.0572 15.7367 33.6161 15.2956C33.2985 14.978 32.8883 14.7398 32.2461 14.5727C32.2754 15.5112 32.2754 16.5657 32.2754 17.7437V17.9186C32.2754 20.0982 32.2755 21.8551 32.0897 23.2368C31.8968 24.6713 31.4842 25.8792 30.5249 26.8385C29.5656 27.7978 28.3577 28.2104 26.9232 28.4033C25.5415 28.5891 23.7846 28.589 21.605 28.589H13.4614C12.2836 28.589 11.2292 28.589 10.2907 28.5597ZM8.46177 9.62838C7.29232 9.78561 6.67303 10.0732 6.23194 10.5143C5.79085 10.9554 5.50326 11.5747 5.34603 12.7441C5.18418 13.948 5.18164 15.5435 5.18164 17.8312C5.18164 20.1189 5.18418 21.7144 5.34603 22.9182C5.50326 24.0877 5.79085 24.707 6.23194 25.1481C6.67303 25.5892 7.29232 25.8767 8.46177 26.034C9.66561 26.1958 11.2611 26.1984 13.5488 26.1984H21.5176C23.8053 26.1984 25.4008 26.1958 26.6046 26.034C27.7741 25.8767 28.3934 25.5892 28.8345 25.1481C29.2756 24.707 29.5631 24.0877 29.7204 22.9182C29.8822 21.7144 29.8848 20.1189 29.8848 17.8312C29.8848 15.5435 29.8822 13.948 29.7204 12.7441C29.5631 11.5747 29.2756 10.9554 28.8345 10.5143C28.3934 10.0732 27.7741 9.78561 26.6046 9.62838C25.4008 9.46653 23.8053 9.46399 21.5176 9.46399H13.5488C11.2611 9.46399 9.66561 9.46653 8.46177 9.62838ZM17.5332 15.0421C15.9928 15.0421 14.7441 16.2908 14.7441 17.8312C14.7441 19.3715 15.9928 20.6202 17.5332 20.6202C19.0736 20.6202 20.3223 19.3715 20.3223 17.8312C20.3223 16.2908 19.0736 15.0421 17.5332 15.0421ZM12.3535 17.8312C12.3535 14.9705 14.6725 12.6515 17.5332 12.6515C20.3939 12.6515 22.7129 14.9705 22.7129 17.8312C22.7129 20.6918 20.3939 23.0109 17.5332 23.0109C14.6725 23.0109 12.3535 20.6918 12.3535 17.8312ZM8.76758 13.4484C9.42773 13.4484 9.96289 13.9835 9.96289 14.6437V21.0187C9.96289 21.6788 9.42773 22.214 8.76758 22.214C8.10743 22.214 7.57227 21.6788 7.57227 21.0187L7.57227 14.6437C7.57227 13.9835 8.10743 13.4484 8.76758 13.4484ZM26.2988 13.4484C26.959 13.4484 27.4941 13.9835 27.4941 14.6437V21.0187C27.4941 21.6788 26.959 22.214 26.2988 22.214C25.6387 22.214 25.1035 21.6788 25.1035 21.0187V14.6437C25.1035 13.9835 25.6387 13.4484 26.2988 13.4484Z" fill="#610028"/>
</g>
</svg>
