<svg width="217" height="50" viewBox="0 0 217 50" fill="none" xmlns="http://www.w3.org/2000/svg">
<path fill-rule="evenodd" clip-rule="evenodd" d="M166.393 11.6128C166.22 12.0203 166.142 12.4591 166.142 12.9136C166.142 13.3837 166.236 13.8225 166.409 14.23C166.598 14.6375 166.834 14.9979 167.133 15.3113C167.432 15.6091 167.809 15.8442 168.218 16.0322C169.052 16.377 170.059 16.377 170.877 16.0322C171.301 15.8442 171.663 15.6091 171.978 15.3113C172.277 15.0136 172.528 14.6375 172.701 14.2457C172.89 13.8382 172.984 13.3994 172.984 12.9292C172.984 12.4747 172.89 12.0359 172.701 11.6285C172.528 11.2053 172.292 10.8449 171.978 10.5628C171.663 10.2493 171.301 10.0143 170.877 9.84188C170.468 9.65382 170.027 9.55978 169.555 9.55978C169.083 9.55978 168.643 9.65382 168.218 9.84188C167.809 10.0143 167.447 10.2493 167.133 10.5628C166.818 10.8292 166.582 11.2053 166.393 11.6128ZM169.523 18.6652C168.139 18.6652 167.007 19.7936 167.007 21.1727V36.5624C167.007 37.9416 168.124 39.0543 169.508 39.0543H169.539C170.923 39.0543 172.04 37.9416 172.04 36.5624V21.1727C172.04 19.7936 170.908 18.6652 169.523 18.6652ZM81.9073 28.2562C81.9073 29.8547 81.6399 31.3278 81.0894 32.6443C80.5546 33.945 79.7995 35.1047 78.8714 36.0294C77.9276 36.9697 76.8108 37.7063 75.5524 38.2234C74.3097 38.7406 72.9412 39.007 71.494 39.007C70.0626 39.007 68.694 38.7406 67.4356 38.2078C66.1772 37.6749 65.0604 36.9227 64.1166 35.9824C63.1728 35.0421 62.4335 33.898 61.8829 32.5973C61.3481 31.2808 61.0649 29.8233 61.0649 28.2562V12.5216C61.0649 11.1425 62.1818 10.0298 63.566 10.0298C64.9345 10.0298 66.0671 11.1425 66.0671 12.5216V19.9344L66.3031 19.6367C66.5705 19.2762 66.9165 18.9628 67.2941 18.6963C67.703 18.4299 68.1278 18.1948 68.5839 18.0225C69.0558 17.8344 69.5435 17.709 70.0311 17.615C70.5345 17.5053 71.0064 17.4583 71.4783 17.4583C72.9097 17.4583 74.2782 17.7247 75.5366 18.2732C76.8108 18.806 77.9119 19.5583 78.8557 20.5143C79.7995 21.4859 80.5388 22.63 81.0894 23.9464C81.6242 25.2472 81.9073 26.7046 81.9073 28.2562ZM75.3007 32.3465C75.7883 31.8293 76.1816 31.2181 76.449 30.5286C76.7321 29.8233 76.8894 29.0711 76.8737 28.2562C76.8737 27.4412 76.7164 26.6733 76.4333 25.9837C76.1659 25.2785 75.7726 24.6673 75.285 24.1501C74.7973 23.633 74.2153 23.2255 73.5547 22.9434C72.9097 22.6456 72.2019 22.5046 71.4625 22.5046C70.7232 22.5046 70.0154 22.677 69.3547 23.0061C68.7098 23.3195 68.1435 23.7583 67.6559 24.2912C67.1682 24.8084 66.7907 25.4352 66.5076 26.1248C66.2402 26.7987 66.0986 27.5196 66.0986 28.2562C66.0986 29.0711 66.2244 29.839 66.5076 30.5286C66.775 31.2181 67.1682 31.8293 67.6559 32.3465C68.1435 32.848 68.7255 33.2711 69.3704 33.5689C70.0311 33.8667 70.739 34.0077 71.4783 34.0077C72.2176 34.0077 72.9255 33.8667 73.5704 33.5689C74.231 33.2711 74.8131 32.8637 75.3007 32.3465ZM109.607 33.0361C110.095 34.1331 110.755 35.1204 111.573 35.951C112.407 36.766 113.382 37.4242 114.483 37.91C115.585 38.3802 116.764 38.6152 118.023 38.6152H118.432C119.8 38.6152 120.933 37.5025 120.933 36.1234C120.933 34.7443 119.816 33.6316 118.432 33.6316H118.023C117.456 33.6316 116.906 33.5219 116.403 33.3182C115.899 33.0831 115.459 32.7853 115.081 32.4249C114.704 32.0487 114.421 31.6256 114.2 31.1241C113.98 30.6226 113.886 30.0741 113.886 29.5099V23.2412H118.133C119.501 23.2412 120.634 22.1285 120.634 20.7494C120.634 19.3702 119.517 18.2575 118.133 18.2575H113.886V12.506C113.886 11.1425 112.769 10.0298 111.4 10.0298C110.032 10.0298 108.915 11.1425 108.915 12.506V18.2732H107.845C106.477 18.2732 105.344 19.3859 105.344 20.765C105.344 22.1441 106.461 23.2568 107.845 23.2568H108.915V29.5256C108.899 30.748 109.135 31.939 109.607 33.0361ZM134.949 38.6154H125.526C124.158 38.6154 123.025 37.4871 123.025 36.108C123.025 34.7288 124.158 33.6161 125.526 33.6161H134.964C135.358 33.6161 135.704 33.4751 135.987 33.193C136.27 32.9109 136.412 32.5661 136.412 32.1743C136.412 31.7355 136.254 31.4534 135.94 31.3124C135.657 31.187 135.326 31.1243 134.949 31.1243H129.459C128.562 31.1243 127.713 30.9676 126.942 30.6228C126.156 30.278 125.479 29.8235 124.897 29.2437C124.315 28.6638 123.859 27.9743 123.513 27.1907C123.198 26.4228 123.025 25.5765 123.025 24.6832C123.025 23.7899 123.183 22.9593 123.513 22.1757C123.859 21.4078 124.315 20.7182 124.897 20.1384C125.479 19.5585 126.156 19.104 126.942 18.7749C127.729 18.4458 128.562 18.2734 129.459 18.2734H139.101C140.486 18.2734 141.603 19.3861 141.603 20.7652C141.603 22.1444 140.47 23.2571 139.101 23.2571H129.459C129.066 23.2571 128.72 23.3981 128.436 23.6802C128.153 23.9623 128.012 24.3071 128.012 24.6989C128.012 25.1063 128.153 25.4668 128.436 25.7645C128.72 26.0466 129.066 26.1877 129.459 26.1877H134.949C135.83 26.1877 136.663 26.3444 137.45 26.6422C138.236 26.9243 138.913 27.3317 139.495 27.8646C140.077 28.3974 140.533 29.04 140.879 29.7765C141.209 30.5131 141.382 31.328 141.382 32.2057C141.382 33.099 141.209 33.9452 140.879 34.7132C140.533 35.4811 140.077 36.155 139.495 36.7505C138.913 37.3304 138.221 37.7848 137.45 38.1296C136.663 38.4431 135.83 38.6154 134.949 38.6154ZM215.85 32.942C216.4 31.6256 216.668 30.1995 216.668 28.6793C216.668 27.0651 216.384 25.5763 215.85 24.2599C215.299 22.9278 214.56 21.7837 213.616 20.8591C212.688 19.9188 211.571 19.1822 210.297 18.665C209.038 18.1478 207.67 17.8814 206.238 17.8814C204.807 17.8814 203.438 18.1635 202.18 18.6964C200.922 19.2449 199.805 19.9971 198.861 20.9688C197.917 21.9248 197.178 23.0688 196.627 24.3852C196.077 25.7017 195.809 27.1591 195.809 28.695C195.809 30.2151 196.093 31.6413 196.627 32.9577C197.178 34.2585 197.917 35.4025 198.861 36.3742C199.805 37.3145 200.922 38.0824 202.18 38.6466C203.438 39.1951 204.807 39.4615 206.238 39.4615C207.686 39.4615 209.054 39.1794 210.297 38.6466C211.571 38.0824 212.688 37.3302 213.616 36.3742C214.544 35.4025 215.299 34.2428 215.85 32.942ZM211.193 31.0301C210.926 31.7353 210.533 32.3465 210.045 32.848C209.557 33.3495 208.975 33.7413 208.315 34.0234C207.67 34.3055 206.978 34.4465 206.238 34.4465C205.499 34.4465 204.791 34.3055 204.131 34.0077C203.486 33.71 202.904 33.2868 202.416 32.7853C201.944 32.2682 201.567 31.657 201.283 30.9674C201 30.2778 200.874 29.5099 200.874 28.695C200.874 27.833 201.016 27.0338 201.283 26.3442C201.551 25.639 201.944 25.0278 202.416 24.5263C202.904 24.0091 203.486 23.6173 204.131 23.3509C205.452 22.8024 207.025 22.8024 208.315 23.3509C208.975 23.6173 209.557 24.0091 210.045 24.5263C210.533 25.0278 210.926 25.639 211.193 26.3442C211.477 27.0338 211.634 27.833 211.634 28.695C211.634 29.5256 211.477 30.3249 211.193 31.0301ZM192.553 23.8526C193.04 24.9496 193.276 26.1406 193.276 27.3787H193.308V36.5781C193.308 37.9572 192.191 39.0699 190.807 39.0699C189.422 39.0699 188.305 37.9572 188.305 36.5781V27.3944C188.305 26.8302 188.211 26.2974 187.991 25.8115C187.771 25.31 187.488 24.8712 187.11 24.4951C186.732 24.119 186.292 23.8212 185.804 23.6175C185.301 23.4138 184.782 23.3041 184.216 23.3041C183.649 23.3041 183.115 23.3981 182.627 23.6175C182.124 23.8212 181.699 24.119 181.321 24.4951C180.944 24.8712 180.645 25.31 180.44 25.8115C180.236 26.313 180.126 26.8459 180.126 27.3944V36.5781C180.126 37.9572 179.009 39.0699 177.625 39.0699C176.24 39.0699 175.124 37.9572 175.124 36.5781V27.3944C175.124 26.1407 175.36 24.9496 175.847 23.8526C176.303 22.7399 176.964 21.7525 177.782 20.9376C178.6 20.107 179.575 19.4488 180.676 18.9786C181.777 18.4928 182.957 18.2577 184.2 18.2577C185.443 18.2577 186.622 18.4928 187.723 18.9786C188.825 19.4488 189.8 20.107 190.618 20.9376C191.436 21.7682 192.081 22.7399 192.553 23.8526ZM154.076 16.8315C148.351 16.8315 143.679 21.6585 143.679 27.5824V43.3326C143.679 44.6804 144.78 45.7617 146.117 45.7617C147.47 45.7617 148.555 44.6647 148.555 43.3326V36.6877L148.775 36.8131C150.38 37.8004 152.22 38.3333 154.076 38.3333C159.802 38.3333 164.474 33.5064 164.474 27.5824C164.474 21.6585 159.818 16.8315 154.076 16.8315ZM154.076 33.4907C151.04 33.4907 148.571 30.8421 148.571 27.5981C148.571 24.354 151.04 21.7055 154.076 21.7055C157.112 21.7055 159.582 24.354 159.582 27.5981C159.582 30.8421 157.128 33.4907 154.076 33.4907ZM103.331 21.5645C103.818 22.2384 104.243 22.9593 104.573 23.7586C105.077 24.9496 104.495 26.3601 103.268 26.8929L91.2184 32.331L91.0296 32.4251L91.1869 32.5661C91.3442 32.7228 91.5173 32.8482 91.706 32.9736C91.879 33.0833 92.0677 33.1773 92.2565 33.2713L92.2566 33.2714C92.7285 33.5064 93.2161 33.6632 93.7195 33.7415C94.2071 33.8199 94.7105 33.8355 95.2139 33.7885C95.7329 33.7258 96.2363 33.6005 96.6925 33.3967C96.9914 33.2714 98.6273 32.4407 100.012 31.7198C101.238 31.0773 102.764 31.5475 103.409 32.7699C103.991 33.8512 103.677 35.2147 102.67 35.9356C100.326 37.6125 97.8093 38.3334 97.3217 38.4587C96.5352 38.6781 95.7172 38.8035 94.8835 38.8192C94.0656 38.8505 93.2476 38.7722 92.4296 38.5841C91.6274 38.4117 90.8409 38.1453 90.0701 37.7692C88.7802 37.1423 87.6634 36.3117 86.7668 35.2774C85.8859 34.2587 85.2095 33.099 84.7691 31.8295C84.3443 30.5601 84.1713 29.2124 84.25 27.8019C84.3286 26.3757 84.7219 24.9496 85.414 23.5392C86.1218 22.0973 87.0185 20.8749 88.0881 19.919C89.1735 18.963 90.3532 18.2577 91.5959 17.8346C92.6656 17.4742 93.7667 17.3018 94.8993 17.3018C95.1195 17.3018 95.324 17.3018 95.5442 17.3174C96.9127 17.4115 98.2498 17.7719 99.5396 18.3988C100.295 18.7592 101.003 19.2294 101.647 19.7622C102.277 20.3108 102.843 20.9063 103.331 21.5645ZM89.2364 28.7579L98.5329 24.025L98.7059 23.9466L98.5801 23.8056C98.3913 23.6018 98.1868 23.4451 97.9666 23.3041C97.7621 23.1787 97.5419 23.0533 97.306 22.9436C96.6453 22.6145 95.9374 22.4421 95.2296 22.3951C94.5375 22.3481 93.8453 22.4421 93.1847 22.6772C92.5397 22.928 91.942 23.3041 91.3757 23.8212C90.8252 24.3227 90.3375 24.981 89.96 25.7646C89.8656 25.9369 89.7712 26.1407 89.6769 26.3758C89.5825 26.6108 89.5038 26.8616 89.4252 27.1123C89.3712 27.3141 89.3288 27.5273 89.288 27.7323C89.2813 27.7662 89.2746 27.7999 89.2679 27.8332C89.2207 28.084 89.205 28.3191 89.2207 28.5385L89.2364 28.7579Z" fill="#010000"/>
<path d="M48.7308 22.9233C48.7308 23.0912 48.7155 23.2286 48.6848 23.3966C48.6235 23.9004 48.2098 24.2515 47.7195 24.3584C47.03 24.5111 46.3558 24.0836 46.1872 23.3966C45.8807 21.7171 45.3138 20.0683 44.5017 18.4804C42.5557 14.5872 39.2613 11.3353 35.216 9.30469C30.8337 7.0909 25.8844 6.4344 21.2875 7.47259C17.3802 8.1749 14.239 11.3811 13.1051 15.1063C11.3736 20.7095 14.0398 26.5264 19.0657 28.0837C20.8278 28.618 22.7279 28.5722 24.5666 27.9615C24.5666 27.9615 24.8731 27.8547 25.1489 27.7631C25.9917 27.5188 26.8957 27.6409 27.6772 28.0989C28.5046 28.5875 29.1022 29.3814 29.3167 30.2975C29.7764 32.1448 28.6885 33.9464 26.8344 34.4197C26.4973 34.5266 26.0529 34.6029 26.0376 34.6029C25.0263 34.7556 24.0457 34.8166 23.0803 34.8166C19.2343 34.8166 15.6794 33.6716 12.8293 31.4883C11.6188 30.557 10.5615 29.4578 9.6728 28.2211C8.43165 26.3432 7.54292 24.3279 7.00662 22.2362C5.9187 18.1598 6.36306 13.8391 8.2631 10.0833C12.9059 0.968649 25.3787 -2.08485 36.0588 3.2893C40.2879 5.44202 43.7355 8.63292 46.0033 12.5261C47.9493 15.8392 48.8993 19.427 48.7308 22.9233Z" fill="#FF22FF"/>
<path d="M0.0191014 26.1141C0.0191014 25.9462 0.0344243 25.8088 0.06507 25.6408C0.126361 25.137 0.540079 24.7859 1.03041 24.679C1.71994 24.5263 2.39415 24.9538 2.5627 25.6408C2.86916 27.3203 3.4361 28.9691 4.24821 30.557C6.19422 34.4502 9.48864 37.7021 13.5339 39.7327C17.9162 41.9465 22.8655 42.603 27.4624 41.5648C31.3697 40.8625 34.5109 37.6563 35.6448 33.9311C37.3763 28.3279 34.7101 22.511 29.6842 20.9537C27.922 20.4194 26.022 20.4652 24.1833 21.0759C24.1833 21.0759 23.8768 21.1827 23.601 21.2743C22.7582 21.5186 21.8542 21.3965 21.0727 20.9385C20.2453 20.4499 19.6477 19.656 19.4332 18.7399C18.9735 16.8926 20.0614 15.091 21.9155 14.6177C22.2526 14.5108 22.6969 14.4345 22.7123 14.4345C23.7236 14.2818 24.7042 14.2208 25.6696 14.2208C29.5156 14.2208 33.0705 15.3658 35.9206 17.5491C37.1311 18.4804 38.1884 19.5796 39.0771 20.8163C40.3182 22.6942 41.207 24.7095 41.7433 26.8012C42.8312 30.8776 42.3868 35.1983 40.4868 38.9541C35.844 48.0687 23.3712 51.1222 12.6911 45.7481C8.462 43.5954 5.01436 40.4045 2.74657 36.5113C0.800568 33.1982 -0.14945 29.6104 0.0191014 26.1141Z" fill="#5C27FF"/>
</svg>
