<svg width="103" height="54" viewBox="0 0 103 54" fill="none" xmlns="http://www.w3.org/2000/svg">
<mask id="mask0_291_5060" style="mask-type:luminance" maskUnits="userSpaceOnUse" x="35" y="39" width="33" height="15">
<path d="M67.3813 39.8301H35.584V53.9995H67.3813V39.8301Z" fill="white"/>
</mask>
<g mask="url(#mask0_291_5060)">
<path d="M48.2363 51.2695L49.2433 48.5547H49.9468L50.9355 51.2695H50.3008L50.1335 50.7382H49.0578L48.8733 51.2695H48.2363ZM49.2067 50.2346H49.98L49.5951 49.0744L49.2067 50.2346Z" fill="black"/>
<path d="M51.0596 48.5547H51.6828L52.1548 50.5094L52.7093 48.5547H53.2465L53.8091 50.5094L54.2743 48.5547H54.8964L54.1322 51.2695H53.5021L52.9762 49.3987L52.4469 51.2695H51.8157L51.0596 48.5547Z" fill="black"/>
<path d="M55.0225 51.2695L56.0296 48.5547H56.733L57.7147 51.2695H57.0801L56.9151 50.7382H55.8394L55.6618 51.2695H55.0225ZM55.9929 50.2346H56.7651L56.3813 49.0744L55.9929 50.2346Z" fill="black"/>
<path d="M59.5952 48.5553C59.7199 48.5507 59.8445 48.5718 59.9608 48.6173C60.0773 48.6628 60.1832 48.7317 60.2721 48.8198C60.36 48.9069 60.4288 49.0114 60.4744 49.1265C60.5199 49.2417 60.5412 49.3651 60.5368 49.489C60.5416 49.6788 60.4888 49.8656 60.3856 50.0248C60.2868 50.1747 60.1426 50.2887 59.9744 50.3502L60.5769 51.2701H59.8712L59.3614 50.4387H58.8768V51.2701H58.2822V48.5553H59.5952ZM58.8711 49.9489H59.4611C59.5862 49.9562 59.7092 49.9151 59.8048 49.8339C59.8482 49.7935 59.8825 49.7441 59.9051 49.6891C59.9275 49.6341 59.9379 49.5748 59.9354 49.5154C59.9374 49.456 59.9271 49.3969 59.9052 49.3417C59.8834 49.2865 59.8504 49.2364 59.8082 49.1946C59.7651 49.1528 59.7141 49.1201 59.6584 49.0986C59.6024 49.0771 59.5428 49.0671 59.4829 49.0693H58.8722L58.8711 49.9489Z" fill="black"/>
<path d="M61.237 48.5547H62.2921C62.7206 48.5547 63.057 48.6793 63.3014 48.9284C63.4251 49.0598 63.5213 49.2149 63.5839 49.3844C63.6467 49.5539 63.675 49.7343 63.6669 49.915C63.675 50.0948 63.6474 50.2746 63.586 50.4437C63.5244 50.6129 63.43 50.7681 63.3083 50.9004C63.0723 51.1464 62.7453 51.2695 62.3276 51.2695H61.2324L61.237 48.5547ZM62.3827 50.7221C62.4776 50.7248 62.5718 50.7054 62.658 50.6655C62.7443 50.6256 62.8201 50.5663 62.8798 50.4922C63.0123 50.3243 63.0799 50.1139 63.07 49.9C63.0787 49.6911 63.0102 49.4863 62.8775 49.3251C62.8154 49.2518 62.7372 49.1936 62.6493 49.1549C62.5614 49.1163 62.466 49.0982 62.37 49.102H61.8374V50.7221H62.3827Z" fill="black"/>
<path d="M64.3831 50.4633C64.6792 50.6886 65.0429 50.8058 65.4142 50.7956C65.5404 50.8019 65.6659 50.7724 65.7764 50.7105C65.8319 50.6769 65.8739 50.6247 65.8949 50.5631C65.9159 50.5014 65.9144 50.4343 65.8909 50.3736C65.8755 50.3407 65.8508 50.3131 65.8198 50.2942C65.7908 50.2751 65.7605 50.2578 65.7292 50.2425C65.6869 50.225 65.6426 50.2119 65.5976 50.2034L65.4647 50.1793L65.3043 50.1551C65.2161 50.1413 65.1405 50.1287 65.0751 50.1149C65.0098 50.1011 64.9365 50.0815 64.846 50.0562C64.7657 50.0347 64.6888 50.0026 64.6169 49.9608C64.552 49.9206 64.4911 49.8744 64.4346 49.8228C64.3739 49.7673 64.3282 49.6973 64.3018 49.6193C64.2709 49.5322 64.2559 49.4403 64.2571 49.3479C64.2509 49.2259 64.2765 49.1043 64.3311 48.9951C64.3858 48.8859 64.4676 48.7927 64.5688 48.7247C64.8178 48.5698 65.1081 48.4951 65.4005 48.5108C65.7698 48.5084 66.1339 48.5994 66.4591 48.7753L66.2207 49.2353C65.9587 49.0896 65.6636 49.014 65.3638 49.0156C65.2374 49.0079 65.1114 49.0353 64.9995 49.095C64.9611 49.1165 64.9293 49.1481 64.9072 49.1864C64.8854 49.2246 64.8741 49.2681 64.8746 49.3123C64.873 49.3614 64.8871 49.4098 64.9148 49.4503C64.948 49.4928 64.993 49.5244 65.0442 49.5411C65.0976 49.5621 65.1524 49.5797 65.2081 49.594C65.2574 49.6066 65.3226 49.6193 65.4119 49.6319C65.6544 49.6621 65.8923 49.7223 66.12 49.8113C66.2451 49.8606 66.3517 49.9475 66.4256 50.0601C66.4994 50.1728 66.5368 50.3055 66.5324 50.4403C66.5384 50.5663 66.5124 50.6918 66.4568 50.805C66.4014 50.9182 66.3181 51.0154 66.2151 51.0876C65.9576 51.2519 65.656 51.3323 65.3512 51.3176C65.1232 51.3188 64.8965 51.2831 64.6799 51.2118C64.4874 51.1506 64.3058 51.0586 64.1426 50.9393L64.3831 50.4633Z" fill="black"/>
<path d="M65.8807 47.3858C65.9629 47.1258 66.0829 46.8794 66.2368 46.6545C66.3457 46.4991 66.4761 46.3601 66.6241 46.2418C66.4542 46.106 66.3076 45.9432 66.1898 45.76C66.0589 45.5535 65.9548 45.3309 65.8807 45.0977C65.7938 45.3717 65.6652 45.6304 65.4991 45.8646C65.397 46.0055 65.2768 46.1323 65.1416 46.2418C65.3098 46.3802 65.4548 46.5448 65.5713 46.7293C65.7019 46.934 65.8058 47.1546 65.8807 47.3858Z" fill="black"/>
<path d="M66.8738 45.1011C66.9278 44.9443 67.0051 44.7966 67.1031 44.663C67.1812 44.557 67.2751 44.4636 67.3814 44.3859C67.2686 44.3051 67.1698 44.206 67.0893 44.0927C66.9968 43.9637 66.9236 43.8219 66.8715 43.6719C66.8211 43.8185 66.7505 43.9574 66.6619 44.0847C66.5804 44.2009 66.4801 44.3028 66.3652 44.3859C66.4798 44.4694 66.58 44.5712 66.6619 44.6872C66.751 44.8148 66.8223 44.9541 66.8738 45.1011Z" fill="black"/>
<path d="M47.9203 41.2927C47.7617 41.1024 47.5643 40.9484 47.3413 40.8413C47.1184 40.7342 46.8751 40.6764 46.628 40.6718C46.467 40.6713 46.3071 40.6977 46.1548 40.7499C45.393 41.0236 44.8946 41.6698 44.4891 42.1815L44.0113 42.7898L43.8544 42.7288C43.6966 42.6693 43.5292 42.6393 43.3606 42.6403C43.0854 42.6489 42.8138 42.7065 42.5587 42.8105L42.215 42.9576C41.8781 43.1071 41.5276 43.2623 41.1736 43.3842L40.8769 43.4866L40.9685 43.7901C41.0295 43.9599 41.0628 44.1386 41.067 44.319V44.3386C41.0393 45.4733 40.7298 46.5831 40.1666 47.5673C40.0669 47.7295 39.8011 48.1089 39.4987 48.1089H39.4253L39.368 48.0675C39.1389 47.9111 39.0576 47.5903 39.0244 47.342C38.9954 46.7106 39.0728 46.0789 39.2535 45.4735V45.4516C39.3245 45.1159 39.4047 44.7732 39.4826 44.4513C39.6946 43.559 39.9134 42.6357 39.9707 41.6917V41.6698C39.9821 41.3042 40.0005 40.6902 39.6361 40.2417L39.6293 40.2325C39.4422 40.0212 39.1856 39.8845 38.9064 39.8473C38.8442 39.8371 38.7814 39.8313 38.7185 39.8301H38.6887C38.6411 39.8327 38.5936 39.8381 38.5466 39.8462C38.3502 39.8731 38.1609 39.9388 37.9898 40.0393C37.5682 40.2693 37.2417 40.5959 36.921 40.9167C36.6174 41.2191 36.3309 41.5054 35.9769 41.6928L35.584 41.8998L35.9013 42.2171C36.001 42.3165 36.0801 42.4348 36.134 42.565C36.1879 42.6953 36.2155 42.835 36.2152 42.976C36.2086 43.4011 36.1622 43.8245 36.0766 44.2408V44.2707C36.0331 44.5226 35.9884 44.7824 35.962 45.0434C35.8188 46.2692 35.71 47.5742 35.9999 48.8712C36.229 49.8417 36.6254 50.5339 37.1982 50.9892C37.6226 51.3099 38.1391 51.4838 38.6703 51.4848H38.7105C39.0914 51.4808 39.4681 51.4027 39.8194 51.2549C40.5468 50.9347 41.1794 50.4313 41.6559 49.7934L41.8667 49.5221L42.0363 49.8187C42.2035 50.1151 42.4054 50.3903 42.6377 50.6386C42.8869 50.9038 43.188 51.1144 43.5222 51.2573C43.8564 51.4002 44.2164 51.4722 44.5796 51.4687C44.825 51.4691 45.0693 51.4362 45.3059 51.371C46.0494 51.1847 46.7506 50.696 47.3337 49.9579C48.4141 48.5861 49.0098 46.6935 49.0098 44.6295C49.0098 43.2612 48.6329 42.1068 47.9203 41.2927ZM44.2072 43.0772C44.3218 42.9151 44.7216 42.8622 44.9164 42.9128C45.097 42.9569 45.2632 43.0467 45.3992 43.1737C45.5352 43.3008 45.6364 43.4608 45.6932 43.6383C45.9223 44.3351 45.9223 45.1481 45.6851 46.1277C45.4789 46.8935 45.2693 47.5662 44.8053 48.0307L44.7892 48.0491C44.6892 48.1568 44.5518 48.2218 44.4054 48.2308C44.3525 48.2317 44.3006 48.2165 44.2565 48.1871L44.2462 48.1802C44.0171 48.0054 43.9506 47.6421 43.9163 47.2603C43.859 46.1105 44.0308 44.9951 44.2359 43.7487C44.2909 43.5165 44.3023 43.2451 44.2072 43.0772ZM46.6372 49.4082C46.3152 49.8164 45.786 50.3396 45.0871 50.5121H45.0711C44.7577 50.6 44.4265 50.6016 44.1123 50.5169C43.798 50.4321 43.5123 50.264 43.285 50.0303C42.8943 49.6152 42.64 49.084 42.4223 48.5711L41.9641 47.4868L41.4153 48.5332C40.941 49.437 40.2525 50.1142 39.4792 50.4385C39.235 50.5398 38.9736 50.5929 38.7093 50.5949H38.6933C38.3549 50.5964 38.0246 50.491 37.7492 50.2936C37.3368 49.967 37.047 49.4335 36.8637 48.6735C36.6048 47.5122 36.709 46.2933 36.8373 45.1423C36.8625 44.9032 36.9049 44.6617 36.9519 44.4053C37.0482 43.9333 37.0996 43.4532 37.1054 42.9714C37.1056 42.6822 37.0414 42.3966 36.9175 42.1355C37.14 41.9519 37.3519 41.7557 37.5522 41.5479C37.8409 41.2593 38.1124 40.988 38.4309 40.8155L38.4595 40.7982C38.5308 40.7601 38.6085 40.7355 38.6887 40.7258H38.7311C38.7444 40.7248 38.7578 40.7248 38.7712 40.7258H38.7895C38.8544 40.7326 38.915 40.7614 38.9613 40.8074C39.0977 40.9857 39.1011 41.2984 39.092 41.633C39.0392 42.5 38.8388 43.3474 38.6268 44.2432C38.5489 44.572 38.4687 44.9112 38.3977 45.2504C38.1916 45.9537 38.1048 46.6868 38.1411 47.419V47.4466C38.2281 48.1457 38.5512 48.6643 39.0496 48.9058L39.1206 48.9345C39.7713 49.1472 40.4461 48.8057 40.9261 48.0146L40.9341 47.9997C41.5712 46.8893 41.9217 45.6367 41.9538 44.3558C41.9587 44.2491 41.9538 44.142 41.9389 44.0362C42.1577 43.9476 42.3696 43.8534 42.5781 43.7614L42.876 43.6303C43.0324 43.5625 43.1996 43.5235 43.3698 43.5153C43.3721 43.5298 43.3721 43.5445 43.3698 43.559V43.5877C43.1452 44.9055 42.9688 46.0852 43.0307 47.3236V47.3454C43.0628 47.7053 43.1315 48.455 43.7181 48.8988C44.2806 49.3047 45.0264 49.0943 45.4365 48.6562C46.1022 47.9813 46.353 47.0465 46.5421 46.3566V46.3416C46.8193 45.1918 46.8147 44.2202 46.5295 43.3589C46.369 42.8788 46.0584 42.4634 45.6439 42.1746C45.8616 41.9197 46.1364 41.7203 46.4458 41.5928C46.7471 41.4893 47.0714 41.6652 47.2478 41.8733L47.2558 41.8825C47.973 42.7001 48.1242 43.8304 48.1242 44.6353C48.1231 46.4991 47.5961 48.194 46.6372 49.4082Z" fill="black"/>
<path d="M52.798 47.6067C52.0608 47.6143 51.3479 47.342 50.8023 46.8443C50.2084 46.2918 49.8288 45.5458 49.7311 44.739C49.5794 43.8188 49.7362 42.8741 50.1768 42.0529C50.3128 41.8065 50.4921 41.5868 50.7061 41.4044L50.6832 41.3251L50.6133 41.1296L50.753 40.9801C50.9959 40.7122 51.3259 40.5202 51.7899 40.3638C52.0892 40.2532 52.4057 40.1971 52.7247 40.1983C53.2189 40.1995 53.7043 40.3303 54.1327 40.5777C54.6632 40.9073 55.0915 41.3793 55.3689 41.9403C55.7229 42.6221 55.8706 43.4419 55.8053 44.3779C55.748 45.3622 55.3963 46.2234 54.8143 46.8006C54.548 47.062 54.2326 47.2677 53.8866 47.4061C53.5405 47.5444 53.1705 47.6126 52.798 47.6067ZM51.4118 41.309L51.453 41.424L51.5527 41.7034L51.2926 41.8437C51.0722 41.9773 50.893 42.1695 50.7748 42.3991C50.4099 43.0864 50.2818 43.8755 50.4105 44.6435C50.4863 45.2926 50.7892 45.8936 51.2652 46.3395C52.0969 47.1203 53.5564 47.1065 54.3274 46.3166C54.7926 45.8566 55.0721 45.1552 55.119 44.3377C55.166 43.5201 55.0537 42.8302 54.7582 42.268C54.5388 41.8231 54.2019 41.4473 53.7844 41.1814C53.4618 40.996 53.0965 40.8985 52.7247 40.8985C52.4867 40.8971 52.2503 40.9388 52.027 41.0215L52.0098 41.0273C51.7966 41.0881 51.5946 41.1832 51.4118 41.309ZM52.9389 46.2924C52.659 46.2958 52.3869 46.2001 52.1702 46.0222C51.8162 45.7439 51.5791 45.315 51.4462 44.7137C51.3018 43.9628 51.3178 43.2959 51.4908 42.7222C51.6375 42.2369 51.9491 41.8701 52.3295 41.7161C52.5096 41.6467 52.7047 41.6259 52.8954 41.6555C53.0861 41.6852 53.2657 41.7643 53.4166 41.8851C53.789 42.1783 53.9894 42.6198 54.0973 42.9257V42.936C54.3142 43.6177 54.3577 44.343 54.2243 45.046V45.0575C54.1098 45.5818 53.8956 45.9325 53.5645 46.1291C53.3728 46.2352 53.1578 46.2913 52.9389 46.2924ZM52.7247 42.3335C52.6743 42.3336 52.6243 42.3426 52.5769 42.3599C52.3123 42.4657 52.1885 42.7888 52.1484 42.9222C52.0075 43.3879 51.9984 43.9433 52.1187 44.5734C52.2149 45.0057 52.3718 45.3058 52.5975 45.4829L52.6101 45.4921C52.7026 45.5686 52.8192 45.6094 52.9389 45.6071C53.0385 45.6071 53.1366 45.5822 53.2242 45.5346C53.3732 45.4461 53.4831 45.2449 53.553 44.9229C53.6651 44.3378 53.6317 43.7339 53.4556 43.1648C53.3709 42.9349 53.2265 42.6164 52.9974 42.429C52.9205 42.3658 52.824 42.332 52.7247 42.3335Z" fill="black"/>
<path d="M58.5267 47.6209C58.1616 47.6259 57.8051 47.5094 57.5127 47.2898C57.1301 46.9862 56.8723 46.5332 56.7212 45.91C56.5366 45.0936 56.6065 44.2783 56.6914 43.5125C56.7097 43.3401 56.7383 43.1676 56.7669 43.0055C56.8174 42.7563 56.8453 42.5031 56.8505 42.2489C56.8509 42.1801 56.8375 42.112 56.8114 42.0484C56.7853 41.9849 56.7468 41.9272 56.6983 41.8786L56.3672 41.5463L56.7784 41.3244C56.9838 41.1994 57.1696 41.0444 57.3295 40.8645C57.528 40.6464 57.7567 40.4582 58.0087 40.3057C58.1771 40.2044 58.3747 40.1639 58.569 40.1907C58.691 40.1923 58.8113 40.2192 58.9223 40.2699C59.0333 40.3206 59.1327 40.3938 59.214 40.485L59.222 40.4954C59.4798 40.8127 59.4673 41.2244 59.4592 41.4704C59.4092 42.0621 59.3069 42.6482 59.1533 43.2216C59.1087 43.4102 59.064 43.5988 59.0227 43.7874V43.8C58.9153 44.1785 58.8666 44.5714 58.8784 44.9648C58.8863 45.0876 58.9366 45.2038 59.0204 45.2936C59.112 45.2936 59.2393 45.1603 59.3252 45.02C59.658 44.4365 59.8407 43.7789 59.8568 43.1067V43.0952C59.853 42.9981 59.834 42.9023 59.8006 42.8112L59.7101 42.503L60.0113 42.388C60.2704 42.2914 60.5189 42.1822 60.7823 42.0649C61.0231 41.9557 61.3827 41.8349 61.7517 41.9706L61.9808 41.6694C62.2351 41.3394 62.5822 40.8875 63.1264 40.7196C63.5904 40.5874 64.1014 40.7943 64.4106 41.2301C64.886 41.866 65.0809 42.7307 64.9893 43.8012C64.8998 45.0039 64.4667 46.0847 63.7668 46.8356C63.5681 47.0623 63.3265 47.2472 63.0562 47.3796C62.7858 47.5121 62.4918 47.5894 62.1915 47.6071C61.9314 47.6177 61.6721 47.5707 61.4321 47.4693C61.1921 47.368 60.9774 47.2148 60.803 47.0207C60.6713 46.8707 60.5561 46.7069 60.4594 46.532C60.1518 46.9475 59.7392 47.273 59.2645 47.4749C59.0302 47.5705 58.7796 47.6201 58.5267 47.6209ZM57.4211 41.7211C57.4977 41.8823 57.5368 42.0588 57.5356 42.2374C57.5314 42.5325 57.5 42.8266 57.4417 43.1159C57.4142 43.2768 57.3879 43.4298 57.3718 43.5815C57.2928 44.291 57.2285 45.0407 57.389 45.7467C57.5037 46.2158 57.68 46.5447 57.9343 46.7459C58.1887 46.9471 58.6218 46.9897 59.0021 46.8356C59.4833 46.6401 59.9049 46.225 60.1913 45.6662L60.5293 45.0039L60.8157 45.6846C60.9338 46.0011 61.1042 46.2954 61.3197 46.555C61.4274 46.6736 61.5595 46.7671 61.7069 46.8291C61.8544 46.8911 62.0136 46.92 62.1733 46.9138C62.3828 46.8989 62.5873 46.8425 62.7751 46.748C62.9628 46.6535 63.1301 46.5226 63.2673 46.363C63.8584 45.7248 64.2262 44.7958 64.3042 43.746C64.381 42.8468 64.232 42.1362 63.8584 41.6441L63.8516 41.6349C63.737 41.4681 63.5251 41.3256 63.3213 41.3831C63.1204 41.4583 62.9431 41.5852 62.8068 41.751C63.0631 41.9286 63.2553 42.1848 63.3544 42.4811C63.5286 43.0066 63.5309 43.631 63.3624 44.3266C63.2364 44.7866 63.0828 45.3431 62.6875 45.7524C62.5614 45.8991 62.3879 45.9966 62.1973 46.0279C62.0067 46.0592 61.8114 46.0224 61.6451 45.9238L61.6268 45.9111C61.2705 45.6432 61.2281 45.1867 61.2075 44.9671V44.9533C61.1674 44.1852 61.2807 43.4275 61.4113 42.6536V42.6364C61.4129 42.6265 61.4129 42.6164 61.4113 42.6065C61.2878 42.6117 61.1669 42.6443 61.0573 42.7019C60.8843 42.779 60.7137 42.8571 60.5293 42.9319C60.5388 42.9985 60.5418 43.0659 60.5385 43.1331C60.5185 43.9221 60.3027 44.6935 59.9106 45.3776C59.6185 45.8571 59.2084 46.0675 58.8085 45.9617L58.758 45.9433C58.4476 45.803 58.2459 45.4834 58.1852 45.0499V45.0303C58.1653 44.5617 58.2198 44.0928 58.3469 43.6413C58.388 43.4505 58.4326 43.2584 58.4785 43.0664C58.6246 42.5338 58.724 41.9894 58.7753 41.4394C58.7753 41.2428 58.7753 41.0473 58.695 40.9369C58.6539 40.8993 58.5996 40.8795 58.5438 40.8817H58.4866C58.4439 40.8734 58.3996 40.8816 58.3627 40.9047L58.3479 40.9139C58.1513 41.0373 57.9729 41.1874 57.8174 41.3601C57.6921 41.4876 57.5598 41.6082 57.4211 41.7211ZM62.0277 45.3488C62.0567 45.3531 62.0863 45.3497 62.1137 45.339C62.141 45.3283 62.165 45.3107 62.1835 45.2879L62.1927 45.2776C62.4677 44.9958 62.5903 44.5509 62.698 44.1576C62.8331 43.5965 62.8365 43.1032 62.7036 42.7031C62.6674 42.5854 62.6011 42.4793 62.5112 42.3954C62.4212 42.3114 62.3111 42.2526 62.1915 42.2247L61.9933 42.1879C62.0921 42.3663 62.1251 42.574 62.0861 42.7743C61.9637 43.5033 61.8571 44.2151 61.8925 44.9084C61.9086 45.0798 61.9338 45.266 62.0277 45.3488Z" fill="black"/>
<path d="M36.2833 52.5118C36.416 52.5118 36.5269 52.5565 36.6158 52.6457C36.7047 52.735 36.7492 52.8462 36.7492 52.9794C36.7492 53.1126 36.7047 53.2238 36.6158 53.3131C36.5269 53.4024 36.416 53.447 36.2833 53.447H35.9021V53.9996H35.7539V52.5118H36.2833ZM36.2833 53.3067C36.3751 53.3067 36.4506 53.2763 36.5099 53.2153C36.5706 53.153 36.601 53.0744 36.601 52.9794C36.601 52.8845 36.5706 52.8066 36.5099 52.7456C36.4506 52.6833 36.3751 52.6521 36.2833 52.6521H35.9021V53.3067H36.2833ZM37.6595 53.8593H38.3371V53.9996H37.5112V52.5118H37.6595V53.8593ZM40.0858 53.9996L39.9482 53.6341H39.2451L39.1075 53.9996H38.9508L39.5204 52.5118H39.6729L40.2425 53.9996H40.0858ZM39.2981 53.4938H39.8952L39.5966 52.6967L39.2981 53.4938ZM41.8203 52.5118L41.2845 53.3896V53.9996H41.1363V53.3854L40.6026 52.5118H40.7699L41.2125 53.2409L41.653 52.5118H41.8203ZM42.6668 53.8593H43.3868V53.9996H42.5185V52.5118H43.3762V52.6521H42.6668V53.1792H43.3232V53.3195H42.6668V53.8593ZM45.0603 53.9996L44.713 53.4045H44.298V53.9996H44.1497V52.5118H44.7427C44.8655 52.5118 44.97 52.5558 45.0561 52.6436C45.1436 52.73 45.1874 52.8349 45.1874 52.9582C45.1874 53.0588 45.157 53.1487 45.0963 53.2281C45.037 53.306 44.9608 53.3585 44.8676 53.3854L45.2297 53.9996H45.0603ZM44.298 52.6521V53.2642H44.7427C44.8245 53.2642 44.8944 53.2345 44.9523 53.175C45.0102 53.114 45.0391 53.0418 45.0391 52.9582C45.0391 52.8732 45.0102 52.8009 44.9523 52.7414C44.8944 52.6819 44.8245 52.6521 44.7427 52.6521H44.298ZM46.3957 54.0251C46.2601 54.0251 46.1437 53.9932 46.0463 53.9295C45.9503 53.8643 45.8832 53.775 45.8451 53.6617L45.9721 53.5873C45.999 53.6794 46.0484 53.7517 46.1204 53.8041C46.1924 53.8551 46.2849 53.8806 46.3978 53.8806C46.5079 53.8806 46.5933 53.8565 46.654 53.8083C46.7162 53.7587 46.7472 53.6936 46.7472 53.6128C46.7472 53.5349 46.719 53.4761 46.6625 53.4364C46.606 53.3967 46.5129 53.3556 46.383 53.3131C46.2291 53.2621 46.1274 53.221 46.078 53.1898C45.9651 53.1218 45.9086 53.0234 45.9086 52.8944C45.9086 52.7683 45.9524 52.6691 46.0399 52.5968C46.1274 52.5232 46.2354 52.4863 46.3639 52.4863C46.4797 52.4863 46.5799 52.5168 46.6646 52.5777C46.7493 52.6372 46.8122 52.7137 46.8531 52.8073L46.7282 52.8774C46.6604 52.713 46.539 52.6309 46.3639 52.6309C46.2722 52.6309 46.198 52.6535 46.1416 52.6989C46.0851 52.7442 46.0569 52.8073 46.0569 52.888C46.0569 52.9617 46.0823 53.017 46.1331 53.0538C46.1839 53.0907 46.2679 53.1282 46.3851 53.1665C46.4387 53.1849 46.4769 53.1983 46.4994 53.2068C46.5234 53.2139 46.5573 53.2267 46.6011 53.2451C46.6463 53.2621 46.6794 53.2777 46.7006 53.2919C46.7218 53.3046 46.7472 53.323 46.7769 53.3471C46.8079 53.3698 46.8298 53.3932 46.8425 53.4173C46.8566 53.4399 46.8686 53.4683 46.8785 53.5023C46.8898 53.5349 46.8955 53.5703 46.8955 53.6085C46.8955 53.7347 46.8496 53.836 46.7578 53.9125C46.666 53.9876 46.5453 54.0251 46.3957 54.0251ZM49.3883 54.0251C49.1638 54.0251 48.9782 53.9507 48.8314 53.802C48.6845 53.6532 48.6111 53.4711 48.6111 53.2557C48.6111 53.0404 48.6845 52.8583 48.8314 52.7095C48.9782 52.5607 49.1638 52.4863 49.3883 52.4863C49.5253 52.4863 49.6509 52.5196 49.7653 52.5862C49.8796 52.6514 49.9679 52.74 50.03 52.8519L49.8987 52.9284C49.8521 52.8377 49.7829 52.7655 49.6911 52.7116C49.5994 52.6578 49.4984 52.6309 49.3883 52.6309C49.2034 52.6309 49.0523 52.6911 48.9351 52.8115C48.818 52.932 48.7594 53.08 48.7594 53.2557C48.7594 53.4314 48.818 53.5795 48.9351 53.6999C49.0523 53.8204 49.2034 53.8806 49.3883 53.8806C49.4984 53.8806 49.5994 53.8537 49.6911 53.7998C49.7829 53.746 49.8521 53.6737 49.8987 53.583L50.03 53.6574C49.9693 53.7694 49.881 53.8586 49.7653 53.9252C49.6509 53.9918 49.5253 54.0251 49.3883 54.0251ZM51.7349 52.5118H51.8832V53.9996H51.7349V53.3046H50.9302V53.9996H50.782V52.5118H50.9302V53.1643H51.7349V52.5118ZM53.9558 53.802C53.8076 53.9507 53.6261 54.0251 53.4115 54.0251C53.1969 54.0251 53.0155 53.9507 52.8672 53.802C52.719 53.6518 52.6449 53.4697 52.6449 53.2557C52.6449 53.0418 52.719 52.8604 52.8672 52.7116C53.0155 52.5614 53.1969 52.4863 53.4115 52.4863C53.6261 52.4863 53.8076 52.5614 53.9558 52.7116C54.104 52.8604 54.1781 53.0418 54.1781 53.2557C54.1781 53.4697 54.104 53.6518 53.9558 53.802ZM52.971 53.6999C53.0896 53.8204 53.2365 53.8806 53.4115 53.8806C53.5866 53.8806 53.7334 53.8204 53.852 53.6999C53.9706 53.5781 54.0299 53.43 54.0299 53.2557C54.0299 53.0814 53.9706 52.9341 53.852 52.8136C53.7334 52.6918 53.5866 52.6309 53.4115 52.6309C53.2365 52.6309 53.0896 52.6918 52.971 52.8136C52.8524 52.9341 52.7931 53.0814 52.7931 53.2557C52.7931 53.43 52.8524 53.5781 52.971 53.6999ZM54.9398 52.5118H55.088V53.9996H54.9398V52.5118ZM56.6286 54.0251C56.4042 54.0251 56.2185 53.9507 56.0717 53.802C55.9249 53.6532 55.8515 53.4711 55.8515 53.2557C55.8515 53.0404 55.9249 52.8583 56.0717 52.7095C56.2185 52.5607 56.4042 52.4863 56.6286 52.4863C56.7656 52.4863 56.8912 52.5196 57.0056 52.5862C57.1199 52.6514 57.2082 52.74 57.2703 52.8519L57.139 52.9284C57.0924 52.8377 57.0232 52.7655 56.9315 52.7116C56.8397 52.6578 56.7388 52.6309 56.6286 52.6309C56.4437 52.6309 56.2926 52.6911 56.1755 52.8115C56.0583 52.932 55.9997 53.08 55.9997 53.2557C55.9997 53.4314 56.0583 53.5795 56.1755 53.6999C56.2926 53.8204 56.4437 53.8806 56.6286 53.8806C56.7388 53.8806 56.8397 53.8537 56.9315 53.7998C57.0232 53.746 57.0924 53.6737 57.139 53.583L57.2703 53.6574C57.2096 53.7694 57.1213 53.8586 57.0056 53.9252C56.8912 53.9918 56.7656 54.0251 56.6286 54.0251ZM58.1705 53.8593H58.8905V53.9996H58.0222V52.5118H58.8799V52.6521H58.1705V53.1792H58.827V53.3195H58.1705V53.8593ZM60.6063 53.9996V53.8657L61.14 53.3259C61.2924 53.1728 61.3687 53.0418 61.3687 52.9327C61.3687 52.8377 61.339 52.764 61.2797 52.7116C61.2219 52.6578 61.152 52.6309 61.0701 52.6309C60.9176 52.6309 60.8068 52.701 60.7376 52.8413L60.6127 52.7669C60.6593 52.6748 60.7228 52.6054 60.8033 52.5586C60.8837 52.5104 60.9727 52.4863 61.0701 52.4863C61.1887 52.4863 61.2924 52.5267 61.3814 52.6075C61.4717 52.6868 61.5169 52.7952 61.5169 52.9327C61.5169 53.0191 61.4929 53.102 61.4449 53.1813C61.3969 53.2607 61.3292 53.3443 61.2416 53.4321L60.8181 53.8551H61.5487V53.9996H60.6063ZM63.2019 53.8168C63.1045 53.9557 62.9668 54.0251 62.7889 54.0251C62.611 54.0251 62.4727 53.9557 62.3739 53.8168C62.2765 53.6766 62.2278 53.4895 62.2278 53.2557C62.2278 53.0219 62.2765 52.8356 62.3739 52.6967C62.4727 52.5565 62.611 52.4863 62.7889 52.4863C62.9668 52.4863 63.1045 52.5565 63.2019 52.6967C63.3007 52.8356 63.3501 53.0219 63.3501 53.2557C63.3501 53.4895 63.3007 53.6766 63.2019 53.8168ZM62.484 53.7169C62.5574 53.826 62.659 53.8806 62.7889 53.8806C62.9188 53.8806 63.0198 53.826 63.0918 53.7169C63.1652 53.6078 63.2019 53.4541 63.2019 53.2557C63.2019 53.0574 63.1652 52.9036 63.0918 52.7945C63.0198 52.6854 62.9188 52.6309 62.7889 52.6309C62.659 52.6309 62.5574 52.6854 62.484 52.7945C62.412 52.9036 62.376 53.0574 62.376 53.2557C62.376 53.4541 62.412 53.6078 62.484 53.7169ZM64.0279 53.9996V53.8657L64.5616 53.3259C64.7141 53.1728 64.7903 53.0418 64.7903 52.9327C64.7903 52.8377 64.7607 52.764 64.7014 52.7116C64.6435 52.6578 64.5736 52.6309 64.4917 52.6309C64.3392 52.6309 64.2284 52.701 64.1592 52.8413L64.0343 52.7669C64.0809 52.6748 64.1444 52.6054 64.2249 52.5586C64.3054 52.5104 64.3943 52.4863 64.4917 52.4863C64.6103 52.4863 64.7141 52.5267 64.803 52.6075C64.8934 52.6868 64.9385 52.7952 64.9385 52.9327C64.9385 53.0191 64.9145 53.102 64.8665 53.1813C64.8185 53.2607 64.7508 53.3443 64.6632 53.4321L64.2397 53.8551H64.9703V53.9996H64.0279ZM66.1724 53.1303C66.291 53.1459 66.3884 53.192 66.4647 53.2685C66.5423 53.3436 66.5811 53.4435 66.5811 53.5682C66.5811 53.7099 66.5324 53.8218 66.435 53.904C66.339 53.9847 66.2218 54.0251 66.0835 54.0251C65.9734 54.0251 65.8753 53.9996 65.7891 53.9486C65.703 53.8976 65.6423 53.8246 65.607 53.7297L65.7298 53.6574C65.7538 53.7311 65.7969 53.7871 65.859 53.8253C65.9211 53.8622 65.996 53.8806 66.0835 53.8806C66.1851 53.8806 66.2684 53.8537 66.3334 53.7998C66.3997 53.7446 66.4329 53.6674 66.4329 53.5682C66.4329 53.469 66.3997 53.3925 66.3334 53.3386C66.2684 53.2834 66.1851 53.2557 66.0835 53.2557V53.2536L66.0814 53.2557H66.0411L65.9776 53.158L66.3461 52.6521H65.6494V52.5118H66.5176V52.6521L66.1724 53.1303Z" fill="black"/>
<path d="M35.9022 53.4471V53.4294H35.8846V53.4471H35.9022ZM35.9022 53.9998V54.0175H35.9199V53.9998H35.9022ZM35.754 53.9998H35.7363V54.0175H35.754V53.9998ZM35.754 52.512V52.4943H35.7363V52.512H35.754ZM36.51 52.7458L36.4972 52.758L36.4975 52.7583L36.51 52.7458ZM35.9022 52.6522V52.6345H35.8846V52.6522H35.9022ZM35.9022 53.3069H35.8846V53.3246H35.9022V53.3069ZM36.2834 52.5297C36.4117 52.5297 36.518 52.5726 36.6034 52.6584L36.6283 52.6333C36.5359 52.5406 36.4205 52.4943 36.2834 52.4943V52.5297ZM36.6034 52.6584C36.6888 52.7441 36.7316 52.8508 36.7316 52.9796H36.7669C36.7669 52.842 36.7208 52.7261 36.6283 52.6333L36.6034 52.6584ZM36.7316 52.9796C36.7316 53.1083 36.6888 53.215 36.6034 53.3007L36.6283 53.3258C36.7208 53.233 36.7669 53.1172 36.7669 52.9796H36.7316ZM36.6034 53.3007C36.518 53.3865 36.4117 53.4294 36.2834 53.4294V53.4649C36.4205 53.4649 36.5359 53.4186 36.6283 53.3258L36.6034 53.3007ZM36.2834 53.4294H35.9022V53.4649H36.2834V53.4294ZM35.8846 53.4471V53.9998H35.9199V53.4471H35.8846ZM35.9022 53.982H35.754V54.0175H35.9022V53.982ZM35.7716 53.9998V52.512H35.7363V53.9998H35.7716ZM35.754 52.5297H36.2834V52.4943H35.754V52.5297ZM36.2834 53.3246C36.3795 53.3246 36.4597 53.2925 36.5226 53.2279L36.4974 53.2031C36.4417 53.2603 36.3708 53.2892 36.2834 53.2892V53.3246ZM36.5226 53.2279C36.5868 53.1619 36.6187 53.0787 36.6187 52.9796H36.5834C36.5834 53.0703 36.5545 53.1444 36.4974 53.2031L36.5226 53.2279ZM36.6187 52.9796C36.6187 52.8804 36.5868 52.7978 36.5225 52.7332L36.4975 52.7583C36.5545 52.8155 36.5834 52.8888 36.5834 52.9796H36.6187ZM36.5227 52.7335C36.4599 52.6674 36.3796 52.6345 36.2834 52.6345V52.67C36.3707 52.67 36.4415 52.6994 36.4972 52.758L36.5227 52.7335ZM36.2834 52.6345H35.9022V52.67H36.2834V52.6345ZM35.8846 52.6522V53.3069H35.9199V52.6522H35.8846ZM35.9022 53.3246H36.2834V53.2892H35.9022V53.3246ZM37.6595 53.8595H37.6419V53.8772H37.6595V53.8595ZM38.3372 53.8595H38.3548V53.8418H38.3372V53.8595ZM38.3372 53.9998V54.0175H38.3548V53.9998H38.3372ZM37.5113 53.9998H37.4937V54.0175H37.5113V53.9998ZM37.5113 52.512V52.4943H37.4937V52.512H37.5113ZM37.6595 52.512H37.6772V52.4943H37.6595V52.512ZM37.6595 53.8772H38.3372V53.8418H37.6595V53.8772ZM38.3195 53.8595V53.9998H38.3548V53.8595H38.3195ZM38.3372 53.982H37.5113V54.0175H38.3372V53.982ZM37.529 53.9998V52.512H37.4937V53.9998H37.529ZM37.5113 52.5297H37.6595V52.4943H37.5113V52.5297ZM37.6419 52.512V53.8595H37.6772V52.512H37.6419ZM40.0859 53.9998L40.0694 54.006L40.0737 54.0175H40.0859V53.9998ZM39.9482 53.6342L39.9648 53.6279L39.9604 53.6165H39.9482V53.6342ZM39.2452 53.6342V53.6165H39.233L39.2287 53.6279L39.2452 53.6342ZM39.1075 53.9998V54.0175H39.1197L39.124 54.006L39.1075 53.9998ZM38.9508 53.9998L38.9344 53.9934L38.9251 54.0175H38.9508V53.9998ZM39.5205 52.512V52.4943H39.5084L39.504 52.5056L39.5205 52.512ZM39.6729 52.512L39.6894 52.5056L39.6851 52.4943H39.6729V52.512ZM40.2426 53.9998V54.0175H40.2683L40.2591 53.9934L40.2426 53.9998ZM39.2981 53.4939L39.2816 53.4877L39.2726 53.5116H39.2981V53.4939ZM39.8953 53.4939V53.5116H39.9208L39.9118 53.4877L39.8953 53.4939ZM39.5967 52.6969L39.6132 52.6906L39.5967 52.6466L39.5802 52.6906L39.5967 52.6969ZM40.1024 53.9935L39.9648 53.6279L39.9317 53.6405L40.0694 54.006L40.1024 53.9935ZM39.9482 53.6165H39.2452V53.6519H39.9482V53.6165ZM39.2287 53.6279L39.091 53.9935L39.124 54.006L39.2617 53.6405L39.2287 53.6279ZM39.1075 53.982H38.9508V54.0175H39.1075V53.982ZM38.9673 54.0061L39.537 52.5183L39.504 52.5056L38.9344 53.9934L38.9673 54.0061ZM39.5205 52.5297H39.6729V52.4943H39.5205V52.5297ZM39.6565 52.5183L40.2261 54.0061L40.2591 53.9934L39.6894 52.5056L39.6565 52.5183ZM40.2426 53.982H40.0859V54.0175H40.2426V53.982ZM39.2981 53.5116H39.8953V53.4762H39.2981V53.5116ZM39.9118 53.4877L39.6132 52.6906L39.5802 52.7031L39.8788 53.5001L39.9118 53.4877ZM39.5802 52.6906L39.2816 53.4877L39.3146 53.5001L39.6132 52.7031L39.5802 52.6906ZM41.8204 52.512L41.8354 52.5212L41.8519 52.4943H41.8204V52.512ZM41.2846 53.3898L41.2695 53.3805L41.2669 53.3848V53.3898H41.2846ZM41.2846 53.9998V54.0175H41.3022V53.9998H41.2846ZM41.1363 53.9998H41.1187V54.0175H41.1363V53.9998ZM41.1363 53.3855H41.154V53.3805L41.1514 53.3762L41.1363 53.3855ZM40.6027 52.512V52.4943H40.5712L40.5876 52.5212L40.6027 52.512ZM40.77 52.512L40.7851 52.5028L40.7799 52.4943H40.77V52.512ZM41.2126 53.241L41.1975 53.2502L41.2126 53.2751L41.2277 53.2502L41.2126 53.241ZM41.6531 52.512V52.4943H41.6431L41.638 52.5028L41.6531 52.512ZM41.8053 52.5027L41.2695 53.3805L41.2996 53.399L41.8354 52.5212L41.8053 52.5027ZM41.2669 53.3898V53.9998H41.3022V53.3898H41.2669ZM41.2846 53.982H41.1363V54.0175H41.2846V53.982ZM41.154 53.9998V53.3855H41.1187V53.9998H41.154ZM41.1514 53.3762L40.6177 52.5027L40.5876 52.5212L41.1213 53.3948L41.1514 53.3762ZM40.6027 52.5297H40.77V52.4943H40.6027V52.5297ZM40.7549 52.5212L41.1975 53.2502L41.2277 53.2318L40.7851 52.5028L40.7549 52.5212ZM41.2277 53.2502L41.6681 52.5212L41.638 52.5028L41.1975 53.2318L41.2277 53.2502ZM41.6531 52.5297H41.8204V52.4943H41.6531V52.5297ZM42.6668 53.8595H42.6492V53.8772H42.6668V53.8595ZM43.3868 53.8595H43.4045V53.8418H43.3868V53.8595ZM43.3868 53.9998V54.0175H43.4045V53.9998H43.3868ZM42.5186 53.9998H42.501V54.0175H42.5186V53.9998ZM42.5186 52.512V52.4943H42.501V52.512H42.5186ZM43.3763 52.512H43.3939V52.4943H43.3763V52.512ZM43.3763 52.6522V52.67H43.3939V52.6522H43.3763ZM42.6668 52.6522V52.6345H42.6492V52.6522H42.6668ZM42.6668 53.1793H42.6492V53.1971H42.6668V53.1793ZM43.3233 53.1793H43.341V53.1616H43.3233V53.1793ZM43.3233 53.3196V53.3373H43.341V53.3196H43.3233ZM42.6668 53.3196V53.3019H42.6492V53.3196H42.6668ZM42.6668 53.8772H43.3868V53.8418H42.6668V53.8772ZM43.3692 53.8595V53.9998H43.4045V53.8595H43.3692ZM43.3868 53.982H42.5186V54.0175H43.3868V53.982ZM42.5362 53.9998V52.512H42.501V53.9998H42.5362ZM42.5186 52.5297H43.3763V52.4943H42.5186V52.5297ZM43.3586 52.512V52.6522H43.3939V52.512H43.3586ZM43.3763 52.6345H42.6668V52.67H43.3763V52.6345ZM42.6492 52.6522V53.1793H42.6845V52.6522H42.6492ZM42.6668 53.1971H43.3233V53.1616H42.6668V53.1971ZM43.3057 53.1793V53.3196H43.341V53.1793H43.3057ZM43.3233 53.3019H42.6668V53.3373H43.3233V53.3019ZM42.6492 53.3196V53.8595H42.6845V53.3196H42.6492ZM45.0604 53.9998L45.0452 54.0087L45.0503 54.0175H45.0604V53.9998ZM44.7131 53.4046L44.7283 53.3957L44.7232 53.3869H44.7131V53.4046ZM44.298 53.4046V53.3869H44.2804V53.4046H44.298ZM44.298 53.9998V54.0175H44.3157V53.9998H44.298ZM44.1498 53.9998H44.1321V54.0175H44.1498V53.9998ZM44.1498 52.512V52.4943H44.1321V52.512H44.1498ZM45.0561 52.6437L45.0436 52.6562L45.0438 52.6564L45.0561 52.6437ZM44.8677 53.3855L44.8628 53.3685L44.8409 53.3748L44.8525 53.3945L44.8677 53.3855ZM45.2298 53.9998V54.0175H45.2607L45.245 53.9907L45.2298 53.9998ZM44.298 52.6522V52.6345H44.2804V52.6522H44.298ZM44.298 53.2644H44.2804V53.2821H44.298V53.2644ZM44.9524 53.1751L44.965 53.1875L44.9652 53.1873L44.9524 53.1751ZM45.0756 53.9908L44.7283 53.3957L44.6979 53.4136L45.0452 54.0087L45.0756 53.9908ZM44.7131 53.3869H44.298V53.4224H44.7131V53.3869ZM44.2804 53.4046V53.9998H44.3157V53.4046H44.2804ZM44.298 53.982H44.1498V54.0175H44.298V53.982ZM44.1674 53.9998V52.512H44.1321V53.9998H44.1674ZM44.1498 52.5297H44.7427V52.4943H44.1498V52.5297ZM44.7427 52.5297C44.8608 52.5297 44.9608 52.5717 45.0436 52.6562L45.0687 52.6313C44.9793 52.5401 44.8703 52.4943 44.7427 52.4943V52.5297ZM45.0438 52.6564C45.1279 52.7395 45.1698 52.8398 45.1698 52.9583H45.2051C45.2051 52.8303 45.1594 52.7209 45.0685 52.6311L45.0438 52.6564ZM45.1698 52.9583C45.1698 53.055 45.1407 53.1412 45.0824 53.2174L45.1104 53.239C45.1735 53.1566 45.2051 53.0628 45.2051 52.9583H45.1698ZM45.0824 53.2174C45.0254 53.2924 44.9523 53.3426 44.8628 53.3685L44.8725 53.4025C44.9694 53.3745 45.0488 53.3199 45.1104 53.239L45.0824 53.2174ZM44.8525 53.3945L45.2146 54.0088L45.245 53.9907L44.8829 53.3765L44.8525 53.3945ZM45.2298 53.982H45.0604V54.0175H45.2298V53.982ZM44.2804 52.6522V53.2644H44.3157V52.6522H44.2804ZM44.298 53.2821H44.7427V53.2467H44.298V53.2821ZM44.7427 53.2821C44.8294 53.2821 44.9039 53.2504 44.965 53.1875L44.9397 53.1627C44.8851 53.2189 44.8198 53.2467 44.7427 53.2467V53.2821ZM44.9652 53.1873C45.0261 53.1231 45.0569 53.0465 45.0569 52.9583H45.0216C45.0216 53.0373 44.9944 53.1052 44.9396 53.1629L44.9652 53.1873ZM45.0569 52.9583C45.0569 52.8688 45.0262 52.792 44.965 52.7291L44.9397 52.7539C44.9943 52.81 45.0216 52.8778 45.0216 52.9583H45.0569ZM44.965 52.7291C44.9039 52.6663 44.8294 52.6345 44.7427 52.6345V52.67C44.8198 52.67 44.8851 52.6977 44.9397 52.7539L44.965 52.7291ZM44.7427 52.6345H44.298V52.67H44.7427V52.6345ZM46.0463 53.9296L46.0364 53.9443L46.0367 53.9445L46.0463 53.9296ZM45.8452 53.6618L45.8363 53.6465L45.8238 53.6538L45.8284 53.6675L45.8452 53.6618ZM45.9722 53.5874L45.9892 53.5825L45.9828 53.5607L45.9633 53.5721L45.9722 53.5874ZM46.1205 53.8042L46.1101 53.8185L46.1103 53.8187L46.1205 53.8042ZM46.0781 53.19L46.0875 53.175L46.0872 53.1748L46.0781 53.19ZM46.8532 52.8074L46.8618 52.8229L46.8758 52.815L46.8693 52.8003L46.8532 52.8074ZM46.7282 52.8775L46.7119 52.8843L46.7195 52.9027L46.7368 52.893L46.7282 52.8775ZM46.3852 53.1666L46.3909 53.1498L46.3906 53.1498L46.3852 53.1666ZM46.4995 53.207L46.4933 53.2236L46.4945 53.224L46.4995 53.207ZM46.6012 53.2452L46.5943 53.2616L46.595 53.2618L46.6012 53.2452ZM46.7007 53.292L46.6909 53.3067L46.6916 53.3072L46.7007 53.292ZM46.7769 53.3473L46.7658 53.361L46.7666 53.3616L46.7769 53.3473ZM46.8426 53.4174L46.8269 53.4257L46.8276 53.4268L46.8426 53.4174ZM46.8786 53.5024L46.8616 53.5074L46.8619 53.5082L46.8786 53.5024ZM46.3957 54.0076C46.2631 54.0076 46.1501 53.9764 46.056 53.9148L46.0367 53.9445C46.1374 54.0104 46.2574 54.043 46.3957 54.043V54.0076ZM46.0562 53.915C45.9635 53.852 45.8988 53.7659 45.8619 53.6561L45.8284 53.6675C45.8677 53.7844 45.9371 53.8769 46.0364 53.9443L46.0562 53.915ZM45.854 53.6771L45.9811 53.6027L45.9633 53.5721L45.8363 53.6465L45.854 53.6771ZM45.9553 53.5924C45.9831 53.688 46.0347 53.7636 46.1101 53.8185L46.1308 53.7899C46.0622 53.7399 46.015 53.6711 45.9892 53.5825L45.9553 53.5924ZM46.1103 53.8187C46.186 53.8723 46.2823 53.8984 46.3979 53.8984V53.863C46.2876 53.863 46.1989 53.8381 46.1306 53.7897L46.1103 53.8187ZM46.3979 53.8984C46.5103 53.8984 46.6002 53.8739 46.665 53.8224L46.6432 53.7946C46.5867 53.8394 46.5057 53.863 46.3979 53.863V53.8984ZM46.665 53.8224C46.7314 53.7693 46.7649 53.699 46.7649 53.6129H46.7296C46.7296 53.6884 46.701 53.7484 46.6432 53.7946L46.665 53.8224ZM46.7649 53.6129C46.7649 53.5301 46.7345 53.4655 46.6727 53.422L46.6525 53.451C46.7035 53.4869 46.7296 53.5399 46.7296 53.6129H46.7649ZM46.6727 53.422C46.614 53.3808 46.5188 53.339 46.3885 53.2964L46.3775 53.3301C46.507 53.3725 46.5982 53.4129 46.6525 53.451L46.6727 53.422ZM46.3885 53.2964C46.2344 53.2453 46.1348 53.2048 46.0875 53.175L46.0687 53.205C46.1202 53.2375 46.2239 53.2791 46.3775 53.3301L46.3885 53.2964ZM46.0872 53.1748C45.9794 53.1099 45.9263 53.0171 45.9263 52.8945H45.891C45.891 53.0299 45.9509 53.134 46.069 53.2052L46.0872 53.1748ZM45.9263 52.8945C45.9263 52.7731 45.9682 52.6792 46.0512 52.6107L46.0288 52.5833C45.9367 52.6593 45.891 52.7638 45.891 52.8945H45.9263ZM46.0512 52.6107C46.1351 52.54 46.2391 52.5042 46.364 52.5042V52.4688C46.2319 52.4688 46.1199 52.5066 46.0288 52.5833L46.0512 52.6107ZM46.364 52.5042C46.4765 52.5042 46.573 52.5337 46.6544 52.5923L46.675 52.5635C46.5869 52.5001 46.483 52.4688 46.364 52.4688V52.5042ZM46.6544 52.5923C46.7365 52.6499 46.7974 52.724 46.837 52.8145L46.8693 52.8003C46.8271 52.7037 46.7623 52.6248 46.675 52.5635L46.6544 52.5923ZM46.8446 52.7919L46.7196 52.8621L46.7368 52.893L46.8618 52.8229L46.8446 52.7919ZM46.7445 52.8708C46.7096 52.7861 46.6603 52.7214 46.5962 52.6779C46.5321 52.6345 46.4543 52.6133 46.364 52.6133V52.6487C46.4487 52.6487 46.5192 52.6686 46.5765 52.7073C46.6338 52.7461 46.6791 52.8047 46.7119 52.8843L46.7445 52.8708ZM46.364 52.6133C46.2693 52.6133 46.191 52.6367 46.1306 52.6852L46.1527 52.7128C46.2052 52.6706 46.2751 52.6487 46.364 52.6487V52.6133ZM46.1306 52.6852C46.0694 52.7343 46.0393 52.8027 46.0393 52.8882H46.0746C46.0746 52.8121 46.1009 52.7544 46.1527 52.7128L46.1306 52.6852ZM46.0393 52.8882C46.0393 52.9664 46.0666 53.0275 46.1228 53.0683L46.1435 53.0396C46.0981 53.0067 46.0746 52.9573 46.0746 52.8882H46.0393ZM46.1228 53.0683C46.176 53.1068 46.2621 53.1451 46.3797 53.1834L46.3906 53.1498C46.2738 53.1116 46.192 53.0748 46.1435 53.0396L46.1228 53.0683ZM46.3794 53.1834C46.4331 53.2018 46.471 53.2152 46.4933 53.2236L46.5057 53.1904C46.4829 53.1818 46.4445 53.1683 46.3909 53.1498L46.3794 53.1834ZM46.4945 53.224C46.5176 53.2308 46.5507 53.2432 46.5943 53.2616L46.608 53.2289C46.564 53.2104 46.5294 53.1974 46.5045 53.19L46.4945 53.224ZM46.595 53.2618C46.6398 53.2787 46.6714 53.2937 46.6909 53.3067L46.7105 53.2773C46.6876 53.2619 46.6529 53.2458 46.6074 53.2287L46.595 53.2618ZM46.6916 53.3072C46.7118 53.3193 46.7365 53.3372 46.7658 53.361L46.788 53.3335C46.758 53.3091 46.7319 53.2902 46.7098 53.2768L46.6916 53.3072ZM46.7666 53.3616C46.7963 53.3833 46.8159 53.4048 46.8269 53.4257L46.8582 53.4091C46.8438 53.3819 46.8197 53.3566 46.7873 53.3329L46.7666 53.3616ZM46.8276 53.4268C46.8407 53.4477 46.8521 53.4744 46.8616 53.5074L46.8955 53.4975C46.8853 53.4624 46.8728 53.4324 46.8575 53.408L46.8276 53.4268ZM46.8619 53.5082C46.8725 53.5388 46.8779 53.5722 46.8779 53.6087H46.9132C46.9132 53.5687 46.9073 53.5312 46.8953 53.4966L46.8619 53.5082ZM46.8779 53.6087C46.8779 53.7298 46.8341 53.826 46.7466 53.899L46.769 53.9263C46.8651 53.8463 46.9132 53.7397 46.9132 53.6087H46.8779ZM46.7466 53.899C46.6587 53.9709 46.5424 54.0076 46.3957 54.0076V54.043C46.5484 54.043 46.6734 54.0046 46.769 53.9263L46.7466 53.899ZM50.03 52.852L50.0389 52.8674L50.0539 52.8586L50.0454 52.8434L50.03 52.852ZM49.8987 52.9285L49.8831 52.9367L49.8916 52.9532L49.9076 52.9439L49.8987 52.9285ZM49.8987 53.5832L49.9074 53.5677L49.8915 53.5587L49.8831 53.5751L49.8987 53.5832ZM50.03 53.6576L50.0455 53.666L50.0538 53.6507L50.0387 53.6421L50.03 53.6576ZM49.3884 54.0076C49.1682 54.0076 48.9872 53.9348 48.844 53.7896L48.8189 53.8146C48.9693 53.967 49.1596 54.043 49.3884 54.043V54.0076ZM48.844 53.7896C48.7005 53.6443 48.6288 53.4667 48.6288 53.2559H48.5936C48.5936 53.4758 48.6687 53.6624 48.8189 53.8146L48.844 53.7896ZM48.6288 53.2559C48.6288 53.045 48.7005 52.8675 48.844 52.7221L48.8189 52.6972C48.6687 52.8494 48.5936 53.036 48.5936 53.2559H48.6288ZM48.844 52.7221C48.9872 52.577 49.1682 52.5042 49.3884 52.5042V52.4688C49.1596 52.4688 48.9693 52.5448 48.8189 52.6972L48.844 52.7221ZM49.3884 52.5042C49.5223 52.5042 49.6449 52.5367 49.7565 52.6017L49.7742 52.571C49.657 52.5028 49.5283 52.4688 49.3884 52.4688V52.5042ZM49.7565 52.6017C49.8681 52.6653 49.9541 52.7516 50.0146 52.8607L50.0454 52.8434C49.9817 52.7285 49.8913 52.6378 49.7742 52.571L49.7565 52.6017ZM50.0212 52.8367L49.8899 52.9132L49.9076 52.9439L50.0389 52.8674L50.0212 52.8367ZM49.9144 52.9204C49.8662 52.8266 49.7946 52.7519 49.7001 52.6965L49.6823 52.727C49.7713 52.7793 49.8381 52.8491 49.8831 52.9367L49.9144 52.9204ZM49.7001 52.6965C49.6055 52.641 49.5015 52.6133 49.3884 52.6133V52.6487C49.4955 52.6487 49.5933 52.6748 49.6823 52.727L49.7001 52.6965ZM49.3884 52.6133C49.1992 52.6133 49.0434 52.6751 48.9226 52.7993L48.9478 52.824C49.0613 52.7074 49.2077 52.6487 49.3884 52.6487V52.6133ZM48.9226 52.7993C48.802 52.9232 48.7418 53.0758 48.7418 53.2559H48.7771C48.7771 53.0846 48.834 52.941 48.9478 52.824L48.9226 52.7993ZM48.7418 53.2559C48.7418 53.436 48.802 53.5885 48.9226 53.7125L48.9478 53.6877C48.834 53.5707 48.7771 53.4272 48.7771 53.2559H48.7418ZM48.9226 53.7125C49.0434 53.8367 49.1992 53.8984 49.3884 53.8984V53.863C49.2077 53.863 49.0613 53.8044 48.9478 53.6877L48.9226 53.7125ZM49.3884 53.8984C49.5015 53.8984 49.6055 53.8707 49.7001 53.8153L49.6823 53.7847C49.5933 53.8369 49.4955 53.863 49.3884 53.863V53.8984ZM49.7001 53.8153C49.7946 53.7598 49.8662 53.6851 49.9144 53.5913L49.8831 53.5751C49.8381 53.6626 49.7713 53.7325 49.6823 53.7847L49.7001 53.8153ZM49.8901 53.5986L50.0214 53.673L50.0387 53.6421L49.9074 53.5677L49.8901 53.5986ZM50.0145 53.6491C49.9555 53.758 49.8696 53.845 49.7565 53.91L49.7741 53.9407C49.8925 53.8726 49.9832 53.781 50.0455 53.666L50.0145 53.6491ZM49.7565 53.91C49.645 53.975 49.5223 54.0076 49.3884 54.0076V54.043C49.5283 54.043 49.657 54.009 49.7741 53.9407L49.7565 53.91ZM51.735 52.512V52.4943H51.7174V52.512H51.735ZM51.8832 52.512H51.9009V52.4943H51.8832V52.512ZM51.8832 53.9998V54.0175H51.9009V53.9998H51.8832ZM51.735 53.9998H51.7174V54.0175H51.735V53.9998ZM51.735 53.3047H51.7527V53.287H51.735V53.3047ZM50.9303 53.3047V53.287H50.9126V53.3047H50.9303ZM50.9303 53.9998V54.0175H50.9479V53.9998H50.9303ZM50.7821 53.9998H50.7644V54.0175H50.7821V53.9998ZM50.7821 52.512V52.4943H50.7644V52.512H50.7821ZM50.9303 52.512H50.9479V52.4943H50.9303V52.512ZM50.9303 53.1645H50.9126V53.1822H50.9303V53.1645ZM51.735 53.1645V53.1822H51.7527V53.1645H51.735ZM51.735 52.5297H51.8832V52.4943H51.735V52.5297ZM51.8656 52.512V53.9998H51.9009V52.512H51.8656ZM51.8832 53.982H51.735V54.0175H51.8832V53.982ZM51.7527 53.9998V53.3047H51.7174V53.9998H51.7527ZM51.735 53.287H50.9303V53.3225H51.735V53.287ZM50.9126 53.3047V53.9998H50.9479V53.3047H50.9126ZM50.9303 53.982H50.7821V54.0175H50.9303V53.982ZM50.7997 53.9998V52.512H50.7644V53.9998H50.7997ZM50.7821 52.5297H50.9303V52.4943H50.7821V52.5297ZM50.9126 52.512V53.1645H50.9479V52.512H50.9126ZM50.9303 53.1822H51.735V53.1468H50.9303V53.1822ZM51.7527 53.1645V52.512H51.7174V53.1645H51.7527ZM53.9433 53.7896C53.7984 53.9349 53.6216 54.0076 53.4116 54.0076V54.043C53.6306 54.043 53.8166 53.9668 53.9682 53.8146L53.9433 53.7896ZM53.4116 54.0076C53.2015 54.0076 53.0246 53.9349 52.8798 53.7896L52.8548 53.8146C53.0064 53.9668 53.1924 54.043 53.4116 54.043V54.0076ZM52.8798 53.7896C52.7348 53.6427 52.6626 53.4652 52.6626 53.2559H52.6273C52.6273 53.4744 52.7032 53.661 52.8548 53.8146L52.8798 53.7896ZM52.6626 53.2559C52.6626 53.0465 52.7349 52.8697 52.8798 52.7243L52.8548 52.6992C52.7032 52.8514 52.6273 53.0373 52.6273 53.2559H52.6626ZM52.8798 52.7243C53.0246 52.5775 53.2016 52.5042 53.4116 52.5042V52.4688C53.1923 52.4688 53.0064 52.5456 52.8548 52.6992L52.8798 52.7243ZM53.4116 52.5042C53.6214 52.5042 53.7984 52.5774 53.9431 52.7242L53.9684 52.6993C53.8166 52.5457 53.6308 52.4688 53.4116 52.4688V52.5042ZM53.9431 52.7242C54.088 52.8696 54.1606 53.0465 54.1606 53.2559H54.1959C54.1959 53.0373 54.12 52.8514 53.9684 52.6993L53.9431 52.7242ZM54.1606 53.2559C54.1606 53.4652 54.0884 53.6427 53.9433 53.7896L53.9682 53.8146C54.1196 53.6611 54.1959 53.4744 54.1959 53.2559H54.1606ZM52.9584 53.7125C53.0805 53.8364 53.232 53.8984 53.4116 53.8984V53.863C53.241 53.863 53.0987 53.8046 52.9836 53.6876L52.9584 53.7125ZM53.4116 53.8984C53.5911 53.8984 53.7425 53.8365 53.8646 53.7125L53.8394 53.6876C53.7243 53.8046 53.5821 53.863 53.4116 53.863V53.8984ZM53.8646 53.7125C53.9866 53.5873 54.0476 53.4346 54.0476 53.2559H54.0123C54.0123 53.4256 53.9546 53.5692 53.8394 53.6876L53.8646 53.7125ZM54.0476 53.2559C54.0476 53.0771 53.9866 52.9252 53.8646 52.8013L53.8394 52.8262C53.9546 52.9432 54.0123 53.0861 54.0123 53.2559H54.0476ZM53.8646 52.8013C53.7427 52.6759 53.5913 52.6133 53.4116 52.6133V52.6487C53.5821 52.6487 53.7241 52.7078 53.8394 52.8262L53.8646 52.8013ZM53.4116 52.6133C53.232 52.6133 53.0805 52.676 52.9584 52.8014L52.9836 52.8262C53.0988 52.7079 53.2411 52.6487 53.4116 52.6487V52.6133ZM52.9584 52.8014C52.8365 52.9253 52.7755 53.0771 52.7755 53.2559H52.8108C52.8108 53.0861 52.8684 52.9432 52.9836 52.8262L52.9584 52.8014ZM52.7755 53.2559C52.7755 53.4346 52.8365 53.5872 52.9584 53.7125L52.9836 53.6876C52.8683 53.5692 52.8108 53.4256 52.8108 53.2559H52.7755ZM54.9399 52.512V52.4943H54.9222V52.512H54.9399ZM55.0881 52.512H55.1057V52.4943H55.0881V52.512ZM55.0881 53.9998V54.0175H55.1057V53.9998H55.0881ZM54.9399 53.9998H54.9222V54.0175H54.9399V53.9998ZM54.9399 52.5297H55.0881V52.4943H54.9399V52.5297ZM55.0705 52.512V53.9998H55.1057V52.512H55.0705ZM55.0881 53.982H54.9399V54.0175H55.0881V53.982ZM54.9575 53.9998V52.512H54.9222V53.9998H54.9575ZM57.2704 52.852L57.2792 52.8674L57.2942 52.8586L57.2857 52.8434L57.2704 52.852ZM57.1391 52.9285L57.1234 52.9367L57.1318 52.9532L57.1479 52.9439L57.1391 52.9285ZM57.1391 53.5832L57.1477 53.5677L57.1316 53.5587L57.1234 53.5751L57.1391 53.5832ZM57.2704 53.6576L57.2859 53.666L57.2942 53.6507L57.279 53.6421L57.2704 53.6576ZM56.6287 54.0076C56.4085 54.0076 56.2274 53.9348 56.0843 53.7896L56.0592 53.8146C56.2096 53.967 56.3998 54.043 56.6287 54.043V54.0076ZM56.0843 53.7896C55.9408 53.6443 55.8692 53.4667 55.8692 53.2559H55.8339C55.8339 53.4758 55.909 53.6624 56.0592 53.8146L56.0843 53.7896ZM55.8692 53.2559C55.8692 53.045 55.9408 52.8675 56.0843 52.7221L56.0592 52.6972C55.909 52.8494 55.8339 53.036 55.8339 53.2559H55.8692ZM56.0843 52.7221C56.2274 52.577 56.4085 52.5042 56.6287 52.5042V52.4688C56.3998 52.4688 56.2096 52.5448 56.0592 52.6972L56.0843 52.7221ZM56.6287 52.5042C56.7626 52.5042 56.8851 52.5367 56.9966 52.6017L57.0145 52.571C56.8973 52.5028 56.7686 52.4688 56.6287 52.4688V52.5042ZM56.9966 52.6017C57.1084 52.6653 57.1945 52.7516 57.2548 52.8607L57.2857 52.8434C57.222 52.7285 57.1315 52.6378 57.0145 52.571L56.9966 52.6017ZM57.2614 52.8367L57.1301 52.9132L57.1479 52.9439L57.2792 52.8674L57.2614 52.8367ZM57.1548 52.9204C57.1064 52.8266 57.0349 52.7519 56.9404 52.6965L56.9225 52.727C57.0116 52.7793 57.0784 52.8491 57.1234 52.9367L57.1548 52.9204ZM56.9404 52.6965C56.8458 52.641 56.7418 52.6133 56.6287 52.6133V52.6487C56.7358 52.6487 56.8336 52.6748 56.9225 52.727L56.9404 52.6965ZM56.6287 52.6133C56.4395 52.6133 56.2837 52.6751 56.1628 52.7993L56.1881 52.824C56.3015 52.7074 56.448 52.6487 56.6287 52.6487V52.6133ZM56.1628 52.7993C56.0423 52.9232 55.9821 53.0758 55.9821 53.2559H56.0174C56.0174 53.0846 56.0742 52.941 56.1881 52.824L56.1628 52.7993ZM55.9821 53.2559C55.9821 53.436 56.0423 53.5885 56.1628 53.7125L56.1881 53.6877C56.0742 53.5707 56.0174 53.4272 56.0174 53.2559H55.9821ZM56.1628 53.7125C56.2837 53.8367 56.4395 53.8984 56.6287 53.8984V53.863C56.448 53.863 56.3015 53.8044 56.1881 53.6877L56.1628 53.7125ZM56.6287 53.8984C56.7418 53.8984 56.8458 53.8707 56.9404 53.8153L56.9225 53.7847C56.8336 53.8369 56.7358 53.863 56.6287 53.863V53.8984ZM56.9404 53.8153C57.0349 53.7598 57.1064 53.6851 57.1548 53.5913L57.1234 53.5751C57.0784 53.6626 57.0116 53.7325 56.9225 53.7847L56.9404 53.8153ZM57.1304 53.5986L57.2617 53.673L57.279 53.6421L57.1477 53.5677L57.1304 53.5986ZM57.2548 53.6491C57.1957 53.758 57.1099 53.845 56.9968 53.91L57.0143 53.9407C57.1329 53.8726 57.2234 53.781 57.2859 53.666L57.2548 53.6491ZM56.9968 53.91C56.8853 53.975 56.7626 54.0076 56.6287 54.0076V54.043C56.7686 54.043 56.8971 54.009 57.0143 53.9407L56.9968 53.91ZM58.1705 53.8595H58.1529V53.8772H58.1705V53.8595ZM58.8905 53.8595H58.9082V53.8418H58.8905V53.8595ZM58.8905 53.9998V54.0175H58.9082V53.9998H58.8905ZM58.0223 53.9998H58.0047V54.0175H58.0223V53.9998ZM58.0223 52.512V52.4943H58.0047V52.512H58.0223ZM58.88 52.512H58.8976V52.4943H58.88V52.512ZM58.88 52.6522V52.67H58.8976V52.6522H58.88ZM58.1705 52.6522V52.6345H58.1529V52.6522H58.1705ZM58.1705 53.1793H58.1529V53.1971H58.1705V53.1793ZM58.827 53.1793H58.8447V53.1616H58.827V53.1793ZM58.827 53.3196V53.3373H58.8447V53.3196H58.827ZM58.1705 53.3196V53.3019H58.1529V53.3196H58.1705ZM58.1705 53.8772H58.8905V53.8418H58.1705V53.8772ZM58.8729 53.8595V53.9998H58.9082V53.8595H58.8729ZM58.8905 53.982H58.0223V54.0175H58.8905V53.982ZM58.04 53.9998V52.512H58.0047V53.9998H58.04ZM58.0223 52.5297H58.88V52.4943H58.0223V52.5297ZM58.8623 52.512V52.6522H58.8976V52.512H58.8623ZM58.88 52.6345H58.1705V52.67H58.88V52.6345ZM58.1529 52.6522V53.1793H58.1882V52.6522H58.1529ZM58.1705 53.1971H58.827V53.1616H58.1705V53.1971ZM58.8094 53.1793V53.3196H58.8447V53.1793H58.8094ZM58.827 53.3019H58.1705V53.3373H58.827V53.3019ZM58.1529 53.3196V53.8595H58.1882V53.3196H58.1529ZM60.6064 53.9998H60.5887V54.0175H60.6064V53.9998ZM60.6064 53.8659L60.5939 53.8534L60.5887 53.8586V53.8659H60.6064ZM61.2798 52.7118L61.2678 52.7248L61.2682 52.725L61.2798 52.7118ZM60.7377 52.8414L60.7287 52.8566L60.7451 52.8664L60.7536 52.8493L60.7377 52.8414ZM60.6127 52.767L60.597 52.759L60.5896 52.7738L60.6037 52.7822L60.6127 52.767ZM60.8033 52.5587L60.8122 52.574L60.8125 52.5739L60.8033 52.5587ZM61.3815 52.6076L61.3696 52.6208L61.37 52.6209L61.3815 52.6076ZM60.8182 53.8552L60.8058 53.8427L60.7754 53.8729H60.8182V53.8552ZM61.5487 53.8552H61.5664V53.8375H61.5487V53.8552ZM61.5487 53.9998V54.0175H61.5664V53.9998H61.5487ZM60.624 53.9998V53.8659H60.5887V53.9998H60.624ZM60.6189 53.8783L61.1526 53.3385L61.1277 53.3135L60.5939 53.8534L60.6189 53.8783ZM61.1526 53.3385C61.3056 53.185 61.3864 53.0495 61.3864 52.9328H61.3511C61.3511 53.0343 61.2796 53.1609 61.1277 53.3135L61.1526 53.3385ZM61.3864 52.9328C61.3864 52.8339 61.3553 52.7549 61.2915 52.6985L61.2682 52.725C61.3229 52.7734 61.3511 52.8418 61.3511 52.9328H61.3864ZM61.2918 52.6988C61.2306 52.6418 61.1565 52.6133 61.0702 52.6133V52.6487C61.1478 52.6487 61.2135 52.6741 61.2678 52.7248L61.2918 52.6988ZM61.0702 52.6133C60.9913 52.6133 60.9219 52.6315 60.8633 52.6686C60.8047 52.7057 60.7576 52.761 60.722 52.8335L60.7536 52.8493C60.7869 52.7815 60.83 52.7316 60.8822 52.6986C60.9343 52.6656 60.9967 52.6487 61.0702 52.6487V52.6133ZM60.7467 52.8262L60.6217 52.7518L60.6037 52.7822L60.7287 52.8566L60.7467 52.8262ZM60.6286 52.775C60.6738 52.6856 60.735 52.6189 60.8122 52.574L60.7945 52.5434C60.7109 52.5921 60.645 52.6642 60.597 52.759L60.6286 52.775ZM60.8125 52.5739C60.89 52.5275 60.9759 52.5042 61.0702 52.5042V52.4688C60.9697 52.4688 60.8778 52.4935 60.7945 52.5434L60.8125 52.5739ZM61.0702 52.5042C61.1843 52.5042 61.2839 52.5429 61.3696 52.6208L61.3933 52.5945C61.3012 52.5108 61.1932 52.4688 61.0702 52.4688V52.5042ZM61.37 52.6209C61.4559 52.6964 61.4993 52.7997 61.4993 52.9328H61.5346C61.5346 52.7911 61.4879 52.6775 61.3931 52.5943L61.37 52.6209ZM61.4993 52.9328C61.4993 53.0157 61.4764 53.0955 61.43 53.1723L61.4602 53.1907C61.5098 53.1088 61.5346 53.0227 61.5346 52.9328H61.4993ZM61.43 53.1723C61.3829 53.2501 61.3162 53.3326 61.2293 53.4198L61.2542 53.4448C61.3425 53.3563 61.4113 53.2716 61.4602 53.1907L61.43 53.1723ZM61.2293 53.4198L60.8058 53.8427L60.8307 53.8678L61.2542 53.4448L61.2293 53.4198ZM60.8182 53.8729H61.5487V53.8375H60.8182V53.8729ZM61.5311 53.8552V53.9998H61.5664V53.8552H61.5311ZM61.5487 53.982H60.6064V54.0175H61.5487V53.982ZM62.3739 53.817L62.3595 53.8271L62.3596 53.8273L62.3739 53.817ZM63.1875 53.8068C63.0936 53.9406 62.9614 54.0076 62.789 54.0076V54.043C62.9722 54.043 63.1155 53.971 63.2164 53.8272L63.1875 53.8068ZM62.789 54.0076C62.6164 54.0076 62.4835 53.9406 62.3882 53.8067L62.3596 53.8273C62.4618 53.971 62.6056 54.043 62.789 54.043V54.0076ZM62.3884 53.8068C62.2936 53.6704 62.2455 53.4873 62.2455 53.2559H62.2102C62.2102 53.492 62.2594 53.6829 62.3595 53.8271L62.3884 53.8068ZM62.2455 53.2559C62.2455 53.0244 62.2936 52.842 62.3884 52.7071L62.3595 52.6867C62.2594 52.8295 62.2102 53.0198 62.2102 53.2559H62.2455ZM62.3884 52.7071C62.4837 52.5717 62.6166 52.5042 62.789 52.5042V52.4688C62.6056 52.4688 62.4618 52.5415 62.3595 52.6867L62.3884 52.7071ZM62.789 52.5042C62.9614 52.5042 63.0934 52.5717 63.1875 52.707L63.2164 52.6867C63.1155 52.5415 62.9724 52.4688 62.789 52.4688V52.5042ZM63.1875 52.707C63.2836 52.8419 63.3325 53.0244 63.3325 53.2559H63.3678C63.3678 53.0197 63.3179 52.8294 63.2162 52.6866L63.1875 52.707ZM63.3325 53.2559C63.3325 53.4873 63.2836 53.6704 63.1875 53.8068L63.2164 53.8272C63.3179 53.683 63.3678 53.492 63.3678 53.2559H63.3325ZM62.4694 53.7269C62.546 53.8408 62.6531 53.8984 62.789 53.8984V53.863C62.6649 53.863 62.5688 53.8114 62.4987 53.7072L62.4694 53.7269ZM62.789 53.8984C62.9249 53.8984 63.0313 53.8409 63.1065 53.7269L63.0772 53.7072C63.0084 53.8113 62.9129 53.863 62.789 53.863V53.8984ZM63.1065 53.7269C63.1825 53.6137 63.2196 53.4561 63.2196 53.2559H63.1843C63.1843 53.4524 63.1479 53.6021 63.0772 53.7072L63.1065 53.7269ZM63.2196 53.2559C63.2196 53.0556 63.1825 52.8979 63.1065 52.7847L63.0772 52.8044C63.1479 52.9095 63.1843 53.0594 63.1843 53.2559H63.2196ZM63.1065 52.7847C63.0313 52.6707 62.9249 52.6133 62.789 52.6133V52.6487C62.9129 52.6487 63.0084 52.7003 63.0772 52.8044L63.1065 52.7847ZM62.789 52.6133C62.6531 52.6133 62.546 52.6708 62.4694 52.7847L62.4987 52.8046C62.5688 52.7003 62.6649 52.6487 62.789 52.6487V52.6133ZM62.4694 52.7847C62.3946 52.8979 62.3584 53.0557 62.3584 53.2559H62.3937C62.3937 53.0593 62.4293 52.9096 62.4987 52.8046L62.4694 52.7847ZM62.3584 53.2559C62.3584 53.456 62.3946 53.6137 62.4694 53.7269L62.4987 53.7072C62.4293 53.6021 62.3937 53.4524 62.3937 53.2559H62.3584ZM64.028 53.9998H64.0104V54.0175H64.028V53.9998ZM64.028 53.8659L64.0155 53.8534L64.0104 53.8586V53.8659H64.028ZM64.7014 52.7118L64.6894 52.7248L64.6898 52.725L64.7014 52.7118ZM64.1593 52.8414L64.1503 52.8566L64.1667 52.8664L64.1752 52.8493L64.1593 52.8414ZM64.0344 52.767L64.0187 52.759L64.0112 52.7738L64.0254 52.7822L64.0344 52.767ZM64.225 52.5587L64.2338 52.574L64.2341 52.5739L64.225 52.5587ZM64.8031 52.6076L64.7913 52.6208L64.7914 52.6209L64.8031 52.6076ZM64.2398 53.8552L64.2274 53.8427L64.1971 53.8729H64.2398V53.8552ZM64.9704 53.8552H64.988V53.8375H64.9704V53.8552ZM64.9704 53.9998V54.0175H64.988V53.9998H64.9704ZM64.0457 53.9998V53.8659H64.0104V53.9998H64.0457ZM64.0405 53.8783L64.5742 53.3385L64.5493 53.3135L64.0155 53.8534L64.0405 53.8783ZM64.5742 53.3385C64.7272 53.185 64.808 53.0495 64.808 52.9328H64.7727C64.7727 53.0343 64.7013 53.1609 64.5493 53.3135L64.5742 53.3385ZM64.808 52.9328C64.808 52.8339 64.777 52.7549 64.7131 52.6985L64.6898 52.725C64.7445 52.7734 64.7727 52.8418 64.7727 52.9328H64.808ZM64.7134 52.6988C64.6522 52.6418 64.5779 52.6133 64.4918 52.6133V52.6487C64.5694 52.6487 64.6351 52.6741 64.6894 52.7248L64.7134 52.6988ZM64.4918 52.6133C64.4129 52.6133 64.3435 52.6315 64.285 52.6686C64.2264 52.7057 64.1792 52.761 64.1436 52.8335L64.1752 52.8493C64.2085 52.7815 64.2516 52.7316 64.3038 52.6986C64.3559 52.6656 64.4184 52.6487 64.4918 52.6487V52.6133ZM64.1683 52.8262L64.0434 52.7518L64.0254 52.7822L64.1503 52.8566L64.1683 52.8262ZM64.0501 52.775C64.0954 52.6856 64.1567 52.6189 64.2338 52.574L64.2161 52.5434C64.1325 52.5921 64.0667 52.6642 64.0187 52.759L64.0501 52.775ZM64.2341 52.5739C64.3116 52.5275 64.3975 52.5042 64.4918 52.5042V52.4688C64.3914 52.4688 64.2994 52.4935 64.2161 52.5434L64.2341 52.5739ZM64.4918 52.5042C64.606 52.5042 64.7055 52.5429 64.7913 52.6208L64.8149 52.5945C64.7228 52.5108 64.6148 52.4688 64.4918 52.4688V52.5042ZM64.7914 52.6209C64.8775 52.6964 64.921 52.7997 64.921 52.9328H64.9563C64.9563 52.7911 64.9095 52.6775 64.8147 52.5943L64.7914 52.6209ZM64.921 52.9328C64.921 53.0157 64.898 53.0955 64.8516 53.1723L64.8818 53.1907C64.9314 53.1088 64.9563 53.0227 64.9563 52.9328H64.921ZM64.8516 53.1723C64.8045 53.2501 64.7378 53.3326 64.651 53.4198L64.6758 53.4448C64.7641 53.3563 64.8327 53.2716 64.8818 53.1907L64.8516 53.1723ZM64.651 53.4198L64.2274 53.8427L64.2523 53.8678L64.6758 53.4448L64.651 53.4198ZM64.2398 53.8729H64.9704V53.8375H64.2398V53.8729ZM64.9527 53.8552V53.9998H64.988V53.8552H64.9527ZM64.9704 53.982H64.028V54.0175H64.9704V53.982ZM66.1725 53.1305L66.1582 53.1201L66.1407 53.1442L66.1702 53.148L66.1725 53.1305ZM66.4647 53.2686L66.4522 53.2811L66.4524 53.2814L66.4647 53.2686ZM65.6071 53.7298L65.5981 53.7145L65.5854 53.7221L65.5905 53.736L65.6071 53.7298ZM65.7299 53.6576L65.7467 53.6521L65.7398 53.6312L65.7209 53.6423L65.7299 53.6576ZM65.8591 53.8255L65.8497 53.8406L65.8501 53.8407L65.8591 53.8255ZM66.3334 53.3388L66.322 53.3523L66.3223 53.3525L66.3334 53.3388ZM66.0836 53.2559H66.0659V53.2736H66.0836V53.2559ZM66.0836 53.2537H66.1012V53.211L66.071 53.2412L66.0836 53.2537ZM66.0814 53.2559V53.2736H66.0887L66.0938 53.2684L66.0814 53.2559ZM66.0412 53.2559L66.0264 53.2655L66.0317 53.2736H66.0412V53.2559ZM65.9777 53.1581L65.9634 53.1476L65.9561 53.1575L65.9629 53.1678L65.9777 53.1581ZM66.3461 52.6522L66.3604 52.6627L66.3809 52.6345H66.3461V52.6522ZM65.6494 52.6522H65.6318V52.67H65.6494V52.6522ZM65.6494 52.512V52.4943H65.6318V52.512H65.6494ZM66.5177 52.512H66.5353V52.4943H66.5177V52.512ZM66.5177 52.6522L66.532 52.6626L66.5353 52.658V52.6522H66.5177ZM66.1702 53.148C66.2853 53.1632 66.379 53.2077 66.4522 53.2811L66.4771 53.2561C66.3979 53.1765 66.2967 53.1289 66.1748 53.1129L66.1702 53.148ZM66.4524 53.2814C66.5261 53.3526 66.5636 53.4476 66.5636 53.5683H66.5989C66.5989 53.4396 66.5586 53.3348 66.4769 53.2559L66.4524 53.2814ZM66.5636 53.5683C66.5636 53.7054 66.5166 53.8121 66.4236 53.8906L66.4464 53.9177C66.5482 53.8317 66.5989 53.7146 66.5989 53.5683H66.5636ZM66.4236 53.8906C66.331 53.9684 66.2182 54.0076 66.0836 54.0076V54.043C66.2256 54.043 66.3469 54.0014 66.4464 53.9177L66.4236 53.8906ZM66.0836 54.0076C65.9763 54.0076 65.8813 53.9827 65.7982 53.9335L65.7802 53.964C65.8693 54.0168 65.9706 54.043 66.0836 54.043V54.0076ZM65.7982 53.9335C65.7156 53.8846 65.6576 53.8148 65.6235 53.7236L65.5905 53.736C65.6272 53.8347 65.6906 53.9109 65.7802 53.964L65.7982 53.9335ZM65.6159 53.7451L65.7387 53.6729L65.7209 53.6423L65.5981 53.7145L65.6159 53.7451ZM65.7131 53.6631C65.7384 53.7405 65.7839 53.8 65.8497 53.8406L65.8683 53.8104C65.81 53.7745 65.7694 53.722 65.7467 53.6521L65.7131 53.6631ZM65.8501 53.8407C65.9154 53.8795 65.9936 53.8984 66.0836 53.8984V53.863C65.9985 53.863 65.9269 53.8451 65.8681 53.8102L65.8501 53.8407ZM66.0836 53.8984C66.1884 53.8984 66.2759 53.8706 66.3446 53.8136L66.3221 53.7863C66.2611 53.837 66.182 53.863 66.0836 53.863V53.8984ZM66.3446 53.8136C66.4155 53.7545 66.4506 53.6719 66.4506 53.5683H66.4153C66.4153 53.6631 66.3839 53.7349 66.3221 53.7863L66.3446 53.8136ZM66.4506 53.5683C66.4506 53.4647 66.4157 53.3827 66.3446 53.325L66.3223 53.3525C66.3839 53.4024 66.4153 53.4735 66.4153 53.5683H66.4506ZM66.3447 53.3252C66.2761 53.2668 66.1886 53.2382 66.0836 53.2382V53.2736C66.1819 53.2736 66.2609 53.3002 66.322 53.3523L66.3447 53.3252ZM66.1012 53.2559V53.2537H66.0659V53.2559H66.1012ZM66.071 53.2412L66.0689 53.2433L66.0938 53.2684L66.0959 53.2663L66.071 53.2412ZM66.0814 53.2382H66.0412V53.2736H66.0814V53.2382ZM66.056 53.2462L65.9925 53.1484L65.9629 53.1678L66.0264 53.2655L66.056 53.2462ZM65.992 53.1685L66.3604 52.6627L66.3319 52.6418L65.9634 53.1476L65.992 53.1685ZM66.3461 52.6345H65.6494V52.67H66.3461V52.6345ZM65.6671 52.6522V52.512H65.6318V52.6522H65.6671ZM65.6494 52.5297H66.5177V52.4943H65.6494V52.5297ZM66.5 52.512V52.6522H66.5353V52.512H66.5ZM66.5034 52.6418L66.1582 53.1201L66.1868 53.1409L66.532 52.6626L66.5034 52.6418Z" fill="black"/>
</g>
<path d="M80.1731 4.12898C81.8515 5.29654 84.1238 6.48394 86.228 6.07586C85.6844 3.7124 82.8517 2.54767 80.6887 2.47965C79.9182 2.45698 79.142 2.54483 78.3967 2.74887C78.9655 3.2363 79.5595 3.69823 80.1731 4.12615V4.12898ZM91.9326 6.51795C92.0811 8.94376 92.5631 11.6445 94.2834 13.461C96.0934 11.3582 95.2304 8.3033 93.8575 6.20339C93.328 5.4014 92.6835 4.67309 91.9607 4.04396C91.8934 4.86579 91.8878 5.69329 91.9298 6.51795H91.9326ZM96.6706 12.1716C96.1046 14.5067 95.8244 17.5163 96.9564 19.7267C99.4389 18.1312 99.3352 15.0508 98.6656 12.489C98.377 11.5368 97.9567 10.6243 97.4271 9.78543C97.1161 10.5591 96.8667 11.3611 96.6706 12.1716ZM99.7919 19.0126C98.4918 21.3562 97.584 23.6233 97.797 26.3552C97.797 26.3552 97.8362 26.6499 97.8418 26.6839C98.1864 26.6131 98.447 26.5196 98.758 26.3552C100.997 25.0006 101.591 22.4756 101.658 20.0016C101.652 18.9559 101.504 17.9102 101.221 16.9042C100.689 17.5645 100.215 18.2758 99.7891 19.0126H99.7919ZM100.98 26.7236C99.1615 28.4551 97.1413 31.0113 96.7883 33.5901C99.9068 33.8055 101.602 30.9773 102.496 28.3559C102.807 27.3726 102.978 26.1738 103 25.0714C102.291 25.5617 101.624 26.1086 100.98 26.7236ZM100.019 34.5026C97.7325 35.5795 95.0623 37.3904 93.9668 39.7822C96.8948 40.9611 99.3576 38.813 101.008 36.56C101.627 35.6418 102.109 34.633 102.457 33.5816C101.622 33.8168 100.803 34.1371 100.019 34.5055V34.5026ZM97.0601 41.6015C94.3591 41.9926 91.5404 42.8768 89.6323 44.9427C91.616 46.6033 93.9528 45.9912 96.0402 44.8803C97.4355 44.101 98.772 42.7691 99.6826 41.4655C98.8085 41.4315 97.9259 41.4853 97.0573 41.6044L97.0601 41.6015ZM85.875 2.35213C86.6651 4.46905 88.0128 7.10173 90.0778 8.20128C91.1537 5.55159 89.4782 3.17679 87.5673 1.47929C86.836 0.878506 86.0207 0.382575 85.1605 0C85.3482 0.799157 85.592 1.58415 85.8778 2.35213H85.875ZM92.3277 47.6434C89.6743 47.2183 86.3849 47.3203 84.0229 48.7599C85.8413 51.54 89.2652 51.0639 91.9578 50.0607C93.0198 49.6158 94.0172 49.0121 94.9194 48.2895C94.0817 47.9891 93.2075 47.7822 92.3277 47.6405V47.6434ZM87.4944 11.2165C88.8309 11.0777 89.8732 11.2279 91.0668 11.8683C92.0391 12.455 92.6751 13.1294 93.0366 14.229C90.4308 14.9233 87.4188 13.5205 85.4182 11.823C86.0767 11.5169 86.7744 11.3101 87.4944 11.2165ZM90.7811 15.7338C93.0562 15.9888 95.4294 17.624 95.5471 20.1206C92.9693 20.2538 90.0946 17.8932 88.5872 15.8358C89.3101 15.6941 90.0498 15.6544 90.7811 15.7338ZM92.7452 20.9566C95.0735 21.9542 96.5894 23.6913 96.424 26.3552C96.4269 26.3722 96.382 26.6272 96.3736 26.6641C93.8127 26.103 91.5376 22.8922 90.5457 20.506C91.2966 20.5457 92.0391 20.6902 92.7452 20.9566ZM93.2355 26.6216C95.3033 28.2737 96.4633 30.5522 95.3761 33.1594C92.9161 31.972 91.5684 28.2624 91.1761 25.5759C91.927 25.8281 92.5771 26.1426 93.2355 26.6216ZM92.182 32.1222C93.7819 33.9784 94.4431 36.9624 92.7228 38.9773C90.627 37.2402 90.1394 33.2472 90.4 30.606C91.064 31.0226 91.6693 31.5299 92.182 32.125V32.1222ZM89.7696 36.9398C90.3412 38.1045 90.5821 39.0794 90.4953 40.3801C90.3244 41.8396 89.8172 42.9249 88.6432 43.8233C87.0433 41.4287 87.4412 37.6681 88.3714 35.0042C88.9234 35.5795 89.4025 36.2256 89.7696 36.9398ZM83.0563 7.69118C85.0876 6.92886 87.8923 7.21792 89.0803 9.27249C86.8472 10.6016 83.4289 9.86477 81.1902 8.75106C81.7562 8.30614 82.3838 7.94623 83.0563 7.69401V7.69118ZM86.2308 40.8619C86.8388 43.4067 85.9702 46.4191 83.3701 47.4082C82.3222 44.8633 83.8576 40.8534 85.3146 38.5948C85.7209 39.3032 86.0403 40.0627 86.2308 40.859V40.8619Z" fill="#E2A917"/>
<path d="M22.8241 4.12898C21.1458 5.29654 18.8735 6.48394 16.7693 6.07586C17.3128 3.7124 20.1455 2.54767 22.3086 2.47965C23.0791 2.45698 23.8552 2.54483 24.6005 2.74887C24.0318 3.2363 23.4378 3.69823 22.8241 4.12615V4.12898ZM11.0646 6.51795C10.9161 8.94376 10.4342 11.6445 8.71386 13.461C6.90384 11.3582 7.76682 8.3033 9.13974 6.20339C9.6693 5.4014 10.3137 4.67309 11.0366 4.04396C11.1039 4.86579 11.1095 5.69329 11.0674 6.51795H11.0646ZM6.32665 12.1716C6.89263 14.5067 7.17282 17.5163 6.04086 19.7267C3.55839 18.1312 3.66206 15.0508 4.33171 12.489C4.62031 11.5368 5.04059 10.6243 5.57014 9.78543C5.88115 10.5591 6.13052 11.3611 6.32665 12.1716ZM3.20816 19.0126C4.50823 21.3562 5.41604 23.6233 5.2031 26.3552C5.2031 26.3552 5.16387 26.6499 5.15827 26.6839C4.81364 26.6131 4.55306 26.5196 4.24205 26.3552C2.00335 25.0006 1.40935 22.4756 1.3421 20.0016C1.34771 18.9559 1.49621 17.9102 1.7792 16.9042C2.31155 17.5645 2.78507 18.2758 3.21096 19.0126H3.20816ZM2.02016 26.7236C3.83858 28.4551 5.85874 31.0113 6.21178 33.5901C3.09328 33.8055 1.39814 30.9773 0.504339 28.3559C0.19333 27.3726 0.0224151 26.1738 0 25.0714C0.708877 25.5617 1.37573 26.1086 2.02016 26.7236ZM2.9784 34.5026C5.26474 35.5795 7.93493 37.3904 9.03047 39.7822C6.1025 40.9611 3.63965 38.813 1.98934 36.56C1.37012 35.6418 0.888197 34.633 0.540764 33.5816C1.37572 33.8168 2.19388 34.1371 2.9784 34.5055V34.5026ZM5.93999 41.6015C8.64101 41.9926 11.4597 42.8768 13.3678 44.9427C11.3841 46.6033 9.04728 45.9912 6.95988 44.8803C5.56454 44.101 4.22804 42.7691 3.31743 41.4655C4.19162 41.4315 5.07421 41.4853 5.9428 41.6044L5.93999 41.6015ZM17.1251 2.35213C16.335 4.46905 14.9873 7.10173 12.9223 8.20128C11.8464 5.55159 13.5219 3.17679 15.4328 1.47929C16.1641 0.878506 16.9794 0.382575 17.8396 0C17.6519 0.799157 17.4081 1.58415 17.1223 2.35213H17.1251ZM10.6724 47.6434C13.3258 47.2183 16.6152 47.3203 18.9772 48.7599C17.1587 51.54 13.7348 51.0639 11.0422 50.0607C9.98031 49.6158 8.98284 49.0121 8.08063 48.2895C8.9184 47.9891 9.79258 47.7822 10.6724 47.6405V47.6434ZM15.5028 11.2165C14.1663 11.0777 13.124 11.2279 11.9304 11.8683C10.9582 12.455 10.3221 13.1294 9.9607 14.229C12.5664 14.9233 15.5785 13.5205 17.579 11.823C16.9206 11.5169 16.2229 11.3101 15.5028 11.2165ZM12.219 15.7338C9.94389 15.9888 7.57069 17.624 7.45301 20.1206C10.0307 20.2538 12.9055 17.8932 14.4129 15.8358C13.69 15.6941 12.9503 15.6544 12.219 15.7338ZM10.2549 20.9566C7.92653 21.9542 6.41071 23.6913 6.57602 26.3552C6.57322 26.3722 6.61805 26.6272 6.62646 26.6641C9.18738 26.103 11.4625 22.8922 12.4516 20.506C11.7007 20.5457 10.9582 20.6902 10.2521 20.9566H10.2549ZM9.76176 26.6216C7.69397 28.2737 6.53399 30.5522 7.62112 33.1594C10.0812 31.972 11.4289 28.2624 11.8211 25.5759C11.0702 25.8281 10.4202 26.1426 9.76176 26.6216ZM10.8153 32.1222C9.21539 33.9784 8.55415 36.9624 10.2745 38.9773C12.3703 37.2402 12.8578 33.2472 12.5973 30.606C11.9332 31.0226 11.328 31.5299 10.8153 32.125V32.1222ZM13.2305 36.9398C12.6589 38.1045 12.4179 39.0794 12.5048 40.3801C12.6757 41.8396 13.1829 42.9249 14.3569 43.8233C15.9567 41.4287 15.5589 37.6681 14.6286 35.0042C14.0767 35.5795 13.5975 36.2256 13.2305 36.9398ZM19.9438 7.69118C17.9124 6.92886 15.1078 7.21792 13.9198 9.27249C16.1529 10.6016 19.5712 9.86477 21.8099 8.75106C21.2439 8.30614 20.6163 7.94623 19.9438 7.69401V7.69118ZM16.7693 40.8619C16.1613 43.4067 17.0299 46.4191 19.63 47.4082C20.6779 44.8633 19.1425 40.8534 17.6855 38.5948C17.2792 39.3032 16.9598 40.0627 16.7693 40.859V40.8619Z" fill="#E2A917"/>
<path d="M65.7471 33.1392V27.2787L67.1648 25.8447H71.603L73.0208 27.2787V33.1392L71.603 34.5731H67.1648L65.7471 33.1392ZM70.7154 33.1267L71.3441 32.4908V27.9271L70.7154 27.2911H68.0525L67.4237 27.9271V32.4908L68.0525 33.1267H70.7154Z" fill="black"/>
<path d="M57.2742 25.8447H58.7782L62.6246 31.7676H62.6493V25.8447H64.2643V34.5731H62.7603L58.9138 28.6627H58.8892V34.5731H57.2742V25.8447Z" fill="black"/>
<path d="M53.9287 25.8447H55.6054V34.5731H53.9287V25.8447Z" fill="black"/>
<path d="M45.832 33.2264V31.9795H47.484V32.7152L47.8909 33.1267H50.4428L50.862 32.7027V31.2563L50.4551 30.8448H47.1881L45.8567 29.4982V27.1914L47.1881 25.8447H51.0839L52.4153 27.1914V28.4508H50.7633V27.7026L50.3565 27.2911H47.9155L47.5087 27.7026V28.9869L47.9155 29.3984H51.1825L52.514 30.7451V33.2015L51.1579 34.5731H47.1635L45.832 33.2264Z" fill="black"/>
<path d="M40.6443 25.8447H42.173L45.3291 34.5731H43.6278L42.9251 32.6404H39.8923L39.1896 34.5731H37.4883L40.6443 25.8447ZM42.5552 31.2439L41.4087 27.9271H41.384L40.2745 31.2439H42.5552Z" fill="black"/>
<path d="M30.0869 33.1392V27.2787L31.5047 25.8447H35.7209L37.114 27.2537V28.5879H35.4374V27.8772L34.858 27.2911H32.3923L31.7636 27.9271V32.4908L32.3923 33.1267H34.858L35.4374 32.5406V31.8299H37.114V33.1641L35.7209 34.5731H31.5047L30.0869 33.1392Z" fill="black"/>
<path d="M67.3057 21.8042V15.9437L68.7234 14.5098H73.1616L74.5794 15.9437V21.8042L73.1616 23.2382H68.7234L67.3057 21.8042ZM72.274 21.7917L72.9027 21.1558V16.5921L72.274 15.9562H69.6111L68.9823 16.5921V21.1558L69.6111 21.7917H72.274Z" fill="black"/>
<path d="M62.3706 15.9437H59.7939V14.5098H66.6238V15.9437H64.0472V23.2382H62.3706V15.9437Z" fill="black"/>
<path d="M52.6211 14.5098H58.0332L59.3523 15.8564V18.9114L58.0209 20.2705H54.2977V23.2382H52.6211V14.5098ZM57.2689 18.849L57.7003 18.4126V16.3677L57.2689 15.9312H54.2977V18.849H57.2689Z" fill="black"/>
<path d="M47.0756 19.672L44.0059 14.5098H45.8428L47.9016 18.0884H47.9263L49.9851 14.5098H51.822L48.7523 19.672V23.2382H47.0756V19.672Z" fill="black"/>
<path d="M43.5101 20.3453V23.2382H41.8334V20.7319L41.0937 19.8964H38.4061V23.2382H36.7295V14.5098H42.1416L43.4607 15.8564V18.4999L42.6224 19.3603L43.5101 20.3453ZM38.4061 18.4999H41.3773L41.8087 18.0635V16.3677L41.3773 15.9312H38.4061V18.4999Z" fill="black"/>
<path d="M28.5273 21.8042V15.9437L29.9451 14.5098H34.1614L35.5545 15.9188V17.253H33.8778V16.5422L33.2984 15.9562H30.8327L30.204 16.5921V21.1558L30.8327 21.7917H33.2984L33.8778 21.2057V20.4949H35.5545V21.8291L34.1614 23.2382H29.9451L28.5273 21.8042Z" fill="black"/>
<path d="M62.353 4.60778H59.7764V3.17383H66.6062V4.60778H64.0296V11.9022H62.353V4.60778Z" fill="black"/>
<path d="M52.6709 10.5555V9.30864H54.3229V10.0443L54.7297 10.4558H57.2817L57.7008 10.0318V8.58543L57.294 8.17395H54.027L52.6956 6.82728V4.52049L54.027 3.17383H57.9227L59.2542 4.52049V5.77987H57.6022V5.03173L57.1954 4.62025H54.7544L54.3475 5.03173V6.31605L54.7544 6.72753H58.0214L59.3528 8.07419V10.5306L57.9967 11.9022H54.0024L52.6709 10.5555Z" fill="black"/>
<path d="M45.3789 3.17383H51.617V4.60778H47.0556V6.81481H51.2595V8.22382H47.0556V10.4683H51.617V11.9022H45.3789V3.17383Z" fill="black"/>
<path d="M37.1204 3.17383H42.5325L43.7653 4.42074V6.86469L43.2722 7.37592L44.1475 8.2737V10.5555L42.816 11.9022H37.1204V3.17383ZM41.6695 6.82728L42.1133 6.37839V5.03173L41.6818 4.59531H38.76V6.82728H41.6695ZM41.9654 10.4807L42.4955 9.94456V8.72259L41.9654 8.18642H38.76V10.4807H41.9654Z" fill="black"/>
</svg>
