<svg width="64" height="42" viewBox="0 0 64 42" fill="none" xmlns="http://www.w3.org/2000/svg">
<rect y="-0.000732422" width="64" height="42" rx="8" fill="white"/>
<g clip-path="url(#clip0_1538_684)">
<path d="M9.56055 11.1431H18.0403C22.3198 11.1431 24.6973 13.4342 24.6973 16.7214C24.6973 18.1381 24.0066 19.7429 22.1839 20.5731V20.6838C24.0066 21.3367 25.0143 23.3954 25.0143 24.9892C25.0143 28.531 22.116 30.8443 18.7309 30.8443H9.56055V11.1431ZM17.4289 18.9793C19.2856 18.9793 19.9763 17.9942 19.9763 16.9095C19.9763 15.8359 19.2856 15.039 17.4289 15.039H14.0212V18.9682H17.4289V18.9793ZM17.8025 26.9262C19.6819 26.9262 20.4404 25.9079 20.4404 24.7789C20.4404 23.6721 19.6932 22.5764 17.8025 22.5764H14.0212V26.9372H17.8025V26.9262Z" fill="#FF3300"/>
<path d="M26.3389 11.1431H30.7995V30.8332H26.3389V11.1431Z" fill="#FF3300"/>
<path d="M32.4186 18.6695C32.4186 14.5964 34.9659 10.9993 40.2077 10.9993C44.023 10.9993 46.7175 13.0026 47.7024 16.002L43.4796 17.4741C43.1626 16.1127 42.0078 15.0723 40.185 15.0723C37.9547 15.0723 36.9132 16.6551 36.9132 18.271V23.6169C36.9132 25.3103 37.9547 26.9594 40.2077 26.9594C42.121 26.9594 43.6834 25.432 43.6834 23.65V23.5062H39.5624V19.8869H48.0647V23.8161C48.0647 27.9445 44.5325 30.9993 40.1964 30.9993C34.9545 30.9993 32.4072 27.8006 32.4072 23.307V18.6695H32.4186Z" fill="#FF3300"/>
<path d="M51.8688 30.8333C53.2881 30.8333 54.4388 29.7084 54.4388 28.3208C54.4388 26.9332 53.2881 25.8083 51.8688 25.8083C50.4495 25.8083 49.2988 26.9332 49.2988 28.3208C49.2988 29.7084 50.4495 30.8333 51.8688 30.8333Z" fill="#FF3300"/>
</g>
<defs>
<clipPath id="clip0_1538_684">
<rect width="44.878" height="20" fill="white" transform="translate(9.56055 10.9993)"/>
</clipPath>
</defs>
</svg>
