<svg width="20" height="21" viewBox="0 0 20 21" fill="none" xmlns="http://www.w3.org/2000/svg">
<g id="mingcute:time-line" clip-path="url(#clip0_281_40412)">
<g id="Group">
<path id="Vector" d="M9.99349 2.7666C14.596 2.7666 18.3268 6.49743 18.3268 11.0999C18.3268 15.7024 14.596 19.4333 9.99349 19.4333C5.39099 19.4333 1.66016 15.7024 1.66016 11.0999C1.66016 6.49743 5.39099 2.7666 9.99349 2.7666ZM9.99349 4.43327C8.22538 4.43327 6.52969 5.13565 5.27944 6.38589C4.0292 7.63613 3.32682 9.33182 3.32682 11.0999C3.32682 12.868 4.0292 14.5637 5.27944 15.814C6.52969 17.0642 8.22538 17.7666 9.99349 17.7666C11.7616 17.7666 13.4573 17.0642 14.7075 15.814C15.9578 14.5637 16.6602 12.868 16.6602 11.0999C16.6602 9.33182 15.9578 7.63613 14.7075 6.38589C13.4573 5.13565 11.7616 4.43327 9.99349 4.43327ZM9.99349 6.09993C10.1976 6.09996 10.3946 6.1749 10.5471 6.31053C10.6997 6.44616 10.7971 6.63306 10.821 6.83577L10.8268 6.93327V10.7549L13.0827 13.0108C13.2321 13.1607 13.3189 13.362 13.3253 13.5736C13.3318 13.7852 13.2575 13.9914 13.1174 14.1502C12.9774 14.309 12.7822 14.4085 12.5714 14.4286C12.3607 14.4487 12.1501 14.3878 11.9827 14.2583L11.9043 14.1891L9.40432 11.6891C9.2748 11.5595 9.19162 11.3908 9.16765 11.2091L9.16015 11.0999V6.93327C9.16015 6.71225 9.24795 6.50029 9.40423 6.34401C9.56051 6.18773 9.77247 6.09993 9.99349 6.09993Z" fill="white"/>
</g>
</g>
<defs>
<clipPath id="clip0_281_40412">
<rect width="20" height="20" fill="white" transform="translate(0 0.5)"/>
</clipPath>
</defs>
</svg>
