<svg width="24" height="24" viewBox="0 0 24 24" fill="none" xmlns="http://www.w3.org/2000/svg">
<path d="M21.0904 11.2132C21.0438 11.2789 20.9945 11.3426 20.9448 11.4059C20.8435 11.5347 20.6905 11.7214 20.4878 11.9467C20.0818 12.3978 19.4788 13.0008 18.6952 13.6036C17.1259 14.8108 14.8556 16 12 16C9.14451 16 6.87415 14.8108 5.3049 13.6036C4.52125 13.0008 3.9183 12.3978 3.51232 11.9467C3.30072 11.7116 3.09297 11.4714 2.90966 11.2132C2.75125 10.9872 2.43945 10.932 2.21331 11.0903C1.98709 11.2487 1.93207 11.5605 2.09043 11.7867C2.10626 11.8092 2.12252 11.8314 2.13889 11.8535C2.16872 11.8938 2.21217 11.9514 2.26899 12.0237C2.38261 12.1683 2.54992 12.3722 2.76902 12.6157C2.94956 12.8163 3.1657 13.0442 3.41638 13.2882L2.22274 14.0839C1.99297 14.2371 1.93089 14.5475 2.08406 14.7773C2.23724 15.0071 2.54767 15.0692 2.77744 14.916L4.18011 13.9809C4.34274 14.1183 4.51448 14.2573 4.69519 14.3963C5.18713 14.7747 5.7475 15.1546 6.37296 15.5028L5.10009 17.2C4.9344 17.4209 4.97917 17.7343 5.20009 17.9C5.421 18.0656 5.7344 18.0209 5.90009 17.8L7.27938 15.9609C7.94385 16.2634 8.66815 16.5216 9.4492 16.7049L9.0098 18.9019C8.95564 19.1727 9.13125 19.4361 9.40203 19.4902C9.67281 19.5444 9.93622 19.3688 9.99038 19.098L10.4321 16.8897C10.9345 16.9609 11.4573 17 12 17C12.5428 17 13.0657 16.9609 13.5681 16.8896L14.0098 19.098C14.064 19.3688 14.3274 19.5444 14.5981 19.4902C14.8689 19.4361 15.0445 19.1727 14.9904 18.9019L14.551 16.7049C15.332 16.5216 16.0563 16.2634 16.7208 15.9609L18.1001 17.8C18.2658 18.0209 18.5792 18.0656 18.8001 17.9C19.021 17.7343 19.0658 17.4209 18.9001 17.2L17.6272 15.5028C18.2526 15.1546 18.813 14.7747 19.3049 14.3963C19.4856 14.2573 19.6574 14.1182 19.82 13.9808L21.2227 14.916C21.4525 15.0692 21.7629 15.0071 21.9161 14.7773C22.0693 14.5475 22.0072 14.2371 21.7774 14.0839L20.5837 13.2881C20.8344 13.0442 21.0505 12.8163 21.2311 12.6157C21.4502 12.3722 21.6175 12.1683 21.7311 12.0237C21.792 11.9462 21.8523 11.8682 21.909 11.7876L21.9097 11.7867C22.068 11.5605 22.013 11.2487 21.7868 11.0903C21.5606 10.932 21.2488 10.9872 21.0904 11.2132Z" fill="black" fill-opacity="0.8"/>
</svg>
