<svg width="24" height="24" viewBox="0 0 24 24" fill="none" xmlns="http://www.w3.org/2000/svg">
<path fill-rule="evenodd" clip-rule="evenodd" d="M12 20C16.4183 20 20 16.4183 20 12C20 7.58172 16.4183 4 12 4C7.58172 4 4 7.58172 4 12C4 16.4183 7.58172 20 12 20ZM12 21C16.9706 21 21 16.9706 21 12C21 7.02944 16.9706 3 12 3C7.02944 3 3 7.02944 3 12C3 16.9706 7.02944 21 12 21ZM12 16.7C12.3866 16.7 12.7 16.3866 12.7 16V11C12.7 10.6134 12.3866 10.3 12 10.3C11.6134 10.3 11.3 10.6134 11.3 11V16C11.3 16.3866 11.6134 16.7 12 16.7ZM12 9.33672C11.6134 9.33672 11.3 9.02332 11.3 8.63672C11.3 8.25012 11.6134 7.93672 12 7.93672H12.0081C12.3947 7.93672 12.7081 8.25012 12.7081 8.63672C12.7081 9.02332 12.3947 9.33672 12.0081 9.33672H12Z" fill="#191818" fill-opacity="0.49"/>
</svg>
