<svg width="59" height="11" viewBox="0 0 59 11" fill="none" xmlns="http://www.w3.org/2000/svg">
<g clip-path="url(#clip0_1070_1602)">
<path fill-rule="evenodd" clip-rule="evenodd" d="M10.0707 2.4442C10.6735 3.35038 10.9966 4.41021 10.9966 5.49762C10.9966 6.21862 10.8547 6.93569 10.5789 7.60153C10.3031 8.26737 9.89732 8.87412 9.38513 9.3863C8.87295 9.89849 8.27014 10.3004 7.60036 10.5801C6.93452 10.8559 6.21746 10.9977 5.49645 10.9977C4.40904 10.9977 3.34527 10.6747 2.44303 10.0718C1.54079 9.46904 0.835552 8.61014 0.417923 7.60547C0.000293639 6.60079 -0.106084 5.49368 0.106671 4.42597C0.319426 3.35826 0.843432 2.38116 1.61171 1.60894C2.37999 0.84066 3.36103 0.316653 4.42874 0.103898C5.49251 -0.104916 6.59963 0.00146106 7.6043 0.41909C8.60897 0.83672 9.46787 1.54196 10.0707 2.4442ZM17.9229 5.11545H20.5154C20.5154 5.11545 20.5508 5.12333 20.5666 5.13515C20.5784 5.14697 20.5863 5.16667 20.5863 5.18637C20.602 7.23512 19.6683 8.23979 17.9623 8.23979C16.2563 8.23979 15.2083 7.06964 15.2083 5.35185C15.2083 3.63405 16.3154 2.4639 17.9229 2.4639C19.2979 2.4639 20.1765 3.1455 20.4681 4.30777C20.4681 4.31565 20.4681 4.32353 20.4681 4.33535C20.4681 4.34323 20.4641 4.35111 20.4563 4.35899C20.4523 4.36687 20.4444 4.37081 20.4366 4.37475C20.4287 4.37475 20.4208 4.37869 20.4129 4.37869H19.3137C19.294 4.37869 19.2743 4.37081 19.2585 4.35899C19.2428 4.34717 19.2309 4.32747 19.227 4.30777C19.1561 4.0241 18.9867 3.77589 18.7503 3.60647C18.5139 3.43705 18.2223 3.35826 17.9308 3.3819C16.9655 3.3819 16.4494 4.1423 16.4494 5.3676C16.4494 6.59291 16.9891 7.3218 17.9662 7.3218C18.1435 7.33361 18.3208 7.30998 18.4863 7.24694C18.6518 7.1839 18.8054 7.08934 18.9315 6.96326C19.0576 6.83719 19.1561 6.68747 19.2191 6.522C19.2822 6.35652 19.3097 6.17922 19.294 6.00193H17.919C17.919 6.00193 17.8835 5.99405 17.8677 5.98223C17.8559 5.97041 17.848 5.95071 17.848 5.93101V5.18637C17.848 5.18637 17.848 5.16667 17.852 5.15879C17.852 5.15091 17.8599 5.14303 17.8677 5.13515C17.8756 5.12727 17.8835 5.12333 17.8914 5.11939C17.8993 5.11939 17.9111 5.11545 17.919 5.11545H17.9229ZM24.3843 5.17849C24.6641 5.12333 24.9123 4.96967 25.0896 4.74116C25.2629 4.51659 25.3496 4.23685 25.3339 3.94924C25.3339 2.99185 24.4946 2.5821 23.3639 2.5821H20.9842C20.9842 2.5821 20.9487 2.58998 20.933 2.6018C20.9212 2.61361 20.9133 2.63331 20.9133 2.65301V8.04674C20.9133 8.04674 20.9133 8.06644 20.9172 8.07432C20.9172 8.0822 20.9251 8.09008 20.933 8.09796C20.9409 8.10583 20.9487 8.10978 20.9566 8.11372C20.9645 8.11765 20.9763 8.11765 20.9842 8.11765H23.4033C24.4631 8.11765 25.4836 7.64487 25.4836 6.43926C25.4836 6.13195 25.3732 5.83251 25.1723 5.60006C24.9714 5.3676 24.6916 5.21395 24.3843 5.17455V5.17849ZM22.0913 3.49615H23.4663C23.5491 3.49615 23.6279 3.50797 23.7027 3.53949C23.7776 3.57101 23.8446 3.61435 23.9037 3.67345C23.9628 3.73255 24.0061 3.79952 24.0376 3.87438C24.0691 3.94924 24.081 4.03198 24.081 4.11078V4.23685C24.081 4.31959 24.0691 4.39839 24.0376 4.47325C24.0061 4.54811 23.9628 4.61508 23.9037 4.67418C23.8446 4.73328 23.7776 4.77662 23.7027 4.80814C23.6279 4.83966 23.5451 4.85148 23.4663 4.85148H22.0913V3.49615ZM24.2346 6.5023C24.2346 6.60079 24.2189 6.69929 24.1834 6.78991C24.1479 6.88053 24.0928 6.96326 24.0219 7.03418C23.9509 7.1051 23.8682 7.16026 23.7776 7.19572C23.687 7.23118 23.5885 7.25088 23.49 7.24694H22.0992V5.64734H23.49C23.5885 5.64734 23.687 5.6631 23.7776 5.69856C23.8682 5.73402 23.9509 5.78917 24.0219 5.86009C24.0928 5.93101 24.1479 6.01375 24.1834 6.10437C24.2189 6.19498 24.2386 6.29348 24.2346 6.39198V6.49836V6.5023ZM13.6402 4.03592H14.8655V8.12554H13.6402V4.03592ZM14.8695 2.57816H13.6442V3.61829H14.8695V2.57816ZM30.0026 8.10978C30.0026 8.10978 30.0302 8.12554 30.046 8.12554H30.6961C30.6961 8.12554 30.7079 8.12554 30.7158 8.12554C30.7236 8.12554 30.7276 8.11765 30.7315 8.11372C30.7355 8.10978 30.7394 8.1019 30.7394 8.09402C30.7394 8.08614 30.7394 8.0822 30.7394 8.07432L28.8088 2.64907C28.8088 2.64907 28.797 2.62149 28.7813 2.60967C28.7694 2.59786 28.7537 2.59392 28.7379 2.59392H27.883C27.883 2.59392 27.8514 2.6018 27.8396 2.60967C27.8278 2.62149 27.816 2.63331 27.812 2.64907L25.8579 8.07432C25.8579 8.07432 25.8539 8.08614 25.8579 8.09402C25.8579 8.1019 25.8579 8.10583 25.8657 8.11372C25.8697 8.11765 25.8736 8.12554 25.8815 8.12554C25.8894 8.12554 25.8933 8.12947 25.9012 8.12554H26.5316C26.5316 8.12554 26.5631 8.11765 26.5749 8.10978C26.5867 8.09796 26.5986 8.08614 26.6025 8.07038L27.1423 6.47472H29.4274L29.979 8.07038C29.979 8.07038 29.9908 8.09796 30.0066 8.10978H30.0026ZM28.277 3.11004L29.2068 5.84827H27.3511L28.277 3.11004ZM31.4131 8.12554C31.4131 8.12554 31.3974 8.12554 31.3934 8.12554C31.3855 8.12554 31.3816 8.11765 31.3737 8.11372C31.3698 8.10978 31.3658 8.1019 31.3619 8.09402C31.3619 8.08614 31.358 8.07826 31.3619 8.07432L31.3855 5.35972L31.3619 2.64907C31.3619 2.64907 31.3619 2.63331 31.3619 2.62937C31.3619 2.62149 31.3698 2.61755 31.3737 2.60967C31.3777 2.60574 31.3855 2.6018 31.3934 2.59786C31.4013 2.59786 31.4092 2.59392 31.4131 2.59786H34.6872C34.6872 2.59786 34.7029 2.59786 34.7069 2.59786C34.7148 2.59786 34.7187 2.60574 34.7266 2.60967C34.7305 2.61361 34.7345 2.62149 34.7384 2.62937C34.7384 2.63725 34.7423 2.64513 34.7384 2.64907V3.12974C34.7384 3.12974 34.7384 3.1455 34.7384 3.14944C34.7384 3.15732 34.7305 3.16126 34.7266 3.16914C34.7226 3.17308 34.7148 3.17702 34.7069 3.18096C34.699 3.18096 34.6911 3.1849 34.6872 3.18096H32.1105L32.0868 5.11939H34.5611C34.5611 5.11939 34.5769 5.11939 34.5808 5.11939C34.5887 5.11939 34.5926 5.12727 34.6005 5.13121C34.6044 5.13515 34.6084 5.14303 34.6123 5.15091C34.6123 5.15879 34.6163 5.16667 34.6123 5.17061V5.65128C34.6123 5.65128 34.6123 5.66704 34.6123 5.67098C34.6123 5.67886 34.6044 5.6828 34.6005 5.69068C34.5966 5.69462 34.5887 5.69856 34.5808 5.7025C34.5729 5.7025 34.565 5.70644 34.5611 5.7025H32.0868L32.1105 8.05856C32.1105 8.05856 32.1105 8.07432 32.1105 8.07826C32.1105 8.08614 32.1026 8.09008 32.0987 8.09796C32.0947 8.1019 32.0868 8.10583 32.079 8.10978C32.0711 8.10978 32.0632 8.11372 32.0593 8.10978H31.4171L31.4131 8.12554ZM35.3964 8.1216C35.3964 8.1216 35.4121 8.12554 35.4161 8.1216H36.0583C36.0583 8.1216 36.074 8.1216 36.078 8.1216C36.0858 8.1216 36.0898 8.11372 36.0977 8.10978C36.1016 8.10583 36.1055 8.09796 36.1095 8.09008C36.1095 8.0822 36.1134 8.07432 36.1095 8.07038L36.0858 5.71432H38.5601C38.5601 5.71432 38.5759 5.71432 38.5798 5.71432C38.5877 5.71432 38.5916 5.70644 38.5995 5.7025C38.6034 5.69856 38.6074 5.69068 38.6113 5.6828C38.6113 5.67492 38.6153 5.66704 38.6113 5.6631V5.18243C38.6113 5.18243 38.6113 5.16667 38.6113 5.16273C38.6113 5.15485 38.6034 5.15091 38.5995 5.14303C38.5956 5.13909 38.5877 5.13515 38.5798 5.13121C38.5719 5.13121 38.564 5.12727 38.5601 5.13121H36.0858L36.1095 3.19278H38.6862C38.6862 3.19278 38.7019 3.19278 38.7059 3.19278C38.7137 3.19278 38.7177 3.1849 38.7256 3.18096C38.7295 3.17702 38.7334 3.16914 38.7374 3.16126C38.7374 3.15338 38.7413 3.1455 38.7374 3.14156V2.66089C38.7374 2.66089 38.7374 2.64513 38.7374 2.64119C38.7374 2.63331 38.7295 2.62937 38.7256 2.62149C38.7216 2.61755 38.7137 2.61361 38.7059 2.60967C38.698 2.60967 38.6901 2.60574 38.6862 2.60967H35.4121C35.4121 2.60967 35.3964 2.60967 35.3924 2.60967C35.3845 2.60967 35.3806 2.61755 35.3727 2.62149C35.3688 2.62543 35.3648 2.63331 35.3609 2.64119C35.3609 2.64907 35.3609 2.65695 35.3609 2.66089L35.3845 5.37154L35.3609 8.08614C35.3609 8.08614 35.3609 8.1019 35.3609 8.10583C35.3609 8.11372 35.3688 8.11766 35.3727 8.12554C35.3767 8.12947 35.3845 8.13341 35.3924 8.13735L35.3964 8.1216ZM39.4229 8.12554C39.4229 8.12554 39.4072 8.12554 39.4032 8.12554C39.3954 8.12554 39.3914 8.11765 39.3835 8.11372C39.3796 8.10978 39.3757 8.1019 39.3717 8.09402C39.3717 8.08614 39.3678 8.07826 39.3717 8.07432L39.3954 5.31245L39.3717 2.64907C39.3717 2.64907 39.3717 2.63331 39.3717 2.62937C39.3717 2.62149 39.3796 2.61755 39.3835 2.60967C39.3875 2.60574 39.3954 2.6018 39.4032 2.59786C39.4111 2.59786 39.419 2.59392 39.4229 2.59786H40.0573C40.0573 2.59786 40.073 2.59786 40.077 2.59786C40.0848 2.59786 40.0888 2.60574 40.0967 2.60967C40.1006 2.61361 40.1045 2.62149 40.1085 2.62937C40.1085 2.63725 40.1124 2.64513 40.1085 2.64907L40.0848 5.31245L40.1085 8.07432C40.1085 8.07432 40.1085 8.09008 40.1085 8.09402C40.1085 8.1019 40.1006 8.10583 40.0967 8.11372C40.0927 8.11765 40.0848 8.1216 40.077 8.12554C40.0691 8.12554 40.0612 8.12947 40.0573 8.12554H39.4229ZM40.7625 8.1216C40.7625 8.1216 40.7783 8.12554 40.7822 8.1216H43.9381C43.9381 8.1216 43.9538 8.1216 43.9578 8.1216C43.9656 8.1216 43.9696 8.11372 43.9775 8.10978C43.9814 8.10583 43.9853 8.09796 43.9893 8.09008C43.9893 8.0822 43.9932 8.07432 43.9932 8.07038V7.58971C43.9932 7.58971 43.9932 7.57395 43.9893 7.57001C43.9893 7.56213 43.9814 7.55819 43.9775 7.55031C43.9735 7.54637 43.9656 7.54243 43.9578 7.53849C43.9499 7.53849 43.942 7.53455 43.9381 7.53849H41.4717L41.4559 5.19819L41.4717 2.65301C41.4717 2.65301 41.4717 2.63725 41.4677 2.63331C41.4677 2.62543 41.4599 2.62149 41.4559 2.61361C41.452 2.60967 41.4441 2.60574 41.4362 2.6018C41.4283 2.6018 41.4205 2.59786 41.4165 2.6018H40.7822C40.7822 2.6018 40.7664 2.6018 40.7625 2.6018C40.7546 2.6018 40.7507 2.60967 40.7428 2.61361C40.7389 2.61755 40.7349 2.62543 40.731 2.63331C40.731 2.64119 40.727 2.64907 40.727 2.65301L40.7507 5.23759L40.727 8.07826C40.727 8.07826 40.727 8.09402 40.731 8.09796C40.731 8.10583 40.7389 8.10978 40.7428 8.11765C40.7467 8.1216 40.7546 8.12554 40.7625 8.12947V8.1216ZM44.6669 8.12554C44.6669 8.12554 44.6512 8.12554 44.6472 8.12554C44.6394 8.12554 44.6354 8.11765 44.6275 8.11372C44.6236 8.10978 44.6197 8.1019 44.6157 8.09402C44.6157 8.08614 44.6118 8.07826 44.6118 8.07432L44.6354 5.31245L44.6118 2.64907C44.6118 2.64907 44.6118 2.63331 44.6157 2.62937C44.6157 2.62149 44.6236 2.61755 44.6275 2.60967C44.6315 2.60574 44.6394 2.6018 44.6472 2.59786C44.6551 2.59786 44.663 2.59392 44.6669 2.59786H45.3013C45.3013 2.59786 45.317 2.59786 45.321 2.59786C45.3288 2.59786 45.3328 2.60574 45.3407 2.60967C45.3446 2.61361 45.3485 2.62149 45.3525 2.62937C45.3525 2.63725 45.3564 2.64513 45.3525 2.64907L45.3288 5.31245L45.3525 8.07432C45.3525 8.07432 45.3525 8.09008 45.3525 8.09402C45.3525 8.1019 45.3446 8.10583 45.3407 8.11372C45.3367 8.11765 45.3288 8.1216 45.321 8.12554C45.3131 8.12554 45.3052 8.12947 45.3013 8.12554H44.6669ZM50.1237 8.10978C50.1237 8.10978 50.1513 8.12554 50.167 8.12554H50.8132C50.8132 8.12554 50.8289 8.12554 50.8329 8.12554C50.8408 8.12554 50.8447 8.11765 50.8486 8.11372C50.8526 8.10978 50.8565 8.1019 50.8565 8.09402C50.8565 8.08614 50.8565 8.0822 50.8565 8.07432L48.926 2.64907C48.926 2.64907 48.9142 2.62149 48.8984 2.60967C48.8866 2.59786 48.8708 2.59392 48.8551 2.59392H48.004C48.004 2.59392 47.9725 2.6018 47.9607 2.60967C47.9489 2.62149 47.9371 2.63331 47.9331 2.64907L45.9789 8.07432C45.9789 8.07432 45.975 8.08614 45.9789 8.09402C45.9789 8.1019 45.9789 8.10583 45.9868 8.11372C45.9907 8.11765 45.9947 8.12554 46.0026 8.12554C46.0104 8.12554 46.0144 8.12947 46.0223 8.12554H46.6566C46.6566 8.12554 46.6881 8.11765 46.6999 8.10978C46.7117 8.09796 46.7236 8.08614 46.7275 8.07038L47.2673 6.47472H49.5524L50.104 8.07038C50.104 8.07038 50.1198 8.09796 50.1316 8.10978H50.1237ZM48.398 3.11004L49.3318 5.84827H47.4721L48.398 3.11004ZM52.5192 8.1216C52.5192 8.1216 52.5034 8.1216 52.4995 8.1216C52.4916 8.1216 52.4876 8.11372 52.4798 8.10978C52.4758 8.10583 52.4719 8.09796 52.4679 8.09008C52.4679 8.0822 52.464 8.07432 52.4679 8.07038L52.4995 5.37942L52.4758 3.18096H50.9156C50.9156 3.18096 50.8999 3.18096 50.8959 3.18096C50.888 3.18096 50.8841 3.17308 50.8762 3.16914C50.8723 3.1652 50.8683 3.15732 50.8644 3.14944C50.8644 3.14156 50.8605 3.13368 50.8605 3.12974V2.64907C50.8605 2.64907 50.8605 2.63331 50.8644 2.62937C50.8644 2.62149 50.8723 2.61755 50.8762 2.60967C50.8802 2.60574 50.888 2.6018 50.8959 2.59786C50.9038 2.59786 50.9117 2.59392 50.9156 2.59786H54.7767C54.7767 2.59786 54.7925 2.59786 54.7964 2.59786C54.8043 2.59786 54.8082 2.60574 54.8161 2.60967C54.8201 2.61361 54.824 2.62149 54.8279 2.62937C54.8279 2.63725 54.8319 2.64513 54.8319 2.64907V3.12974C54.8319 3.12974 54.8319 3.1455 54.8279 3.14944C54.8279 3.15732 54.8201 3.16126 54.8161 3.16914C54.8122 3.17702 54.8043 3.17702 54.7964 3.18096C54.7885 3.18096 54.7807 3.1849 54.7767 3.18096H53.2283L53.2047 5.37942L53.2362 8.07038C53.2362 8.07038 53.2362 8.08614 53.2323 8.09008C53.2323 8.09796 53.2244 8.1019 53.2205 8.10978C53.2165 8.11372 53.2086 8.11766 53.2008 8.1216C53.1929 8.1216 53.185 8.12554 53.1811 8.1216H52.5231H52.5192ZM55.482 8.11765C55.482 8.11765 55.4977 8.1216 55.5017 8.11765H58.9451C58.9451 8.11765 58.9609 8.11765 58.9688 8.11765C58.9767 8.11765 58.9806 8.10978 58.9885 8.10583C58.9924 8.1019 58.9964 8.09402 59.0003 8.08614C59.0003 8.07826 59.0042 8.07038 59.0042 8.06644V7.58577C59.0042 7.58577 59.0042 7.57001 59.0003 7.56607C59.0003 7.55819 58.9924 7.55425 58.9885 7.54637C58.9845 7.53849 58.9767 7.53849 58.9688 7.53455C58.9609 7.53455 58.953 7.53061 58.9451 7.53455H56.203L56.1793 5.47004H58.693C58.693 5.47004 58.7087 5.47004 58.7127 5.47004C58.7206 5.47004 58.7245 5.46216 58.7324 5.45822C58.7363 5.45428 58.7403 5.4464 58.7442 5.43852C58.7442 5.43064 58.7481 5.42276 58.7481 5.41882V4.93816C58.7481 4.93816 58.7481 4.9224 58.7442 4.91846C58.7442 4.91058 58.7363 4.90664 58.7324 4.89876C58.7284 4.89088 58.7206 4.89088 58.7127 4.88694C58.7048 4.88694 58.6969 4.883 58.693 4.88694H56.1793L56.203 3.19278H58.8821C58.8821 3.19278 58.8979 3.19278 58.9018 3.19278C58.9097 3.19278 58.9136 3.1849 58.9215 3.18096C58.9254 3.17702 58.9294 3.16914 58.9333 3.16126C58.9333 3.15338 58.9373 3.1455 58.9373 3.14156V2.66089C58.9373 2.66089 58.9373 2.64513 58.9333 2.64119C58.9333 2.63331 58.9254 2.62937 58.9215 2.62149C58.9176 2.61755 58.9097 2.61361 58.9018 2.60967C58.8939 2.60967 58.886 2.60574 58.8821 2.60967H55.5056C55.5056 2.60967 55.4898 2.60967 55.4859 2.60967C55.478 2.60967 55.4741 2.61755 55.4662 2.62149C55.4623 2.62543 55.4583 2.63331 55.4544 2.64119C55.4544 2.64907 55.4544 2.65695 55.4544 2.66089L55.478 5.28487L55.4544 8.08614C55.4544 8.08614 55.4544 8.1019 55.4544 8.10583C55.4544 8.11372 55.4623 8.11766 55.4662 8.12554C55.4701 8.12947 55.478 8.13341 55.4859 8.13735L55.482 8.11765Z" fill="#130C0E"/>
<path fill-rule="evenodd" clip-rule="evenodd" d="M7.07572 8.67356H8.95111L6.49261 1.7157H4.5463L2.04053 8.67356H3.88834L5.49582 3.55563L7.07178 8.67356H7.07572ZM6.32714 8.30321C6.43745 8.13773 6.49655 7.94862 6.49655 7.75162C6.49655 7.48765 6.39018 7.2355 6.205 7.04638C6.01983 6.86121 5.76373 6.75483 5.49976 6.75483C5.30276 6.75483 5.10971 6.81393 4.94817 6.92425C4.7827 7.03456 4.65662 7.18822 4.58176 7.37339C4.5069 7.55463 4.48721 7.75556 4.5266 7.94862C4.566 8.14167 4.66056 8.31897 4.79846 8.45687C4.93635 8.59476 5.11365 8.68932 5.3067 8.72872C5.49976 8.76812 5.70069 8.74842 5.88193 8.67356C6.06316 8.5987 6.22076 8.46869 6.32714 8.30715V8.30321Z" fill="white"/>
</g>
<defs>
<clipPath id="clip0_1070_1602">
<rect width="59" height="10.9963" fill="white" transform="translate(0 0.00183105)"/>
</clipPath>
</defs>
</svg>
