<svg width="80" height="42" viewBox="0 0 80 42" fill="none" xmlns="http://www.w3.org/2000/svg">
<rect width="80.0002" height="42" rx="8" fill="white"/>
<path d="M26.8616 16.293H31.9591L32.8206 16.3622L33.5385 16.5007L34.2206 16.743L34.6514 16.9853L35.0821 17.3314L35.3693 17.7122L35.5488 18.093L35.6565 18.4737L35.6924 18.716V19.3045L35.5847 19.8237L35.4411 20.2045L35.118 20.6545L34.7591 20.966L34.3283 21.2084L33.9334 21.3468L34.0411 21.416L34.5796 21.6237L35.0821 21.9353L35.3693 22.1776L35.6565 22.5584L35.836 22.9045L35.9796 23.4237V24.3584L35.836 24.9468L35.6206 25.4314L35.2616 25.916L34.9744 26.193L34.5078 26.5045L33.9334 26.7814L33.2155 26.9891L32.6052 27.093L32.2103 27.1276H26.7898L26.718 27.0584L26.6821 26.6084V21.2776L26.718 16.3622L26.8616 16.293ZM29.1591 18.1276L29.1232 18.4045V20.6199L29.1591 20.7237H32.1385L32.5334 20.5853L32.7488 20.4468L33.0001 20.1699L33.1078 19.893L33.1437 19.7199V19.166L33.0001 18.716L32.7847 18.4045L32.4616 18.1968L32.2103 18.1276H29.1591ZM29.1591 22.316L29.1232 22.9045V25.3968H32.2103L32.6411 25.2584L33.036 25.016L33.2514 24.7391L33.3949 24.393L33.4308 24.2545V23.5622L33.3232 23.1468L33.0719 22.7314L32.7488 22.4891L32.4257 22.3507L32.2462 22.316H29.1591Z" fill="#010101"/>
<path d="M20.0771 16.084H21.3694L22.1233 16.1878L22.913 16.3955L23.4156 16.6032L23.9182 16.8801L24.4207 17.2609L24.8515 17.6763L25.2105 18.1609L25.5694 18.8186L25.7489 19.2686L25.8566 19.6494L25.8207 19.8224H23.3797L23.2361 19.5455L23.0207 19.0609L22.7694 18.7148L22.6258 18.5417L22.231 18.2648L21.6566 18.0224L21.0823 17.9186H20.3643L19.9335 17.9878L19.431 18.1609L18.9284 18.4724L18.6053 18.784L18.2823 19.2686L18.0669 19.7186L17.8874 20.3071L17.7797 20.9648L17.7438 21.3455V22.1417L17.8515 22.9724L18.031 23.6301L18.2464 24.1148L18.4976 24.4955L18.8925 24.9109L19.2515 25.1532L19.7182 25.3609L20.2925 25.4994L20.9028 25.534L21.6207 25.4301L22.1951 25.2224L22.5541 24.9801L22.8771 24.6686L23.1643 24.2186L23.3438 23.6648L23.4156 23.2494V23.0071L20.5438 22.9724L20.5079 22.7994V21.4148L20.5438 21.2763L20.6156 21.2417H26.0361L26.072 21.2763V22.3494L25.9643 23.2148L25.8207 23.8378L25.6412 24.4263L25.3182 25.1186L24.9592 25.6378L24.672 25.984L24.3848 26.2609L23.8464 26.6417L23.272 26.9186L22.6976 27.1263L21.872 27.2994L20.9746 27.3686H20.5438L19.7182 27.2994L18.9284 27.1263L18.2105 26.8494L17.672 26.5724L17.2771 26.2955L16.7746 25.8801L16.4156 25.4994L16.0925 25.0494L15.7694 24.4955L15.4823 23.8032L15.2669 22.9378L15.1951 22.4532L15.1592 21.9686V21.484L15.231 20.6878L15.4105 19.8571L15.6258 19.234L15.9848 18.5071L16.3797 17.9532L16.7387 17.5724L16.9182 17.3994L17.2771 17.0878L17.8156 16.7417L18.4976 16.4301L19.1797 16.2224L19.7541 16.1186L20.0771 16.084Z" fill="#010000"/>
<path d="M56.5127 16.293H63.3332L63.4409 16.3622V17.4353L63.405 17.4699L57.9486 17.5045L57.9127 20.1353L57.8768 20.7584H63.0461L63.082 20.8276V21.866L62.9743 21.9353H57.8768L57.9127 22.7314L57.9486 25.8814L63.5486 25.916L63.5845 25.9507V27.0584L63.5127 27.093H56.4409L56.3691 26.9891L56.405 23.7353V19.4084L56.3691 16.466L56.405 16.3276L56.5127 16.293Z" fill="#010000"/>
<path d="M46.2464 16.293H47.6105L47.7541 16.3968L50.0515 23.043L50.5541 24.5314L50.9489 25.6737V25.7776H51.0207L51.1284 25.3622L51.631 23.9084L52.1336 22.4199L53.2464 19.166L53.7489 17.6776L54.2156 16.3622L54.2874 16.293H55.5438L55.6874 16.3276L55.6515 16.6045L55.113 18.093L54.431 19.9968L53.8925 21.4853L53.2464 23.2853L52.7079 24.7737L52.0618 26.5737L51.8823 27.0237L51.8105 27.093H49.9797L49.872 26.9199L49.19 25.0507L48.113 22.0737L47.5746 20.6199L47.2156 19.616L46.6054 17.9199L46.1028 16.5353L46.0669 16.3276L46.2464 16.293Z" fill="#020101"/>
<path d="M36.7332 16.293H37.9896L38.1332 16.3276V25.916H43.1947L43.2306 25.9507V27.0584L43.1947 27.093H36.6973L36.6255 27.0584V16.3622L36.7332 16.293Z" fill="#010101"/>
<path d="M12 19.1309H14.4769L14.5128 19.1655V27.0924L14.4769 27.127H12V19.1309Z" fill="black"/>
<path d="M43.9485 16.293H45.3485L45.4203 16.3622V25.5353L45.3844 25.5699H43.9126V16.3276L43.9485 16.293Z" fill="#FF4C1C"/>
<path d="M65.6666 14.6309H66.4923L66.8871 14.7693L67.2461 14.977L67.4974 15.1847L67.7487 15.5309L67.9282 15.9116L68 16.2578V16.6732L67.9282 17.0193L67.7846 17.3655L67.5333 17.7116L67.282 17.9539L66.8513 18.1962L66.3487 18.3347H65.7743L65.3795 18.2309L64.9487 18.0232L64.5897 17.7116L64.3384 17.3655L64.1589 16.9155L64.123 16.7424V16.2232L64.2307 15.8078L64.4102 15.4616L64.6974 15.1155L65.0923 14.8386L65.4871 14.6655L65.6666 14.6309Z" fill="#FF4C1C"/>
<path d="M12.0359 16.293H14.4769L14.5128 16.3276V18.3007L14.4769 18.3353H12V16.3276L12.0359 16.293Z" fill="black"/>
<path d="M65.8464 15.2891H66.0977L66.4207 15.3929L66.6002 15.6006L66.6361 15.6698V15.9814L66.4566 16.2583L66.2772 16.466L66.5643 16.7429L66.6361 16.7775L66.672 16.5352L66.7438 16.3275H67.1746L67.1387 16.6737L66.9951 17.0544V17.1929L67.2823 17.4698L67.3541 17.5044V17.5737L66.8515 17.6083L66.672 17.5391L66.5284 17.5044L66.2054 17.6429H65.6669L65.3438 17.5391L65.0925 17.2621L65.0566 17.1929V16.7429L65.2002 16.5352L65.3797 16.3621H65.4515L65.272 16.016V15.7391L65.3797 15.5314L65.5951 15.3583L65.8464 15.2891Z" fill="#010000"/>
<path d="M43.9126 25.8809H45.3844L45.4203 25.9501V27.0578L45.3844 27.0924H43.9126V25.8809Z" fill="#FF4C1C"/>
<path d="M65.7383 16.6387L65.8819 16.7079L66.1332 16.9502L66.2768 17.1233L66.2409 17.2271L66.0973 17.2617H65.7742L65.5588 17.0887L65.5229 16.9156L65.6306 16.7079L65.7383 16.6387Z" fill="#FF4C1C"/>
<path d="M65.8821 15.6699L66.0975 15.7045L66.1693 15.7738L66.1334 16.0161L65.9898 16.1545L65.8462 16.1199L65.7026 15.9122L65.7744 15.7392L65.8821 15.6699Z" fill="#FF4C1C"/>
</svg>
