<svg width="156" height="38" viewBox="0 0 156 38" fill="none" xmlns="http://www.w3.org/2000/svg">
<path fill-rule="evenodd" clip-rule="evenodd" d="M67.2021 7.4812L64.4625 19.3562H62.0988L59.2561 31.6776H79.2914L79.6704 30.0437H78.3803V27.6687H80.2214L80.4767 26.5678H67.0179L68.2032 21.3813H78.4885L78.956 19.3562H81.3197L81.961 16.5789H71.6757L72.861 11.4307H85.8992L87.1227 6.321H70.1076V7.4812H67.2021ZM60.189 17.1165C60.189 17.8818 60.1483 18.6283 60.0671 19.3562H57.7035C57.5618 20.6259 57.2965 21.8387 56.9077 22.9946C56.3214 24.7875 55.442 26.3755 54.2694 27.7585C53.1224 29.116 51.7077 30.1789 50.0253 30.9473C48.3429 31.6901 46.4184 32.0615 44.2518 32.0615C42.1616 32.0615 40.2626 31.6261 38.5547 30.7552C36.8469 29.8844 35.4959 28.6166 34.5018 26.9517C33.5077 25.2613 33.0106 23.2379 33.0106 20.8815C33.0106 20.3645 33.0284 19.8561 33.0639 19.3562H35.4275C35.5363 17.8252 35.8117 16.3743 36.2537 15.0034C36.8654 13.1849 37.7448 11.5969 38.8919 10.2395C40.0644 8.88199 41.4919 7.83187 43.1742 7.0891C44.8821 6.32071 46.8193 5.93652 48.986 5.93652C51.1017 5.93652 53.0007 6.38475 54.6831 7.28119C56.3654 8.15203 57.7037 9.41986 58.6978 11.0847C59.6919 12.7239 60.189 14.7345 60.189 17.1165ZM39.7581 19.3562H42.1218C42.1908 18.8401 42.2867 18.3241 42.4095 17.808C42.6899 16.6042 43.1105 15.5029 43.6713 14.504C44.2321 13.4795 44.9331 12.6599 45.7743 12.0452C46.6154 11.4305 47.5968 11.1231 48.7184 11.1231C49.7635 11.1231 50.6429 11.3408 51.3566 11.7762C52.0703 12.2116 52.6184 12.8392 53.0007 13.6588C53.3831 14.4784 53.5742 15.4773 53.5742 16.6555C53.5742 17.5406 53.4916 18.4408 53.3262 19.3562H50.9625C50.9126 19.6327 50.8551 19.9107 50.79 20.19C50.5096 21.3938 50.089 22.5079 49.5282 23.5324C48.9675 24.5313 48.2665 25.3381 47.4253 25.9528C46.6096 26.5676 45.6283 26.8749 44.4812 26.8749C43.4616 26.8749 42.5822 26.6572 41.843 26.2218C41.1292 25.7864 40.5812 25.1589 40.1988 24.3392C39.8165 23.5196 39.6253 22.5207 39.6253 21.3426C39.6253 20.6804 39.6696 20.0183 39.7581 19.3562ZM103.462 19.3562H105.825C105.474 19.2572 105.102 19.1895 104.71 19.153V19.1146C105.832 18.9097 106.838 18.5127 107.731 17.9236C108.623 17.3345 109.337 16.5661 109.872 15.6184C110.407 14.6451 110.675 13.5182 110.675 12.2375C110.675 10.3934 109.999 8.9463 108.648 7.89618C107.323 6.84606 105.487 6.321 103.142 6.321H91.4042L88.3968 19.3562L86.0332 19.3562L83.1905 31.6776H97.1846C99.1474 31.6776 100.855 31.3958 102.308 30.8324C103.787 30.2689 104.934 29.4237 105.749 28.2967C105.899 28.0966 106.035 27.8873 106.158 27.6687H103.198V25.2937H106.928C106.983 24.8925 107.011 24.472 107.011 24.0322C107.011 22.7003 106.578 21.5862 105.711 20.6897C105.092 20.0489 104.342 19.6044 103.462 19.3562ZM118.71 19.3562L121.073 19.3562L121.347 18.1687H119.744V15.7937H121.895L124.081 6.321H117.504L114.497 19.3562L112.133 19.3562L109.291 31.6776H115.867L118.71 19.3562ZM137.189 19.3562L139.553 19.3562L141.379 11.4307H149.523L150.708 6.321H148.344L148.344 6.32095H148.108V6.321H127.767L126.582 11.4307H134.802L132.976 19.3562L130.612 19.3562L127.774 31.6776H134.35L135 28.8562H133.926V26.4812H135.547L137.189 19.3562ZM29.0942 19.3562H31.4579L34.4423 6.321H27.8658L26.7857 11.0437H28.7439V13.4187H26.2425L24.8847 19.3562H22.521L22.0227 21.5349C21.5894 23.4559 21.0923 24.8262 20.5315 25.6458C19.9708 26.4654 19.0914 26.8752 17.8933 26.8752C16.9502 26.8752 16.211 26.6447 15.6757 26.1836C15.1404 25.7226 14.8472 25.0311 14.7963 24.109C14.7453 23.1613 14.9874 21.9832 15.5227 20.5745L8.98449 20.8434C8.42371 22.3289 8.1943 23.7504 8.29626 25.1079C8.39822 26.4398 8.80606 27.6308 9.51979 28.6809C10.259 29.7054 11.2914 30.525 12.6168 31.1397C13.9423 31.7288 15.5482 32.0234 17.4345 32.0234C19.7031 32.0234 21.5639 31.6392 23.0168 30.8708C24.4698 30.0768 25.6168 28.9754 26.458 27.5667C27.2992 26.158 27.9237 24.5316 28.3315 22.6875L29.0942 19.3562ZM95.3424 16.7326H100.007C100.848 16.7326 101.562 16.5917 102.148 16.31C102.76 16.0282 103.219 15.644 103.525 15.1574C103.831 14.6708 103.984 14.1073 103.984 13.467C103.984 12.6473 103.703 12.0583 103.142 11.6997C102.607 11.3411 101.893 11.1618 101.001 11.1618H96.6424L95.3424 16.7326ZM91.9081 21.4581L90.6082 27.0289H96.0758C97.4268 27.0289 98.4719 26.7599 99.2111 26.2221C99.9758 25.6842 100.358 24.8902 100.358 23.8401C100.358 23.3278 100.243 22.8924 100.014 22.5338C99.7846 22.1752 99.4405 21.9063 98.9817 21.727C98.5229 21.5477 97.9493 21.4581 97.2611 21.4581H91.9081Z" fill="#3CF5FF"/>
<path fill-rule="evenodd" clip-rule="evenodd" d="M64.8385 7.4812L62.0988 19.3562H59.7352L56.8925 31.6776H76.9278L77.3068 30.0437H76.0166V27.6687H77.8577L78.1131 26.5678H64.6543L65.8396 21.3813H76.1249L76.5924 19.3562H78.9561L79.5973 16.5789H69.312L70.4973 11.4307H83.5356L84.7591 6.321H67.7439V7.4812H64.8385ZM57.8253 17.1165C57.8253 17.8818 57.7847 18.6283 57.7035 19.3562H55.3398C55.1981 20.6259 54.9329 21.8387 54.544 22.9946C53.9577 24.7875 53.0783 26.3755 51.9058 27.7585C50.7587 29.116 49.344 30.1789 47.6617 30.9473C45.9793 31.6901 44.0548 32.0615 41.8881 32.0615C39.7979 32.0615 37.8989 31.6261 36.1911 30.7552C34.4832 29.8844 33.1323 28.6166 32.1381 26.9517C31.144 25.2613 30.647 23.2379 30.647 20.8815C30.647 20.3645 30.6647 19.8561 30.7003 19.3562H33.0639C33.1727 17.8252 33.4481 16.3743 33.89 15.0034C34.5018 13.1849 35.3812 11.5969 36.5283 10.2395C37.7008 8.88199 39.1283 7.83187 40.8106 7.0891C42.5185 6.32071 44.4557 5.93652 46.6224 5.93652C48.7381 5.93652 50.6371 6.38475 52.3194 7.28119C54.0018 8.15203 55.34 9.41986 56.3341 11.0847C57.3283 12.7239 57.8253 14.7345 57.8253 17.1165ZM37.3945 19.3562H39.7582C39.8272 18.8401 39.9231 18.3241 40.0459 17.808C40.3263 16.6042 40.7469 15.5029 41.3077 14.504C41.8685 13.4795 42.5694 12.6599 43.4106 12.0452C44.2518 11.4305 45.2332 11.1231 46.3547 11.1231C47.3998 11.1231 48.2792 11.3408 48.993 11.7762C49.7067 12.2116 50.2547 12.8392 50.6371 13.6588C51.0194 14.4784 51.2106 15.4773 51.2106 16.6555C51.2106 17.5406 51.1279 18.4408 50.9626 19.3562H48.5989C48.5489 19.6327 48.4914 19.9107 48.4264 20.19C48.146 21.3938 47.7254 22.5079 47.1646 23.5324C46.6038 24.5313 45.9028 25.3381 45.0617 25.9528C44.246 26.5676 43.2646 26.8749 42.1176 26.8749C41.0979 26.8749 40.2185 26.6572 39.4793 26.2218C38.7656 25.7864 38.2176 25.1589 37.8352 24.3392C37.4528 23.5196 37.2617 22.5207 37.2617 21.3426C37.2617 20.6804 37.3059 20.0183 37.3945 19.3562ZM101.098 19.3562H103.462C103.111 19.2572 102.739 19.1895 102.346 19.153V19.1146C103.468 18.9097 104.475 18.5127 105.367 17.9236C106.259 17.3345 106.973 16.5661 107.508 15.6184C108.043 14.6451 108.311 13.5182 108.311 12.2375C108.311 10.3934 107.636 8.9463 106.285 7.89618C104.959 6.84606 103.124 6.321 100.779 6.321H89.0405L86.0332 19.3562L83.6695 19.3562L80.8269 31.6776H94.821C96.7837 31.6776 98.4916 31.3958 99.9445 30.8324C101.423 30.2689 102.57 29.4237 103.386 28.2967C103.535 28.0966 103.671 27.8873 103.794 27.6687H100.835V25.2937H104.565C104.62 24.8925 104.647 24.472 104.647 24.0322C104.647 22.7003 104.214 21.5862 103.347 20.6897C102.728 20.0489 101.978 19.6044 101.098 19.3562ZM116.346 19.3562L118.71 19.3562L118.984 18.1687H117.38V15.7937H119.532L121.717 6.321H115.141L112.133 19.3562L109.77 19.3562L106.927 31.6776H113.503L116.346 19.3562ZM134.825 19.3562L137.189 19.3562L139.015 11.4307H147.159L148.344 6.321H145.981L145.981 6.32095H145.744V6.321H125.403L124.218 11.4307H132.438L130.612 19.3562L128.249 19.3562L125.41 31.6776H131.987L132.637 28.8562H131.562V26.4812H133.184L134.825 19.3562ZM26.7306 19.3562H29.0943L32.0786 6.321H25.5021L24.4221 11.0437H26.3803V13.4187H23.8789L22.521 19.3562H20.1574L19.6591 21.5349C19.2258 23.4559 18.7287 24.8262 18.1679 25.6458C17.6071 26.4654 16.7277 26.8752 15.5297 26.8752C14.5865 26.8752 13.8473 26.6447 13.312 26.1836C12.7767 25.7226 12.4836 25.0311 12.4326 24.109C12.3816 23.1613 12.6238 21.9832 13.1591 20.5745L6.62086 20.8434C6.06007 22.3289 5.83066 23.7504 5.93262 25.1079C6.03458 26.4398 6.44243 27.6308 7.15615 28.6809C7.89537 29.7054 8.92772 30.525 10.2532 31.1397C11.5787 31.7288 13.1846 32.0234 15.0709 32.0234C17.3395 32.0234 19.2003 31.6392 20.6532 30.8708C22.1061 30.0768 23.2532 28.9754 24.0944 27.5667C24.9356 26.158 25.5601 24.5316 25.9679 22.6875L26.7306 19.3562ZM92.9788 16.7326H97.6435C98.4847 16.7326 99.1984 16.5917 99.7846 16.31C100.396 16.0282 100.855 15.644 101.161 15.1574C101.467 14.6708 101.62 14.1073 101.62 13.467C101.62 12.6473 101.34 12.0583 100.779 11.6997C100.243 11.3411 99.5297 11.1618 98.6376 11.1618H94.2788L92.9788 16.7326ZM89.5445 21.4581L88.2445 27.0289H93.7122C95.0631 27.0289 96.1082 26.7599 96.8475 26.2221C97.6122 25.6842 97.9945 24.8902 97.9945 23.8401C97.9945 23.3278 97.8798 22.8924 97.6504 22.5338C97.421 22.1752 97.0769 21.9063 96.618 21.727C96.1592 21.5477 95.5857 21.4581 94.8975 21.4581H89.5445Z" fill="#DC00FF"/>
<path fill-rule="evenodd" clip-rule="evenodd" d="M66.0203 7.4812L63.2806 19.3562H60.917L58.0743 31.6776H78.1096L78.4886 30.0437H77.1985V27.6687H79.0395L79.2949 26.5678H65.8361L67.0214 21.3813H77.3067L77.7742 19.3562H80.1379L80.7791 16.5789H70.4939L71.6791 11.4307H84.7174L85.9409 6.321H68.9257V7.4812H66.0203ZM59.0071 17.1165C59.0071 17.8818 58.9665 18.6283 58.8853 19.3562H56.5216C56.3799 20.6259 56.1147 21.8387 55.7258 22.9946C55.1396 24.7875 54.2601 26.3755 53.0876 27.7585C51.9405 29.116 50.5258 30.1789 48.8435 30.9473C47.1611 31.6901 45.2366 32.0615 43.07 32.0615C40.9798 32.0615 39.0807 31.6261 37.3729 30.7552C35.6651 29.8844 34.3141 28.6166 33.32 26.9517C32.3258 25.2613 31.8288 23.2379 31.8288 20.8815C31.8288 20.3645 31.8465 19.8561 31.8821 19.3562H34.2457C34.3545 17.8252 34.6299 16.3743 35.0718 15.0034C35.6836 13.1849 36.563 11.5969 37.7101 10.2395C38.8826 8.88199 40.3101 7.83187 41.9924 7.0891C43.7003 6.32071 45.6375 5.93652 47.8042 5.93652C49.9199 5.93652 51.8189 6.38475 53.5012 7.28119C55.1836 8.15203 56.5218 9.41986 57.5159 11.0847C58.5101 12.7239 59.0071 14.7345 59.0071 17.1165ZM38.5763 19.3562H40.94C41.009 18.8401 41.1049 18.3241 41.2277 17.808C41.5081 16.6042 41.9287 15.5029 42.4895 14.504C43.0503 13.4795 43.7513 12.6599 44.5924 12.0452C45.4336 11.4305 46.415 11.1231 47.5365 11.1231C48.5816 11.1231 49.4611 11.3408 50.1748 11.7762C50.8885 12.2116 51.4365 12.8392 51.8189 13.6588C52.2013 14.4784 52.3924 15.4773 52.3924 16.6555C52.3924 17.5406 52.3097 18.4408 52.1444 19.3562H49.7807C49.7308 19.6327 49.6732 19.9107 49.6082 20.19C49.3278 21.3938 48.9072 22.5079 48.3464 23.5324C47.7856 24.5313 47.0847 25.3381 46.2435 25.9528C45.4278 26.5676 44.4464 26.8749 43.2994 26.8749C42.2798 26.8749 41.4003 26.6572 40.6611 26.2218C39.9474 25.7864 39.3994 25.1589 39.017 24.3392C38.6347 23.5196 38.4435 22.5207 38.4435 21.3426C38.4435 20.6804 38.4878 20.0183 38.5763 19.3562ZM102.28 19.3562H104.643C104.292 19.2572 103.921 19.1895 103.528 19.153V19.1146C104.65 18.9097 105.657 18.5127 106.549 17.9236C107.441 17.3345 108.155 16.5661 108.69 15.6184C109.225 14.6451 109.493 13.5182 109.493 12.2375C109.493 10.3934 108.817 8.9463 107.466 7.89618C106.141 6.84606 104.306 6.321 101.961 6.321H90.2223L87.215 19.3562L84.8513 19.3562L82.0087 31.6776H96.0028C97.9655 31.6776 99.6734 31.3958 101.126 30.8324C102.605 30.2689 103.752 29.4237 104.567 28.2967C104.717 28.0966 104.853 27.8873 104.976 27.6687H102.017V25.2937H105.746C105.802 24.8925 105.829 24.472 105.829 24.0322C105.829 22.7003 105.396 21.5862 104.529 20.6897C103.91 20.0489 103.16 19.6044 102.28 19.3562ZM117.528 19.3562L119.892 19.3562L120.166 18.1687H118.562V15.7937H120.713L122.899 6.321H116.322L113.315 19.3562L110.951 19.3562L108.109 31.6776H114.685L117.528 19.3562ZM136.007 19.3562L138.371 19.3562L140.197 11.4307H148.341L149.526 6.321H147.162L147.162 6.32095H146.926V6.321H126.585L125.4 11.4307H133.62L131.794 19.3562L129.431 19.3562L126.592 31.6776H133.168L133.818 28.8562H132.744V26.4812H134.366L136.007 19.3562ZM27.9124 19.3562H30.2761L33.2604 6.321H26.684L25.6039 11.0437H27.5621V13.4187H25.0607L23.7028 19.3562H21.3392L20.8409 21.5349C20.4076 23.4559 19.9105 24.8262 19.3497 25.6458C18.7889 26.4654 17.9095 26.8752 16.7115 26.8752C15.7684 26.8752 15.0291 26.6447 14.4938 26.1836C13.9586 25.7226 13.6654 25.0311 13.6144 24.109C13.5635 23.1613 13.8056 21.9832 14.3409 20.5745L7.80267 20.8434C7.24189 22.3289 7.01248 23.7504 7.11444 25.1079C7.2164 26.4398 7.62424 27.6308 8.33797 28.6809C9.07718 29.7054 10.1095 30.525 11.435 31.1397C12.7605 31.7288 14.3664 32.0234 16.2527 32.0234C18.5213 32.0234 20.3821 31.6392 21.835 30.8708C23.288 30.0768 24.435 28.9754 25.2762 27.5667C26.1174 26.158 26.7419 24.5316 27.1497 22.6875L27.9124 19.3562ZM94.1606 16.7326H98.8253C99.6665 16.7326 100.38 16.5917 100.966 16.31C101.578 16.0282 102.037 15.644 102.343 15.1574C102.649 14.6708 102.802 14.1073 102.802 13.467C102.802 12.6473 102.521 12.0583 101.961 11.6997C101.425 11.3411 100.712 11.1618 99.8194 11.1618H95.4606L94.1606 16.7326ZM90.7263 21.4581L89.4263 27.0289H94.894C96.2449 27.0289 97.29 26.7599 98.0293 26.2221C98.794 25.6842 99.1763 24.8902 99.1763 23.8401C99.1763 23.3278 99.0616 22.8924 98.8322 22.5338C98.6028 22.1752 98.2587 21.9063 97.7998 21.727C97.341 21.5477 96.7675 21.4581 96.0793 21.4581H90.7263Z" fill="#5A23B4"/>
</svg>
