<svg width="77" height="14" viewBox="0 0 77 14" fill="none" xmlns="http://www.w3.org/2000/svg">
<path fill-rule="evenodd" clip-rule="evenodd" d="M32.5396 0.937988L31.0907 7.18797H29.8407L28.3374 13.6729H38.933L39.1334 12.813H38.4511V11.563H39.4248L39.5598 10.9836H32.4422L33.069 8.2538H38.5083L38.7556 7.18799H40.0056L40.3447 5.72625H34.9054L35.5322 3.01669H42.4275L43.0745 0.327355H34.0761V0.937988H32.5396ZM28.8307 6.00919C28.8307 6.41197 28.8092 6.8049 28.7663 7.18799H27.5163C27.4413 7.85625 27.301 8.49457 27.0954 9.10292C26.7853 10.0465 26.3203 10.8823 25.7002 11.6103C25.0936 12.3247 24.3454 12.8842 23.4557 13.2886C22.566 13.6795 21.5482 13.875 20.4024 13.875C19.297 13.875 18.2927 13.6458 17.3895 13.1875C16.4863 12.7291 15.7719 12.0619 15.2461 11.1856C14.7204 10.2959 14.4575 9.23098 14.4575 7.99079C14.4575 7.71869 14.4669 7.45108 14.4857 7.18797H15.7357C15.7933 6.3822 15.9389 5.61856 16.1726 4.89706C16.4961 3.93995 16.9612 3.10417 17.5678 2.38971C18.1879 1.67525 18.9428 1.12255 19.8325 0.731617C20.7357 0.327205 21.7602 0.125 22.9061 0.125C24.0249 0.125 25.0292 0.360906 25.9189 0.83272C26.8086 1.29105 27.5164 1.95833 28.0421 2.83456C28.5678 3.6973 28.8307 4.75552 28.8307 6.00919ZM18.0259 7.18799H19.2759C19.3124 6.91638 19.3632 6.64477 19.4281 6.37316C19.5764 5.73958 19.7988 5.15993 20.0954 4.63419C20.392 4.09498 20.7627 3.6636 21.2075 3.34007C21.6524 3.01654 22.1714 2.85478 22.7645 2.85478C23.3172 2.85478 23.7823 2.96936 24.1597 3.19853C24.5372 3.4277 24.827 3.75797 25.0292 4.18934C25.2314 4.62071 25.3325 5.14645 25.3325 5.76654C25.3325 6.2324 25.2888 6.70621 25.2014 7.18797H23.9513C23.9249 7.33352 23.8945 7.47981 23.8601 7.62682C23.7118 8.2604 23.4894 8.84679 23.1928 9.38601C22.8963 9.91174 22.5255 10.3364 22.0807 10.6599C21.6493 10.9834 21.1303 11.1452 20.5237 11.1452C19.9845 11.1452 19.5194 11.0306 19.1285 10.8014C18.751 10.5723 18.4612 10.242 18.259 9.81064C18.0568 9.37927 17.9557 8.85353 17.9557 8.23343C17.9557 7.88495 17.9791 7.53647 18.0259 7.18799ZM51.7153 7.18799H52.9652C52.7796 7.1359 52.583 7.10025 52.3755 7.08103V7.06081C52.9686 6.95297 53.5011 6.74402 53.9729 6.43397C54.4447 6.12392 54.8222 5.71951 55.1053 5.22074C55.3884 4.70848 55.5299 4.11535 55.5299 3.44133C55.5299 2.47074 55.1727 1.7091 54.4582 1.1564C53.7572 0.603703 52.7867 0.327355 51.5465 0.327355H45.3387L43.7483 7.18799L42.4983 7.18797L40.995 13.6729H48.3957C49.4337 13.6729 50.3369 13.5246 51.1053 13.2281C51.8871 12.9315 52.4938 12.4866 52.9251 11.8935C53.0041 11.7882 53.076 11.678 53.141 11.563H51.5761V10.313H53.5486C53.5778 10.1019 53.5924 9.88053 53.5924 9.64902C53.5924 8.94804 53.3632 8.36165 52.9049 7.88983C52.5773 7.55255 52.1807 7.31861 51.7153 7.18799ZM59.7792 7.18797L61.0292 7.18799L61.1741 6.56299H60.3261V5.31299H61.4638L62.6196 0.327355H59.1417L57.5512 7.18799L56.3012 7.18797L54.7979 13.6729H58.2758L59.7792 7.18797ZM69.5518 7.18797L70.8019 7.18799L71.7675 3.01669H76.0745L76.7013 0.327355H75.4513L75.4513 0.327332H75.3261V0.327355H64.569L63.9421 3.01669H68.2896L67.3239 7.18799L66.0739 7.18797L64.5727 13.6729H68.0506L68.3944 12.188H67.8261V10.938H68.6837L69.5518 7.18797ZM12.3864 7.18799H13.6364L15.2147 0.327355H11.7367L11.1655 2.81299H12.2011V4.06299H10.8783L10.1602 7.18797H8.91015L8.64663 8.33469C8.41747 9.34572 8.1546 10.0669 7.85803 10.4983C7.56146 10.9297 7.09639 11.1453 6.46281 11.1453C5.96404 11.1453 5.5731 11.024 5.29002 10.7814C5.00693 10.5387 4.8519 10.1748 4.82494 9.68947C4.79798 9.19069 4.92605 8.57059 5.20913 7.82917L1.75141 7.97072C1.45485 8.75258 1.33352 9.50074 1.38744 10.2152C1.44136 10.9162 1.65705 11.543 2.0345 12.0957C2.42543 12.6349 2.97139 13.0663 3.67237 13.3898C4.37335 13.6999 5.22261 13.8549 6.22016 13.8549C7.41992 13.8549 8.40399 13.6527 9.17237 13.2483C9.94075 12.8304 10.5474 12.2507 10.9922 11.5093C11.4371 10.7679 11.7673 9.91189 11.983 8.9413L12.3864 7.18799ZM47.4215 5.80713H49.8884C50.3332 5.80713 50.7107 5.73299 51.0207 5.58471C51.3443 5.43642 51.5869 5.23422 51.7487 4.97809C51.9104 4.72196 51.9913 4.42539 51.9913 4.08838C51.9913 3.65701 51.843 3.34696 51.5465 3.15824C51.2634 2.96951 50.8859 2.87515 50.4141 2.87515H48.109L47.4215 5.80713ZM45.6053 8.29425L44.9178 11.2262H47.8093C48.5238 11.2262 49.0765 11.0847 49.4674 10.8016C49.8718 10.5185 50.074 10.1006 50.074 9.54792C50.074 9.27831 50.0134 9.04915 49.892 8.86042C49.7707 8.6717 49.5887 8.53015 49.3461 8.43579C49.1034 8.34143 48.8001 8.29425 48.4362 8.29425H45.6053Z" fill="#3CF5FF"/>
<path fill-rule="evenodd" clip-rule="evenodd" d="M31.2896 0.937988L29.8407 7.18797H28.5907L27.0874 13.6729H37.683L37.8834 12.813H37.2011V11.563H38.1748L38.3098 10.9836H31.1922L31.819 8.2538H37.2583L37.5056 7.18799H38.7556L39.0947 5.72625H33.6554L34.2822 3.01669H41.1775L41.8245 0.327355H32.8261V0.937988H31.2896ZM27.5807 6.00919C27.5807 6.41197 27.5592 6.8049 27.5163 7.18799H26.2663C26.1913 7.85625 26.051 8.49457 25.8454 9.10292C25.5353 10.0465 25.0703 10.8823 24.4502 11.6103C23.8436 12.3247 23.0954 12.8842 22.2057 13.2886C21.316 13.6795 20.2982 13.875 19.1524 13.875C18.047 13.875 17.0427 13.6458 16.1395 13.1875C15.2363 12.7291 14.5219 12.0619 13.9961 11.1856C13.4704 10.2959 13.2075 9.23098 13.2075 7.99079C13.2075 7.71869 13.2169 7.45108 13.2357 7.18797H14.4857C14.5433 6.3822 14.6889 5.61856 14.9226 4.89706C15.2461 3.93995 15.7112 3.10417 16.3178 2.38971C16.9379 1.67525 17.6928 1.12255 18.5825 0.731617C19.4857 0.327205 20.5102 0.125 21.6561 0.125C22.7749 0.125 23.7792 0.360906 24.6689 0.83272C25.5586 1.29105 26.2664 1.95833 26.7921 2.83456C27.3178 3.6973 27.5807 4.75552 27.5807 6.00919ZM16.7759 7.18799H18.0259C18.0624 6.91638 18.1132 6.64477 18.1781 6.37316C18.3264 5.73958 18.5488 5.15993 18.8454 4.63419C19.142 4.09498 19.5127 3.6636 19.9575 3.34007C20.4024 3.01654 20.9214 2.85478 21.5145 2.85478C22.0672 2.85478 22.5323 2.96936 22.9097 3.19853C23.2872 3.4277 23.577 3.75797 23.7792 4.18934C23.9814 4.62071 24.0825 5.14645 24.0825 5.76654C24.0825 6.2324 24.0388 6.70621 23.9514 7.18797H22.7013C22.6749 7.33352 22.6445 7.47981 22.6101 7.62682C22.4618 8.2604 22.2394 8.84679 21.9428 9.38601C21.6463 9.91174 21.2755 10.3364 20.8307 10.6599C20.3993 10.9834 19.8803 11.1452 19.2737 11.1452C18.7345 11.1452 18.2694 11.0306 17.8785 10.8014C17.501 10.5723 17.2112 10.242 17.009 9.81064C16.8068 9.37927 16.7057 8.85353 16.7057 8.23343C16.7057 7.88495 16.7291 7.53647 16.7759 7.18799ZM50.4653 7.18799H51.7152C51.5296 7.1359 51.333 7.10025 51.1255 7.08103V7.06081C51.7186 6.95297 52.2511 6.74402 52.7229 6.43397C53.1947 6.12392 53.5722 5.71951 53.8553 5.22074C54.1384 4.70848 54.2799 4.11535 54.2799 3.44133C54.2799 2.47074 53.9227 1.7091 53.2082 1.1564C52.5072 0.603703 51.5367 0.327355 50.2965 0.327355H44.0887L42.4983 7.18799L41.2483 7.18797L39.745 13.6729H47.1457C48.1837 13.6729 49.0869 13.5246 49.8553 13.2281C50.6371 12.9315 51.2438 12.4866 51.6751 11.8935C51.7541 11.7882 51.826 11.678 51.891 11.563H50.3261V10.313H52.2986C52.3278 10.1019 52.3424 9.88053 52.3424 9.64902C52.3424 8.94804 52.1132 8.36165 51.6549 7.88983C51.3273 7.55255 50.9307 7.31861 50.4653 7.18799ZM58.5292 7.18797L59.7792 7.18799L59.9241 6.56299H59.0761V5.31299H60.2138L61.3696 0.327355H57.8917L56.3012 7.18799L55.0512 7.18797L53.5479 13.6729H57.0258L58.5292 7.18797ZM68.3018 7.18797L69.5519 7.18799L70.5175 3.01669H74.8245L75.4513 0.327355H74.2013L74.2013 0.327332H74.0761V0.327355H63.319L62.6921 3.01669H67.0396L66.0739 7.18799L64.8239 7.18797L63.3227 13.6729H66.8006L67.1444 12.188H66.5761V10.938H67.4337L68.3018 7.18797ZM11.1364 7.18799H12.3864L13.9647 0.327355H10.4867L9.91552 2.81299H10.9511V4.06299H9.62827L8.91016 7.18797H7.66015L7.39663 8.33469C7.16747 9.34572 6.9046 10.0669 6.60803 10.4983C6.31146 10.9297 5.84639 11.1453 5.21281 11.1453C4.71404 11.1453 4.3231 11.024 4.04002 10.7814C3.75693 10.5387 3.6019 10.1748 3.57494 9.68947C3.54798 9.19069 3.67605 8.57059 3.95913 7.82917L0.501414 7.97072C0.204845 8.75258 0.0835219 9.50074 0.137443 10.2152C0.191365 10.9162 0.407051 11.543 0.784502 12.0957C1.17543 12.6349 1.72139 13.0663 2.42237 13.3898C3.12335 13.6999 3.97261 13.8549 4.97016 13.8549C6.16992 13.8549 7.15399 13.6527 7.92237 13.2483C8.69075 12.8304 9.29737 12.2507 9.74222 11.5093C10.1871 10.7679 10.5173 9.91189 10.733 8.9413L11.1364 7.18799ZM46.1715 5.80713H48.6384C49.0832 5.80713 49.4607 5.73299 49.7707 5.58471C50.0943 5.43642 50.3369 5.23422 50.4987 4.97809C50.6604 4.72196 50.7413 4.42539 50.7413 4.08838C50.7413 3.65701 50.593 3.34696 50.2965 3.15824C50.0134 2.96951 49.6359 2.87515 49.1641 2.87515H46.859L46.1715 5.80713ZM44.3553 8.29425L43.6678 11.2262H46.5593C47.2738 11.2262 47.8265 11.0847 48.2174 10.8016C48.6218 10.5185 48.824 10.1006 48.824 9.54792C48.824 9.27831 48.7634 9.04915 48.642 8.86042C48.5207 8.6717 48.3387 8.53015 48.0961 8.43579C47.8534 8.34143 47.5501 8.29425 47.1862 8.29425H44.3553Z" fill="#DC00FF"/>
<path fill-rule="evenodd" clip-rule="evenodd" d="M31.9146 0.937988L30.4657 7.18797H29.2157L27.7124 13.6729H38.308L38.5084 12.813H37.8261V11.563H38.7998L38.9348 10.9836H31.8172L32.444 8.2538H37.8833L38.1306 7.18799H39.3806L39.7197 5.72625H34.2804L34.9072 3.01669H41.8025L42.4495 0.327355H33.4511V0.937988H31.9146ZM28.2057 6.00919C28.2057 6.41197 28.1842 6.8049 28.1413 7.18799H26.8913C26.8163 7.85625 26.676 8.49457 26.4704 9.10292C26.1603 10.0465 25.6953 10.8823 25.0752 11.6103C24.4686 12.3247 23.7204 12.8842 22.8307 13.2886C21.941 13.6795 20.9232 13.875 19.7774 13.875C18.672 13.875 17.6677 13.6458 16.7645 13.1875C15.8613 12.7291 15.1469 12.0619 14.6211 11.1856C14.0954 10.2959 13.8325 9.23098 13.8325 7.99079C13.8325 7.71869 13.8419 7.45108 13.8607 7.18797H15.1107C15.1683 6.3822 15.3139 5.61856 15.5476 4.89706C15.8711 3.93995 16.3362 3.10417 16.9428 2.38971C17.5629 1.67525 18.3178 1.12255 19.2075 0.731617C20.1107 0.327205 21.1352 0.125 22.2811 0.125C23.3999 0.125 24.4042 0.360906 25.2939 0.83272C26.1836 1.29105 26.8914 1.95833 27.4171 2.83456C27.9428 3.6973 28.2057 4.75552 28.2057 6.00919ZM17.4009 7.18799H18.6509C18.6874 6.91638 18.7382 6.64477 18.8031 6.37316C18.9514 5.73958 19.1738 5.15993 19.4704 4.63419C19.767 4.09498 20.1377 3.6636 20.5825 3.34007C21.0274 3.01654 21.5464 2.85478 22.1395 2.85478C22.6922 2.85478 23.1573 2.96936 23.5347 3.19853C23.9122 3.4277 24.202 3.75797 24.4042 4.18934C24.6064 4.62071 24.7075 5.14645 24.7075 5.76654C24.7075 6.2324 24.6638 6.70621 24.5764 7.18797H23.3263C23.2999 7.33352 23.2695 7.47981 23.2351 7.62682C23.0868 8.2604 22.8644 8.84679 22.5678 9.38601C22.2713 9.91174 21.9005 10.3364 21.4557 10.6599C21.0243 10.9834 20.5053 11.1452 19.8987 11.1452C19.3595 11.1452 18.8944 11.0306 18.5035 10.8014C18.126 10.5723 17.8362 10.242 17.634 9.81064C17.4318 9.37927 17.3307 8.85353 17.3307 8.23343C17.3307 7.88495 17.3541 7.53647 17.4009 7.18799ZM51.0903 7.18799H52.3402C52.1546 7.1359 51.958 7.10025 51.7505 7.08103V7.06081C52.3436 6.95297 52.8761 6.74402 53.3479 6.43397C53.8197 6.12392 54.1972 5.71951 54.4803 5.22074C54.7634 4.70848 54.9049 4.11535 54.9049 3.44133C54.9049 2.47074 54.5477 1.7091 53.8332 1.1564C53.1322 0.603703 52.1617 0.327355 50.9215 0.327355H44.7137L43.1233 7.18799L41.8733 7.18797L40.37 13.6729H47.7707C48.8087 13.6729 49.7119 13.5246 50.4803 13.2281C51.2621 12.9315 51.8688 12.4866 52.3001 11.8935C52.3791 11.7882 52.451 11.678 52.516 11.563H50.9511V10.313H52.9236C52.9528 10.1019 52.9674 9.88053 52.9674 9.64902C52.9674 8.94804 52.7382 8.36165 52.2799 7.88983C51.9523 7.55255 51.5557 7.31861 51.0903 7.18799ZM59.1542 7.18797L60.4042 7.18799L60.5491 6.56299H59.7011V5.31299H60.8388L61.9946 0.327355H58.5167L56.9262 7.18799L55.6762 7.18797L54.1729 13.6729H57.6508L59.1542 7.18797ZM68.9268 7.18797L70.1769 7.18799L71.1425 3.01669H75.4495L76.0763 0.327355H74.8263L74.8263 0.327332H74.7011V0.327355H63.944L63.3171 3.01669H67.6646L66.6989 7.18799L65.4489 7.18797L63.9477 13.6729H67.4256L67.7694 12.188H67.2011V10.938H68.0587L68.9268 7.18797ZM11.7614 7.18799H13.0114L14.5897 0.327355H11.1117L10.5405 2.81299H11.5761V4.06299H10.2533L9.53516 7.18797H8.28515L8.02163 8.33469C7.79247 9.34572 7.5296 10.0669 7.23303 10.4983C6.93646 10.9297 6.47139 11.1453 5.83781 11.1453C5.33904 11.1453 4.9481 11.024 4.66502 10.7814C4.38193 10.5387 4.2269 10.1748 4.19994 9.68947C4.17298 9.19069 4.30105 8.57059 4.58413 7.82917L1.12641 7.97072C0.829845 8.75258 0.708522 9.50074 0.762443 10.2152C0.816365 10.9162 1.03205 11.543 1.4095 12.0957C1.80043 12.6349 2.34639 13.0663 3.04737 13.3898C3.74835 13.6999 4.59761 13.8549 5.59516 13.8549C6.79492 13.8549 7.77899 13.6527 8.54737 13.2483C9.31575 12.8304 9.92237 12.2507 10.3672 11.5093C10.8121 10.7679 11.1423 9.91189 11.358 8.9413L11.7614 7.18799ZM46.7965 5.80713H49.2634C49.7082 5.80713 50.0857 5.73299 50.3957 5.58471C50.7193 5.43642 50.9619 5.23422 51.1237 4.97809C51.2854 4.72196 51.3663 4.42539 51.3663 4.08838C51.3663 3.65701 51.218 3.34696 50.9215 3.15824C50.6384 2.96951 50.2609 2.87515 49.7891 2.87515H47.484L46.7965 5.80713ZM44.9803 8.29425L44.2928 11.2262H47.1843C47.8988 11.2262 48.4515 11.0847 48.8424 10.8016C49.2468 10.5185 49.449 10.1006 49.449 9.54792C49.449 9.27831 49.3884 9.04915 49.267 8.86042C49.1457 8.6717 48.9637 8.53015 48.7211 8.43579C48.4784 8.34143 48.1751 8.29425 47.8112 8.29425H44.9803Z" fill="#5A23B4"/>
</svg>
