<svg width="40" height="40" viewBox="0 0 40 40" fill="none" xmlns="http://www.w3.org/2000/svg">
<rect x="0.5" y="0.5" width="39" height="39" rx="3.5" stroke="black"/>
<path d="M14.9414 13.001C14.9411 13.5314 14.7302 14.04 14.3549 14.4149C13.9797 14.7898 13.4708 15.0003 12.9404 15C12.41 14.9997 11.9014 14.7888 11.5265 14.4135C11.1516 14.0382 10.9411 13.5294 10.9414 12.999C10.9417 12.4686 11.1526 11.96 11.5279 11.5851C11.9032 11.2102 12.412 10.9997 12.9424 11C13.4728 11.0003 13.9814 11.2112 14.3563 11.5865C14.7312 11.9618 14.9417 12.4706 14.9414 13.001ZM15.0014 16.481H11.0014V29.001H15.0014V16.481ZM21.3214 16.481H17.3414V29.001H21.2814V22.431C21.2814 18.771 26.0514 18.431 26.0514 22.431V29.001H30.0014V21.071C30.0014 14.901 22.9414 15.131 21.2814 18.161L21.3214 16.481Z" fill="black"/>
</svg>
