<svg width="28" height="37" viewBox="0 0 28 37" fill="none" xmlns="http://www.w3.org/2000/svg">
<path d="M3.49007 36.9867C1.99883 36.7327 0.928855 35.6539 0.800528 34.1237L0.797873 15.1146C0.763358 14.857 1.18993 14.3738 1.40145 14.3738H3.84408C3.88567 12.5658 3.69362 10.7789 4.09099 9.00271C6.51769 -1.83424 22.2691 -1.83424 24.6958 9.00271C25.0932 10.7789 24.902 12.5658 24.9427 14.3738H27.3853C27.5969 14.3738 28.0234 14.857 27.9889 15.1146L27.9863 34.1237C27.9031 35.5574 26.7304 36.8256 25.2967 36.9867H3.49007ZM20.4115 14.3747V10.594C20.4115 10.0691 19.915 8.8735 19.645 8.39117C17.3493 4.29446 11.3764 4.33163 9.11785 8.43719C8.85766 8.90978 8.37621 10.0833 8.37621 10.594V14.3747H20.4123H20.4115ZM14.3102 20.3972C11.4428 20.4671 10.3206 24.1824 12.6136 25.8701L12.1322 30.304C12.2118 30.7067 12.4968 30.9023 12.8898 30.9625C13.4818 31.0527 15.2342 31.0492 15.8368 30.9731C16.2493 30.9209 16.5705 30.7368 16.6555 30.3049L16.174 25.871C18.5299 24.1213 17.2714 20.3264 14.3111 20.3981L14.3102 20.3972Z" fill="#48001E"/>
<path d="M3.49007 36.9867C1.99883 36.7327 0.928855 35.6539 0.800528 34.1237L0.797873 15.1146C0.763358 14.857 1.18993 14.3738 1.40145 14.3738H3.84408C3.88567 12.5658 3.69362 10.7789 4.09099 9.00271C6.51769 -1.83424 22.2691 -1.83424 24.6958 9.00271C25.0932 10.7789 24.902 12.5658 24.9427 14.3738H27.3853C27.5969 14.3738 28.0234 14.857 27.9889 15.1146L27.9863 34.1237C27.9031 35.5574 26.7304 36.8256 25.2967 36.9867H3.49007ZM20.4115 14.3747V10.594C20.4115 10.0691 19.915 8.8735 19.645 8.39117C17.3493 4.29446 11.3764 4.33163 9.11785 8.43719C8.85766 8.90978 8.37621 10.0833 8.37621 10.594V14.3747H20.4123H20.4115ZM14.3102 20.3972C11.4428 20.4671 10.3206 24.1824 12.6136 25.8701L12.1322 30.304C12.2118 30.7067 12.4968 30.9023 12.8898 30.9625C13.4818 31.0527 15.2342 31.0492 15.8368 30.9731C16.2493 30.9209 16.5705 30.7368 16.6555 30.3049L16.174 25.871C18.5299 24.1213 17.2714 20.3264 14.3111 20.3981L14.3102 20.3972Z" fill="black" fill-opacity="0.2"/>
</svg>
