<svg width="69" height="46" viewBox="0 0 69 46" fill="none" xmlns="http://www.w3.org/2000/svg">
<g id="Logo white 2 1" clip-path="url(#clip0_591_1802)">
<path id="Vector" fill-rule="evenodd" clip-rule="evenodd" d="M15.1508 21.4427L14.8181 36.5001L24.9841 36.2624C25.0225 35.4037 25.0685 34.5527 25.1145 33.7017L25.1147 33.6986C25.1683 32.8411 25.2219 31.9833 25.2678 31.1181H20.2691L20.3841 29.3931L23.9185 29.2781L24.1791 25.6211H20.6678L20.7828 24.1337L25.7815 23.8731C25.8428 23.1371 25.8965 22.4011 25.9348 21.6804C25.9655 21.1034 26.0011 20.5166 26.0377 19.9278C25.6742 20.2697 25.2551 20.5457 24.7848 20.7604C24.1178 21.0517 23.3971 21.2357 22.6305 21.3277C21.9328 21.4044 21.2275 21.4427 20.5221 21.4427H15.1508ZM15.1776 20.2314H20.5298C21.1891 20.2314 21.8485 20.1931 22.5078 20.1241C23.1748 20.0397 23.7728 19.8864 24.3095 19.6487C24.4131 19.6014 24.5129 19.5502 24.6085 19.4954H15.1938L15.1776 20.2314ZM27.7278 19.6539L26.3028 19.6564L26.1648 25.2224L29.6761 25.0307L29.6531 36.2087L34.6288 35.9481L35.5258 24.7701L39.0371 24.6321L39.1521 19.6334L38.6054 19.6344C38.5337 19.8319 38.4388 20.0207 38.3241 20.2007V20.2161C38.0558 20.6224 37.6878 20.9061 37.2968 21.1054C36.7985 21.3661 36.2235 21.4427 35.6715 21.4427H30.6268C30.1898 21.4427 29.7528 21.4044 29.3618 21.2894C28.9938 21.1821 28.6181 20.9981 28.3038 20.6837C28.0122 20.3922 27.8246 20.0313 27.7278 19.6539ZM29.0785 19.6514C29.1144 19.7063 29.1553 19.7565 29.2008 19.8021C29.3311 19.9324 29.5151 20.0397 29.7528 20.1087C29.9905 20.1777 30.2971 20.2161 30.6728 20.2161H35.7175C36.1775 20.2161 36.5301 20.1471 36.7908 20.0167C36.9971 19.9105 37.1678 19.7838 37.2902 19.6367L29.0785 19.6514ZM41.0162 19.6537L39.4665 19.6564L39.3285 25.2224L42.8398 25.0307L42.8168 36.2087L47.7925 35.9481L48.6895 24.7701L52.2008 24.6321L52.2743 21.4351H52.0091C51.7945 21.4351 51.5108 21.4044 51.2195 21.2587L51.1581 21.2281C51.0815 21.1897 51.0125 21.1361 50.9435 21.0824C50.6675 21.2127 50.3761 21.3354 50.0771 21.4351C49.6478 21.5884 49.1878 21.7034 48.7048 21.7801C48.2065 21.8644 47.6851 21.9027 47.1408 21.9027C46.4968 21.9027 45.8375 21.8491 45.1705 21.7341C44.4651 21.6114 43.7751 21.3967 43.1081 21.0977L43.1005 21.0901H43.0928C42.4181 20.7757 41.7818 20.3464 41.1915 19.8174C41.1323 19.7641 41.0739 19.7095 41.0162 19.6537ZM43.0455 19.65C43.2514 19.778 43.4613 19.8924 43.6755 19.9937C44.2505 20.2544 44.8408 20.4384 45.4465 20.5381C46.0521 20.6377 46.6425 20.6914 47.2175 20.6914C47.7005 20.6914 48.1605 20.6531 48.5821 20.5841C49.0115 20.5151 49.4025 20.4154 49.7628 20.2927C50.0005 20.2161 50.2228 20.1241 50.4298 20.0321C50.4349 20.0295 50.44 20.0261 50.4451 20.0227C50.4553 20.0159 50.4656 20.0091 50.4758 20.0091C50.5256 19.9823 50.5752 19.9574 50.625 19.9326C50.6748 19.9077 50.7251 19.8825 50.7748 19.8557C50.8821 19.8021 50.9895 19.7407 51.0891 19.6794C51.1126 19.6648 51.1359 19.6501 51.1591 19.6355L43.0455 19.65ZM51.6105 19.6346V19.6794C51.6105 19.7407 51.6181 19.8097 51.6258 19.8787C51.6411 19.9401 51.6641 20.0014 51.6948 20.0551C51.7331 20.1087 51.7791 20.1547 51.8328 20.1854C51.8941 20.2161 51.9785 20.2314 52.0781 20.2314H52.3021L52.3158 19.6334L51.6105 19.6346ZM52.7126 21.4351L55.8731 29.6307L55.7351 36.9677H61.3241L61.6308 29.5847L68.1168 20.5304H68.1091L62.4511 20.1317L59.4535 25.2224L58.5105 20.1317L54.8187 20.5932C54.7116 20.7908 54.5591 20.9822 54.3475 21.1361L54.3015 21.1744L54.2478 21.2051C54.0331 21.3277 53.8108 21.3891 53.5961 21.4121C53.4811 21.4351 53.3661 21.4351 53.2511 21.4351H52.7126ZM14.1051 33.9855C14.3505 33.5102 14.4731 32.9505 14.4731 32.2988H14.4501C14.4501 31.7698 14.3735 31.2792 14.2048 30.8115C14.0515 30.3515 13.8215 29.9298 13.5225 29.5618C13.2311 29.1938 12.8708 28.8795 12.4491 28.6188C12.0351 28.3582 11.5751 28.1588 11.0615 28.0285C11.4831 27.9212 11.8665 27.7678 12.2038 27.5532C12.5411 27.3308 12.8248 27.0702 13.0625 26.7634C13.3001 26.4568 13.4841 26.1118 13.6068 25.7285C13.7371 25.3452 13.7985 24.9312 13.7985 24.4942C13.7985 23.8272 13.7065 23.2368 13.5071 22.7232C13.3155 22.2172 13.0471 21.7648 12.7021 21.3815C12.3648 20.9982 11.9661 20.6762 11.5138 20.4155C11.0615 20.1472 10.5708 19.9325 10.0418 19.7638C9.52047 19.6028 8.96847 19.4802 8.39347 19.4112C7.82614 19.3422 7.26647 19.3038 6.7068 19.3038C6.2238 19.3038 5.73314 19.3345 5.21947 19.3882C4.71347 19.4342 4.1998 19.5108 3.67847 19.6105C3.1648 19.7102 2.66647 19.8328 2.16814 19.9785C1.6698 20.1165 1.20214 20.2775 0.765137 20.4615L0.788137 35.6492C1.2328 35.8638 1.70814 36.0555 2.21414 36.2012C2.72014 36.3468 3.22614 36.4618 3.74747 36.5462C4.2688 36.6305 4.78247 36.6918 5.3038 36.7225C5.82514 36.7608 6.32347 36.7838 6.8218 36.7838C7.32014 36.7838 7.84914 36.7608 8.41647 36.7225C8.99147 36.6842 9.5588 36.5998 10.1261 36.4847C10.6935 36.3698 11.2301 36.2088 11.7515 36.0018C12.2805 35.7872 12.7481 35.5188 13.1468 35.1892C13.5531 34.8595 13.8675 34.4608 14.1051 33.9855ZM8.34747 25.0002C8.43947 25.1535 8.48547 25.3452 8.48547 25.5752L8.5008 25.5828C8.5008 25.9432 8.41647 26.2268 8.24014 26.4415C8.0638 26.6485 7.8568 26.8095 7.6038 26.9168C7.35847 27.0165 7.10547 27.0855 6.83714 27.1162C6.5688 27.1468 6.34647 27.1622 6.16247 27.1622L6.23147 24.5478C6.37714 24.4788 6.5228 24.4252 6.66847 24.3792C6.81414 24.3332 6.96747 24.3102 7.12847 24.3102C7.25114 24.3102 7.38914 24.3332 7.55014 24.3792C7.71114 24.4252 7.86447 24.5018 7.9948 24.6015C8.1328 24.7012 8.25547 24.8315 8.34747 25.0002ZM6.14714 29.4852C6.3618 29.4392 6.57647 29.4162 6.80647 29.4162V29.4085C6.97514 29.4085 7.15147 29.4315 7.3508 29.4698C7.55014 29.5005 7.72647 29.5772 7.89514 29.6845C8.0638 29.7842 8.2018 29.9298 8.30914 30.1215C8.42414 30.3055 8.48547 30.5508 8.48547 30.8498C8.48547 31.1488 8.42414 31.3865 8.30914 31.5705C8.2018 31.7545 8.0638 31.9002 7.88747 32.0075C7.7188 32.1148 7.5348 32.1838 7.33547 32.2222C7.13614 32.2528 6.9598 32.2681 6.79114 32.2681C6.67614 32.2681 6.56114 32.2605 6.44614 32.2452L6.10114 32.1762L6.14714 29.4852Z" fill="white"/>
<path id="Vector_2" d="M50.9543 5.08315C50.778 5.08315 50.594 5.11382 50.4023 5.16749C50.2107 5.22115 50.0267 5.32849 49.835 5.48949C49.6433 5.65049 49.4593 5.86515 49.283 6.14882C49.1067 6.42482 48.9533 6.79282 48.823 7.24515C48.7003 7.69752 48.593 8.25718 48.5163 8.90885C48.4397 9.55285 48.4013 10.3272 48.4013 11.2165C48.4013 12.1059 48.4397 12.8802 48.5163 13.5395C48.593 14.1989 48.7003 14.7662 48.823 15.2339C48.9533 15.7092 49.1067 16.0925 49.283 16.3992C49.467 16.6982 49.651 16.9359 49.835 17.1045C50.0267 17.2809 50.2107 17.3959 50.4023 17.4725C50.6017 17.5339 50.7857 17.5645 50.9543 17.5645C51.192 17.5645 51.4067 17.5109 51.6137 17.4112V12.8955C51.6137 12.7729 51.6443 12.6502 51.698 12.5275C51.7517 12.4049 51.882 12.3359 52.089 12.3359H53.331C53.4 12.3359 53.469 12.3359 53.5457 12.3512C53.6147 12.3589 53.676 12.3819 53.7373 12.4202C53.791 12.4509 53.837 12.5045 53.8677 12.5889C53.8983 12.6579 53.9137 12.7652 53.9137 12.8955V19.6652C53.9137 19.7955 53.8983 19.9029 53.8677 19.9872C53.837 20.0562 53.791 20.1099 53.7373 20.1559C53.6837 20.1865 53.6223 20.2095 53.5457 20.2172C53.4767 20.2249 53.4077 20.2325 53.331 20.2325H52.089C51.9893 20.2325 51.905 20.2172 51.8437 20.1865C51.79 20.1558 51.744 20.1099 51.7057 20.0562C51.675 20.0025 51.652 19.9412 51.6367 19.8798C51.629 19.8108 51.6213 19.7418 51.6213 19.6805V19.3355C51.3683 19.5195 51.0923 19.6882 50.7857 19.8569C50.479 20.0255 50.1417 20.1712 49.7737 20.2939C49.4133 20.4165 49.0223 20.5162 48.593 20.5852C48.1713 20.6542 47.7113 20.6925 47.2283 20.6925C46.6533 20.6925 46.063 20.6389 45.4573 20.5392C44.8517 20.4395 44.2613 20.2555 43.6863 19.9948C43.119 19.7265 42.5823 19.3662 42.0687 18.9062C41.555 18.4539 41.1103 17.8712 40.727 17.1735C40.3513 16.4759 40.0447 15.6402 39.8223 14.6589C39.6 13.6775 39.4927 12.5275 39.4927 11.2165C39.4927 10.0972 39.6 9.11585 39.8223 8.26485C40.0523 7.40615 40.359 6.66249 40.7423 6.03382C41.1257 5.40515 41.578 4.87615 42.084 4.45449C42.6053 4.03282 43.1497 3.69549 43.7323 3.44249C44.315 3.18182 44.913 3.00549 45.5263 2.89816C46.1473 2.79082 46.753 2.72949 47.3433 2.72949C47.9873 2.72949 48.6007 2.78316 49.1833 2.88282C49.766 2.98249 50.295 3.11282 50.778 3.27382C51.2687 3.43482 51.698 3.61116 52.0737 3.80282C52.4493 4.00215 52.7637 4.19382 53.009 4.37782C53.032 4.40082 53.0627 4.43149 53.0933 4.46215C53.124 4.48515 53.1393 4.51582 53.1393 4.55415C53.1393 4.58482 53.124 4.62316 53.101 4.66916L52.595 5.47415C52.549 5.54315 52.4953 5.58149 52.4263 5.58149C52.3803 5.58149 52.3113 5.55849 52.227 5.51249C52.1503 5.45882 52.043 5.39749 51.9203 5.33615C51.7977 5.26715 51.652 5.20582 51.4987 5.15982C51.3453 5.10615 51.1613 5.07549 50.9697 5.07549L50.9543 5.08315Z" fill="white"/>
<path id="Vector_3" d="M28.8594 4.93725C28.8594 4.66125 28.8824 4.42358 28.9284 4.21658C28.9744 4.00958 29.0664 3.84092 29.1967 3.71058C29.327 3.57258 29.5187 3.46525 29.7487 3.38858C29.9864 3.31958 30.293 3.28125 30.6687 3.28125H35.928C36.3804 3.28125 36.733 3.35025 36.963 3.48058C37.2084 3.61091 37.377 3.77958 37.469 3.98658C37.5687 4.18591 37.63 4.39291 37.6377 4.62291C37.6454 4.84525 37.653 5.04458 37.653 5.23625V18.3002C37.653 18.4842 37.6377 18.6836 37.607 18.8982C37.5764 19.1206 37.4997 19.3276 37.3694 19.5269C37.2467 19.7186 37.0474 19.8796 36.7944 20.0099C36.5337 20.1402 36.181 20.2092 35.721 20.2092H30.6764C30.3007 20.2092 29.994 20.1709 29.7564 20.1019C29.5187 20.0329 29.3347 19.9256 29.2044 19.7952C29.074 19.6649 28.982 19.4962 28.936 19.2892C28.89 19.0822 28.867 18.8446 28.867 18.5686V4.93725H28.8594Z" fill="white"/>
<path id="Vector_4" d="M13.332 4.93725C13.332 4.66125 13.355 4.42358 13.401 4.21658C13.447 4.00958 13.539 3.84092 13.6694 3.71058C13.7997 3.57258 13.9914 3.46525 14.2214 3.38858C14.459 3.31958 14.7657 3.28125 15.1414 3.28125H20.4007C21.2594 3.28125 22.0797 3.38091 22.877 3.58791C23.6744 3.79491 24.372 4.12458 24.9854 4.57691C25.5987 5.02925 26.0894 5.62725 26.4574 6.35558C26.8254 7.07625 27.0094 7.96556 27.0094 9.00823C27.0094 10.4726 26.7717 11.6609 26.304 12.5732C25.844 13.4856 25.1924 14.1296 24.3567 14.5052C24.9394 14.6969 25.3764 14.9959 25.6677 15.4022C25.959 15.8009 26.1047 16.2839 26.1047 16.8512C26.1047 17.5796 25.936 18.1699 25.5987 18.6069C25.269 19.0439 24.8397 19.3889 24.303 19.6342C23.7664 19.8719 23.1684 20.0252 22.5014 20.1096C21.842 20.1786 21.1827 20.2169 20.5234 20.2169H15.149C14.7734 20.2169 14.4667 20.1786 14.229 20.1096C13.9914 20.0406 13.8074 19.9332 13.677 19.8029C13.5467 19.6726 13.4547 19.5039 13.4087 19.2969C13.3627 19.0899 13.3397 18.8522 13.3397 18.5762V4.93725H13.332ZM25.361 9.20756C25.361 8.64023 25.2997 8.11889 25.1694 7.65125C25.0467 7.16825 24.8474 6.75425 24.5944 6.38625C24.3337 6.02592 24.004 5.72691 23.59 5.48925C23.1837 5.25158 22.693 5.09058 22.1257 5.00625V13.7769C22.693 13.7002 23.176 13.5239 23.59 13.2556C23.9964 12.9796 24.3337 12.6422 24.5944 12.2282C24.855 11.8219 25.0467 11.3542 25.1694 10.8406C25.292 10.3192 25.361 9.77489 25.361 9.19989V9.20756ZM22.1334 18.5839C22.9537 18.5532 23.544 18.3846 23.9044 18.0856C24.2647 17.7866 24.4487 17.4262 24.4487 17.0122C24.4487 16.8129 24.4027 16.6212 24.3184 16.4219C24.2417 16.2226 24.1037 16.0539 23.9197 15.9006C23.7357 15.7396 23.498 15.6169 23.199 15.5096C22.9077 15.4099 22.555 15.3409 22.141 15.3179V18.5762L22.1334 18.5839Z" fill="white"/>
<path id="Vector_5" d="M54.4036 44.8178C53.9666 44.8178 53.5449 44.7488 53.1386 44.6032C52.7399 44.4652 52.4256 44.2735 52.2109 44.0435L52.4563 43.5605C52.6709 43.7752 52.9546 43.9515 53.3073 44.0818C53.6599 44.2122 54.0279 44.2735 54.4036 44.2735C54.9326 44.2735 55.3313 44.1815 55.5919 43.9898C55.8603 43.7905 55.9906 43.5375 55.9906 43.2308C55.9906 42.9932 55.9139 42.8092 55.7683 42.6635C55.6303 42.5255 55.4539 42.4182 55.2469 42.3415C55.0399 42.2648 54.7486 42.1805 54.3729 42.0885C53.9283 41.9735 53.5756 41.8662 53.3073 41.7665C53.0389 41.6592 52.8166 41.4982 52.6249 41.2835C52.4409 41.0688 52.3489 40.7775 52.3489 40.4095C52.3489 40.1105 52.4256 39.8422 52.5866 39.5968C52.7476 39.3515 52.9853 39.1522 53.3149 39.0065C53.6446 38.8608 54.0509 38.7842 54.5339 38.7842C54.8713 38.7842 55.2009 38.8302 55.5229 38.9298C55.8526 39.0218 56.1286 39.1445 56.3663 39.3132L56.1516 39.8115C55.9063 39.6505 55.6379 39.5278 55.3543 39.4512C55.0706 39.3668 54.7946 39.3208 54.5263 39.3208C54.0049 39.3208 53.6139 39.4205 53.3533 39.6275C53.0926 39.8268 52.9623 40.0798 52.9623 40.3942C52.9623 40.6318 53.0313 40.8235 53.1769 40.9692C53.3226 41.1072 53.5066 41.2222 53.7213 41.2988C53.9436 41.3755 54.2349 41.4522 54.6029 41.5442C55.0399 41.6515 55.3849 41.7588 55.6533 41.8662C55.9216 41.9658 56.1516 42.1268 56.3356 42.3415C56.5196 42.5485 56.6116 42.8322 56.6116 43.1925C56.6116 43.4915 56.5273 43.7675 56.3663 44.0128C56.2053 44.2582 55.9599 44.4498 55.6303 44.5955C55.3006 44.7335 54.8866 44.8102 54.4036 44.8102V44.8178Z" fill="white"/>
<path id="Vector_6" d="M50.7 44.7722L49.3507 42.8708C49.1973 42.8862 49.044 42.8938 48.8753 42.8938H47.2883V44.7722H46.6597V38.8535H48.8753C49.6267 38.8535 50.2247 39.0375 50.654 39.3978C51.0833 39.7582 51.298 40.2565 51.298 40.8852C51.298 41.3452 51.183 41.7362 50.9453 42.0582C50.7153 42.3725 50.3857 42.6025 49.9487 42.7405L51.3977 44.7722H50.7153H50.7ZM48.86 42.3572C49.4427 42.3572 49.895 42.2268 50.2017 41.9662C50.5083 41.7055 50.6693 41.3452 50.6693 40.8775C50.6693 40.4098 50.516 40.0342 50.2017 39.7812C49.895 39.5205 49.4427 39.3902 48.86 39.3902H47.2883V42.3572H48.86Z" fill="white"/>
<path id="Vector_7" d="M45.5352 44.0898C45.2898 44.3198 44.9678 44.5038 44.5615 44.6341C44.1628 44.7568 43.7182 44.8181 43.2275 44.8181C42.7062 44.8181 42.2692 44.7491 41.9012 44.6035C41.5408 44.4655 41.2648 44.2661 41.0808 44.0208C40.8968 43.7755 40.8125 43.4918 40.8125 43.1698C40.8125 42.8171 40.9198 42.5105 41.1268 42.2651C41.3415 42.0198 41.6175 41.8435 41.9625 41.7515C41.6788 41.6441 41.4642 41.4755 41.3032 41.2455C41.1422 41.0078 41.0655 40.7318 41.0655 40.4175C41.0655 40.1185 41.1498 39.8501 41.3185 39.6048C41.4948 39.3595 41.7555 39.1601 42.0928 39.0221C42.4455 38.8765 42.8595 38.7998 43.3502 38.7998C43.7105 38.7998 44.0632 38.8458 44.4005 38.9301C44.7455 39.0068 45.0368 39.1218 45.2822 39.2751L45.0905 39.7735C44.5692 39.4821 44.0018 39.3365 43.3808 39.3365C42.8365 39.3365 42.4148 39.4438 42.1235 39.6508C41.8398 39.8578 41.6942 40.1261 41.6942 40.4635C41.6942 40.8008 41.8092 41.0538 42.0392 41.2301C42.2768 41.4141 42.6065 41.4985 43.0358 41.4985H44.5078V42.0428H43.0128C42.5298 42.0428 42.1465 42.1348 41.8628 42.3188C41.5792 42.5028 41.4412 42.7711 41.4412 43.1315C41.4412 43.4918 41.5945 43.7678 41.9012 43.9748C42.2078 44.1818 42.6678 44.2891 43.2582 44.2891C43.6722 44.2891 44.0632 44.2278 44.4235 44.1128C44.7838 43.9978 45.0752 43.8291 45.3052 43.6221L45.5428 44.0975L45.5352 44.0898Z" fill="white"/>
<path id="Vector_8" d="M37.1611 38.7998C37.8741 38.7998 38.4261 39.0145 38.8247 39.4361C39.2311 39.8578 39.4304 40.4635 39.4304 41.2455V44.7721H38.8017V41.2608C38.8017 40.6321 38.6484 40.1645 38.3341 39.8425C38.0274 39.5205 37.5904 39.3595 37.0307 39.3595C36.4481 39.3595 35.9881 39.5281 35.6584 39.8731C35.3287 40.2105 35.1677 40.7241 35.1677 41.4065V44.7721H34.5391V38.8535H35.1371V39.8501C35.5127 39.1525 36.1797 38.7998 37.1381 38.7998H37.1611Z" fill="white"/>
<path id="Vector_9" d="M33.383 39.9421C32.8003 39.6048 32.1563 39.4131 31.4586 39.3595V44.7721H30.83V39.3595C30.14 39.4055 29.4883 39.5971 28.898 39.9421L28.668 39.4515C29.404 39.0145 30.2243 38.7998 31.1366 38.7998C32.049 38.7998 32.8923 39.0145 33.613 39.4515L33.383 39.9421Z" fill="white"/>
<path id="Vector_10" d="M27.5794 44.7722L26.2301 42.8708C26.0767 42.8862 25.9234 42.8938 25.7547 42.8938H24.1677V44.7722H23.5391V38.8535H25.7547C26.5061 38.8535 27.1041 39.0375 27.5334 39.3978C27.9627 39.7582 28.1774 40.2565 28.1774 40.8852C28.1774 41.3452 28.0624 41.7362 27.8247 42.0582C27.5947 42.3725 27.2651 42.6025 26.8281 42.7405L28.2771 44.7722H27.5947H27.5794ZM25.7317 42.3572C26.3144 42.3572 26.7667 42.2268 27.0734 41.9662C27.3801 41.7055 27.5411 41.3452 27.5411 40.8775C27.5411 40.4098 27.3877 40.0342 27.0734 39.7812C26.7667 39.5205 26.3144 39.3902 25.7317 39.3902H24.1601V42.3572H25.7317Z" fill="white"/>
<path id="Vector_11" d="M19.1837 38.7998C19.9503 38.7998 20.556 39.0221 20.993 39.4745C21.4377 39.9191 21.66 40.5631 21.66 41.4065V44.7645H21.0467V43.0241H17.3283V44.7645H16.7227V41.4065C16.7227 40.5631 16.945 39.9191 17.382 39.4745C17.8267 39.0221 18.4323 38.7998 19.1913 38.7998H19.1837ZM21.0467 42.4875V41.3528C21.0467 40.6935 20.8857 40.1951 20.556 39.8655C20.2263 39.5281 19.774 39.3595 19.1837 39.3595C18.5933 39.3595 18.141 39.5281 17.8113 39.8655C17.4817 40.1951 17.3207 40.6935 17.3207 41.3528V42.4875H21.039H21.0467Z" fill="white"/>
<path id="Vector_12" d="M13.1341 38.8535C13.8855 38.8535 14.4835 39.0375 14.9128 39.3978C15.3421 39.7582 15.5568 40.2565 15.5568 40.8852C15.5568 41.5138 15.3421 42.0122 14.9128 42.3725C14.4835 42.7252 13.8931 42.9015 13.1341 42.9015H11.5471V44.7722H10.9185V38.8535H13.1341ZM13.1188 42.3495C13.7015 42.3495 14.1538 42.2192 14.4605 41.9662C14.7671 41.7055 14.9281 41.3452 14.9281 40.8775C14.9281 40.4098 14.7748 40.0342 14.4605 39.7812C14.1538 39.5205 13.7015 39.3902 13.1188 39.3902H11.5471V42.3495H13.1188Z" fill="white"/>
</g>
<defs>
<clipPath id="clip0_591_1802">
<rect width="69" height="46" fill="white"/>
</clipPath>
</defs>
</svg>
