<svg width="20" height="20" viewBox="0 0 20 20" fill="none" xmlns="http://www.w3.org/2000/svg">
<path d="M10.4619 1.00001C15.253 1.24974 18.9985 5.1899 18.9893 9.99025V10.4522C18.7488 15.0768 15.0865 18.7395 10.4619 18.9893H1.98047C1.46266 18.9338 1.05568 18.5271 1 18.0186V9.99025C1 5.03282 5.04165 0.99102 9.99902 1.00001H10.4619ZM9.99902 2.1924C5.69835 2.19265 2.20215 5.68952 2.20215 9.99025V17.7871H9.99902C14.2998 17.7871 17.7966 14.2909 17.7969 9.99025C17.7969 5.68936 14.2999 2.1924 9.99902 2.1924ZM9.56445 12.9678C9.8696 12.9678 10.11 13.0607 10.2949 13.2363C10.4798 13.412 10.5722 13.6338 10.5723 13.8926C10.5723 14.1515 10.4798 14.3741 10.2949 14.5498C10.11 14.7253 9.86946 14.8174 9.56445 14.8174C9.25943 14.8174 9.01891 14.7254 8.83398 14.5498C8.64909 14.3649 8.55664 14.1515 8.55664 13.8926C8.55673 13.6338 8.64916 13.412 8.83398 13.2363C9.00969 13.0607 9.25936 12.9678 9.56445 12.9678ZM9.69434 5.56837C10.2677 5.56837 10.7674 5.66128 11.1836 5.85548V5.86427C11.5997 6.04923 11.9147 6.32689 12.1367 6.68751C12.3586 7.04814 12.4697 7.48323 12.4697 8.00099C12.4697 8.36157 12.3955 8.68551 12.2568 8.96291C12.1181 9.24033 11.9323 9.49981 11.7012 9.74025C11.4793 9.98055 11.2294 10.2305 10.9521 10.4893C10.7211 10.7019 10.5549 10.9242 10.4717 11.1553C10.3885 11.3864 10.3418 11.655 10.3418 11.9785H8.76074C8.76076 11.6089 8.78832 11.2847 8.84375 11.0166C8.90848 10.7393 9.00098 10.4983 9.13965 10.2764C9.27837 10.0545 9.46317 9.83183 9.69434 9.61916C9.88844 9.44352 10.0552 9.27729 10.2031 9.12013C10.351 8.96294 10.4627 8.80512 10.5459 8.63869C10.6288 8.47244 10.666 8.27829 10.666 8.07521C10.666 7.83484 10.6287 7.63083 10.5547 7.47365C10.4807 7.3074 10.3792 7.18672 10.2314 7.10353C10.0927 7.02034 9.90701 6.98341 9.69434 6.98341C9.51881 6.98344 9.35238 7.02046 9.19531 7.10353C9.03814 7.1775 8.91715 7.29795 8.81543 7.45509C8.723 7.61227 8.66801 7.8164 8.66797 8.07521H6.86426C6.87354 7.51112 7.00324 7.03887 7.25293 6.66896C7.51188 6.29915 7.84517 6.0214 8.27051 5.84572C8.6958 5.66089 9.16739 5.5684 9.69434 5.56837Z" fill="black"/>
</svg>
