<svg width="20" height="20" viewBox="0 0 20 20" fill="none" xmlns="http://www.w3.org/2000/svg">
<path d="M15.2727 1.21216C17.2148 1.21216 18.7883 2.78566 18.7883 4.72778V15.2727C18.7883 17.2148 17.2148 18.7883 15.2727 18.7883H4.72778C2.78566 18.7883 1.21216 17.2148 1.21216 15.2727V4.72778C1.21216 2.78566 2.78566 1.21216 4.72778 1.21216H15.2727ZM2.35474 15.2727C2.35474 16.5821 3.41839 17.6458 4.72778 17.6458H15.2727C16.5821 17.6458 17.6458 16.5821 17.6458 15.2727V7.13501H2.35474V15.2727ZM15.2415 13.9983C15.5665 13.9983 15.8302 14.2621 15.8303 14.5872C15.8303 14.9123 15.5666 15.176 15.2415 15.176H12.3596C12.0345 15.176 11.7708 14.9123 11.7708 14.5872C11.7709 14.2621 12.0345 13.9983 12.3596 13.9983H15.2415ZM8.58911 9.37622C9.45032 9.37622 10.1448 10.0443 10.1448 10.8616V13.6731C10.1448 14.4904 9.45032 15.1584 8.58911 15.1584H5.55786C4.69665 15.1584 4.0022 14.4904 4.0022 13.6731V10.8616C4.0022 10.0443 4.69665 9.37622 5.55786 9.37622H8.58911ZM5.55786 10.4309C5.28544 10.4309 5.05688 10.6243 5.05688 10.8616V13.6731C5.05688 13.9104 5.28544 14.1038 5.55786 14.1038H8.58911C8.86154 14.1038 9.09009 13.9104 9.09009 13.6731V10.8616C9.09009 10.6243 8.86154 10.4309 8.58911 10.4309H5.55786ZM15.2415 11.6868C15.5665 11.6868 15.8301 11.9507 15.8303 12.2756C15.8303 12.6008 15.5666 12.8645 15.2415 12.8645H12.3596C12.0345 12.8645 11.7708 12.6008 11.7708 12.2756C11.771 11.9507 12.0346 11.6868 12.3596 11.6868H15.2415ZM15.2415 9.37622C15.5666 9.37622 15.8303 9.63994 15.8303 9.96509C15.8302 10.2901 15.5665 10.554 15.2415 10.554H12.3596C12.0346 10.554 11.7709 10.2901 11.7708 9.96509C11.7708 9.63994 12.0345 9.37622 12.3596 9.37622H15.2415ZM4.72778 2.35474C3.41839 2.35474 2.35474 3.41839 2.35474 4.72778V6.04517H17.6458V4.72778C17.6458 3.41839 16.5821 2.35474 15.2727 2.35474H4.72778ZM7.07349 3.53247C7.39848 3.53247 7.6621 3.79543 7.66235 4.12036C7.66235 4.44551 7.39864 4.70923 7.07349 4.70923H4.84204C4.51689 4.70923 4.25317 4.44551 4.25317 4.12036C4.25343 3.79543 4.51705 3.53247 4.84204 3.53247H7.07349ZM12.9622 3.53247C13.2871 3.53251 13.5508 3.79543 13.551 4.12036C13.551 4.44551 13.2873 4.70918 12.9622 4.70923C12.637 4.70923 12.3733 4.44554 12.3733 4.12036C12.3735 3.7954 12.6371 3.53247 12.9622 3.53247ZM15.2385 3.53247C15.5633 3.53272 15.8262 3.79558 15.8264 4.12036C15.8264 4.44536 15.5635 4.70898 15.2385 4.70923C14.9134 4.70923 14.6497 4.44551 14.6497 4.12036C14.6499 3.79543 14.9135 3.53247 15.2385 3.53247Z" fill="black"/>
</svg>
