<svg width="20" height="20" viewBox="0 0 20 20" fill="none" xmlns="http://www.w3.org/2000/svg">
<path d="M13.1674 1.21216C13.5281 1.21218 13.8115 1.50419 13.8115 1.85631V2.3802H14.7906C16.6886 2.3802 18.2259 3.91753 18.2259 5.81558V15.9586C18.2259 17.8566 16.6886 19.394 14.7906 19.394H4.64754C2.74949 19.394 1.21216 17.8566 1.21216 15.9586V5.81558C1.21216 3.92612 2.74953 2.3802 4.63041 2.3802H5.60945V1.85631C5.60945 1.49559 5.89288 1.21216 6.2536 1.21216C6.61432 1.21216 6.89775 1.50418 6.89775 1.85631V2.3802H12.5232V1.85631C12.5232 1.49559 12.8066 1.21216 13.1674 1.21216ZM2.32869 15.9586C2.3287 17.2383 3.36787 18.2774 4.64754 18.2774H14.7906C16.0702 18.2774 17.1094 17.2383 17.1094 15.9586V7.32714H2.32869V15.9586ZM13.1799 13.6225C13.7301 13.6225 14.1762 14.0686 14.1762 14.6188C14.1762 15.169 13.7301 15.615 13.1799 15.615C12.6297 15.615 12.1838 15.169 12.1837 14.6188C12.1837 14.0686 12.6297 13.6225 13.1799 13.6225ZM6.2404 13.6139C6.79006 13.6139 7.23669 14.0605 7.23669 14.6102C7.23668 15.1598 6.79005 15.6064 6.2404 15.6065C5.69075 15.6065 5.24413 15.1598 5.24412 14.6102C5.24412 14.0605 5.69074 13.6139 6.2404 13.6139ZM9.71016 13.6139C10.2598 13.6139 10.7064 14.0605 10.7064 14.6102C10.7064 15.1598 10.2598 15.6064 9.71016 15.6065C9.1605 15.6065 8.71389 15.1598 8.71388 14.6102C8.71388 14.0605 9.1605 13.6139 9.71016 13.6139ZM6.2404 10.1441C6.79006 10.1441 7.23669 10.5908 7.23669 11.1404C7.23666 11.6901 6.79004 12.1366 6.2404 12.1366C5.69076 12.1366 5.24415 11.6901 5.24412 11.1404C5.24412 10.5908 5.69074 10.1441 6.2404 10.1441ZM9.71016 10.1441C10.2598 10.1441 10.7064 10.5908 10.7064 11.1404C10.7064 11.6901 10.2598 12.1366 9.71016 12.1366C9.16051 12.1366 8.7139 11.6901 8.71388 11.1404C8.71388 10.5908 9.1605 10.1441 9.71016 10.1441ZM13.1799 10.1441C13.7296 10.1441 14.1762 10.5908 14.1762 11.1404C14.1762 11.6901 13.7296 12.1366 13.1799 12.1366C12.6303 12.1366 12.1838 11.69 12.1837 11.1404C12.1837 10.5908 12.6303 10.1441 13.1799 10.1441ZM4.64754 3.49674C3.36786 3.49674 2.3287 4.5359 2.32869 5.81558V6.2536H17.1266V5.81558C17.1266 4.5359 16.0874 3.49674 14.8077 3.49674H13.8286V4.52729C13.8286 4.888 13.5452 5.17144 13.1845 5.17144C12.8238 5.17143 12.5403 4.87941 12.5403 4.52729V3.49674H6.91488V4.52729C6.91488 4.888 6.63145 5.17144 6.27073 5.17144C5.91004 5.17141 5.62659 4.8794 5.62659 4.52729V3.49674H4.64754Z" fill="black"/>
</svg>
