<svg width="20" height="20" viewBox="0 0 20 20" fill="none" xmlns="http://www.w3.org/2000/svg">
<path d="M6.88117 13.3652C8.02696 13.3653 8.97723 14.1647 9.21707 15.2394H16.954C17.3003 15.2395 17.5757 15.5148 17.5757 15.8611C17.5757 16.2075 17.3003 16.4828 16.954 16.4829H9.15517C8.84429 17.451 7.94704 18.153 6.88117 18.153C5.81528 18.153 4.91806 17.4511 4.60718 16.4829H2.43985C2.09346 16.4829 1.81812 16.2075 1.81812 15.8611C1.81815 15.5148 2.09347 15.2394 2.43985 15.2394H4.54489C4.78471 14.1735 5.73534 13.3652 6.88117 13.3652ZM6.88117 14.3689C6.11733 14.3689 5.49567 14.9906 5.4956 15.7545C5.4956 16.5184 6.11728 17.1404 6.88117 17.1404C7.64503 17.1404 8.26675 16.5183 8.26675 15.7545C8.26667 14.9907 7.64499 14.3689 6.88117 14.3689ZM12.2105 7.4231C13.3918 7.42314 14.3778 8.28458 14.5643 9.42146H16.9536C17.2999 9.42146 17.5752 9.69684 17.5753 10.0432C17.5753 10.3896 17.3 10.6649 16.9536 10.6649H14.4397C14.1022 11.562 13.232 12.2105 12.2105 12.2105C11.189 12.2105 10.3273 11.5621 9.98091 10.6649H2.44881C2.10239 10.6649 1.82707 10.3896 1.82707 10.0432C1.82713 9.69684 2.10243 9.42146 2.44881 9.42146H9.85672C10.0433 8.29344 11.0292 7.4231 12.2105 7.4231ZM12.2105 8.42676C11.4466 8.42676 10.825 9.04847 10.8249 9.81234C10.8249 10.5762 11.4466 11.1979 12.2105 11.1979C12.9744 11.1979 13.5961 10.5762 13.5961 9.81234C13.5961 9.04849 12.9744 8.4268 12.2105 8.42676ZM6.89013 1.81812C7.99146 1.8182 8.91526 2.57315 9.1906 3.59457H16.9536C17.3 3.59457 17.5757 3.86992 17.5757 4.2163C17.5757 4.56272 17.3 4.83804 16.9536 4.83804H9.18164C8.9063 5.8506 7.98254 6.60587 6.88117 6.60593C5.77975 6.60593 4.85567 5.85064 4.58031 4.83804H2.45776C2.11135 4.83804 1.83602 4.56272 1.83602 4.2163C1.83606 3.86992 2.11137 3.59457 2.45776 3.59457H4.58927C4.85574 2.57309 5.78871 1.81812 6.89013 1.81812ZM6.88117 2.83073C6.11731 2.83073 5.49524 3.45245 5.49521 4.2163C5.49521 4.98019 6.11728 5.60188 6.88117 5.60188C7.64501 5.60181 8.26675 4.98015 8.26675 4.2163C8.26671 3.45249 7.64498 2.83079 6.88117 2.83073Z" fill="black"/>
</svg>
