<svg width="20" height="20" viewBox="0 0 20 20" fill="none" xmlns="http://www.w3.org/2000/svg">
<path d="M16.9517 1.81812C18.2993 1.81825 19.394 2.91278 19.394 4.2605V14.03C19.3939 15.3776 18.2992 16.4723 16.9517 16.4724H10.3394L10.231 16.5349L7.85107 18.7156C7.51644 19.032 7.08249 19.1951 6.63037 19.1951C6.54908 19.1951 6.45876 19.1855 6.37744 19.1765C5.83477 19.1042 5.36392 18.7969 5.0835 18.3357L4.99268 18.1726L4.24268 16.5349C4.22445 16.4989 4.16064 16.4812 4.16064 16.4812H3.04834C1.70056 16.4812 0.605987 15.3866 0.605957 14.0388V4.2605C0.605957 2.9127 1.70054 1.81812 3.04834 1.81812H16.9517ZM3.05713 2.9939C2.3607 2.994 1.79053 3.56405 1.79053 4.2605V14.0564C1.79053 14.7528 2.3607 15.3229 3.05713 15.323H4.17041C4.65869 15.3232 5.11991 15.6131 5.31885 16.0652L6.10596 17.7654C6.18732 17.892 6.34972 18.0009 6.53955 18.0281C6.64808 18.0462 6.86525 18.0458 7.05518 17.865L9.61572 15.531C9.85968 15.3685 10.0947 15.3055 10.3296 15.3054H16.9419C17.6384 15.3054 18.2085 14.7353 18.2085 14.0388H18.2183V4.2605C18.2183 3.56407 17.6481 2.99404 16.9517 2.9939H3.05713ZM12.6401 11.2527C12.9929 11.2527 13.2729 11.5337 13.2729 11.8865C13.2727 12.239 12.9927 12.5193 12.6401 12.5193H6.51611C6.16378 12.519 5.88358 12.2388 5.8833 11.8865C5.8833 11.5339 6.1636 11.253 6.51611 11.2527H12.6401ZM9.93604 8.36304C10.2885 8.36327 10.5687 8.64337 10.5688 8.99585C10.5686 9.34829 10.2885 9.6294 9.93604 9.62964H6.51611C6.16374 9.62934 5.88352 9.34825 5.8833 8.99585C5.88347 8.64341 6.16371 8.36334 6.51611 8.36304H9.93604ZM13.147 5.47241C13.4996 5.47243 13.7796 5.75264 13.7798 6.10522C13.7796 6.4578 13.4996 6.739 13.147 6.73901H6.51611C6.16381 6.73863 5.88352 6.45757 5.8833 6.10522C5.8835 5.75286 6.1638 5.47279 6.51611 5.47241H13.147Z" fill="black"/>
</svg>
