<svg width="20" height="20" viewBox="0 0 20 20" fill="none" xmlns="http://www.w3.org/2000/svg">
<path d="M9.29117 0.85119C9.89917 0.496578 10.6763 0.530484 11.2589 0.927362L12.3732 1.69592L13.8517 1.73791C14.5778 1.80558 15.1856 2.28767 15.422 2.95471L15.8781 4.22912L17.0431 5.13342C17.5498 5.58943 17.77 6.26506 17.6349 6.90685L17.6095 7.02502L17.2209 8.3424L17.6349 9.76037C17.7869 10.4696 17.5163 11.1959 16.9591 11.6266L16.3849 12.066L19.1544 14.8531H19.1378C19.2644 14.9798 19.3155 15.157 19.2902 15.3258C19.2649 15.4945 19.1548 15.6462 19.0031 15.7223L17.0099 16.7194L16.089 18.7965C16.013 18.9569 15.8692 19.0752 15.7003 19.109C15.6583 19.1174 15.6246 19.1178 15.591 19.1178C15.4561 19.1178 15.3212 19.0669 15.2199 18.9742L11.588 15.5367L11.2502 15.7653C10.9378 15.9762 10.5663 16.0856 10.2033 16.0856C9.89082 16.0856 9.5695 16.0093 9.28238 15.8404L9.18179 15.7731L8.83511 15.5367L5.28824 18.8981C5.18699 18.9992 5.05208 19.0494 4.91714 19.0494C4.87492 19.0494 4.84057 19.0416 4.80679 19.0416C4.63809 19.0078 4.48669 18.8894 4.4191 18.7291L3.4982 16.652L1.50503 15.6549C1.35319 15.5789 1.2433 15.4272 1.21793 15.2584C1.19259 15.0895 1.25204 14.9202 1.37027 14.7936L4.06363 12.0826L3.4816 11.6354C2.88207 11.1794 2.628 10.3772 2.83902 9.651L3.21988 8.35021L2.83902 7.05041C2.61946 6.31572 2.87358 5.53796 3.4816 5.06506L4.55386 4.23791L5.05191 2.84435C5.34745 2.17736 5.98919 1.7471 6.69839 1.7301L8.04996 1.69592L9.29117 0.85119ZM15.422 13.7301C15.1686 14.4391 14.4933 14.9367 13.7336 14.9537L12.5421 14.9879H12.5168L12.4914 15.0045L15.4386 17.8004L16.2414 16.0016L16.4181 15.9L16.4103 15.9088L17.9894 15.1149L15.7345 12.8434L15.422 13.7301ZM2.51871 15.0475L4.25796 15.9166L4.35074 16.1031L5.0773 17.732L5.06851 17.7408L7.95718 15.0045L6.69839 14.9713C5.98931 14.9459 5.34787 14.5151 5.0607 13.8737L5.01773 13.7633L4.69742 12.86L2.51871 15.0475ZM10.6593 1.79748C10.423 1.63709 10.1021 1.61991 9.84878 1.7633L9.77261 1.81408L8.59878 2.61682C8.47215 2.70121 8.32823 2.75158 8.18472 2.75158L6.74136 2.79357C6.44584 2.80202 6.17505 2.97947 6.05679 3.24963L6.02359 3.3258L5.54996 4.66857C5.51617 4.76987 5.45698 4.87092 5.38101 4.94689L5.29703 5.02307L4.14859 5.901C3.89525 6.09522 3.78519 6.42511 3.87808 6.72912L4.30875 8.22424C4.31713 8.29994 4.31714 8.36727 4.30875 8.44299L4.28336 8.55334L3.87808 9.9381C3.78524 10.2421 3.8953 10.571 4.14859 10.7653L5.3732 11.7203C5.44904 11.7963 5.51624 11.8975 5.54996 11.9987L6.06558 13.4342C6.1754 13.6875 6.44585 13.8737 6.74136 13.8737L8.29507 13.9235C8.40473 13.9404 8.50598 13.9829 8.59878 14.0504L9.8566 14.9117C10.093 15.0469 10.4144 15.0386 10.6593 14.8697L11.9425 13.9996C12.0439 13.9574 12.154 13.9235 12.2638 13.9235L13.7082 13.8815C14.0288 13.8729 14.3074 13.6622 14.4171 13.3668L14.9494 11.9059C15 11.8045 15.0759 11.7195 15.1603 11.652L16.3 10.774C16.5364 10.5967 16.6462 10.2926 16.5871 10.0055L16.5705 9.92932L16.1652 8.56115C16.1231 8.41778 16.1231 8.26604 16.1652 8.12267L16.5959 6.66174C16.6465 6.4084 16.5534 6.12975 16.3507 5.94396L16.2921 5.89318L15.1603 5.02307C15.076 4.95558 15 4.87132 14.9494 4.77014L14.9074 4.66857L14.4259 3.3092C14.3246 3.03057 14.071 2.8274 13.7755 2.79357H13.6994L12.2726 2.75158C12.1544 2.75158 12.0527 2.72608 11.9513 2.67541L11.8498 2.61682L10.6593 1.79748ZM10.2209 4.05236C10.4234 4.05252 10.6176 4.16226 10.7189 4.33947L11.7912 6.18029L13.8771 6.62756C14.0797 6.66981 14.2402 6.82204 14.3078 7.01623C14.3752 7.21033 14.3245 7.42971 14.1896 7.58166H14.1974L12.7794 9.16955L12.9904 11.2887C13.0073 11.4997 12.9228 11.7027 12.7541 11.8209C12.6527 11.8969 12.5256 11.9313 12.4074 11.9313C12.323 11.9312 12.247 11.9142 12.1711 11.8805L10.2209 11.0192L8.26968 11.8805C8.08392 11.9649 7.86433 11.9391 7.69546 11.8209C7.52662 11.6942 7.44225 11.4913 7.45914 11.2887L7.67007 9.16955L6.25113 7.58166C6.11622 7.42972 6.06555 7.2103 6.13296 7.01623C6.2005 6.82207 6.36105 6.66984 6.56363 6.62756L8.64957 6.18029L9.72183 4.33947C9.82317 4.16213 10.0182 4.05236 10.2209 4.05236ZM9.30875 6.67834C9.2243 6.8219 9.08834 6.92288 8.92789 6.95666L7.15543 7.34533L8.36246 8.69689C8.47216 8.81511 8.52289 8.98377 8.50601 9.14416L8.32046 10.9518L9.98355 10.2164C10.0596 10.1826 10.1364 10.1656 10.2209 10.1656C10.3051 10.1657 10.3813 10.1827 10.4572 10.2164L12.1203 10.9518L11.9347 9.14416C11.9178 8.98378 11.9686 8.81511 12.0783 8.69689V8.6881L13.2863 7.33654L11.5128 6.95666C11.3524 6.92288 11.2164 6.8219 11.132 6.67834L10.2209 5.10803L9.30875 6.67834Z" fill="black"/>
</svg>
