<svg width="132" height="19" viewBox="0 0 132 19" fill="none" xmlns="http://www.w3.org/2000/svg">
<path fill-rule="evenodd" clip-rule="evenodd" d="M55.9554 0.351162V3.57229H48.7642V7.78401H54.2719V10.8804H48.7642V15.179H55.9554V18.3995H44.6758V0.351162H55.9554ZM56.9543 0.194939H60.1965C60.5461 0.194939 60.8284 0.277604 61.0427 0.442233C61.2571 0.606863 61.4204 0.81913 61.531 1.07623L64.893 10.5042C65.0513 10.9148 65.2068 11.3624 65.3574 11.8458C65.5081 12.3285 65.6517 12.8357 65.7869 13.3674C65.8983 12.8357 66.023 12.3285 66.1624 11.8458C66.3011 11.3624 66.4496 10.9148 66.6093 10.5042L69.9468 1.07623C70.0336 0.852056 70.1912 0.648195 70.4175 0.466753C70.6438 0.28531 70.924 0.194939 71.2582 0.194939H74.5242L67.5628 17.804H63.915L56.9543 0.194939ZM86.5981 0.194939V3.33691H79.47V7.44634H84.9294V10.4678H79.47V14.6613H86.5981V17.804H75.4174V0.194939H86.5981ZM90.6866 0.218758C90.8057 0.23487 90.9135 0.264994 91.0088 0.309829C91.1041 0.353263 91.1952 0.416313 91.2827 0.496176C91.3703 0.576739 91.4698 0.685325 91.5812 0.822632L99.8295 11.3981C99.7979 11.0591 99.7734 10.7312 99.758 10.4132C99.7426 10.1133 99.7346 9.81318 99.7342 9.51297V0.194939H103.286V17.8033H101.189C100.878 17.8033 100.618 17.7528 100.407 17.6527C100.197 17.5518 99.9885 17.3766 99.7818 17.1273L91.5924 6.6365C91.6169 6.94264 91.6365 7.24318 91.6526 7.53671C91.668 7.83094 91.6764 8.10626 91.6764 8.36476V17.8033H88.1246V0.194939H90.2459C90.421 0.194939 90.5675 0.203346 90.6866 0.218758ZM119.128 0.194939V3.43288H114.24V17.804H110.212V3.43288H105.325V0.194939H119.128ZM130.761 3.77195C130.642 3.9653 130.516 4.11102 130.385 4.20629C130.254 4.30367 130.086 4.35201 129.879 4.35201C129.696 4.35201 129.499 4.29316 129.288 4.17687C129.078 4.06058 128.84 3.92887 128.574 3.78456C128.281 3.62808 127.976 3.49683 127.662 3.39225C127.32 3.27456 126.93 3.21641 126.493 3.21641C125.739 3.21641 125.176 3.37894 124.807 3.7054C124.437 4.03186 124.253 4.4732 124.253 5.02874C124.253 5.38322 124.363 5.67815 124.586 5.91143C124.809 6.14472 125.101 6.34577 125.462 6.51601C125.824 6.68484 126.237 6.83966 126.702 6.98047C127.167 7.12128 127.642 7.27891 128.126 7.45194C128.611 7.62498 129.086 7.82884 129.551 8.06283C130.01 8.29189 130.429 8.59403 130.791 8.95743C131.165 9.33841 131.462 9.78736 131.667 10.2801C131.889 10.8006 132 11.4262 132 12.1589C132.006 12.9401 131.865 13.7155 131.583 14.4441C131.314 15.1398 130.902 15.7715 130.373 16.2985C129.845 16.826 129.193 17.2421 128.419 17.5441C127.643 17.846 126.764 17.9973 125.778 17.9973C125.238 17.9973 124.688 17.9413 124.127 17.8278C123.567 17.7157 123.025 17.5553 122.5 17.3507C121.987 17.1505 121.492 16.9058 121.022 16.6194C120.584 16.3551 120.18 16.0385 119.818 15.6764L121.011 13.7674C121.106 13.6301 121.231 13.5152 121.386 13.422C121.54 13.3296 121.71 13.2833 121.893 13.2833C122.131 13.2833 122.371 13.3604 122.614 13.5138C122.856 13.6658 123.13 13.8354 123.436 14.021C123.742 14.2067 124.094 14.3755 124.491 14.5289C124.888 14.6809 125.357 14.758 125.898 14.758C126.628 14.758 127.196 14.5948 127.602 14.269C128.007 13.9418 128.21 13.4248 128.21 12.7152C128.21 12.304 128.098 11.9705 127.876 11.712C127.654 11.4542 127.362 11.2405 127 11.0717C126.602 10.8889 126.189 10.7392 125.767 10.624C125.291 10.4914 124.818 10.3484 124.348 10.1953C123.863 10.0384 123.39 9.84503 122.929 9.61524C122.469 9.38613 122.052 9.07974 121.696 8.70943C121.334 8.33464 121.042 7.86737 120.82 7.30763C120.597 6.74719 120.486 6.05575 120.486 5.2347C120.486 4.57338 120.617 3.92887 120.879 3.30118C121.144 2.66746 121.538 2.0955 122.035 1.62126C122.544 1.12877 123.168 0.736465 123.907 0.442233C124.646 0.148002 125.492 0.00158691 126.445 0.00158691C126.978 0.00158691 127.496 0.04362 128.001 0.127686C128.506 0.212453 128.985 0.337851 129.438 0.503181C129.891 0.668511 130.313 0.866067 130.707 1.09515C131.087 1.31427 131.441 1.57585 131.762 1.87486L130.76 3.77195H130.761Z" fill="#E7792D"/>
<path fill-rule="evenodd" clip-rule="evenodd" d="M10.9419 3.77107C10.8228 3.96442 10.6974 4.11013 10.5664 4.20541C10.4354 4.30278 10.2666 4.35112 10.0599 4.35112C9.87707 4.35112 9.68021 4.29227 9.46935 4.17598C9.25918 4.05969 9.02099 3.92799 8.75478 3.78368C8.46246 3.62719 8.15731 3.49595 7.84267 3.39137C7.5008 3.27367 7.11129 3.21553 6.67415 3.21553C5.91965 3.21553 5.35711 3.37806 4.98792 3.70451C4.61803 4.03097 4.43379 4.47232 4.43379 5.02785C4.43379 5.38233 4.54447 5.67726 4.76725 5.91055C4.99002 6.14383 5.28215 6.34489 5.64294 6.51512C6.00512 6.68396 6.41845 6.83878 6.88291 6.97959C7.34808 7.1204 7.82305 7.27802 8.30713 7.45106C8.79191 7.62409 9.26689 7.82796 9.73205 8.06194C10.1911 8.29101 10.6099 8.59315 10.972 8.95654C11.3456 9.33752 11.6429 9.78648 11.8477 10.2792C12.0705 10.7997 12.1812 11.4253 12.1812 12.1581C12.1875 12.9392 12.046 13.7146 11.7643 14.4433C11.4947 15.1389 11.0826 15.7706 10.5545 16.2976C10.0256 16.8251 9.37407 17.2413 8.59996 17.5432C7.82445 17.8451 6.94456 17.9965 5.95889 17.9965C5.41946 17.9965 4.86883 17.9404 4.30839 17.8269C3.74795 17.7148 3.20572 17.5544 2.68101 17.3498C2.16789 17.1496 1.67329 16.9049 1.20285 16.6185C0.765122 16.3544 0.361199 16.038 0 15.6762L1.19234 13.7672C1.28761 13.6299 1.41231 13.515 1.56783 13.4219C1.72195 13.3294 1.89149 13.2831 2.07433 13.2831C2.31252 13.2831 2.55281 13.3602 2.7959 13.5136C3.03759 13.6656 3.3115 13.8352 3.61764 14.0208C3.92378 14.2065 4.27546 14.3753 4.67267 14.5287C5.06989 14.6807 5.53855 14.7578 6.07938 14.7578C6.81005 14.7578 7.3782 14.5946 7.78382 14.2688C8.18874 13.9417 8.3919 13.4247 8.3919 12.715C8.3919 12.3038 8.27981 11.9703 8.05774 11.7118C7.83566 11.454 7.54353 11.2403 7.18205 11.0715C6.78378 10.8888 6.37117 10.739 5.94838 10.6239C5.47247 10.4912 4.99949 10.3482 4.52976 10.1951C4.04498 10.0382 3.57211 9.84484 3.11115 9.61506C2.65112 9.38594 2.23384 9.07956 1.87748 8.70925C1.51599 8.33445 1.22386 7.86719 1.00179 7.30745C0.779013 6.747 0.667625 6.05556 0.667625 5.23452C0.667625 4.5732 0.798628 3.92869 1.06063 3.301C1.32593 2.66728 1.71948 2.09531 2.21654 1.62107C2.72584 1.12859 3.34933 0.736279 4.08842 0.442048C4.8268 0.147116 5.67306 0.000700542 6.62651 0.000700542C7.15893 0.000700542 7.67734 0.0427336 8.18173 0.1268C8.68683 0.211566 9.16601 0.336965 9.61856 0.502295C10.0718 0.667625 10.4943 0.86518 10.888 1.09426C11.268 1.31338 11.622 1.57496 11.943 1.87397L10.9419 3.77107ZM17.6287 10.3338V14.7207H20.4659C20.9983 14.7207 21.4327 14.6527 21.771 14.5154C22.1087 14.3781 22.3728 14.2009 22.5633 13.983C22.7539 13.7658 22.8856 13.5206 22.9571 13.246C23.0285 12.9728 23.0642 12.6954 23.0642 12.4124C23.0642 12.0901 23.0222 11.8008 22.9388 11.5423C22.8586 11.2892 22.71 11.0633 22.5094 10.8894C22.3069 10.7121 22.0386 10.5755 21.7052 10.4788C21.3717 10.3822 20.95 10.3338 20.4414 10.3338H17.6287ZM17.6287 7.60168H19.7268C20.1717 7.60168 20.5731 7.57015 20.9304 7.5057C21.2876 7.44125 21.5917 7.32846 21.8425 7.16734C22.0926 7.00621 22.2838 6.78413 22.4141 6.50181C22.5458 6.22019 22.611 5.86641 22.611 5.43908C22.611 5.02015 22.5591 4.67127 22.4562 4.39315C22.3631 4.12959 22.198 3.89735 21.9798 3.72273C21.7647 3.55319 21.4929 3.4327 21.1629 3.35984C20.8337 3.28769 20.4414 3.25126 19.9888 3.25126H17.628L17.6287 7.60168ZM13.5998 17.8024V0.194053H19.9888C21.1889 0.194053 22.2096 0.306841 23.0523 0.533119C23.8944 0.758697 24.5816 1.07675 25.114 1.48727C25.6465 1.89849 26.0339 2.39869 26.277 2.98645C26.5187 3.57491 26.6398 4.23133 26.6398 4.9564C26.6398 5.35081 26.5838 5.73261 26.4731 6.0983C26.359 6.47038 26.1815 6.81995 25.9484 7.13161C25.7102 7.45386 25.4041 7.74669 25.0307 8.0073C24.6573 8.27 24.2082 8.49768 23.6835 8.69033C24.8282 8.97336 25.6745 9.43012 26.223 10.0627C26.7709 10.6946 27.0455 11.5065 27.0455 12.4978C27.0455 13.2474 26.9019 13.9438 26.616 14.5883C26.3272 15.2367 25.8976 15.8127 25.3585 16.2745C24.8065 16.7544 24.1249 17.1292 23.3143 17.3982C22.5038 17.6686 21.5777 17.8031 20.5373 17.8031L13.5998 17.8024ZM40.7882 13.246C40.8834 13.246 40.9787 13.2642 41.074 13.3007C41.17 13.3371 41.261 13.4001 41.3486 13.4877L42.9459 15.1921C42.2639 16.1048 41.3588 16.8268 40.3174 17.2889C39.2645 17.7604 38.0189 17.9965 36.5807 17.9965C35.2615 17.9965 34.0797 17.7681 33.0345 17.3141C31.9893 16.8581 31.1031 16.2297 30.3759 15.4275C29.6494 14.6268 29.0911 13.6755 28.7016 12.5756C28.3121 11.4757 28.1173 10.2813 28.1173 8.99227C28.1173 7.67874 28.3275 6.47239 28.7492 5.37252C29.1702 4.27266 29.7622 3.32411 30.5251 2.52619C31.2887 1.72826 32.2022 1.10827 33.2671 0.664823C34.3319 0.222775 35.5039 0 36.7831 0C37.4346 0 38.0483 0.0588463 38.6249 0.175138C39.2007 0.29213 39.7388 0.453256 40.2396 0.658518C41.1812 1.04226 42.0333 1.61633 42.7427 2.34474L41.3836 4.1942C41.2936 4.30938 41.1896 4.41292 41.074 4.50244C40.9549 4.59491 40.7882 4.64185 40.5738 4.64185C40.4309 4.64185 40.2957 4.60962 40.1682 4.54447C40.0292 4.47315 39.894 4.39458 39.7633 4.30909L39.2925 4.00645C39.0998 3.88683 38.8962 3.78574 38.6844 3.70451C38.4175 3.60256 38.1424 3.52381 37.862 3.46913C37.4986 3.40015 37.1292 3.36777 36.7593 3.37245C36.0917 3.37245 35.4822 3.49715 34.9295 3.74725C34.3758 3.99811 33.8866 4.37186 33.4989 4.84011C33.0982 5.31998 32.7879 5.90845 32.5693 6.60549C32.3507 7.30184 32.2415 8.09767 32.2415 8.99227C32.2415 9.89458 32.3626 10.696 32.6057 11.3973C32.8474 12.0978 33.1774 12.6884 33.5949 13.1676C33.9953 13.635 34.4937 14.0084 35.0549 14.2611C35.6172 14.5122 36.2268 14.64 36.8427 14.6359C37.2084 14.6359 37.5418 14.6177 37.8445 14.582C38.1457 14.5462 38.428 14.4853 38.69 14.3998C38.9489 14.317 39.197 14.2036 39.4291 14.0622C39.6801 13.9055 39.9156 13.7254 40.1325 13.5241C40.2277 13.4436 40.3314 13.377 40.4428 13.3245C40.5535 13.2726 40.6691 13.246 40.7882 13.246Z" fill="#000203"/>
</svg>
