<svg width="139" height="32" viewBox="0 0 139 32" fill="none" xmlns="http://www.w3.org/2000/svg">
<path d="M119.497 28.1514L123.777 8.20475H116.741L117.829 3.19995H138.211L137.123 8.20475H130.087L125.844 28.1514H119.497Z" fill="#0C1028"/>
<path d="M103.092 28.1514L108.423 3.19995H114.77L109.438 28.1514H103.092Z" fill="#0C1028"/>
<path d="M78.6543 28.1514L83.9855 3.19995H96.425C97.8756 3.19995 99.0724 3.39337 100.015 3.78022C100.982 4.14288 101.708 4.6748 102.191 5.37595C102.699 6.05293 102.953 6.89915 102.953 7.91462C102.953 8.27728 102.929 8.63995 102.88 9.00262C102.832 9.34111 102.76 9.69169 102.663 10.0544C102.276 11.6259 101.611 12.8348 100.668 13.681C99.7252 14.5031 98.4801 15.0592 96.9327 15.3493V15.4944C97.7306 15.6636 98.3955 15.9296 98.9274 16.2922C99.4593 16.6307 99.8582 17.078 100.124 17.6341C100.39 18.166 100.523 18.843 100.523 19.665C100.523 19.931 100.511 20.1969 100.487 20.4629C100.463 20.7288 100.426 21.0069 100.378 21.297C100.354 21.563 100.306 21.841 100.233 22.1312C100.015 23.0499 99.7011 23.884 99.29 24.6336C98.9032 25.3831 98.3834 26.0238 97.7306 26.5557C97.1019 27.0634 96.292 27.4624 95.3007 27.7525C94.3336 28.0184 93.161 28.1514 91.7828 28.1514H78.6543ZM85.9076 23.5093H90.2234C91.1179 23.5093 91.8191 23.4368 92.3268 23.2917C92.8346 23.1224 93.2214 22.8202 93.4874 22.385C93.7533 21.9498 93.9709 21.3454 94.1402 20.5717C94.1885 20.3057 94.2248 20.076 94.249 19.8826C94.2973 19.665 94.3215 19.4595 94.3215 19.2661C94.3215 18.6375 94.1039 18.2023 93.6687 17.9605C93.2335 17.7187 92.5082 17.5978 91.4927 17.5978H87.177L85.9076 23.5093ZM88.0474 13.4997H92.2906C93.1126 13.4997 93.7775 13.4151 94.2852 13.2458C94.793 13.0766 95.1919 12.7864 95.482 12.3754C95.7722 11.9644 95.9898 11.4083 96.1348 10.7072C96.1832 10.4412 96.2194 10.2115 96.2436 10.0181C96.2678 9.80049 96.2799 9.58289 96.2799 9.36528C96.2799 8.76084 96.0744 8.36191 95.6634 8.16849C95.2523 7.95089 94.527 7.84209 93.4874 7.84209H89.2442L88.0474 13.4997Z" fill="#0C1028"/>
<path d="M59.0684 28.1514L64.3996 3.19995H70.7462L66.503 23.1466H76.4764L75.3884 28.1514H59.0684Z" fill="#0C1028"/>
<path fill-rule="evenodd" clip-rule="evenodd" d="M51.2004 25.6C58.2696 25.6 64.0004 19.8692 64.0004 12.8C64.0004 5.73075 58.2696 0 51.2004 0C44.1311 0 38.4004 5.73075 38.4004 12.8C38.4004 19.8692 44.1311 25.6 51.2004 25.6ZM51.2004 18.8C54.5141 18.8 57.2004 16.1138 57.2004 12.8C57.2004 9.48634 54.5141 6.80005 51.2004 6.80005C47.8867 6.80005 45.2004 9.48634 45.2004 12.8C45.2004 16.1138 47.8867 18.8 51.2004 18.8Z" fill="#6E50C3"/>
<path fill-rule="evenodd" clip-rule="evenodd" d="M58.2994 2.14707C57.3844 1.53613 56.3862 1.03994 55.3255 0.679004L55.258 0.65625C54.2198 0.30957 53.1225 0.0921875 51.985 0.0234375L52.1335 3.84775C51.8269 3.81618 51.5157 3.8 51.2008 3.8C48.9409 3.8 46.8755 4.63294 45.295 6.00856L43.2268 2.78623C41.4754 4.18262 40.0986 6.02891 39.2712 8.1501L42.9587 9.1794C42.4713 10.2873 42.2008 11.512 42.2008 12.8C42.2008 14.0546 42.4575 15.2493 42.9213 16.3343L39.2227 17.3231C39.6205 18.376 40.1532 19.3627 40.7996 20.2621L40.8304 20.3048C41.4858 21.209 42.2567 22.024 43.1214 22.7284L45.2244 19.5294C46.8138 20.942 48.9071 21.8 51.2008 21.8C56.1713 21.8 60.2008 17.7706 60.2008 12.8C60.2008 9.53715 58.4645 6.67984 55.8654 5.10163L58.2994 2.14707ZM51.8566 25.5833L52.0341 21.762C53.3927 21.6373 54.6639 21.2106 55.78 20.5497L58.1923 23.5232C57.2859 24.1154 56.2999 24.5957 55.2538 24.9447C55.2185 24.9565 55.1831 24.9681 55.1477 24.9796C54.103 25.3179 52.9996 25.5256 51.8566 25.5833ZM63.5622 16.1328L59.9846 14.7699C60.1262 14.136 60.2009 13.4767 60.2009 12.8001C60.2009 12.1232 60.1261 11.4638 59.9845 10.8297L63.5622 9.4668C63.848 10.5295 64.0005 11.6469 64.0005 12.7998C64.0005 13.9527 63.848 15.0701 63.5622 16.1328ZM59.1341 12.8C59.1341 17.1815 55.5822 20.7333 51.2008 20.7333C46.8193 20.7333 43.2674 17.1815 43.2674 12.8C43.2674 8.41854 46.8193 4.86667 51.2008 4.86667C55.5822 4.86667 59.1341 8.41854 59.1341 12.8Z" fill="#341F6F"/>
<path d="M52.0663 12.0733C52.1648 12.0447 52.2662 12.03 52.369 12.03C52.7702 12.0292 53.1377 12.2542 53.3214 12.6108C53.5051 12.9681 53.4735 13.3983 53.2398 13.7247C53.0062 14.0512 52.6101 14.2195 52.2126 14.1614C51.8162 14.1027 51.4857 13.8274 51.3554 13.4478L51.3463 13.4732C51.3294 14.1835 51.6784 14.8526 52.2714 15.2445H50.1287C50.7209 14.8533 51.0707 14.1842 51.0545 13.474L51.0449 13.4475C50.9061 13.8541 50.5387 14.1387 50.111 14.1703C49.6827 14.2026 49.2771 13.9762 49.0801 13.5946C48.8825 13.213 48.9317 12.7512 49.2051 12.4196C49.4777 12.0888 49.9222 11.952 50.3337 12.0733C50.0963 11.7476 50.0618 11.3153 50.244 10.955C50.427 10.5955 50.7966 10.3683 51.2 10.3683C51.6034 10.3683 51.973 10.5955 52.1559 10.955C52.3389 11.3153 52.3044 11.7476 52.0663 12.0733Z" fill="#0C1028"/>
<path fill-rule="evenodd" clip-rule="evenodd" d="M32.0002 32C39.0694 32 44.8002 26.2693 44.8002 19.2C44.8002 12.1308 39.0694 6.40002 32.0002 6.40002C24.9309 6.40002 19.2002 12.1308 19.2002 19.2C19.2002 26.2693 24.9309 32 32.0002 32ZM32.0002 25.2001C35.314 25.2001 38.0002 22.5138 38.0002 19.2001C38.0002 15.8864 35.314 13.2001 32.0002 13.2001C28.6865 13.2001 26.0002 15.8864 26.0002 19.2001C26.0002 22.5138 28.6865 25.2001 32.0002 25.2001Z" fill="#09A6FF"/>
<path fill-rule="evenodd" clip-rule="evenodd" d="M39.0992 8.54709C38.1842 7.93616 37.186 7.43997 36.1253 7.07903L36.0578 7.05627C35.0196 6.70959 33.9223 6.49221 32.7848 6.42346L32.9333 10.2478C32.6267 10.2162 32.3155 10.2 32.0006 10.2C29.7407 10.2 27.6753 11.033 26.0948 12.4086L24.0266 9.18625C22.2752 10.5826 20.8984 12.4289 20.071 14.5501L23.7585 15.5794C23.2711 16.6873 23.0006 17.9121 23.0006 19.2C23.0006 20.4546 23.2573 21.6493 23.7211 22.7343L20.0225 23.7232C20.4203 24.776 20.953 25.7627 21.5994 26.6621L21.6302 26.7048C22.2856 27.609 23.0565 28.424 23.9212 29.1284L26.0242 25.9294C27.6136 27.342 29.7069 28.2 32.0006 28.2C36.9711 28.2 41.0006 24.1706 41.0006 19.2C41.0006 15.9372 39.2643 13.0799 36.6652 11.5017L39.0992 8.54709ZM32.6564 31.9833L32.8339 28.162C34.1925 28.0373 35.4637 27.6106 36.5798 26.9497L38.9921 29.9233C38.0857 30.5155 37.0997 30.9957 36.0536 31.3448C36.0183 31.3566 35.9829 31.3681 35.9475 31.3796C34.9028 31.7179 33.7994 31.9256 32.6564 31.9833ZM44.362 22.5328L40.7844 21.17C40.926 20.536 41.0007 19.8768 41.0007 19.2001C41.0007 18.5233 40.9259 17.8639 40.7843 17.2297L44.362 15.8668C44.6479 16.9295 44.8003 18.0469 44.8003 19.1998C44.8003 20.3528 44.6479 21.4701 44.362 22.5328ZM39.9339 19.2C39.9339 23.5815 36.382 27.1334 32.0006 27.1334C27.6191 27.1334 24.0673 23.5815 24.0673 19.2C24.0673 14.8186 27.6191 11.2667 32.0006 11.2667C36.382 11.2667 39.9339 14.8186 39.9339 19.2Z" fill="#005281"/>
<path d="M31.9957 17.5865C32.2346 17.2615 32.6129 17.0689 33.0163 17.0667C33.7492 17.0842 34.3299 17.6915 34.3139 18.4244C34.3139 18.4336 34.3124 18.4427 34.3124 18.4518C34.317 18.6162 34.285 18.7799 34.2195 18.9306C34.2089 18.9579 34.1967 18.9846 34.1845 19.0112C34.18 19.0226 34.1746 19.0333 34.1693 19.0447C34.1617 19.0607 34.1541 19.0759 34.1457 19.0911C33.9981 19.3674 33.8048 19.6171 33.5734 19.8286L31.9949 21.3333L30.4164 19.8286C30.185 19.617 29.9917 19.3674 29.8433 19.0911C29.8349 19.0759 29.8273 19.0599 29.8197 19.0447C29.8144 19.0333 29.8098 19.0226 29.8045 19.0112L29.8045 19.0112C29.7923 18.9846 29.7801 18.9579 29.7695 18.9306C29.704 18.7791 29.6728 18.6162 29.6766 18.4518C29.6766 18.4427 29.6751 18.4336 29.6751 18.4244C29.6599 17.6907 30.2414 17.0834 30.975 17.0667C31.3776 17.0689 31.7567 17.2615 31.9957 17.5865Z" fill="#0C1028"/>
<path d="M0 28.1514L5.3312 3.19995H16.9003C18.7136 3.19995 20.1159 3.39337 21.1072 3.78022C22.0985 4.16706 22.7876 4.74733 23.1744 5.52102C23.5854 6.27053 23.7909 7.18928 23.7909 8.27728C23.7909 8.78502 23.7426 9.34111 23.6459 9.94555C23.5733 10.55 23.4645 11.1907 23.3195 11.8677C23.0777 13.0524 22.7755 14.1404 22.4128 15.1317C22.0743 16.123 21.5908 16.9813 20.9621 17.7066C20.3335 18.4078 19.4752 18.9518 18.3872 19.3386C17.2992 19.7255 15.8969 19.9189 14.1803 19.9189H8.12373L6.34667 28.1514H0ZM9.10293 15.2405H12.6571C13.4791 15.2405 14.144 15.1921 14.6517 15.0954C15.1595 14.9745 15.5584 14.7811 15.8485 14.5152C16.1387 14.2492 16.3684 13.8744 16.5376 13.3909C16.7068 12.9073 16.8761 12.3029 17.0453 11.5776C17.1179 11.1424 17.1783 10.7555 17.2267 10.417C17.2992 10.0785 17.3355 9.77631 17.3355 9.51035C17.3355 9.07515 17.2388 8.74875 17.0453 8.53115C16.8519 8.28937 16.5255 8.12013 16.0661 8.02342C15.6309 7.90253 15.0265 7.84209 14.2528 7.84209H10.6624L9.10293 15.2405Z" fill="#0C1028"/>
</svg>
