<svg width="64" height="42" viewBox="0 0 64 42" fill="none" xmlns="http://www.w3.org/2000/svg">
<rect width="64.0002" height="42" rx="8" fill="white"/>
<path fill-rule="evenodd" clip-rule="evenodd" d="M27.7384 17.246V18.6125H24.6876V20.3993H27.0242V21.7129H24.6876V23.5365H27.7384V24.9028H22.9531V17.246H27.7384ZM28.1622 17.1797H29.5376C29.686 17.1797 29.8057 17.2148 29.8967 17.2846C29.9876 17.3544 30.0569 17.4445 30.1038 17.5536L31.5301 21.5533C31.5973 21.7275 31.6632 21.9174 31.7271 22.1225C31.791 22.3272 31.852 22.5424 31.9093 22.768C31.9566 22.5424 32.0095 22.3272 32.0686 22.1225C32.1275 21.9174 32.1905 21.7275 32.2582 21.5533L33.6741 17.5536C33.711 17.4585 33.7778 17.372 33.8738 17.295C33.9698 17.218 34.0887 17.1797 34.2305 17.1797H35.616L32.6627 24.6502H31.1152L28.1622 17.1797ZM40.7383 17.1797V18.5126H37.7143V20.256H40.0304V21.5379H37.7143V23.3169H40.7383V24.6502H35.995V17.1797H40.7383ZM42.4728 17.1898C42.5233 17.1966 42.5691 17.2094 42.6095 17.2284C42.6499 17.2469 42.6886 17.2736 42.7257 17.3075C42.7629 17.3417 42.8051 17.3877 42.8523 17.446L46.3516 21.9325C46.3382 21.7887 46.3278 21.6496 46.3213 21.5147C46.3147 21.3875 46.3114 21.2601 46.3112 21.1328V17.1797H47.818V24.6499H46.9282C46.7965 24.6499 46.6862 24.6285 46.5968 24.586C46.5076 24.5432 46.419 24.4689 46.3314 24.3631L42.8571 19.9125C42.8675 20.0423 42.8758 20.1698 42.8826 20.2944C42.8892 20.4192 42.8927 20.536 42.8927 20.6457V24.6499H41.3859V17.1797H42.2859C42.3602 17.1797 42.4223 17.1833 42.4728 17.1898ZM54.5386 17.1797V18.5534H52.4653V24.6502H50.7561V18.5534H48.6828V17.1797H54.5386ZM59.474 18.6972C59.4234 18.7792 59.3702 18.841 59.3147 18.8815C59.2591 18.9228 59.1875 18.9433 59.0998 18.9433C59.0222 18.9433 58.9387 18.9183 58.8492 18.869C58.7601 18.8196 58.659 18.7638 58.5461 18.7025C58.4221 18.6362 58.2926 18.5805 58.1591 18.5361C58.0141 18.4862 57.8489 18.4615 57.6634 18.4615C57.3433 18.4615 57.1047 18.5305 56.948 18.669C56.7911 18.8075 56.713 18.9947 56.713 19.2304C56.713 19.3808 56.7599 19.5059 56.8544 19.6049C56.9489 19.7038 57.0729 19.7891 57.2259 19.8613C57.3796 19.933 57.5549 19.9986 57.752 20.0584C57.9493 20.1181 58.1508 20.185 58.3562 20.2584C58.5619 20.3318 58.7634 20.4183 58.9607 20.5176C59.1554 20.6147 59.3331 20.7429 59.4867 20.8971C59.6452 21.0587 59.7713 21.2492 59.8582 21.4582C59.9528 21.679 59.9997 21.9444 59.9997 22.2553C60.0024 22.5867 59.9424 22.9157 59.8229 23.2248C59.7085 23.5199 59.5337 23.7879 59.3096 24.0115C59.0852 24.2353 58.8088 24.4118 58.4804 24.5399C58.1514 24.668 57.7781 24.7322 57.36 24.7322C57.1311 24.7322 56.8975 24.7084 56.6598 24.6603C56.422 24.6127 56.192 24.5447 55.9694 24.4579C55.7517 24.3729 55.5418 24.2691 55.3423 24.1476C55.1564 24.0355 54.985 23.9012 54.8317 23.7476L55.3375 22.9377C55.3779 22.8794 55.4308 22.8307 55.4968 22.7912C55.5622 22.7519 55.6341 22.7323 55.7117 22.7323C55.8127 22.7323 55.9147 22.765 56.0178 22.8301C56.1203 22.8946 56.2365 22.9665 56.3664 23.0453C56.4963 23.124 56.6455 23.1957 56.814 23.2607C56.9825 23.3252 57.1813 23.3579 57.4108 23.3579C57.7208 23.3579 57.9618 23.2887 58.1339 23.1505C58.3057 23.0117 58.3918 22.7924 58.3918 22.4913C58.3918 22.3168 58.3443 22.1754 58.2501 22.0657C58.1559 21.9563 58.0319 21.8657 57.8786 21.794C57.7096 21.7165 57.5346 21.653 57.3552 21.6041C57.1533 21.5479 56.9526 21.4872 56.7534 21.4222C56.5477 21.3557 56.3471 21.2736 56.1515 21.1762C55.9564 21.079 55.7793 20.949 55.6282 20.7919C55.4748 20.6329 55.3509 20.4346 55.2567 20.1972C55.1622 19.9594 55.1149 19.6661 55.1149 19.3178C55.1149 19.0372 55.1705 18.7638 55.2816 18.4975C55.3942 18.2286 55.5611 17.986 55.772 17.7848C55.9881 17.5759 56.2526 17.4094 56.5661 17.2846C56.8797 17.1598 57.2387 17.0977 57.6432 17.0977C57.8691 17.0977 58.089 17.1155 58.303 17.1512C58.5173 17.1871 58.7206 17.2403 58.9125 17.3105C59.1048 17.3806 59.2841 17.4644 59.4511 17.5616C59.6123 17.6545 59.7625 17.7655 59.8987 17.8924L59.4737 18.6972H59.474Z" fill="#E7792D"/>
<path fill-rule="evenodd" clip-rule="evenodd" d="M8.64201 18.6975C8.59148 18.7795 8.53828 18.8413 8.48271 18.8818C8.42713 18.9231 8.3555 18.9436 8.26783 18.9436C8.19026 18.9436 8.10674 18.9186 8.01729 18.8693C7.92813 18.8199 7.82708 18.7641 7.71414 18.7028C7.59012 18.6365 7.46067 18.5808 7.32718 18.5364C7.18215 18.4865 7.0169 18.4618 6.83145 18.4618C6.51136 18.4618 6.27271 18.5308 6.11608 18.6693C5.95916 18.8078 5.88099 18.995 5.88099 19.2307C5.88099 19.3811 5.92795 19.5062 6.02246 19.6052C6.11697 19.7041 6.24091 19.7894 6.39397 19.8616C6.54762 19.9333 6.72297 19.9989 6.92001 20.0587C7.11736 20.1184 7.31886 20.1853 7.52423 20.2587C7.72989 20.3321 7.9314 20.4186 8.12874 20.5179C8.32349 20.615 8.50115 20.7432 8.65479 20.8974C8.81328 21.059 8.93938 21.2495 9.02629 21.4585C9.1208 21.6793 9.16776 21.9447 9.16776 22.2556C9.17042 22.587 9.11042 22.9159 8.99092 23.2251C8.87654 23.5202 8.70171 23.7882 8.47765 24.0118C8.25327 24.2356 7.97687 24.4121 7.64846 24.5402C7.31946 24.6683 6.94617 24.7325 6.528 24.7325C6.29916 24.7325 6.06556 24.7087 5.8278 24.6606C5.59003 24.613 5.36 24.545 5.13739 24.4582C4.91971 24.3732 4.70988 24.2694 4.5103 24.1479C4.3246 24.0359 4.15324 23.9016 4 23.7482L4.50584 22.9383C4.54626 22.88 4.59916 22.8313 4.66514 22.7918C4.73052 22.7525 4.80245 22.7329 4.88002 22.7329C4.98107 22.7329 5.08301 22.7656 5.18614 22.8307C5.28867 22.8952 5.40488 22.9671 5.53475 23.0459C5.66463 23.1246 5.81383 23.1963 5.98234 23.2613C6.15085 23.3258 6.34968 23.3585 6.57912 23.3585C6.88911 23.3585 7.13014 23.2893 7.30222 23.1511C7.474 23.0123 7.56019 22.7929 7.56019 22.4919C7.56019 22.3174 7.51264 22.176 7.41842 22.0663C7.32421 21.9569 7.20028 21.8663 7.04692 21.7946C6.87796 21.7171 6.70291 21.6536 6.52355 21.6047C6.32165 21.5485 6.12099 21.4878 5.92171 21.4228C5.71605 21.3563 5.51544 21.2742 5.31988 21.1768C5.12471 21.0796 4.94769 20.9496 4.7965 20.7925C4.64315 20.6335 4.51921 20.4352 4.425 20.1978C4.33049 19.96 4.28323 19.6667 4.28323 19.3184C4.28323 19.0378 4.33881 18.7644 4.44996 18.4981C4.56251 18.2292 4.72947 17.9866 4.94035 17.7854C5.15641 17.5764 5.42093 17.41 5.73447 17.2852C6.04773 17.1601 6.40675 17.098 6.81124 17.098C7.03711 17.098 7.25704 17.1158 7.47103 17.1514C7.68531 17.1874 7.8886 17.2406 8.08059 17.3108C8.27288 17.3809 8.45209 17.4647 8.61912 17.5619C8.78036 17.6548 8.93052 17.7658 9.06671 17.8927L8.64201 18.6975ZM11.4788 21.4817V23.3428H12.6825C12.9083 23.3428 13.0926 23.3139 13.2362 23.2557C13.3794 23.1974 13.4915 23.1222 13.5723 23.0298C13.6531 22.9377 13.709 22.8337 13.7393 22.7172C13.7696 22.6013 13.7848 22.4836 13.7848 22.3635C13.7848 22.2268 13.767 22.104 13.7316 21.9944C13.6976 21.887 13.6345 21.7911 13.5494 21.7174C13.4635 21.6422 13.3497 21.5842 13.2082 21.5432C13.0668 21.5022 12.8878 21.4817 12.6721 21.4817H11.4788ZM11.4788 20.3226H12.3689C12.5576 20.3226 12.7279 20.3092 12.8795 20.2819C13.0311 20.2545 13.1601 20.2067 13.2665 20.1383C13.3726 20.07 13.4537 19.9758 13.509 19.856C13.5649 19.7365 13.5925 19.5864 13.5925 19.4051C13.5925 19.2274 13.5705 19.0794 13.5268 18.9614C13.4873 18.8496 13.4173 18.7511 13.3247 18.677C13.2335 18.6051 13.1182 18.5539 12.9782 18.523C12.8385 18.4924 12.6721 18.477 12.4801 18.477H11.4785L11.4788 20.3226ZM9.76959 24.6502V17.18H12.4801C12.9892 17.18 13.4222 17.2278 13.7797 17.3238C14.137 17.4195 14.4285 17.5545 14.6544 17.7286C14.8803 17.9031 15.0446 18.1153 15.1478 18.3646C15.2503 18.6143 15.3017 18.8928 15.3017 19.2004C15.3017 19.3677 15.2779 19.5297 15.231 19.6848C15.1826 19.8427 15.1073 19.991 15.0084 20.1232C14.9073 20.2599 14.7775 20.3841 14.619 20.4947C14.4606 20.6061 14.2701 20.7027 14.0475 20.7845C14.5332 20.9045 14.8922 21.0983 15.1249 21.3667C15.3573 21.6348 15.4738 21.9792 15.4738 22.3997C15.4738 22.7178 15.4129 23.0132 15.2916 23.2866C15.1691 23.5617 14.9868 23.8061 14.7581 24.002C14.5239 24.2056 14.2348 24.3646 13.8909 24.4787C13.547 24.5934 13.1541 24.6505 12.7128 24.6505L9.76959 24.6502ZM21.304 22.7172C21.3444 22.7172 21.3849 22.7249 21.4253 22.7403C21.466 22.7558 21.5046 22.7825 21.5418 22.8197L22.2194 23.5428C21.9301 23.93 21.5461 24.2363 21.1043 24.4323C20.6576 24.6323 20.1292 24.7325 19.519 24.7325C18.9594 24.7325 18.458 24.6356 18.0146 24.443C17.5712 24.2495 17.1952 23.9829 16.8867 23.6427C16.5785 23.3029 16.3416 22.8993 16.1764 22.4327C16.0111 21.9661 15.9285 21.4594 15.9285 20.9125C15.9285 20.3553 16.0177 19.8435 16.1966 19.3769C16.3752 18.9103 16.6264 18.5079 16.95 18.1694C17.274 17.8309 17.6615 17.5678 18.1133 17.3797C18.565 17.1922 19.0622 17.0977 19.6049 17.0977C19.8813 17.0977 20.1417 17.1226 20.3863 17.172C20.6306 17.2216 20.8588 17.2899 21.0713 17.377C21.4708 17.5398 21.8323 17.7834 22.1332 18.0924L21.5566 18.877C21.5184 18.9259 21.4743 18.9698 21.4253 19.0078C21.3748 19.047 21.304 19.0669 21.2131 19.0669C21.1524 19.0669 21.0951 19.0532 21.041 19.0256C20.982 18.9954 20.9247 18.962 20.8692 18.9257L20.6695 18.7974C20.5877 18.7466 20.5014 18.7037 20.4115 18.6693C20.2983 18.626 20.1816 18.5926 20.0626 18.5694C19.9084 18.5401 19.7517 18.5264 19.5948 18.5284C19.3116 18.5284 19.053 18.5813 18.8185 18.6874C18.5836 18.7938 18.3761 18.9524 18.2116 19.151C18.0416 19.3546 17.91 19.6043 17.8172 19.9C17.7245 20.1954 17.6782 20.533 17.6782 20.9125C17.6782 21.2953 17.7296 21.6353 17.8327 21.9328C17.9352 22.23 18.0752 22.4806 18.2523 22.6839C18.4222 22.8822 18.6337 23.0406 18.8717 23.1478C19.1103 23.2543 19.3689 23.3085 19.6302 23.3068C19.7853 23.3068 19.9268 23.2991 20.0552 23.2839C20.183 23.2688 20.3027 23.2429 20.4139 23.2067C20.5237 23.1715 20.629 23.1234 20.7274 23.0634C20.8339 22.9969 20.9338 22.9205 21.0258 22.8352C21.0663 22.801 21.1102 22.7727 21.1575 22.7504C21.2045 22.7285 21.2535 22.7172 21.304 22.7172Z" fill="#000203"/>
</svg>
