<svg width="64" height="42" viewBox="0 0 64 42" fill="none" xmlns="http://www.w3.org/2000/svg">
<rect width="64.0002" height="42" rx="8" fill="white"/>
<path fill-rule="evenodd" clip-rule="evenodd" d="M27.7384 17.2462V18.6127H24.6876V20.3995H27.0242V21.7132H24.6876V23.5368H27.7384V24.903H22.9531V17.2462H27.7384ZM28.1622 17.1799H29.5376C29.686 17.1799 29.8057 17.215 29.8967 17.2848C29.9876 17.3547 30.0569 17.4447 30.1038 17.5538L31.5301 21.5536C31.5973 21.7277 31.6632 21.9176 31.7271 22.1227C31.791 22.3275 31.852 22.5427 31.9093 22.7682C31.9566 22.5427 32.0095 22.3275 32.0686 22.1227C32.1275 21.9176 32.1905 21.7277 32.2582 21.5536L33.6741 17.5538C33.711 17.4587 33.7778 17.3722 33.8738 17.2952C33.9698 17.2183 34.0887 17.1799 34.2305 17.1799H35.616L32.6627 24.6504H31.1152L28.1622 17.1799ZM40.7383 17.1799V18.5129H37.7143V20.2563H40.0304V21.5381H37.7143V23.3172H40.7383V24.6504H35.995V17.1799H40.7383ZM42.4728 17.19C42.5233 17.1969 42.5691 17.2096 42.6095 17.2287C42.6499 17.2471 42.6886 17.2738 42.7257 17.3077C42.7629 17.3419 42.8051 17.388 42.8523 17.4462L46.3516 21.9328C46.3382 21.7889 46.3278 21.6499 46.3213 21.5149C46.3147 21.3877 46.3114 21.2604 46.3112 21.133V17.1799H47.818V24.6501H46.9282C46.7965 24.6501 46.6862 24.6287 46.5968 24.5862C46.5076 24.5434 46.419 24.4691 46.3314 24.3633L42.8571 19.9127C42.8675 20.0426 42.8758 20.1701 42.8826 20.2946C42.8892 20.4194 42.8927 20.5362 42.8927 20.6459V24.6501H41.3859V17.1799H42.2859C42.3602 17.1799 42.4223 17.1835 42.4728 17.19ZM54.5386 17.1799V18.5536H52.4653V24.6504H50.7561V18.5536H48.6828V17.1799H54.5386ZM59.474 18.6974C59.4234 18.7795 59.3702 18.8413 59.3147 18.8817C59.2591 18.923 59.1875 18.9435 59.0998 18.9435C59.0222 18.9435 58.9387 18.9186 58.8492 18.8692C58.7601 18.8199 58.659 18.764 58.5461 18.7028C58.4221 18.6364 58.2926 18.5807 58.1591 18.5364C58.0141 18.4864 57.8489 18.4618 57.6634 18.4618C57.3433 18.4618 57.1047 18.5307 56.948 18.6692C56.7911 18.8077 56.713 18.9949 56.713 19.2306C56.713 19.381 56.7599 19.5061 56.8544 19.6051C56.9489 19.7041 57.0729 19.7894 57.2259 19.8616C57.3796 19.9332 57.5549 19.9989 57.752 20.0586C57.9493 20.1184 58.1508 20.1852 58.3562 20.2586C58.5619 20.3321 58.7634 20.4185 58.9607 20.5178C59.1554 20.615 59.3331 20.7432 59.4867 20.8973C59.6452 21.059 59.7713 21.2494 59.8582 21.4585C59.9528 21.6793 59.9997 21.9447 59.9997 22.2556C60.0024 22.587 59.9424 22.9159 59.8229 23.225C59.7085 23.5202 59.5337 23.7881 59.3096 24.0117C59.0852 24.2355 58.8088 24.4121 58.4804 24.5401C58.1514 24.6682 57.7781 24.7324 57.36 24.7324C57.1311 24.7324 56.8975 24.7087 56.6598 24.6605C56.422 24.613 56.192 24.5449 55.9694 24.4581C55.7517 24.3732 55.5418 24.2694 55.3423 24.1478C55.1564 24.0357 54.985 23.9014 54.8317 23.7478L55.3375 22.9379C55.3779 22.8797 55.4308 22.8309 55.4968 22.7914C55.5622 22.7522 55.6341 22.7326 55.7117 22.7326C55.8127 22.7326 55.9147 22.7653 56.0178 22.8303C56.1203 22.8948 56.2365 22.9668 56.3664 23.0455C56.4963 23.1243 56.6455 23.1959 56.814 23.261C56.9825 23.3255 57.1813 23.3582 57.4108 23.3582C57.7208 23.3582 57.9618 23.2889 58.1339 23.1507C58.3057 23.0119 58.3918 22.7926 58.3918 22.4915C58.3918 22.3171 58.3443 22.1756 58.2501 22.0659C58.1559 21.9566 58.0319 21.8659 57.8786 21.7943C57.7096 21.7168 57.5346 21.6532 57.3552 21.6044C57.1533 21.5481 56.9526 21.4875 56.7534 21.4225C56.5477 21.3559 56.3471 21.2739 56.1515 21.1764C55.9564 21.0792 55.7793 20.9492 55.6282 20.7921C55.4748 20.6331 55.3509 20.4349 55.2567 20.1974C55.1622 19.9597 55.1149 19.6663 55.1149 19.318C55.1149 19.0374 55.1705 18.764 55.2816 18.4977C55.3942 18.2289 55.5611 17.9862 55.772 17.785C55.9881 17.5761 56.2526 17.4097 56.5661 17.2848C56.8797 17.16 57.2387 17.0979 57.6432 17.0979C57.8691 17.0979 58.089 17.1157 58.303 17.1514C58.5173 17.1874 58.7206 17.2406 58.9125 17.3107C59.1048 17.3808 59.2841 17.4646 59.4511 17.5618C59.6123 17.6548 59.7625 17.7658 59.8987 17.8926L59.4737 18.6974H59.474Z" fill="#E7792D"/>
<path fill-rule="evenodd" clip-rule="evenodd" d="M8.64201 18.697C8.59148 18.779 8.53828 18.8409 8.48271 18.8813C8.42713 18.9226 8.3555 18.9431 8.26783 18.9431C8.19026 18.9431 8.10674 18.9181 8.01729 18.8688C7.92813 18.8195 7.82708 18.7636 7.71414 18.7024C7.59012 18.636 7.46067 18.5803 7.32718 18.5359C7.18215 18.486 7.0169 18.4613 6.83145 18.4613C6.51136 18.4613 6.27271 18.5303 6.11608 18.6688C5.95916 18.8073 5.88099 18.9945 5.88099 19.2302C5.88099 19.3806 5.92795 19.5057 6.02246 19.6047C6.11697 19.7036 6.24091 19.7889 6.39397 19.8612C6.54762 19.9328 6.72297 19.9985 6.92001 20.0582C7.11736 20.1179 7.31886 20.1848 7.52423 20.2582C7.72989 20.3316 7.9314 20.4181 8.12874 20.5174C8.32349 20.6146 8.50115 20.7427 8.65479 20.8969C8.81328 21.0585 8.93938 21.249 9.02629 21.458C9.1208 21.6788 9.16776 21.9442 9.16776 22.2551C9.17042 22.5865 9.11042 22.9155 8.99092 23.2246C8.87654 23.5197 8.70171 23.7877 8.47765 24.0113C8.25327 24.2351 7.97687 24.4116 7.64846 24.5397C7.31946 24.6678 6.94617 24.732 6.528 24.732C6.29916 24.732 6.06556 24.7082 5.8278 24.6601C5.59003 24.6125 5.36 24.5445 5.13739 24.4577C4.91971 24.3728 4.70988 24.2689 4.5103 24.1474C4.3246 24.0354 4.15324 23.9011 4 23.7477L4.50584 22.9378C4.54626 22.8795 4.59916 22.8308 4.66514 22.7913C4.73052 22.752 4.80245 22.7324 4.88002 22.7324C4.98107 22.7324 5.08301 22.7651 5.18614 22.8302C5.28867 22.8947 5.40488 22.9666 5.53475 23.0454C5.66463 23.1241 5.81383 23.1958 5.98234 23.2609C6.15085 23.3253 6.34968 23.358 6.57912 23.358C6.88911 23.358 7.13014 23.2888 7.30222 23.1506C7.474 23.0118 7.56019 22.7925 7.56019 22.4914C7.56019 22.3169 7.51264 22.1755 7.41842 22.0658C7.32421 21.9564 7.20028 21.8658 7.04692 21.7942C6.87796 21.7166 6.70291 21.6531 6.52355 21.6042C6.32165 21.548 6.12099 21.4873 5.92171 21.4224C5.71605 21.3558 5.51544 21.2738 5.31988 21.1763C5.12471 21.0791 4.94769 20.9491 4.7965 20.792C4.64315 20.633 4.51921 20.4348 4.425 20.1973C4.33049 19.9595 4.28323 19.6662 4.28323 19.3179C4.28323 19.0373 4.33881 18.7639 4.44996 18.4976C4.56251 18.2287 4.72947 17.9861 4.94035 17.7849C5.15641 17.576 5.42093 17.4095 5.73447 17.2847C6.04773 17.1596 6.40675 17.0975 6.81124 17.0975C7.03711 17.0975 7.25704 17.1153 7.47103 17.151C7.68531 17.1869 7.8886 17.2401 8.08059 17.3103C8.27288 17.3804 8.45209 17.4642 8.61912 17.5614C8.78036 17.6544 8.93052 17.7653 9.06671 17.8922L8.64201 18.697ZM11.4788 21.4812V23.3423H12.6825C12.9083 23.3423 13.0926 23.3135 13.2362 23.2552C13.3794 23.197 13.4915 23.1218 13.5723 23.0293C13.6531 22.9372 13.709 22.8332 13.7393 22.7167C13.7696 22.6008 13.7848 22.4831 13.7848 22.363C13.7848 22.2263 13.767 22.1035 13.7316 21.9939C13.6976 21.8865 13.6345 21.7907 13.5494 21.7169C13.4635 21.6417 13.3497 21.5837 13.2082 21.5427C13.0668 21.5017 12.8878 21.4812 12.6721 21.4812H11.4788ZM11.4788 20.3221H12.3689C12.5576 20.3221 12.7279 20.3087 12.8795 20.2814C13.0311 20.2541 13.1601 20.2062 13.2665 20.1378C13.3726 20.0695 13.4537 19.9753 13.509 19.8555C13.5649 19.736 13.5925 19.5859 13.5925 19.4046C13.5925 19.2269 13.5705 19.0789 13.5268 18.9609C13.4873 18.8491 13.4173 18.7506 13.3247 18.6765C13.2335 18.6046 13.1182 18.5535 12.9782 18.5226C12.8385 18.4919 12.6721 18.4765 12.4801 18.4765H11.4785L11.4788 20.3221ZM9.76959 24.6497V17.1795H12.4801C12.9892 17.1795 13.4222 17.2273 13.7797 17.3233C14.137 17.419 14.4285 17.554 14.6544 17.7281C14.8803 17.9026 15.0446 18.1148 15.1478 18.3641C15.2503 18.6138 15.3017 18.8923 15.3017 19.1999C15.3017 19.3672 15.2779 19.5292 15.231 19.6843C15.1826 19.8422 15.1073 19.9905 15.0084 20.1227C14.9073 20.2594 14.7775 20.3836 14.619 20.4942C14.4606 20.6056 14.2701 20.7022 14.0475 20.784C14.5332 20.904 14.8922 21.0978 15.1249 21.3662C15.3573 21.6343 15.4738 21.9787 15.4738 22.3993C15.4738 22.7173 15.4129 23.0127 15.2916 23.2861C15.1691 23.5612 14.9868 23.8056 14.7581 24.0015C14.5239 24.2051 14.2348 24.3641 13.8909 24.4782C13.547 24.5929 13.1541 24.65 12.7128 24.65L9.76959 24.6497ZM21.304 22.7167C21.3444 22.7167 21.3849 22.7244 21.4253 22.7399C21.466 22.7553 21.5046 22.7821 21.5418 22.8192L22.2194 23.5423C21.9301 23.9295 21.5461 24.2358 21.1043 24.4318C20.6576 24.6318 20.1292 24.732 19.519 24.732C18.9594 24.732 18.458 24.6351 18.0146 24.4425C17.5712 24.249 17.1952 23.9825 16.8867 23.6422C16.5785 23.3025 16.3416 22.8989 16.1764 22.4323C16.0111 21.9656 15.9285 21.4589 15.9285 20.9121C15.9285 20.3548 16.0177 19.843 16.1966 19.3764C16.3752 18.9098 16.6264 18.5074 16.95 18.1689C17.274 17.8304 17.6615 17.5673 18.1133 17.3792C18.565 17.1917 19.0622 17.0972 19.6049 17.0972C19.8813 17.0972 20.1417 17.1221 20.3863 17.1715C20.6306 17.2211 20.8588 17.2895 21.0713 17.3765C21.4708 17.5393 21.8323 17.7829 22.1332 18.0919L21.5566 18.8765C21.5184 18.9254 21.4743 18.9693 21.4253 19.0073C21.3748 19.0465 21.304 19.0664 21.2131 19.0664C21.1524 19.0664 21.0951 19.0528 21.041 19.0251C20.982 18.9949 20.9247 18.9615 20.8692 18.9253L20.6695 18.7969C20.5877 18.7461 20.5014 18.7032 20.4115 18.6688C20.2983 18.6255 20.1816 18.5921 20.0626 18.5689C19.9084 18.5397 19.7517 18.5259 19.5948 18.5279C19.3116 18.5279 19.053 18.5808 18.8185 18.6869C18.5836 18.7933 18.3761 18.9519 18.2116 19.1505C18.0416 19.3541 17.91 19.6038 17.8172 19.8995C17.7245 20.1949 17.6782 20.5325 17.6782 20.9121C17.6782 21.2949 17.7296 21.6349 17.8327 21.9324C17.9352 22.2296 18.0752 22.4801 18.2523 22.6834C18.4222 22.8817 18.6337 23.0401 18.8717 23.1473C19.1103 23.2538 19.3689 23.3081 19.6302 23.3063C19.7853 23.3063 19.9268 23.2986 20.0552 23.2834C20.183 23.2683 20.3027 23.2424 20.4139 23.2062C20.5237 23.171 20.629 23.1229 20.7274 23.0629C20.8339 22.9965 20.9338 22.92 21.0258 22.8347C21.0663 22.8005 21.1102 22.7723 21.1575 22.75C21.2045 22.728 21.2535 22.7167 21.304 22.7167Z" fill="#000203"/>
</svg>
