<svg width="64" height="42" viewBox="0 0 64 42" fill="none" xmlns="http://www.w3.org/2000/svg">
<rect width="64.0002" height="42" rx="8" fill="white"/>
<g clip-path="url(#clip0_713_1867)">
<path d="M47.5984 11.3086H44.2539L46.4077 16.9482H47.5984V11.3086Z" fill="#FF0000"/>
<path d="M34.8341 15.1389L33.2056 11.3066H31.4546V16.9462H32.9255V13.7164L34.2387 16.9462H35.4295L36.7427 13.7164V16.9462H38.2136V11.3066H36.4626L34.8341 15.1389Z" fill="black"/>
<path fill-rule="evenodd" clip-rule="evenodd" d="M43.2569 11.3105L45.4282 16.9501H43.8873L43.4671 15.8289H40.6829L40.2802 16.9501H38.7393L40.9105 11.3105H43.2569ZM43.0293 14.6575L42.2413 12.5322H41.9086L41.1207 14.6575H43.0293Z" fill="black"/>
<path d="M22.4189 11.3066H23.8898V12.545H22.4189V11.3066Z" fill="black"/>
<path d="M22.4185 13.1641H23.8893V16.9461H22.4185V13.1641Z" fill="black"/>
<path d="M30.5271 13.8039H27.6028V14.9084H29.0912V15.1092C28.5484 16.0296 26.9549 16.0966 26.4471 15.1092C26.1495 14.557 26.0969 13.8876 26.3946 13.2851C26.8499 12.2643 28.5484 12.1472 29.0912 13.168H30.5271C30.2119 11.3774 27.9005 10.9423 26.4822 11.4778C24.9062 12.0133 24.3284 13.8876 24.9062 15.2933C25.344 16.3978 26.4997 17.0337 27.7254 17.017C29.0737 17.0337 30.457 16.197 30.5271 14.9084V13.8039Z" fill="black"/>
<path d="M20.2127 13.1658C20.1952 12.5801 19.7224 12.4295 19.7224 12.4295C19.4947 12.3625 19.2496 12.3625 19.022 12.4462C18.9169 12.4908 18.8294 12.5522 18.7593 12.6303C18.6017 12.7809 18.6017 13.0654 18.7768 13.1993C18.8585 13.2774 18.9694 13.3443 19.1095 13.4001C19.2496 13.4559 19.4014 13.5116 19.5648 13.5674C19.7983 13.6344 20.0376 13.7125 20.2827 13.8017C20.5279 13.8798 20.7555 13.9802 20.9656 14.1029C21.1757 14.2368 21.345 14.3986 21.4734 14.5882C21.7536 15.0233 21.7186 15.7429 21.4209 16.178C21.2575 16.4346 21.0123 16.6355 20.6855 16.7805C20.0551 17.065 18.9694 17.0984 18.2865 16.8307C18.2865 16.8307 16.9382 16.496 16.9557 14.9062H18.3916V15.0401C18.3916 15.8266 19.1095 15.8768 19.3196 15.8768C19.5881 15.8768 19.7983 15.8266 19.95 15.7262C20.1952 15.5589 20.2302 15.174 20.0201 14.9899C19.9383 14.9118 19.8216 14.8448 19.6698 14.7891C19.5064 14.7333 19.3255 14.6719 19.127 14.605C18.8936 14.5492 18.6601 14.4823 18.4266 14.4042C18.2048 14.3261 17.9947 14.2257 17.7962 14.1029C17.3585 13.8352 17.1308 13.4503 17.1484 12.9148C17.1484 12.5578 17.2417 12.2565 17.4285 12.0111C17.627 11.7657 17.8896 11.576 18.2165 11.4421C18.8118 11.2078 19.7574 11.1911 20.3703 11.4254C20.6738 11.5258 20.9248 11.682 21.1232 11.894C21.1232 11.894 21.561 12.2621 21.596 13.1658H20.2127Z" fill="black"/>
</g>
<path d="M11.5267 19.4434V21.7897H6.74777V23.7942H11.5267V26.0007H6.74777V28.1606H11.5267V30.5069H4V19.4434H11.5267Z" fill="black"/>
<path d="M60.0309 19.4629V21.8053H54.8406V23.8064H59.5604V26.0092H54.8406V28.1654H60.0171V30.5078H52.5015V19.4629H60.0309Z" fill="black"/>
<path d="M42.6958 19.4629H47.5283C48.7514 19.4629 49.7109 19.799 50.4069 20.4712C51.103 21.1331 51.451 22.038 51.451 23.1859C51.451 24.3338 51.103 25.2439 50.4069 25.9161C49.7109 26.578 48.7514 26.9089 47.5283 26.9089H45.2165V30.5078H42.6958V19.4629ZM45.2165 24.6906H47.3642C47.8614 24.6906 48.2442 24.5613 48.5127 24.3028C48.7911 24.0442 48.9303 23.6719 48.9303 23.1859C48.9303 22.6998 48.7911 22.3275 48.5127 22.069C48.2343 21.8104 47.8515 21.6812 47.3642 21.6812H45.2165V24.6906Z" fill="black"/>
<path d="M30.7847 27.7621L30.8555 29.3133C30.865 29.8097 30.9594 30.2079 31.1387 30.5078H28.6751C28.5241 30.1975 28.4438 29.7942 28.4344 29.2978L28.3919 28.0568C28.3731 27.4467 28.2456 27.0278 28.0096 26.8003C27.7831 26.5624 27.415 26.4435 26.9053 26.4435H24.9514V30.5078H22.5586V19.4629H27.33C28.5099 19.4629 29.4114 19.7525 30.0343 20.3316C30.6667 20.9004 30.983 21.676 30.983 22.6585C30.983 23.9305 30.4402 24.8044 29.3547 25.2801C29.8739 25.4662 30.2325 25.7506 30.4308 26.1333C30.6384 26.5159 30.7564 27.0588 30.7847 27.7621ZM24.9514 21.5571V24.4734H27.061C27.5235 24.4734 27.8822 24.3493 28.1371 24.1011C28.3919 23.8426 28.5194 23.4755 28.5194 22.9997C28.5194 22.038 28.0191 21.5571 27.0185 21.5571H24.9514Z" fill="black"/>
<path d="M40.4394 29.0928C39.5188 30.1482 38.3156 30.6758 36.8298 30.6758C35.3441 30.6758 34.1409 30.1482 33.2203 29.0928C32.2997 28.0271 31.8394 26.6303 31.8394 24.9024C31.8394 23.1745 32.2997 21.7777 33.2203 20.712C34.1409 19.6566 35.3441 19.1289 36.8298 19.1289C38.3156 19.1289 39.5188 19.6566 40.4394 20.712C41.36 21.7777 41.8203 23.1745 41.8203 24.9024C41.8203 26.6303 41.36 28.0271 40.4394 29.0928ZM34.9567 27.4632C35.4216 28.084 36.0459 28.3944 36.8298 28.3944C37.6046 28.3944 38.2335 28.084 38.7166 27.4632C39.1906 26.8527 39.4276 25.9991 39.4276 24.9024C39.4276 23.8056 39.1906 22.952 38.7166 22.3416C38.2335 21.7208 37.6046 21.4104 36.8298 21.4104C36.0459 21.4104 35.4216 21.7208 34.9567 22.3416C34.4827 22.952 34.2457 23.8056 34.2457 24.9024C34.2457 25.9991 34.4827 26.8527 34.9567 27.4632Z" fill="black"/>
<path fill-rule="evenodd" clip-rule="evenodd" d="M13.7227 29.6097C14.644 30.3866 15.3327 30.7751 16.8394 30.7751C18.4111 30.7751 19.1161 30.3866 20.0049 29.6097C20.7004 29.0017 21.3544 27.7466 21.3544 26.3155V19.4629H18.53V24.009C18.5304 24.0234 18.5306 24.0379 18.5306 24.0524V26.7577C18.5306 27.628 17.825 28.3336 16.9546 28.3336C16.0842 28.3336 15.3787 27.628 15.3787 26.7577V26.3872C15.3783 26.3743 15.3781 26.3607 15.3781 26.3465V19.4629H12.5767V26.3155C12.5767 27.7554 13.0144 28.7506 13.7227 29.6097Z" fill="black"/>
<defs>
<clipPath id="clip0_713_1867">
<rect width="30.6432" height="5.85714" fill="white" transform="translate(16.9546 11.2617)"/>
</clipPath>
</defs>
</svg>
