<svg width="64" height="42" viewBox="0 0 64 42" fill="none" xmlns="http://www.w3.org/2000/svg">
<rect width="64" height="42" rx="8" fill="white"/>
<g clip-path="url(#clip0_1519_714)">
<path d="M36.0569 22.6987L33.2836 15.9041H30.2676V25.9227H32.7982V20.1681L35.0516 25.9227H37.0969L39.3156 20.1681V25.9227H41.8462V15.9041H38.8649L36.0569 22.6987Z" fill="black"/>
<path fill-rule="evenodd" clip-rule="evenodd" d="M50.4773 15.904L54.152 25.9227H51.552L50.824 23.912H46.0747L45.3467 25.9227H42.7467L46.456 15.904H50.4773ZM50.0613 21.832L48.7093 18.088H48.1547L46.8027 21.832H50.0613ZM12.8293 20.8614C12.4596 20.6303 12.0667 20.4454 11.6507 20.3067C11.2347 20.168 10.8302 20.0409 10.4373 19.9254C10.1369 19.8098 9.87111 19.7058 9.64 19.6134C9.38578 19.4978 9.18933 19.3823 9.05067 19.2667C8.912 19.128 8.84267 18.9547 8.84267 18.7467C8.84267 18.5387 8.90044 18.3654 9.016 18.2267C9.15467 18.088 9.31644 17.984 9.50133 17.9147C9.68622 17.8454 9.89422 17.8107 10.1253 17.8107C10.3102 17.8107 10.4951 17.8338 10.68 17.88C10.7956 17.9263 10.8996 17.9725 10.992 18.0187L11.0267 18.0534C11.0498 18.0765 11.0844 18.0996 11.1307 18.1227C11.2347 18.2267 11.3733 18.4 11.4427 18.6774V18.712C11.4889 18.8507 11.5236 19.0125 11.5467 19.1974H13.904C13.8347 17.568 13.072 16.944 13.072 16.944C12.7253 16.5743 12.2978 16.2854 11.7893 16.0774C11.2809 15.8925 10.6916 15.8 10.0213 15.8C9.30489 15.8 8.66933 15.9156 8.11467 16.1467C7.53689 16.3778 7.08622 16.7129 6.76267 17.152C6.43911 17.568 6.27733 18.0996 6.27733 18.7467C6.27733 19.2552 6.36978 19.6827 6.55467 20.0294C6.76267 20.376 7.04 20.6534 7.38667 20.8614C7.71022 21.0694 8.08 21.2427 8.496 21.3814C8.88889 21.52 9.27022 21.6472 9.64 21.7627C10.0098 21.8552 10.3218 21.9592 10.576 22.0747C10.8533 22.1672 11.0613 22.2827 11.2 22.4214C11.3618 22.56 11.4427 22.7565 11.4427 23.0107C11.4427 23.288 11.3156 23.5192 11.0613 23.704C10.8071 23.912 10.4489 24.016 9.98667 24.016C9.73244 23.9929 9.50133 23.9467 9.29333 23.8774C9.06222 23.808 8.87733 23.6925 8.73867 23.5307C8.69244 23.4845 8.64622 23.4267 8.6 23.3574C8.53067 23.184 8.42667 22.9414 8.42667 22.5947H6C6.02311 22.872 6.05778 23.1147 6.104 23.3227C6.21956 23.9005 6.46222 24.3974 6.832 24.8134C7.17867 25.2063 7.64089 25.5067 8.21867 25.7147C8.79644 25.9227 9.45511 26.0267 10.1947 26.0267C11.0498 26.0267 11.7547 25.888 12.3093 25.6107C12.8871 25.3565 13.3147 24.9983 13.592 24.536C13.8693 24.0969 14.008 23.5885 14.008 23.0107C14.008 22.5023 13.904 22.0747 13.696 21.728C13.4649 21.3814 13.176 21.0925 12.8293 20.8614Z" fill="black"/>
<path d="M22.883 18.296C23.299 18.0418 23.7612 17.9147 24.2697 17.9147C24.8243 17.9147 25.2403 18.0187 25.6217 18.2267C25.9915 18.4347 26.2919 18.7583 26.523 19.1974H29.019L28.9497 18.92C28.9266 18.7352 28.8919 18.5734 28.8457 18.4347C28.6146 17.9263 28.3026 17.4872 27.9097 17.1174C27.4475 16.7014 26.9043 16.3778 26.2803 16.1467C25.6332 15.9156 24.9399 15.8 24.2003 15.8C23.4377 15.8 22.7097 15.9387 22.0857 16.1814C21.4617 16.4356 20.9186 16.7823 20.4563 17.2214C19.9941 17.6836 19.6359 18.2267 19.3817 18.8507C19.1506 19.4747 19.035 20.1565 19.035 20.896C19.035 21.6356 19.1506 22.3174 19.3817 22.9414C19.6359 23.5654 19.9941 24.1085 20.4563 24.5707C20.9186 25.0329 21.4732 25.3912 22.1203 25.6454C22.7443 25.8765 23.4492 25.992 24.235 25.992C25.067 25.992 25.795 25.8534 26.419 25.576C27.043 25.2987 27.5746 24.9405 28.0137 24.5014V24.4667C28.6723 23.8427 29.019 22.9414 29.019 22.04V20.3067H24.235V22.248H26.6963V22.664C26.2457 23.288 25.7257 23.6 25.3097 23.7387C25.1479 23.808 24.9746 23.8543 24.7897 23.8774H24.4083C23.8306 23.8774 23.3337 23.7618 22.9177 23.5307C22.4786 23.2765 22.155 22.9298 21.947 22.4907C21.7159 22.0285 21.6003 21.4969 21.6003 20.896C21.6003 20.3414 21.7159 19.8329 21.947 19.3707C22.1781 18.9316 22.4901 18.5734 22.883 18.296ZM17.8217 15.904V18.088H15.291V15.904H17.8217ZM17.8217 19.1974V25.9227H15.291V19.1974H17.8217Z" fill="black"/>
<path d="M52.0371 15.9041L55.6424 25.9227H57.7571V15.9041H52.0371Z" fill="#E93323"/>
</g>
<defs>
<clipPath id="clip0_1519_714">
<rect width="52" height="10.4" fill="white" transform="translate(6 15.8)"/>
</clipPath>
</defs>
</svg>
