<svg width="64" height="42" viewBox="0 0 64 42" fill="none" xmlns="http://www.w3.org/2000/svg">
<rect width="64" height="42" rx="8" fill="white"/>
<path d="M46.1642 15.5481H59.0002V24.642L58.0345 24.6822H56.3445L56.9883 25.8089L57.3907 26.493V26.5332H54.6142L54.3728 26.171L53.8095 25.1651L53.568 24.7627V24.6822H51.3952L51.033 24.0786L50.4697 23.1129L49.9868 22.2679L49.7454 22.6301L49.182 23.636L48.6187 24.6017L48.0151 25.6479L47.492 26.5332H44.7156L44.7961 26.332L45.3996 25.2858L46.0434 24.1591L46.6068 23.1934L47.2506 22.0667L47.8139 21.101L48.498 19.9341L48.5382 19.7329L47.9749 18.7672L47.4116 17.7612L46.8482 16.7955L46.2849 15.7895L46.1642 15.5481Z" fill="#FF0000"/>
<path d="M31.9194 15.5481H34.8568L35.1787 16.1517L35.7018 17.2783L36.2249 18.3648L36.748 19.4915L37.3114 20.6584L37.8345 21.7851L37.9552 22.0265L38.2771 21.4229L38.7197 20.4974L39.3635 19.1696L39.8464 18.1636L40.9731 15.8298L41.134 15.5481H43.991L44.5543 16.5138L45.1579 17.56L45.3591 17.8819V17.9624H43.991V26.5332H41.5364L41.4962 24.5615L41.4559 19.5719L40.7317 21.1412L40.1281 22.4691L39.4843 23.8775L38.8807 25.2053H37.0297L36.3054 23.636L35.6616 22.1874L34.9373 20.6181L34.4545 19.5317L34.4142 26.5332H31.9194V15.5481Z" fill="black"/>
<path d="M25.0385 15.4669H26.5273L27.4528 15.6279L28.1369 15.8291L28.9819 16.1912L29.4245 16.4326L29.9074 16.7545L30.2695 17.0362L30.189 17.1972L29.7464 17.7605L29.2233 18.3641L28.8612 18.8067L28.7405 18.9677L28.5795 18.8872L28.1771 18.5653L27.5333 18.2031L26.8895 17.9617L26.3262 17.841L25.6421 17.8007L25.0385 17.8812L24.4349 18.0824L23.9923 18.3238L23.5497 18.686L23.2278 19.0481L22.9059 19.6115L22.7047 20.2151L22.6242 20.6577V21.382L22.7449 22.0258L23.0266 22.6696L23.3083 23.1122L23.5899 23.4341L24.0728 23.7963L24.7569 24.1182L25.28 24.2389L25.9238 24.2791L26.4871 24.1987L27.2919 23.9572L27.654 23.7963H27.7345V20.9393H30.1488V25.2046L29.7464 25.4863L29.0624 25.8484L28.0162 26.2508L27.0504 26.4923L26.2457 26.613H24.8776L24.1533 26.4923L23.429 26.2911L22.7047 25.9692L22.1414 25.6472L21.578 25.2046L20.9744 24.601L20.5721 24.0377L20.2099 23.3939L19.9282 22.6294L19.7673 21.8648L19.7271 21.5429V20.537L19.8478 19.7724L20.049 19.0884L20.4513 18.2434L20.8537 17.68L21.2159 17.2776L21.6585 16.835L22.2218 16.4326L22.8656 16.0705L23.5497 15.7888L24.274 15.5876L25.0385 15.4669Z" fill="black"/>
<path d="M8.82265 15.3867H9.98957L10.7139 15.4672L11.3979 15.6281L12.0417 15.8696L12.6051 16.1915L13.0879 16.6341L13.4098 16.9963L13.7317 17.5596L13.9329 18.1229L13.6513 18.2436L11.6796 18.7667H11.5991L11.3174 18.2034L11.1565 18.0022L10.7139 17.7205L10.231 17.5596L10.0298 17.5194H9.06408L8.58122 17.6401L8.17884 17.8815L8.01788 18.1229L7.93741 18.4046V18.6863L8.05812 19.0082L8.21908 19.2094L8.70194 19.4508L9.42623 19.652L10.9151 19.9739L11.7601 20.2153L12.4039 20.497L12.8465 20.7787L13.2489 21.1408L13.5306 21.4627L13.8122 22.0261L13.9732 22.6699L14.0134 23.0723V23.4746L13.9329 24.0782L13.772 24.6013L13.4903 25.1244L13.0477 25.6073L12.5246 25.9694L11.921 26.2511L11.1565 26.4523L10.6334 26.5328L10.1505 26.573H9.06408L8.05812 26.4523L7.21311 26.2109L6.52906 25.889L6.08644 25.567L5.60358 25.0842L5.28167 24.5611L5.04024 23.9173L5 23.5954L5.84501 23.3539L7.37407 22.9515L7.57526 23.5149L7.81669 23.8368L8.1386 24.1185L8.6617 24.3599L9.26528 24.4806H10.0298L10.5529 24.3599L10.8748 24.1989L11.076 23.9977L11.237 23.7161L11.2772 23.5149V23.1527L11.1565 22.7906L10.8748 22.4687L10.3517 22.2273L9.38599 21.9858L7.77645 21.6237L6.93145 21.342L6.32787 21.0201L5.88525 20.658L5.56334 20.2556L5.32191 19.7325L5.20119 19.1691V18.1632L5.32191 17.5998L5.5231 17.117L5.80477 16.6743L6.0462 16.3927L6.52906 16.0305L7.17288 15.7086L7.89717 15.5074L8.38003 15.427L8.82265 15.3867Z" fill="black"/>
<path d="M51.033 15.5886L51.194 15.7898L51.7171 16.7153L52.2804 17.681L53.4876 19.7734L54.0509 20.7391L55.2581 22.8315L55.8214 23.7973L56.3043 24.602L56.5457 25.0447L57.3907 26.4932V26.5335H54.6142L54.3728 26.1713L53.8095 25.1654L53.568 24.763V24.6825H51.3952L51.033 24.0789L50.4697 23.1132L49.9868 22.2682L49.7454 22.6304L49.182 23.6363L48.6187 24.602L48.0151 25.6482L47.492 26.5335H44.7156L44.7961 26.3323L45.3996 25.2861L46.0434 24.1594L46.6068 23.1937L47.2506 22.067L47.8139 21.1013L48.498 19.9344L48.9004 19.2503L49.504 18.2041L50.4697 16.5141L50.9928 15.6289L51.033 15.5886Z" fill="black"/>
<path d="M15.5024 15.5481H18.3594V17.9222L18.3191 17.9624H16.9913L17.6351 19.0891L18.1984 20.0548L18.3594 20.3365V26.5332H15.5024V17.9624L16.9108 17.9222L16.3877 17.0369L15.7036 15.9102L15.5024 15.5481Z" fill="black"/>
<path d="M50.9925 20.3763H51.073L51.6766 21.4225L52.2399 22.3883L52.8435 23.4345L53.4873 24.5611L53.5276 24.6819H51.3949L51.0328 24.0783L50.4694 23.1126L49.9866 22.2675L50.0268 22.0664L50.6304 21.0202L50.9925 20.3763Z" fill="#FF0000"/>
<path d="M15.5024 15.5481H18.3594V17.9222L18.3191 17.9624L16.951 18.0026L16.5889 17.3588L16.0658 16.5138L15.5024 15.5883V15.5481Z" fill="#FF0000"/>
</svg>
