<svg width="24" height="24" viewBox="0 0 24 24" fill="none" xmlns="http://www.w3.org/2000/svg">
<path fill-rule="evenodd" clip-rule="evenodd" d="M17.1671 17.2255C16.5074 17.9652 15.6772 18.4389 14.734 18.7069C12.9654 19.2084 11.1774 19.2257 9.41561 18.7031C7.81269 18.2275 6.62975 17.2485 6.15911 15.6066C5.82489 14.4422 6.58688 13.5728 7.763 13.7092C8.27164 13.7678 8.60587 14.0714 8.84363 14.4883C8.99271 14.7506 9.11744 15.0264 9.25191 15.2973C9.68844 16.1802 10.392 16.6798 11.3917 16.7883C12.2102 16.8767 13.0015 16.8191 13.7586 16.4809C14.0519 16.3502 14.3111 16.1696 14.5225 15.9294C15.0887 15.2848 14.9863 14.3721 14.2916 13.8639C13.6202 13.3729 12.8144 13.2423 12.03 13.0703C10.9074 12.8234 9.78199 12.5899 8.7267 12.1259C7.63632 11.6465 6.74961 10.95 6.4641 9.73366C6.1328 8.32234 6.53036 7.12911 7.67628 6.21353C8.68674 5.40651 9.90282 5.14519 11.1618 5.03758C11.4531 5.01261 11.7484 5.03374 12.0417 5.03374C13.2041 5.003 14.3364 5.15479 15.3859 5.68224C16.1888 6.08671 16.8543 6.63721 17.2411 7.4644C17.4302 7.86887 17.5208 8.3012 17.399 8.73257C17.2509 9.25618 16.8894 9.62126 16.3408 9.73078C15.7688 9.84511 15.2377 9.75576 14.8772 9.23312C14.7057 8.98429 14.541 8.72969 14.3861 8.47029C13.895 7.64598 13.1954 7.18675 12.2015 7.19059C11.7474 7.19251 11.2962 7.1781 10.8519 7.28378C10.4534 7.3789 10.088 7.54318 9.78491 7.81988C9.24509 8.31369 9.26555 8.99293 9.84143 9.44448C10.2205 9.74231 10.6697 9.90755 11.1335 10.0248C12.2219 10.2986 13.3162 10.5532 14.4036 10.8327C14.9951 10.9855 15.5612 11.2142 16.1098 11.4851C18.6599 12.7456 18.4777 15.7536 17.1671 17.2255Z" fill="black"/>
<path fill-rule="evenodd" clip-rule="evenodd" d="M22.2851 14.518C22.2198 14.369 22.1915 14.2317 22.2256 14.0664C22.4731 12.8607 22.4819 11.6511 22.2792 10.4348C21.3847 5.07681 16.2642 1.32034 10.824 2.04569C10.5054 2.08796 10.2413 2.03896 9.95483 1.88813C7.65521 0.677602 4.84305 1.0936 2.97314 2.90363C1.1315 4.68675 0.668648 7.47289 1.84867 9.74214C1.97339 9.98137 2.01139 10.1966 1.95585 10.4627C1.84185 11.0065 1.8321 11.5637 1.80579 12.144C1.82528 12.4678 1.83113 12.8184 1.86815 13.1662C2.48399 18.9729 7.87835 23.0464 13.7521 22.1404C13.9324 22.1126 14.0825 22.1424 14.2423 22.2221C15.3521 22.7736 16.5448 22.9081 17.7453 22.7198C21.6732 22.1039 23.8607 18.1236 22.2851 14.518Z" stroke="black" stroke-width="2"/>
</svg>
