<svg width="89" height="20" viewBox="0 0 89 20" fill="none" xmlns="http://www.w3.org/2000/svg">
<path fill-rule="evenodd" clip-rule="evenodd" d="M42.838 5.23634C42.838 5.04604 42.8702 4.86229 42.9409 4.69168C43.0181 4.52106 43.1145 4.36357 43.2431 4.25201C43.3717 4.12077 43.5196 4.02233 43.6868 3.95015C43.8604 3.8714 44.0405 3.83203 44.2334 3.83203C44.4263 3.83203 44.6064 3.8714 44.7736 3.95015C44.9472 4.02233 45.0951 4.12077 45.2237 4.25201C45.3523 4.37013 45.4487 4.52106 45.5195 4.69824C45.5966 4.86886 45.6352 5.0526 45.6352 5.2429C45.6352 5.43977 45.5966 5.62351 45.5195 5.79412C45.4487 5.95818 45.3459 6.11567 45.2237 6.24035C45.0951 6.36504 44.9472 6.46347 44.7736 6.54221C44.4392 6.68658 44.0276 6.68658 43.6868 6.54221C43.5196 6.46347 43.3653 6.36504 43.2431 6.24035C43.121 6.10911 43.0245 5.95818 42.9473 5.78756C42.8766 5.61695 42.838 5.4332 42.838 5.23634ZM43.1916 8.69465C43.1916 8.11718 43.6546 7.6447 44.2204 7.6447C44.7863 7.6447 45.2493 8.11718 45.2493 8.69465V15.1387C45.2493 15.7162 44.7927 16.1821 44.2269 16.1821H44.214C43.6481 16.1821 43.1916 15.7162 43.1916 15.1387V8.69465ZM72.0957 13.4981C72.3208 12.9469 72.4301 12.33 72.4301 11.6607C72.4301 11.011 72.3144 10.4007 72.0957 9.85607C71.8707 9.30485 71.5684 8.82581 71.1826 8.41895C70.7968 8.01866 70.3467 7.70367 69.8258 7.48056C69.3114 7.25088 68.752 7.13932 68.1668 7.13932C67.9739 7.13932 67.781 7.15901 67.5752 7.20495C67.3759 7.24432 67.1765 7.29682 66.9836 7.37556C66.7971 7.44775 66.6235 7.54618 66.4563 7.65774C66.302 7.76929 66.1605 7.90054 66.0512 8.05147L65.9548 8.17615V5.07224C65.9548 4.49476 65.4918 4.02885 64.9324 4.02885C64.3665 4.02885 63.9099 4.49476 63.9099 5.07224V11.6607C63.9099 12.3169 64.0257 12.9272 64.2443 13.4784C64.4694 14.0231 64.7716 14.5021 65.1574 14.8958C65.5432 15.2896 65.9998 15.6045 66.5142 15.8277C67.0286 16.0508 67.5881 16.1623 68.1732 16.1623C68.7648 16.1623 69.3243 16.0508 69.8323 15.8342C70.3467 15.6177 70.8032 15.3092 71.1891 14.9155C71.5684 14.5283 71.8771 14.0427 72.0957 13.4981ZM70.1988 12.6122C70.0895 12.9009 69.9287 13.1568 69.7294 13.3734C69.53 13.59 69.2921 13.7606 69.022 13.8853C68.7584 14.0099 68.469 14.069 68.1668 14.069C67.8646 14.069 67.5752 14.0099 67.3051 13.8853C67.0415 13.7606 66.8036 13.5834 66.6042 13.3734C66.4049 13.1568 66.2441 12.9009 66.1348 12.6122C66.0191 12.3235 65.9676 12.0019 65.9676 11.6607C65.9676 11.3522 66.0255 11.0504 66.1348 10.7682C66.2506 10.4795 66.4049 10.217 66.6042 10.0004C66.8036 9.77732 67.0351 9.59358 67.2987 9.46234C67.5688 9.32453 67.8582 9.25235 68.1604 9.25235C68.4626 9.25235 68.752 9.31141 69.0156 9.43609C69.2857 9.55421 69.5236 9.72483 69.7229 9.94138C69.9223 10.1579 70.083 10.4139 70.1924 10.7092C70.3081 10.9979 70.3724 11.3194 70.3724 11.6607C70.3788 12.0019 70.3145 12.3169 70.1988 12.6122ZM84.5573 14.8827C84.223 14.5349 83.9529 14.1215 83.7535 13.6621C83.5606 13.2028 83.4642 12.7041 83.4706 12.1922V9.56733H83.0333C82.4675 9.56733 82.0109 9.10142 82.0109 8.52395C82.0109 7.94647 82.4739 7.48056 83.0333 7.48056H83.4706V5.06567C83.4706 4.49476 83.9272 4.02885 84.4866 4.02885C85.046 4.02885 85.5026 4.49476 85.5026 5.06567V7.474H87.2388C87.8046 7.474 88.2612 7.93991 88.2612 8.51738C88.2612 9.09486 87.7982 9.56077 87.2388 9.56077H85.5026V12.1856C85.5026 12.4219 85.5412 12.6516 85.6312 12.8616C85.7212 13.0715 85.837 13.2487 85.9913 13.4062C86.1456 13.5571 86.3257 13.6818 86.5314 13.7803C86.7372 13.8656 86.9623 13.9115 87.1938 13.9115H87.361C87.9268 13.9115 88.3834 14.3774 88.3834 14.9549C88.3834 15.5324 87.9204 15.9983 87.361 15.9983H87.1938C86.6793 15.9983 86.1971 15.8998 85.7469 15.703C85.2968 15.4995 84.8981 15.2239 84.5573 14.8827ZM26.2348 15.9984H30.0866C30.4467 15.9984 30.7875 15.9262 31.109 15.7949C31.4241 15.6506 31.707 15.4603 31.945 15.2175C32.1829 14.9681 32.3694 14.6859 32.5108 14.3644C32.6459 14.0428 32.7166 13.6885 32.7166 13.3144C32.7166 12.9469 32.6459 12.6057 32.5108 12.2973C32.3694 11.9889 32.1829 11.7198 31.945 11.4967C31.707 11.2736 31.4305 11.103 31.109 10.9849C30.7875 10.8602 30.4467 10.7945 30.0866 10.7945H27.8424C27.6817 10.7945 27.5402 10.7355 27.4244 10.6174C27.3087 10.4927 27.2508 10.3418 27.2508 10.1711C27.2508 10.0071 27.3087 9.86272 27.4244 9.7446C27.5402 9.62648 27.6817 9.56742 27.8424 9.56742H31.7842C32.3436 9.56742 32.8066 9.1015 32.8066 8.52403C32.8066 7.94656 32.3501 7.48064 31.7842 7.48064H27.8424C27.4759 7.48064 27.1351 7.55283 26.8136 7.69063C26.492 7.82844 26.2155 8.01874 25.9776 8.26155C25.7397 8.50435 25.5532 8.79308 25.4117 9.11463C25.2767 9.44274 25.2124 9.79053 25.2124 10.1646C25.2124 10.5386 25.2831 10.893 25.4117 11.2145C25.5532 11.5426 25.7397 11.8314 25.9776 12.0742C26.2155 12.317 26.492 12.5073 26.8136 12.6516C27.1286 12.796 27.4759 12.8616 27.8424 12.8616H30.0866C30.2409 12.8616 30.376 12.8879 30.4917 12.9404C30.6203 12.9994 30.6846 13.1176 30.6846 13.3013C30.6846 13.4654 30.6267 13.6097 30.511 13.7278C30.3952 13.846 30.2538 13.905 30.093 13.905H26.2348C25.6754 13.905 25.2124 14.3709 25.2124 14.9484C25.2124 15.5259 25.6754 15.9984 26.2348 15.9984ZM53.9303 11.2933C53.9303 10.7749 53.8339 10.2761 53.6345 9.81678C53.4416 9.35086 53.178 8.94401 52.8436 8.59621C52.5092 8.24841 52.1105 7.9728 51.6604 7.77594C51.2103 7.57251 50.728 7.47408 50.22 7.47408C49.712 7.47408 49.2297 7.57251 48.7796 7.77594C48.3295 7.9728 47.9308 8.24841 47.5964 8.59621C47.2621 8.93744 46.992 9.35086 46.8055 9.81678C46.6062 10.2761 46.5097 10.7749 46.5097 11.2998V15.1453C46.5097 15.7227 46.9663 16.1887 47.5321 16.1887C48.098 16.1887 48.5546 15.7227 48.5546 15.1453V11.2998C48.5546 11.0702 48.5996 10.847 48.6832 10.637C48.7668 10.4271 48.8889 10.2433 49.0433 10.0858C49.1976 9.92833 49.3712 9.80365 49.577 9.71834C49.7763 9.62647 49.995 9.5871 50.2264 9.5871C50.4579 9.5871 50.6701 9.63304 50.8759 9.71834C51.0752 9.80365 51.2553 9.92833 51.4096 10.0858C51.564 10.2433 51.6797 10.4271 51.7697 10.637C51.8598 10.8405 51.8983 11.0636 51.8983 11.2998V15.1453C51.8983 15.7227 52.3549 16.1887 52.9208 16.1887C53.4866 16.1887 53.9432 15.7227 53.9432 15.1453V11.2933H53.9303ZM33.6553 11.3786C33.6553 8.89805 35.5652 6.87689 37.9058 6.87689C40.2529 6.87689 42.1562 8.89805 42.1562 11.3786C42.1562 13.8591 40.2464 15.8802 37.9058 15.8802C37.147 15.8802 36.3947 15.6571 35.7388 15.2437L35.6488 15.1912V17.9736C35.6488 18.5313 35.2051 18.9907 34.652 18.9907C34.1055 18.9907 33.6553 18.5379 33.6553 17.9736V11.3786ZM35.6552 11.3851C35.6552 12.7435 36.6647 13.8525 37.9058 13.8525C39.1533 13.8525 40.1564 12.7435 40.1564 11.3851C40.1564 10.0267 39.1468 8.91774 37.9058 8.91774C36.6647 8.91774 35.6552 10.0267 35.6552 11.3851ZM81.6957 9.77741C81.5607 9.44274 81.3871 9.14088 81.1877 8.85871C80.9884 8.5831 80.7569 8.33373 80.4997 8.10406C80.236 7.88094 79.9467 7.68408 79.638 7.53315C79.1107 7.27066 78.5642 7.11973 78.0047 7.08035C77.9147 7.07379 77.8311 7.07379 77.7411 7.07379C77.2781 7.07379 76.828 7.14598 76.3907 7.29691C75.8827 7.47409 75.4004 7.76938 74.9567 8.16968C74.5195 8.56997 74.153 9.08182 73.8636 9.68554C73.5807 10.2761 73.4199 10.8733 73.3878 11.4705C73.3556 12.0611 73.4263 12.6254 73.6 13.1569C73.78 13.6885 74.0565 14.1741 74.4166 14.6006C74.7831 15.0337 75.2397 15.3815 75.767 15.644C76.0821 15.8015 76.4036 15.9131 76.7315 15.9852C77.0659 16.064 77.4003 16.0968 77.7346 16.0837C78.0755 16.0771 78.4098 16.0246 78.7314 15.9327C78.9307 15.8802 79.9595 15.5784 80.9177 14.8762C81.3292 14.5744 81.4578 14.0035 81.2199 13.5507C80.9562 13.0388 80.3325 12.842 79.8309 13.111C79.2651 13.4129 78.5963 13.7607 78.4741 13.8132C78.2877 13.8985 78.0819 13.951 77.8697 13.9772C77.6639 13.9969 77.4581 13.9903 77.2588 13.9575C77.053 13.9247 76.8536 13.8591 76.6607 13.7606C76.5836 13.7213 76.5064 13.6819 76.4357 13.636C76.3586 13.5835 76.2878 13.531 76.2235 13.4654L76.1592 13.4063L76.2364 13.3669L81.162 11.0898C81.6636 10.8667 81.9015 10.2761 81.6957 9.77741ZM79.2265 9.88897L75.4262 11.8708L75.4197 11.7789C75.4133 11.687 75.4197 11.5886 75.439 11.4836L75.4473 11.4413C75.4639 11.3555 75.4813 11.2662 75.5033 11.1817C75.5355 11.0767 75.5676 10.9717 75.6062 10.8733C75.6448 10.7749 75.6834 10.6896 75.722 10.6174C75.8763 10.2893 76.0756 10.0137 76.3007 9.80366C76.5322 9.58711 76.7765 9.42962 77.0402 9.32462C77.3102 9.22619 77.5932 9.18682 77.8761 9.2065C78.1655 9.22619 78.4548 9.29837 78.7249 9.43618C78.8214 9.48211 78.9114 9.53461 78.995 9.58711C79.085 9.64617 79.1686 9.71179 79.2458 9.7971L79.2972 9.85616L79.2265 9.88897ZM57.8055 14.6915L54.9224 9.10261C54.7886 8.84309 54.751 8.55181 54.8665 8.26552L54.8687 8.26023L54.8709 8.255C54.9856 7.99174 55.1838 7.80102 55.4418 7.69017C55.6929 7.58229 55.9613 7.56545 56.2209 7.67142C56.483 7.76901 56.6686 7.96639 56.7847 8.21397L58.823 12.3457L60.6054 8.23681L60.6078 8.23163C60.7237 7.98332 60.9021 7.76226 61.1707 7.65783C61.4391 7.55346 61.7165 7.59715 61.9651 7.70335L61.9663 7.70384C62.2206 7.81342 62.4561 7.99051 62.5663 8.27383C62.6767 8.55769 62.6233 8.85049 62.5096 9.10648L62.5089 9.10807L58.4629 18.3915C58.3924 18.5737 58.2878 18.7441 58.1323 18.8702C57.9683 19.0032 57.7746 19.0648 57.5719 19.0648C57.4076 19.0648 57.2446 19.016 57.0943 18.9503L57.0862 18.9467C56.8371 18.8312 56.609 18.6501 56.5042 18.3691C56.3991 18.0875 56.4525 17.7996 56.5667 17.5474L57.8055 14.6915Z" fill="#1B1F28"/>
<path d="M20.1264 9.33195C20.1264 9.40227 20.1201 9.45981 20.1074 9.53013C20.0821 9.74109 19.9113 9.88813 19.7088 9.93288C19.4241 9.99681 19.1456 9.81781 19.076 9.53013C18.9495 8.82691 18.7154 8.13648 18.38 7.47162C17.5765 5.84144 16.2161 4.47976 14.5456 3.62951C12.736 2.70254 10.6923 2.42765 8.79404 2.86236C7.18055 3.15644 5.88344 4.49894 5.41521 6.0588C4.70021 8.40498 5.80118 10.8407 7.87656 11.4927C8.60421 11.7165 9.38881 11.6973 10.1481 11.4416C10.1481 11.4416 10.2746 11.3968 10.3885 11.3585C10.7365 11.2562 11.1099 11.3073 11.4326 11.4991C11.7742 11.7037 12.021 12.0361 12.1096 12.4197C12.2994 13.1932 11.8502 13.9476 11.0846 14.1458C10.9453 14.1905 10.7619 14.2225 10.7555 14.2225C10.3379 14.2864 9.93297 14.312 9.53434 14.312C7.94617 14.312 6.47821 13.8325 5.30132 12.9183C4.80145 12.5284 4.36486 12.0681 3.99787 11.5503C3.48535 10.764 3.11837 9.92009 2.89691 9.04427C2.44766 7.33737 2.63116 5.52819 3.41575 3.95554C5.33295 0.139 10.4835 -1.13957 14.8936 1.11072C16.64 2.01211 18.0637 3.34822 19.0001 4.9784C19.8037 6.36566 20.196 7.86798 20.1264 9.33195Z" fill="#FF22FF"/>
<path d="M0.00788768 10.6675C0.00788768 10.5972 0.0142151 10.5397 0.0268699 10.4694C0.0521794 10.2584 0.223019 10.1114 0.425496 10.0666C0.710228 10.0027 0.988633 10.1817 1.05823 10.4694C1.18478 11.1726 1.4189 11.863 1.75425 12.5279C2.55783 14.1581 3.91822 15.5197 5.58865 16.37C7.39828 17.297 9.44203 17.5718 11.3402 17.1371C12.9537 16.8431 14.2508 15.5006 14.7191 13.9407C15.4341 11.5945 14.3331 9.15883 12.2577 8.50676C11.5301 8.28301 10.7455 8.30218 9.98618 8.5579C9.98618 8.5579 9.85964 8.60265 9.74574 8.64101C9.39774 8.74329 9.02442 8.69215 8.70172 8.50036C8.36004 8.29579 8.11328 7.96336 8.02469 7.57979C7.83487 6.80625 8.28412 6.05189 9.04973 5.85371C9.18893 5.80896 9.37243 5.777 9.37875 5.777C9.79636 5.71307 10.2013 5.6875 10.5999 5.6875C12.1881 5.6875 13.6561 6.16697 14.833 7.08115C15.3328 7.47111 15.7694 7.9314 16.1364 8.44922C16.6489 9.23554 17.0159 10.0794 17.2374 10.9552C17.6866 12.6621 17.5031 14.4713 16.7185 16.044C14.8013 19.8605 9.65083 21.1391 5.24064 18.8888C3.49428 17.9874 2.07062 16.6513 1.13416 15.0211C0.330585 13.6338 -0.0617136 12.1315 0.00788768 10.6675Z" fill="#5C27FF"/>
</svg>
