<svg width="176" height="40" viewBox="0 0 176 40" fill="none" xmlns="http://www.w3.org/2000/svg">
<g clip-path="url(#clip0_1080_902)">
<path fill-rule="evenodd" clip-rule="evenodd" d="M85.4197 10.7181C85.4197 10.3474 85.4833 9.98945 85.6233 9.65708C85.7761 9.3247 85.967 9.0179 86.2216 8.80057C86.4761 8.5449 86.7689 8.35315 87.0998 8.21253C87.4435 8.05912 87.7999 7.98242 88.1818 7.98242C88.5636 7.98242 88.92 8.05912 89.251 8.21253C89.5947 8.35315 89.8874 8.5449 90.142 8.80057C90.3966 9.03068 90.5875 9.3247 90.7275 9.66986C90.8803 10.0022 90.9566 10.3602 90.9566 10.7309C90.9566 11.1144 90.8803 11.4724 90.7275 11.8047C90.5875 12.1243 90.3839 12.4311 90.142 12.674C89.8874 12.9169 89.5947 13.1087 89.251 13.2621C88.5891 13.5433 87.7745 13.5433 87.0998 13.2621C86.7689 13.1087 86.4634 12.9169 86.2216 12.674C85.9797 12.4183 85.7888 12.1243 85.636 11.7919C85.496 11.4596 85.4197 11.1016 85.4197 10.7181ZM86.1195 17.4552C86.1195 16.3302 87.036 15.4098 88.1561 15.4098C89.2762 15.4098 90.1927 16.3302 90.1927 17.4552V30.0087C90.1927 31.1337 89.2889 32.0413 88.1688 32.0413H88.1434C87.0232 32.0413 86.1195 31.1337 86.1195 30.0087V17.4552ZM143.335 26.8126C143.78 25.7388 143.997 24.5371 143.997 23.2332C143.997 21.9676 143.768 20.7787 143.335 19.7177C142.889 18.6439 142.291 17.7107 141.527 16.9181C140.764 16.1383 139.873 15.5247 138.842 15.09C137.823 14.6426 136.716 14.4253 135.558 14.4253C135.176 14.4253 134.794 14.4636 134.387 14.5531C133.992 14.6298 133.597 14.7321 133.215 14.8855C132.846 15.0261 132.503 15.2179 132.172 15.4352C131.866 15.6525 131.586 15.9082 131.37 16.2022L131.179 16.4451V10.3984C131.179 9.27347 130.262 8.36584 129.155 8.36584C128.035 8.36584 127.131 9.27347 127.131 10.3984V23.2332C127.131 24.5116 127.36 25.7004 127.793 26.7743C128.239 27.8353 128.837 28.7685 129.601 29.5355C130.364 30.3026 131.268 30.9162 132.286 31.3508C133.305 31.7855 134.412 32.0028 135.57 32.0028C136.741 32.0028 137.849 31.7855 138.854 31.3636C139.873 30.9417 140.776 30.3409 141.54 29.5739C142.291 28.8197 142.902 27.8737 143.335 26.8126ZM139.58 25.0868C139.363 25.6493 139.045 26.1479 138.651 26.5697C138.256 26.9916 137.785 27.324 137.25 27.5669C136.729 27.8097 136.156 27.9248 135.558 27.9248C134.959 27.9248 134.386 27.8097 133.852 27.5669C133.33 27.324 132.859 26.9788 132.464 26.5697C132.07 26.1479 131.752 25.6493 131.535 25.0868C131.306 24.5244 131.204 23.898 131.204 23.2332C131.204 22.6324 131.319 22.0443 131.535 21.4946C131.764 20.9322 132.07 20.4208 132.464 19.9989C132.859 19.5643 133.317 19.2064 133.839 18.9507C134.374 18.6822 134.947 18.5416 135.545 18.5416C136.143 18.5416 136.716 18.6567 137.238 18.8996C137.772 19.1297 138.243 19.462 138.638 19.8839C139.032 20.3058 139.351 20.8043 139.567 21.3796C139.796 21.9421 139.923 22.5685 139.923 23.2332C139.936 23.898 139.809 24.5116 139.58 25.0868ZM168.002 29.51C167.34 28.8324 166.806 28.0271 166.411 27.1322C166.029 26.2374 165.838 25.2658 165.851 24.2687V19.1552H164.986C163.865 19.1552 162.962 18.2476 162.962 17.1226C162.962 15.9977 163.878 15.09 164.986 15.09H165.851V10.3857C165.851 9.27348 166.755 8.36584 167.862 8.36584C168.97 8.36584 169.873 9.27348 169.873 10.3857V15.0772H173.31C174.43 15.0772 175.334 15.9849 175.334 17.1098C175.334 18.2348 174.418 19.1424 173.31 19.1424H169.873V24.2559C169.873 24.7161 169.95 25.1635 170.128 25.5726C170.306 25.9817 170.535 26.3268 170.841 26.6337C171.146 26.9277 171.503 27.1706 171.91 27.3623C172.317 27.5285 172.763 27.618 173.221 27.618H173.552C174.672 27.618 175.576 28.5256 175.576 29.6506C175.576 30.7756 174.659 31.6832 173.552 31.6832H173.221C172.203 31.6832 171.248 31.4914 170.357 31.1079C169.466 30.7116 168.677 30.1747 168.002 29.51ZM52.5539 31.6834H60.1784C60.8912 31.6834 61.5658 31.5427 62.2023 31.2871C62.826 31.0058 63.386 30.6351 63.857 30.1621C64.328 29.6763 64.6971 29.1266 64.9771 28.5002C65.2444 27.8738 65.3844 27.1835 65.3844 26.4549C65.3844 25.739 65.2444 25.0742 64.9771 24.4734C64.6971 23.8726 64.328 23.3484 63.857 22.9138C63.386 22.4791 62.8387 22.1468 62.2023 21.9167C61.5658 21.6738 60.8912 21.5459 60.1784 21.5459H55.7361C55.4179 21.5459 55.1378 21.4309 54.9087 21.2008C54.6796 20.9579 54.565 20.6639 54.565 20.3315C54.565 20.0119 54.6796 19.7307 54.9087 19.5006C55.1378 19.2704 55.4179 19.1554 55.7361 19.1554H63.5388C64.6462 19.1554 65.5626 18.2478 65.5626 17.1228C65.5626 15.9978 64.6589 15.0902 63.5388 15.0902H55.7361C55.0105 15.0902 54.3359 15.2308 53.6995 15.4993C53.063 15.7677 52.5157 16.1385 52.0448 16.6115C51.5738 17.0844 51.2047 17.6469 50.9246 18.2733C50.6573 18.9125 50.53 19.59 50.53 20.3187C50.53 21.0474 50.67 21.7377 50.9246 22.3641C51.2047 23.0033 51.5738 23.5657 52.0448 24.0387C52.5157 24.5117 53.063 24.8825 53.6995 25.1637C54.3232 25.4449 55.0105 25.5728 55.7361 25.5728H60.1784C60.4839 25.5728 60.7512 25.6239 60.9803 25.7262C61.2349 25.8412 61.3622 26.0713 61.3622 26.4293C61.3622 26.7489 61.2476 27.0301 61.0185 27.2602C60.7894 27.4903 60.5093 27.6054 60.1911 27.6054H52.5539C51.4465 27.6054 50.53 28.513 50.53 29.638C50.53 30.7629 51.4465 31.6834 52.5539 31.6834ZM107.377 22.5175C107.377 21.5076 107.186 20.536 106.791 19.6412C106.409 18.7335 105.887 17.9409 105.225 17.2634C104.564 16.5859 103.774 16.049 102.883 15.6655C101.992 15.2692 101.038 15.0774 100.032 15.0774C99.0266 15.0774 98.0719 15.2692 97.1809 15.6655C96.2899 16.049 95.5007 16.5859 94.8388 17.2634C94.177 17.9282 93.6424 18.7335 93.2732 19.6412C92.8786 20.536 92.6877 21.5076 92.6877 22.5303V30.0215C92.6877 31.1464 93.5914 32.0541 94.7116 32.0541C95.8317 32.0541 96.7354 31.1464 96.7354 30.0215V22.5303C96.7354 22.0828 96.8246 21.6482 96.99 21.2391C97.1555 20.83 97.3973 20.4721 97.7028 20.1653C98.0083 19.8585 98.352 19.6156 98.7593 19.4494C99.1539 19.2704 99.5867 19.1937 100.045 19.1937C100.503 19.1937 100.923 19.2832 101.331 19.4494C101.725 19.6156 102.081 19.8585 102.387 20.1653C102.692 20.4721 102.922 20.83 103.1 21.2391C103.278 21.6354 103.354 22.0701 103.354 22.5303V30.0215C103.354 31.1464 104.258 32.0541 105.378 32.0541C106.498 32.0541 107.402 31.1464 107.402 30.0215V22.5175H107.377ZM67.2427 22.6836C67.2427 17.8514 71.0231 13.914 75.6564 13.914C80.3024 13.914 84.0701 17.8514 84.0701 22.6836C84.0701 27.5158 80.2896 31.4532 75.6564 31.4532C74.1544 31.4532 72.6651 31.0186 71.3668 30.2132L71.1886 30.1109V35.5312C71.1886 36.6178 70.3103 37.5126 69.2156 37.5126C68.1337 37.5126 67.2427 36.6306 67.2427 35.5312V22.6836ZM71.2013 22.6964C71.2013 25.3426 73.1997 27.5031 75.6564 27.5031C78.1258 27.5031 80.1114 25.3426 80.1114 22.6964C80.1114 20.0502 78.113 17.8898 75.6564 17.8898C73.1997 17.8898 71.2013 20.0502 71.2013 22.6964ZM162.338 19.5645C162.071 18.9125 161.727 18.3245 161.332 17.7748C160.938 17.2379 160.479 16.7521 159.97 16.3047C159.448 15.87 158.876 15.4865 158.265 15.1925C157.221 14.6811 156.139 14.3871 155.032 14.3104C154.853 14.2976 154.688 14.2976 154.51 14.2976C153.593 14.2976 152.702 14.4382 151.837 14.7323C150.831 15.0774 149.876 15.6527 148.998 16.4325C148.133 17.2123 147.407 18.2094 146.834 19.3855C146.274 20.536 145.956 21.6993 145.892 22.8627C145.829 24.0132 145.969 25.1126 146.312 26.1481C146.669 27.1835 147.216 28.1295 147.929 28.9605C148.654 29.8042 149.558 30.4817 150.602 30.993C151.226 31.2999 151.862 31.5172 152.511 31.6578C153.173 31.8112 153.835 31.8751 154.497 31.8496C155.172 31.8368 155.833 31.7345 156.47 31.5555C156.864 31.4533 158.901 30.8652 160.798 29.4974C161.612 28.9093 161.867 27.7971 161.396 26.9151C160.874 25.9179 159.639 25.5344 158.646 26.0586C157.526 26.6466 156.203 27.3241 155.961 27.4264C155.592 27.5926 155.184 27.6949 154.764 27.746C154.357 27.7844 153.95 27.7716 153.555 27.7077C153.148 27.6437 152.753 27.5158 152.371 27.3241C152.218 27.2474 152.066 27.1707 151.926 27.0813C151.773 26.979 151.633 26.8767 151.506 26.7489L151.378 26.6338L151.531 26.5571L161.281 22.1212C162.274 21.6866 162.745 20.536 162.338 19.5645ZM157.45 19.7818L149.927 23.6425L149.915 23.4635C149.902 23.2845 149.915 23.0928 149.953 22.8882L149.969 22.8059C150.002 22.6387 150.036 22.4647 150.08 22.3002C150.144 22.0956 150.207 21.8911 150.284 21.6993C150.36 21.5076 150.436 21.3414 150.513 21.2008C150.818 20.5616 151.213 20.0247 151.658 19.6156C152.117 19.1938 152.6 18.8869 153.122 18.6824C153.657 18.4907 154.217 18.414 154.777 18.4523C155.35 18.4907 155.923 18.6313 156.457 18.8997C156.648 18.9892 156.826 19.0915 156.992 19.1938C157.17 19.3088 157.335 19.4366 157.488 19.6028L157.59 19.7179L157.45 19.7818ZM115.047 29.1375L109.34 18.2499C109.076 17.7443 109.001 17.1769 109.23 16.6192L109.234 16.6089L109.239 16.5987C109.466 16.0859 109.858 15.7143 110.369 15.4984C110.866 15.2882 111.397 15.2554 111.911 15.4619C112.43 15.652 112.797 16.0365 113.027 16.5188L117.062 24.5677L120.59 16.5633L120.595 16.5532C120.824 16.0694 121.177 15.6388 121.709 15.4354C122.24 15.2321 122.789 15.3172 123.281 15.524L123.284 15.525C123.787 15.7385 124.253 16.0835 124.471 16.6354C124.69 17.1884 124.584 17.7588 124.359 18.2574L124.358 18.2606L116.349 36.3454C116.209 36.7003 116.002 37.0322 115.694 37.2778C115.37 37.5371 114.986 37.6571 114.585 37.6571C114.26 37.6571 113.937 37.5619 113.64 37.4339L113.624 37.427C113.131 37.2019 112.679 36.8491 112.472 36.3017C112.263 35.7532 112.369 35.1923 112.595 34.701L115.047 29.1375Z" fill="#1B1F28"/>
<path d="M40.4575 18.6969C40.4575 18.8339 40.445 18.946 40.42 19.083C40.3699 19.494 40.0317 19.7804 39.6309 19.8676C39.0673 19.9921 38.5162 19.6434 38.3784 19.083C38.1279 17.7131 37.6645 16.3681 37.0007 15.0729C35.41 11.8971 32.7171 9.24449 29.4105 7.58813C25.8284 5.78233 21.7828 5.24682 18.0253 6.09368C14.8315 6.66655 12.2639 9.28185 11.337 12.3206C9.92169 16.8911 12.101 21.636 16.2092 22.9063C17.6496 23.3422 19.2027 23.3048 20.7057 22.8067C20.7057 22.8067 20.9562 22.7195 21.1816 22.6448C21.8705 22.4455 22.6095 22.5451 23.2482 22.9188C23.9246 23.3173 24.4131 23.9649 24.5884 24.7121C24.9642 26.219 24.0749 27.6886 22.5594 28.0746C22.2838 28.1618 21.9206 28.2241 21.9081 28.2241C21.0814 28.3486 20.2798 28.3984 19.4908 28.3984C16.347 28.3984 13.4412 27.4644 11.1116 25.6835C10.1221 24.9238 9.25787 24.0271 8.53142 23.0184C7.5169 21.4866 6.79045 19.8427 6.35208 18.1365C5.46281 14.8113 5.82603 11.2869 7.37913 8.22328C11.1742 0.788361 21.3695 -1.7024 30.0994 2.68134C33.5563 4.43732 36.3744 7.04017 38.2281 10.2159C39.8188 12.9184 40.5953 15.845 40.4575 18.6969Z" fill="#FF22FF"/>
<path d="M0.640491 21.2992C0.640491 21.1622 0.653016 21.0501 0.678066 20.9131C0.728166 20.5021 1.06634 20.2157 1.46714 20.1285C2.03076 20.004 2.58186 20.3527 2.71963 20.9131C2.97013 22.283 3.43356 23.628 4.09738 24.9232C5.68805 28.0989 8.38092 30.7516 11.6875 32.408C15.2696 34.2138 19.3152 34.7493 23.0727 33.9024C26.2666 33.3295 28.8342 30.7142 29.761 27.6755C31.1763 23.105 28.997 18.3601 24.8888 17.0898C23.4484 16.6539 21.8953 16.6913 20.3924 17.1894C20.3924 17.1894 20.1419 17.2766 19.9164 17.3513C19.2275 17.5506 18.4886 17.4509 17.8498 17.0773C17.1734 16.6788 16.685 16.0312 16.5096 15.284C16.1339 13.7771 17.0231 12.3075 18.5387 11.9215C18.8142 11.8343 19.1774 11.772 19.19 11.772C20.0166 11.6475 20.8182 11.5977 21.6073 11.5977C24.751 11.5977 27.6568 12.5317 29.9865 14.3126C30.9759 15.0723 31.8402 15.9689 32.5666 16.9777C33.5811 18.5095 34.3076 20.1534 34.746 21.8596C35.6352 25.1847 35.272 28.7092 33.7189 31.7728C29.9238 39.2077 19.7285 41.6985 10.9986 37.3147C7.54174 35.5588 4.72363 32.9559 2.86993 29.7802C1.27926 27.0777 0.502717 24.1511 0.640491 21.2992Z" fill="#5C27FF"/>
</g>
<defs>
<clipPath id="clip0_1080_902">
<rect width="176" height="40" fill="white" transform="translate(0 -0.000976562)"/>
</clipPath>
</defs>
</svg>
