<svg width="101" height="27" viewBox="0 0 101 27" fill="none" xmlns="http://www.w3.org/2000/svg">
<g clip-path="url(#clip0_179_496)">
<path d="M-112 0.25H101L94.4428 13.5625L101 26.875H-112L-105.443 13.5625L-112 0.25Z" fill="#F3EFE4"/>
<path d="M12.792 18.168C12.112 18.168 11.452 18.084 10.812 17.916C10.172 17.748 9.652 17.524 9.252 17.244L10.032 15.492C10.408 15.74 10.844 15.94 11.34 16.092C11.836 16.244 12.324 16.32 12.804 16.32C13.716 16.32 14.172 16.092 14.172 15.636C14.172 15.396 14.04 15.22 13.776 15.108C13.52 14.988 13.104 14.864 12.528 14.736C11.896 14.6 11.368 14.456 10.944 14.304C10.52 14.144 10.156 13.892 9.852 13.548C9.548 13.204 9.396 12.74 9.396 12.156C9.396 11.644 9.536 11.184 9.816 10.776C10.096 10.36 10.512 10.032 11.064 9.792C11.624 9.552 12.308 9.432 13.116 9.432C13.668 9.432 14.212 9.496 14.748 9.624C15.284 9.744 15.756 9.924 16.164 10.164L15.432 11.928C14.632 11.496 13.856 11.28 13.104 11.28C12.632 11.28 12.288 11.352 12.072 11.496C11.856 11.632 11.748 11.812 11.748 12.036C11.748 12.26 11.876 12.428 12.132 12.54C12.388 12.652 12.8 12.768 13.368 12.888C14.008 13.024 14.536 13.172 14.952 13.332C15.376 13.484 15.74 13.732 16.044 14.076C16.356 14.412 16.512 14.872 16.512 15.456C16.512 15.96 16.372 16.416 16.092 16.824C15.812 17.232 15.392 17.56 14.832 17.808C14.272 18.048 13.592 18.168 12.792 18.168ZM19.2803 11.484H16.7003V9.6H24.2243V11.484H21.6563V18H19.2803V11.484ZM30.3157 16.368H26.7637L26.1037 18H23.6797L27.3877 9.6H29.7277L33.4477 18H30.9757L30.3157 16.368ZM29.6197 14.616L28.5397 11.928L27.4597 14.616H29.6197ZM42.1133 9.6V18H40.1573L36.4492 13.524V18H34.1213V9.6H36.0773L39.7853 14.076V9.6H42.1133ZM43.7892 9.6H47.7612C48.6812 9.6 49.4972 9.772 50.2092 10.116C50.9212 10.46 51.4732 10.948 51.8652 11.58C52.2572 12.212 52.4532 12.952 52.4532 13.8C52.4532 14.648 52.2572 15.388 51.8652 16.02C51.4732 16.652 50.9212 17.14 50.2092 17.484C49.4972 17.828 48.6812 18 47.7612 18H43.7892V9.6ZM47.6652 16.104C48.3852 16.104 48.9612 15.9 49.3932 15.492C49.8332 15.084 50.0532 14.52 50.0532 13.8C50.0532 13.08 49.8332 12.516 49.3932 12.108C48.9612 11.7 48.3852 11.496 47.6652 11.496H46.1652V16.104H47.6652ZM59.9075 12.66C61.0835 12.66 61.9515 12.9 62.5115 13.38C63.0795 13.86 63.3635 14.5 63.3635 15.3C63.3635 15.82 63.2275 16.3 62.9555 16.74C62.6915 17.172 62.2835 17.52 61.7315 17.784C61.1875 18.04 60.5115 18.168 59.7035 18.168C59.1115 18.168 58.5235 18.096 57.9395 17.952C57.3635 17.808 56.8675 17.604 56.4515 17.34L57.3035 15.552C57.6395 15.776 58.0075 15.948 58.4075 16.068C58.8155 16.188 59.2235 16.248 59.6315 16.248C60.0395 16.248 60.3635 16.172 60.6035 16.02C60.8515 15.86 60.9755 15.64 60.9755 15.36C60.9755 15.08 60.8555 14.868 60.6155 14.724C60.3755 14.58 59.9515 14.508 59.3435 14.508H57.0635L57.4835 9.6H62.8355V11.436H59.4515L59.3435 12.66H59.9075ZM67.6525 9.6V18H65.2765V11.436H63.7165V9.6H67.6525ZM73.2238 12.96C73.9198 13.104 74.4518 13.392 74.8198 13.824C75.1958 14.248 75.3838 14.764 75.3838 15.372C75.3838 15.868 75.2478 16.328 74.9758 16.752C74.7118 17.176 74.3038 17.52 73.7518 17.784C73.2078 18.04 72.5318 18.168 71.7238 18.168C71.1318 18.168 70.5438 18.096 69.9598 17.952C69.3838 17.808 68.8838 17.604 68.4598 17.34L69.3238 15.552C69.6518 15.776 70.0198 15.948 70.4278 16.068C70.8438 16.188 71.2518 16.248 71.6518 16.248C72.0598 16.248 72.3838 16.172 72.6238 16.02C72.8638 15.868 72.9838 15.652 72.9838 15.372C72.9838 14.828 72.5558 14.556 71.6998 14.556H70.7038V13.056L72.2038 11.436H68.8918V9.6H74.9638V11.088L73.2238 12.96ZM79.7463 9.6V18H77.3703V11.436H75.8103V9.6H79.7463Z" fill="#48001E"/>
</g>
<defs>
<clipPath id="clip0_179_496">
<rect width="101" height="27" fill="white"/>
</clipPath>
</defs>
</svg>
