<svg width="101" height="28" viewBox="0 0 101 28" fill="none" xmlns="http://www.w3.org/2000/svg">
<g clip-path="url(#clip0_1070_1559)">
<path d="M-113 0.75H100L93.4428 14.0625L100 27.375H-113L-106.443 14.0625L-113 0.75Z" fill="#F3EFE4"/>
<path d="M12.476 18.154C11.8527 18.154 11.2477 18.077 10.661 17.923C10.0743 17.769 9.59767 17.5637 9.231 17.307L9.946 15.701C10.2907 15.9283 10.6903 16.1117 11.145 16.251C11.5997 16.3903 12.047 16.46 12.487 16.46C13.323 16.46 13.741 16.251 13.741 15.833C13.741 15.613 13.62 15.4517 13.378 15.349C13.1433 15.239 12.762 15.1253 12.234 15.008C11.6547 14.8833 11.1707 14.7513 10.782 14.612C10.3933 14.4653 10.0597 14.2343 9.781 13.919C9.50233 13.6037 9.363 13.1783 9.363 12.643C9.363 12.1737 9.49133 11.752 9.748 11.378C10.0047 10.9967 10.386 10.696 10.892 10.476C11.4053 10.256 12.0323 10.146 12.773 10.146C13.279 10.146 13.7777 10.2047 14.269 10.322C14.7603 10.432 15.193 10.597 15.567 10.817L14.896 12.434C14.1627 12.038 13.4513 11.84 12.762 11.84C12.3293 11.84 12.014 11.906 11.816 12.038C11.618 12.1627 11.519 12.3277 11.519 12.533C11.519 12.7383 11.6363 12.8923 11.871 12.995C12.1057 13.0977 12.4833 13.204 13.004 13.314C13.5907 13.4387 14.0747 13.5743 14.456 13.721C14.8447 13.8603 15.1783 14.0877 15.457 14.403C15.743 14.711 15.886 15.1327 15.886 15.668C15.886 16.13 15.7577 16.548 15.501 16.922C15.2443 17.296 14.8593 17.5967 14.346 17.824C13.8327 18.044 13.2093 18.154 12.476 18.154ZM18.4236 12.027H16.0586V10.3H22.9556V12.027H20.6016V18H18.4236V12.027ZM28.5394 16.504H25.2834L24.6784 18H22.4564L25.8554 10.3H28.0004L31.4104 18H29.1444L28.5394 16.504ZM27.9014 14.898L26.9114 12.434L25.9214 14.898H27.9014ZM39.3538 10.3V18H37.5608L34.1618 13.897V18H32.0278V10.3H33.8208L37.2198 14.403V10.3H39.3538ZM40.8901 10.3H44.5311C45.3745 10.3 46.1225 10.4577 46.7751 10.773C47.4278 11.0883 47.9338 11.5357 48.2931 12.115C48.6525 12.6943 48.8321 13.3727 48.8321 14.15C48.8321 14.9273 48.6525 15.6057 48.2931 16.185C47.9338 16.7643 47.4278 17.2117 46.7751 17.527C46.1225 17.8423 45.3745 18 44.5311 18H40.8901V10.3ZM44.4431 16.262C45.1031 16.262 45.6311 16.075 46.0271 15.701C46.4305 15.327 46.6321 14.81 46.6321 14.15C46.6321 13.49 46.4305 12.973 46.0271 12.599C45.6311 12.225 45.1031 12.038 44.4431 12.038H43.0681V16.262H44.4431ZM56.7322 13.38C57.3702 13.512 57.8578 13.776 58.1952 14.172C58.5398 14.5607 58.7122 15.0337 58.7122 15.591C58.7122 16.0457 58.5875 16.4673 58.3382 16.856C58.0962 17.2447 57.7222 17.56 57.2162 17.802C56.7175 18.0367 56.0978 18.154 55.3572 18.154C54.8145 18.154 54.2755 18.088 53.7402 17.956C53.2122 17.824 52.7538 17.637 52.3652 17.395L53.1572 15.756C53.4578 15.9613 53.7952 16.119 54.1692 16.229C54.5505 16.339 54.9245 16.394 55.2912 16.394C55.6652 16.394 55.9622 16.3243 56.1822 16.185C56.4022 16.0457 56.5122 15.8477 56.5122 15.591C56.5122 15.0923 56.1198 14.843 55.3352 14.843H54.4222V13.468L55.7972 11.983H52.7612V10.3H58.3272V11.664L56.7322 13.38ZM62.8101 18.154C62.1501 18.154 61.5634 17.9963 61.0501 17.681C60.5368 17.3657 60.1334 16.9073 59.8401 16.306C59.5541 15.6973 59.4111 14.9787 59.4111 14.15C59.4111 13.3213 59.5541 12.6063 59.8401 12.005C60.1334 11.3963 60.5368 10.9343 61.0501 10.619C61.5634 10.3037 62.1501 10.146 62.8101 10.146C63.4628 10.146 64.0458 10.3037 64.5591 10.619C65.0724 10.9343 65.4721 11.3963 65.7581 12.005C66.0514 12.6063 66.1981 13.3213 66.1981 14.15C66.1981 14.9787 66.0514 15.6973 65.7581 16.306C65.4721 16.9073 65.0724 17.3657 64.5591 17.681C64.0458 17.9963 63.4628 18.154 62.8101 18.154ZM62.8101 16.372C63.1768 16.372 63.4664 16.196 63.6791 15.844C63.8991 15.4847 64.0091 14.92 64.0091 14.15C64.0091 13.38 63.8991 12.819 63.6791 12.467C63.4664 12.1077 63.1768 11.928 62.8101 11.928C62.4361 11.928 62.1391 12.1077 61.9191 12.467C61.7064 12.819 61.6001 13.38 61.6001 14.15C61.6001 14.92 61.7064 15.4847 61.9191 15.844C62.1391 16.196 62.4361 16.372 62.8101 16.372ZM73.1789 10.3V11.664L70.4619 18H68.0859L70.6819 12.027H68.6579V13.215H66.7989V10.3H73.1789ZM79.2422 13.941C79.5942 14.1463 79.8656 14.3993 80.0562 14.7C80.2469 15.0007 80.3422 15.3453 80.3422 15.734C80.3422 16.218 80.2029 16.6433 79.9242 17.01C79.6456 17.3767 79.2532 17.659 78.7472 17.857C78.2412 18.055 77.6582 18.154 76.9982 18.154C76.3382 18.154 75.7552 18.055 75.2492 17.857C74.7432 17.659 74.3509 17.3767 74.0722 17.01C73.7936 16.6433 73.6542 16.218 73.6542 15.734C73.6542 15.3453 73.7496 15.0007 73.9402 14.7C74.1309 14.3993 74.4022 14.1463 74.7542 13.941C74.4902 13.7577 74.2849 13.534 74.1382 13.27C73.9989 13.006 73.9292 12.7127 73.9292 12.39C73.9292 11.9427 74.0576 11.5503 74.3142 11.213C74.5709 10.8683 74.9302 10.6043 75.3922 10.421C75.8616 10.2377 76.3969 10.146 76.9982 10.146C77.5996 10.146 78.1312 10.2377 78.5932 10.421C79.0626 10.6043 79.4256 10.8683 79.6822 11.213C79.9389 11.5503 80.0672 11.9427 80.0672 12.39C80.0672 12.7127 79.9939 13.006 79.8472 13.27C79.7079 13.534 79.5062 13.7577 79.2422 13.941ZM76.9982 11.675C76.7269 11.675 76.5069 11.7483 76.3382 11.895C76.1696 12.0343 76.0852 12.2323 76.0852 12.489C76.0852 12.7383 76.1659 12.9363 76.3272 13.083C76.4959 13.2223 76.7196 13.292 76.9982 13.292C77.2769 13.292 77.5006 13.2223 77.6692 13.083C77.8379 12.9363 77.9222 12.7383 77.9222 12.489C77.9222 12.2323 77.8379 12.0343 77.6692 11.895C77.5006 11.7483 77.2769 11.675 76.9982 11.675ZM76.9982 16.625C77.3502 16.625 77.6289 16.5407 77.8342 16.372C78.0469 16.196 78.1532 15.9613 78.1532 15.668C78.1532 15.3747 78.0469 15.1437 77.8342 14.975C77.6289 14.799 77.3502 14.711 76.9982 14.711C76.6462 14.711 76.3639 14.799 76.1512 14.975C75.9459 15.1437 75.8432 15.3747 75.8432 15.668C75.8432 15.9613 75.9459 16.196 76.1512 16.372C76.3639 16.5407 76.6462 16.625 76.9982 16.625ZM86.6116 13.985H88.5366V17.175C88.0966 17.4903 87.5906 17.7323 87.0186 17.901C86.4466 18.0697 85.8746 18.154 85.3026 18.154C84.496 18.154 83.77 17.9853 83.1246 17.648C82.4793 17.3033 81.9733 16.8267 81.6066 16.218C81.24 15.6093 81.0566 14.92 81.0566 14.15C81.0566 13.38 81.24 12.6907 81.6066 12.082C81.9733 11.4733 82.483 11.0003 83.1356 10.663C83.7883 10.3183 84.5253 10.146 85.3466 10.146C86.0653 10.146 86.7106 10.267 87.2826 10.509C87.8546 10.751 88.3313 11.0993 88.7126 11.554L87.3266 12.808C86.806 12.236 86.1826 11.95 85.4566 11.95C84.7966 11.95 84.265 12.1517 83.8616 12.555C83.4583 12.951 83.2566 13.4827 83.2566 14.15C83.2566 14.5753 83.3483 14.9567 83.5316 15.294C83.715 15.624 83.9716 15.8843 84.3016 16.075C84.6316 16.2583 85.0093 16.35 85.4346 16.35C85.8526 16.35 86.245 16.2657 86.6116 16.097V13.985Z" fill="#48001E"/>
</g>
<defs>
<clipPath id="clip0_1070_1559">
<rect width="101" height="27" fill="white" transform="translate(0 0.5)"/>
</clipPath>
</defs>
</svg>
