<svg width="20" height="21" viewBox="0 0 20 21" fill="none" xmlns="http://www.w3.org/2000/svg">
<g id="mingcute:time-line" clip-path="url(#clip0_281_40418)">
<path id="Vector" d="M16.219 2.44406C16.872 2.95603 17.322 3.78297 17.506 4.64891C17.5283 4.65597 17.55 4.66466 17.571 4.67491L19.616 5.62085C19.7303 5.67333 19.8272 5.75743 19.8952 5.86321C19.9633 5.96899 19.9996 6.09204 20 6.21781V18.584C19.9993 18.6867 19.9747 18.7879 19.9284 18.8795C19.882 18.9712 19.815 19.0508 19.7326 19.1123C19.6503 19.1737 19.5548 19.2152 19.4537 19.2335C19.3526 19.2519 19.2487 19.2465 19.15 19.2179L13.481 17.6181L6.741 19.4759C6.61939 19.5093 6.49086 19.5079 6.37 19.4719L0.474 17.717C0.337721 17.677 0.21799 17.5941 0.132595 17.4806C0.047201 17.3671 0.00069966 17.2291 0 17.0871L0 4.49892C0 4.05895 0.428 3.74297 0.855 3.86697L6.557 5.52786L9.455 4.64091C9.49488 4.62914 9.5357 4.62078 9.577 4.61592C9.689 3.95996 10.002 3.33 10.527 2.71604C11.15 1.98609 12.243 1.55812 13.308 1.50712C14.413 1.45413 15.257 1.69011 16.218 2.44306M1.333 5.38187L1.333 16.5961L6.203 18.045L6.203 6.79877L1.333 5.38187ZM9.542 5.99582L7.536 6.60878L7.536 17.887L12.601 16.4931V13.1983C12.601 12.8344 12.9 12.5394 13.268 12.5394C13.636 12.5394 13.934 12.8344 13.934 13.1993V16.3761L18.667 17.711V6.63678L17.547 6.11682C17.528 6.22681 17.504 6.3348 17.474 6.4398C17.2565 7.2065 16.8917 7.92349 16.4 8.55066L13.923 11.6434C13.8578 11.7248 13.7745 11.7897 13.6797 11.8332C13.585 11.8767 13.4814 11.8975 13.3772 11.8939C13.273 11.8903 13.1711 11.8624 13.0796 11.8125C12.9881 11.7626 12.9095 11.6921 12.85 11.6065L10.535 8.25367C10.153 7.71971 9.885 7.24374 9.734 6.81777C9.63922 6.5519 9.57481 6.27617 9.542 5.99582ZM13.372 2.82503C12.646 2.86003 11.9 3.15201 11.545 3.56699C11.118 4.06695 10.908 4.53492 10.866 5.00889C10.816 5.57985 10.85 5.98283 10.992 6.3818C11.097 6.67678 11.306 7.05075 11.629 7.50172L13.44 10.1236L15.35 7.73871C15.7353 7.2463 16.021 6.68351 16.191 6.08182C16.431 5.24187 16.069 4.00796 15.391 3.47799C14.696 2.93303 14.171 2.78604 13.373 2.82503M13.511 3.52199C14.615 3.52199 15.511 4.40693 15.511 5.49886C15.5096 5.75999 15.4567 6.01829 15.3554 6.25898C15.2541 6.49968 15.1063 6.71805 14.9206 6.90164C14.7349 7.08522 14.5148 7.23041 14.2729 7.32891C14.0311 7.42742 13.7722 7.47731 13.511 7.47573C12.407 7.47573 11.511 6.59079 11.511 5.49886C11.511 4.40693 12.407 3.52199 13.511 3.52199ZM13.511 4.8399C13.4239 4.83937 13.3376 4.856 13.257 4.88883C13.1763 4.92166 13.103 4.97006 13.041 5.03124C12.9791 5.09244 12.9298 5.16522 12.896 5.24546C12.8622 5.32569 12.8445 5.4118 12.844 5.49886C12.844 5.86283 13.143 6.15781 13.511 6.15781C13.5981 6.15821 13.6844 6.14145 13.7649 6.1085C13.8455 6.07555 13.9188 6.02704 13.9807 5.96576C14.0425 5.90448 14.0917 5.83162 14.1254 5.75133C14.1591 5.67105 14.1766 5.58492 14.177 5.49786C14.1757 5.32238 14.1048 5.15458 13.98 5.03125C13.8551 4.90791 13.6865 4.8391 13.511 4.8399Z" fill="white"/>
</g>
<defs>
<clipPath id="clip0_281_40418">
<rect width="20" height="20" fill="white" transform="translate(0 0.5)"/>
</clipPath>
</defs>
</svg>
