<svg width="24" height="24" viewBox="0 0 24 24" fill="none" xmlns="http://www.w3.org/2000/svg">
<path d="M19.4628 2.33217C20.2464 2.94657 20.7864 3.93897 21.0072 4.97817C21.0339 4.98663 21.06 4.99706 21.0852 5.00937L23.5392 6.14457C23.6764 6.20755 23.7926 6.30848 23.8743 6.43542C23.956 6.56237 23.9996 6.71003 24 6.86097V21.7014C23.9991 21.8246 23.9697 21.946 23.914 22.056C23.8584 22.166 23.778 22.2616 23.6791 22.3353C23.5803 22.409 23.4658 22.4589 23.3445 22.4809C23.2232 22.5029 23.0984 22.4965 22.98 22.4622L16.1772 20.5422L8.0892 22.7718C7.94327 22.8118 7.78903 22.8102 7.644 22.767L0.5688 20.661C0.405265 20.6129 0.261588 20.5134 0.159114 20.3772C0.0566412 20.241 0.000839592 20.0754 0 19.905L0 4.79817C0 4.27017 0.5136 3.89097 1.026 4.03977L7.8684 6.03297L11.346 4.96857C11.3939 4.95444 11.4428 4.9444 11.4924 4.93857C11.6268 4.15137 12.0024 3.39537 12.6324 2.65857C13.38 1.78257 14.6916 1.26897 15.9696 1.20777C17.2956 1.14417 18.3084 1.42737 19.4616 2.33097M1.5996 5.85777V19.3158L7.4436 21.0546V7.55817L1.5996 5.85777ZM11.4504 6.59457L9.0432 7.33017V20.865L15.1212 19.1922V15.2382C15.1212 14.8014 15.48 14.4474 15.9216 14.4474C16.3632 14.4474 16.7208 14.8014 16.7208 15.2394V19.0518L22.4004 20.6538V7.36377L21.0564 6.73977C21.0336 6.87177 21.0048 7.00137 20.9688 7.12737C20.7079 8.04748 20.2701 8.90791 19.68 9.66057L16.7076 13.3722C16.6293 13.4698 16.5294 13.5477 16.4157 13.5999C16.302 13.6521 16.1777 13.677 16.0527 13.6727C15.9277 13.6684 15.8054 13.635 15.6955 13.5751C15.5857 13.5152 15.4914 13.4305 15.42 13.3278L12.642 9.30417C12.1836 8.66337 11.862 8.09217 11.6808 7.58097C11.5671 7.2619 11.4898 6.931 11.4504 6.59457ZM16.0464 2.78937C15.1752 2.83137 14.28 3.18177 13.854 3.67977C13.3416 4.27977 13.0896 4.84137 13.0392 5.41017C12.9792 6.09537 13.02 6.57897 13.1904 7.05777C13.3164 7.41177 13.5672 7.86057 13.9548 8.40177L16.128 11.5482L18.42 8.68617C18.8824 8.09523 19.2252 7.41984 19.4292 6.69777C19.7172 5.68977 19.2828 4.20897 18.4692 3.57297C17.6352 2.91897 17.0052 2.74257 16.0476 2.78937M16.2132 3.62577C17.538 3.62577 18.6132 4.68777 18.6132 5.99817C18.6115 6.31155 18.548 6.62152 18.4265 6.91038C18.3049 7.19923 18.1276 7.4613 17.9047 7.68161C17.6819 7.90193 17.4177 8.07617 17.1275 8.19438C16.8373 8.31259 16.5266 8.37246 16.2132 8.37057C14.8884 8.37057 13.8132 7.30857 13.8132 5.99817C13.8132 4.68777 14.8884 3.62577 16.2132 3.62577ZM16.2132 5.20737C16.1087 5.20673 16.0051 5.22669 15.9084 5.26609C15.8116 5.30549 15.7235 5.36356 15.6492 5.43699C15.5749 5.51043 15.5158 5.59778 15.4752 5.69407C15.4346 5.79035 15.4134 5.89369 15.4128 5.99817C15.4128 6.43497 15.7716 6.78897 16.2132 6.78897C16.3177 6.78944 16.4212 6.76933 16.5179 6.72978C16.6146 6.69024 16.7026 6.63203 16.7768 6.55849C16.851 6.48494 16.91 6.3975 16.9505 6.30116C16.9909 6.20481 17.0119 6.10145 17.0124 5.99697C17.0108 5.78638 16.9258 5.58501 16.776 5.437C16.6262 5.28898 16.4238 5.20641 16.2132 5.20737Z" fill="#F96B68"/>
</svg>
