<svg width="120" height="24" viewBox="0 0 120 24" fill="none" xmlns="http://www.w3.org/2000/svg">
<path d="M11.2004 2.46103C11.4521 1.68641 12.5479 1.6864 12.7996 2.46103L14.5054 7.71082C14.618 8.05725 14.9408 8.2918 15.305 8.2918H20.825C21.6395 8.2918 21.9781 9.33405 21.3192 9.8128L16.8535 13.0573C16.5588 13.2714 16.4355 13.651 16.548 13.9974L18.2538 19.2472C18.5055 20.0218 17.6189 20.6659 16.9599 20.1872L12.4942 16.9427C12.1995 16.7285 11.8005 16.7285 11.5058 16.9427L7.04006 20.1872C6.38112 20.6659 5.49452 20.0218 5.74622 19.2472L7.45198 13.9974C7.56454 13.651 7.44123 13.2715 7.14654 13.0573L2.6808 9.8128C2.02186 9.33405 2.36051 8.2918 3.17501 8.2918H8.69496C9.05921 8.2918 9.38204 8.05725 9.4946 7.71082L11.2004 2.46103Z" fill="#232632"/>
<path d="M35.2004 2.46103C35.4521 1.68641 36.5479 1.6864 36.7996 2.46103L38.5054 7.71082C38.618 8.05725 38.9408 8.2918 39.305 8.2918H44.825C45.6395 8.2918 45.9781 9.33405 45.3192 9.8128L40.8535 13.0573C40.5588 13.2714 40.4355 13.651 40.548 13.9974L42.2538 19.2472C42.5055 20.0218 41.6189 20.6659 40.9599 20.1872L36.4942 16.9427C36.1995 16.7285 35.8005 16.7285 35.5058 16.9427L31.0401 20.1872C30.3811 20.6659 29.4945 20.0218 29.7462 19.2472L31.452 13.9974C31.5645 13.651 31.4412 13.2715 31.1465 13.0573L26.6808 9.8128C26.0219 9.33405 26.3605 8.2918 27.175 8.2918H32.695C33.0592 8.2918 33.382 8.05725 33.4946 7.71082L35.2004 2.46103Z" fill="#232632"/>
<path d="M59.2004 2.46103C59.4521 1.68641 60.5479 1.6864 60.7996 2.46103L62.5054 7.71082C62.618 8.05725 62.9408 8.2918 63.305 8.2918H68.825C69.6395 8.2918 69.9781 9.33405 69.3192 9.8128L64.8535 13.0573C64.5588 13.2714 64.4355 13.651 64.548 13.9974L66.2538 19.2472C66.5055 20.0218 65.6189 20.6659 64.9599 20.1872L60.4942 16.9427C60.1995 16.7285 59.8005 16.7285 59.5058 16.9427L55.0401 20.1872C54.3811 20.6659 53.4945 20.0218 53.7462 19.2472L55.452 13.9974C55.5645 13.651 55.4412 13.2715 55.1465 13.0573L50.6808 9.8128C50.0219 9.33405 50.3605 8.2918 51.175 8.2918H56.695C57.0592 8.2918 57.382 8.05725 57.4946 7.71082L59.2004 2.46103Z" fill="#232632"/>
<path d="M83.2004 2.46103C83.4521 1.68641 84.5479 1.6864 84.7996 2.46103L86.5054 7.71082C86.618 8.05725 86.9408 8.2918 87.305 8.2918H92.825C93.6395 8.2918 93.9781 9.33405 93.3192 9.8128L88.8535 13.0573C88.5588 13.2714 88.4355 13.651 88.548 13.9974L90.2538 19.2472C90.5055 20.0218 89.6189 20.6659 88.9599 20.1872L84.4942 16.9427C84.1995 16.7285 83.8005 16.7285 83.5058 16.9427L79.0401 20.1872C78.3811 20.6659 77.4945 20.0218 77.7462 19.2472L79.452 13.9974C79.5645 13.651 79.4412 13.2715 79.1465 13.0573L74.6808 9.8128C74.0219 9.33405 74.3605 8.2918 75.175 8.2918H80.695C81.0592 8.2918 81.382 8.05725 81.4946 7.71082L83.2004 2.46103Z" fill="#232632"/>
<path d="M107.2 2.46103C107.452 1.68641 108.548 1.6864 108.8 2.46103L110.505 7.71082C110.618 8.05725 110.941 8.2918 111.305 8.2918H116.825C117.639 8.2918 117.978 9.33405 117.319 9.8128L112.853 13.0573C112.559 13.2714 112.435 13.651 112.548 13.9974L114.254 19.2472C114.505 20.0218 113.619 20.6659 112.96 20.1872L108.494 16.9427C108.2 16.7285 107.8 16.7285 107.506 16.9427L103.04 20.1872C102.381 20.6659 101.495 20.0218 101.746 19.2472L103.452 13.9974C103.565 13.651 103.441 13.2715 103.147 13.0573L98.6808 9.8128C98.0219 9.33405 98.3605 8.2918 99.175 8.2918H104.695C105.059 8.2918 105.382 8.05725 105.495 7.71082L107.2 2.46103Z" fill="#232632"/>
</svg>
