<svg width="40" height="41" viewBox="0 0 40 41" fill="none" xmlns="http://www.w3.org/2000/svg">
<rect x="0.5" y="1.21484" width="39" height="39" rx="3.5" stroke="white"/>
<path d="M10.3749 20.0333C15.7436 17.6342 19.3236 16.0526 21.1148 15.2885C26.2292 13.1066 27.2919 12.7276 27.9846 12.715C28.1369 12.7123 28.4776 12.7511 28.6982 12.9347C28.8845 13.0898 28.9358 13.2992 28.9603 13.4462C28.9848 13.5932 29.0154 13.9281 28.9911 14.1898C28.714 17.1766 27.5147 24.4247 26.9046 27.7699C26.6465 29.1854 26.1382 29.66 25.6461 29.7064C24.5766 29.8074 23.7645 28.9815 22.7287 28.2851C21.1078 27.1953 20.1921 26.5169 18.6188 25.4535C16.8005 24.2246 17.9792 23.5491 19.0154 22.4453C19.2866 22.1564 23.9987 17.7604 24.0899 17.3616C24.1013 17.3117 24.1119 17.1258 24.0042 17.0277C23.8965 16.9295 23.7376 16.9631 23.6229 16.9898C23.4604 17.0276 20.871 18.783 15.8549 22.2559C15.1199 22.7736 14.4542 23.0258 13.8577 23.0125C13.2001 22.998 11.9353 22.6312 10.995 22.3177C9.84166 21.9332 8.92503 21.7299 9.00485 21.0769C9.04642 20.7367 9.5031 20.3889 10.3749 20.0333Z" fill="white"/>
</svg>
