<svg width="70" height="70" viewBox="0 0 70 70" fill="none" xmlns="http://www.w3.org/2000/svg">
<g id="Frame 2131327751">
<g id="Rocket">
<path id="Vector" d="M40.6542 46.6392C44.5795 43.1475 47.6874 38.834 49.7572 34.0054C51.827 29.1767 52.8079 23.9515 52.63 18.7009C52.6174 18.3285 52.4673 17.9739 52.2088 17.7055C51.9502 17.4371 51.6015 17.2739 51.2298 17.2474C45.9903 16.8736 40.7328 17.6582 35.8309 19.5455C30.9289 21.4328 26.5027 24.3765 22.8667 28.1674C19.4321 27.9905 16.015 28.7622 12.9897 30.3978C9.96445 32.0335 7.44757 34.47 5.71471 37.4407C5.58996 37.6556 5.52021 37.8979 5.51166 38.1462C5.50311 38.3945 5.55603 38.6411 5.6657 38.864C5.73503 39.0033 5.82508 39.1312 5.93278 39.2435C6.17039 39.4904 6.48498 39.649 6.82477 39.6933L15.8772 40.8696L18.3617 43.4487L17.0536 49.8444C17.0056 50.0782 17.0137 50.32 17.0772 50.5501C17.1408 50.7801 17.2581 50.9918 17.4194 51.1677L17.4445 51.1938C17.6069 51.3624 17.8064 51.491 18.0272 51.5692C18.2479 51.6473 18.4838 51.6731 18.7162 51.6443L25.4529 50.8101L27.7029 53.1458L28.54 62.2359C28.5716 62.5771 28.7183 62.8974 28.9562 63.1441C29.0634 63.2541 29.1864 63.3473 29.3212 63.4208C29.5399 63.5388 29.7843 63.6009 30.0327 63.6016C30.2812 63.6023 30.526 63.5417 30.7453 63.4251C33.7767 61.804 36.3043 59.3809 38.0518 56.4206C39.7993 53.4602 40.6996 50.0765 40.6542 46.6392ZM49.6332 20.1865C49.6094 22.5506 49.3289 24.9052 48.7968 27.2087L42.5846 20.7599C44.9065 20.3142 47.2699 20.1219 49.6332 20.1865ZM39.1853 21.5797L47.8505 30.575C45.3214 37.9199 40.2647 44.1272 33.5828 48.0891L29.4131 50.5726L27.7491 48.8452L30.8223 40.192C30.915 39.9221 30.9306 39.6317 30.8672 39.3535C30.8038 39.0752 30.6639 38.8202 30.4634 38.6171C30.2626 38.4156 30.009 38.275 29.7318 38.2115C29.4545 38.148 29.165 38.1642 28.8966 38.2582L20.4131 41.2296L18.5126 39.2567L21.145 35.1773C25.3561 28.6493 31.7499 23.83 39.1853 21.5797ZM20.2153 31.266C19.6553 32.0002 19.11 32.7496 18.6077 33.5392L15.8446 37.8221L9.65282 37.0172C12.274 33.7773 16.0734 31.7097 20.2174 31.2682L20.2153 31.266ZM20.4275 48.3894L21.3107 44.1183L26.927 42.1494L24.9099 47.8416L20.4275 48.3894ZM31.3199 59.5099L30.746 53.2891L35.1292 50.688C35.9296 50.2144 36.7052 49.6997 37.4609 49.1666C36.8644 53.2915 34.6559 57.0114 31.3199 59.5099Z" fill="white"/>
<path id="Vector_2" d="M32.6551 36.54C33.483 37.3995 34.5472 37.9941 35.7131 38.2488C36.879 38.5034 38.0942 38.4066 39.2051 37.9706C40.316 37.5346 41.2726 36.779 41.9541 35.7993C42.6355 34.8196 43.0111 33.6599 43.0334 32.4667C43.0557 31.2735 42.7237 30.1005 42.0794 29.0961C41.435 28.0916 40.5073 27.3007 39.4135 26.8235C38.3197 26.3463 37.1089 26.2041 35.9343 26.415C34.7597 26.6259 33.6741 27.1804 32.8146 28.0083C31.6621 29.1186 30.9978 30.6411 30.9679 32.2411C30.938 33.8411 31.5449 35.3875 32.6551 36.54ZM39.1734 30.2609C39.5874 30.6906 39.8646 31.2335 39.9701 31.8208C40.0755 32.4081 40.0045 33.0134 39.7659 33.5603C39.5272 34.1072 39.1318 34.5711 38.6296 34.8933C38.1273 35.2155 37.5408 35.3815 36.9443 35.3703C36.3477 35.3592 35.7678 35.1713 35.2779 34.8306C34.7881 34.4899 34.4103 34.0116 34.1923 33.4561C33.9743 32.9007 33.9259 32.2931 34.0532 31.7101C34.1805 31.1272 34.4779 30.5951 34.9076 30.1811C35.4839 29.626 36.257 29.3226 37.057 29.3375C37.857 29.3525 38.6183 29.6846 39.1734 30.2609Z" fill="white"/>
</g>
</g>
</svg>
