<svg width="71" height="70" viewBox="0 0 71 70" fill="none" xmlns="http://www.w3.org/2000/svg">
<g id="Frame 2131327752">
<path id="Vector" d="M51.6895 49.5027C52.7014 48.4356 53.3242 46.9959 53.3242 45.4127C53.3242 42.6452 51.4251 40.3132 48.8617 39.651V35.0002C48.8617 34.1787 48.1958 33.5127 47.3742 33.5127H33.9867V30.5377H39.9367C40.7583 30.5377 41.4242 29.8717 41.4242 29.0502C41.4242 25.6933 39.5609 22.7636 36.8145 21.2402C37.8264 20.1731 38.4492 18.7334 38.4492 17.1502C38.4492 13.8693 35.7801 11.2002 32.4992 11.2002C29.2184 11.2002 26.5492 13.8693 26.5492 17.1502C26.5492 18.7334 27.172 20.1731 28.1839 21.2402C25.4375 22.7636 23.5742 25.6933 23.5742 29.0502C23.5742 29.8717 24.2402 30.5377 25.0617 30.5377H31.0117V33.5127H17.6242C16.8027 33.5127 16.1367 34.1787 16.1367 35.0002V39.651C13.5734 40.3132 11.6742 42.6452 11.6742 45.4127C11.6742 46.9959 12.297 48.4356 13.3089 49.5027C10.5625 51.0262 8.69922 53.9558 8.69922 57.3127C8.69922 58.1343 9.36515 58.8002 10.1867 58.8002H25.0617C25.8833 58.8002 26.5492 58.1343 26.5492 57.3127C26.5492 53.9558 24.6859 51.0262 21.9395 49.5027C22.9514 48.4356 23.5742 46.9959 23.5742 45.4127C23.5742 42.6452 21.6751 40.3132 19.1117 39.651V36.4877H45.8867V39.651C43.3234 40.3132 41.4242 42.6452 41.4242 45.4127C41.4242 46.9959 42.047 48.4356 43.0589 49.5027C40.3125 51.0262 38.4492 53.9558 38.4492 57.3127C38.4492 58.1343 39.1152 58.8002 39.9367 58.8002H54.8117C55.6333 58.8002 56.2992 58.1343 56.2992 57.3127C56.2992 53.9558 54.4359 51.0262 51.6895 49.5027ZM29.5242 17.1502C29.5242 15.5098 30.8588 14.1752 32.4992 14.1752C34.1397 14.1752 35.4742 15.5098 35.4742 17.1502C35.4742 18.7906 34.1397 20.1252 32.4992 20.1252C30.8588 20.1252 29.5242 18.7906 29.5242 17.1502ZM32.4992 23.1002C35.2666 23.1002 37.5988 24.9993 38.2611 27.5627H26.7374C27.3996 24.9993 29.7318 23.1002 32.4992 23.1002ZM11.8624 55.8252C12.5246 53.2618 14.8568 51.3627 17.6242 51.3627C20.3916 51.3627 22.7238 53.2618 23.386 55.8252H11.8624ZM20.5992 45.4127C20.5992 47.0531 19.2647 48.3877 17.6242 48.3877C15.9838 48.3877 14.6492 47.0531 14.6492 45.4127C14.6492 43.7723 15.9838 42.4377 17.6242 42.4377C19.2647 42.4377 20.5992 43.7723 20.5992 45.4127ZM44.3992 45.4127C44.3992 43.7723 45.7338 42.4377 47.3742 42.4377C49.0147 42.4377 50.3492 43.7723 50.3492 45.4127C50.3492 47.0531 49.0147 48.3877 47.3742 48.3877C45.7338 48.3877 44.3992 47.0531 44.3992 45.4127ZM41.6124 55.8252C42.2746 53.2618 44.6068 51.3627 47.3742 51.3627C50.1416 51.3627 52.4738 53.2618 53.1361 55.8252H41.6124Z" fill="white"/>
</g>
</svg>
