<svg width="71" height="70" viewBox="0 0 71 70" fill="none" xmlns="http://www.w3.org/2000/svg">
<g id="Frame 2131327748">
<g id="Layer_x0020_1">
<path id="Vector" fill-rule="evenodd" clip-rule="evenodd" d="M16.1974 18.6366C25.4843 9.34965 39.5323 8.3113 47.5457 16.3639L51.5818 20.4C69.5875 40.796 38.3763 72.0856 17.9019 54.0015L13.905 50.0046C5.87198 41.9716 6.89085 27.9431 16.1974 18.6366ZM33.6349 54.5696L36.1623 57.0971C35.4374 57.2735 34.7321 57.3909 34.0071 57.4889L31.558 55.0398C32.2633 54.9223 32.9295 54.7656 33.6349 54.5696ZM38.1216 56.5484L35.5354 53.9622C38.2391 52.9826 40.8645 51.4935 43.2744 49.5146L45.9391 52.1793C43.5879 54.0994 40.9429 55.6081 38.1216 56.5484ZM29.3441 55.3337L31.6364 57.6261C28.2274 57.6261 24.7397 56.6856 21.507 54.55C23.9757 55.2946 26.6403 55.5689 29.3441 55.3337ZM52.8553 32.0969L55.1868 34.4284C55.2455 30.8821 54.3051 27.3162 52.0911 23.9659C52.8553 26.5325 53.1101 29.2951 52.8553 32.0969ZM55.0105 36.7599L52.5419 34.2912C52.4047 34.9769 52.2479 35.6431 52.0325 36.3288L54.5992 38.8955C54.7754 38.1706 54.9126 37.4848 55.0105 36.7599ZM54.0308 40.8352L51.4249 38.2293C50.4453 40.8547 48.9954 43.4018 47.0558 45.7333L49.7204 48.398C51.6014 46.1252 53.0708 43.5586 54.0308 40.8352ZM48.5645 49.7498L45.8803 47.0656C45.4689 47.5162 45.0574 47.9277 44.6068 48.3391L47.291 51.0233L48.5645 49.7498ZM17.4513 19.8906C26.0329 11.309 38.9445 10.2705 46.2918 17.6178C53.6194 24.9455 52.6006 37.8767 44.019 46.4583C35.4178 55.0595 22.4867 56.0783 15.159 48.7506C7.81166 41.4034 8.8501 28.4918 17.4513 19.8906Z" fill="white" stroke="white" stroke-width="0.373333"/>
<path id="Vector_2" fill-rule="evenodd" clip-rule="evenodd" d="M18.7051 21.1445C26.6009 13.2487 38.3958 12.2299 45.0377 18.8718C51.6796 25.5137 50.6608 37.3085 42.765 45.2043C34.8495 53.1198 23.0546 54.1386 16.4127 47.4967C9.77084 40.8548 10.7896 29.06 18.7051 21.1445ZM19.9591 22.3984C27.1692 15.1883 37.8276 14.1696 43.7837 20.1257C49.7203 26.0623 48.7015 36.7207 41.4914 43.9308C34.2814 51.1409 23.6033 52.1794 17.6667 46.2428C11.7104 40.2865 12.7489 29.6086 19.9591 22.3984Z" fill="white" stroke="white" stroke-width="0.466667"/>
<g id="_2208333163104">
<path id="helium-hnt-logo.svg" d="M34.3566 24.7255C34.3566 22.7271 32.7304 21.1009 30.7319 21.1009C28.7335 21.1009 27.1073 22.7271 27.0877 24.7451C27.0877 25.4896 27.3229 26.1558 27.6756 26.7435C25.1677 27.88 23.5416 30.4074 23.5219 33.17C23.5415 35.9325 25.1873 38.4796 27.7148 39.5964C27.323 40.1841 27.1074 40.8699 27.1074 41.6144C27.1074 43.6128 28.7336 45.239 30.732 45.239C32.7305 45.239 34.3371 43.6324 34.3567 41.6144C34.3567 40.8699 34.1216 40.1645 33.7297 39.5768C34.5134 39.2241 35.2187 38.7539 35.8065 38.1661C37.0996 36.873 37.8833 35.0705 37.8637 33.17C37.8637 30.3879 36.2375 27.8995 33.7688 26.7632C34.1214 26.1753 34.3369 25.4897 34.3566 24.7255ZM28.2828 24.7255C28.3025 23.4128 29.38 22.3353 30.6927 22.3156C32.0054 22.3353 33.083 23.4128 33.1026 24.7255C33.0831 25.4896 32.75 26.1753 32.1426 26.626C32.1034 26.6652 32.0839 26.6848 32.0447 26.724C31.8879 26.8416 31.7312 27.0375 31.6528 27.2726C31.5157 27.6057 31.5549 27.9192 31.6724 28.2326C31.8096 28.5265 32.0643 28.7421 32.3778 28.8596C34.1411 29.5258 35.3559 31.2499 35.3558 33.17C35.3558 35.09 34.1411 36.8142 32.3581 37.5C32.0251 37.598 31.7899 37.8332 31.6528 38.127C31.5548 38.4209 31.5156 38.7343 31.6332 39.0479C31.7116 39.2439 31.8291 39.4398 31.9859 39.5573L32.0839 39.6552C32.6912 40.1059 33.0635 40.8309 33.0831 41.5949C33.0831 42.9273 32.0055 44.0048 30.6732 44.0048C30.0462 44.0048 29.4389 43.7501 28.9882 43.2994C28.5375 42.8488 28.2828 42.2415 28.2828 41.6145C28.2828 40.8309 28.6355 40.1647 29.2233 39.6944L29.2625 39.6552C29.3408 39.616 29.3996 39.5573 29.4584 39.4985C29.5759 39.381 29.6739 39.2439 29.7327 39.0675C29.8698 38.7344 29.8307 38.4209 29.7132 38.1466C29.576 37.8527 29.3213 37.598 29.0079 37.4804C27.2054 36.8143 25.9906 35.0901 25.9905 33.17C25.9904 31.2499 27.2053 29.5258 29.0079 28.8596C29.3213 28.7421 29.5565 28.5069 29.6936 28.213C29.8308 27.9192 29.8503 27.5861 29.7327 27.2725C29.6544 27.0374 29.478 26.8219 29.2821 26.6651C28.6746 26.2146 28.3025 25.4897 28.2828 24.7255Z" fill="white" stroke="white" stroke-width="0.466667"/>
<path id="helium-hnt-logo.svg_0" d="M33.3971 33.1699C33.3776 31.7005 32.202 30.5249 30.7325 30.5053C29.2631 30.5249 28.0875 31.7005 28.0679 33.1699C28.0679 34.6198 29.2631 35.815 30.7325 35.8346C32.202 35.815 33.3776 34.6394 33.3971 33.1699Z" fill="white" stroke="white" stroke-width="0.466667"/>
</g>
</g>
</g>
</svg>
